G04 #@! TF.GenerationSoftware,KiCad,Pcbnew,(5.1.7)-1*
G04 #@! TF.CreationDate,2021-03-01T18:39:25+01:00*
G04 #@! TF.ProjectId,Zeggreus,5a656767-7265-4757-932e-6b696361645f,rev?*
G04 #@! TF.SameCoordinates,Original*
G04 #@! TF.FileFunction,Paste,Top*
G04 #@! TF.FilePolarity,Positive*
%FSLAX46Y46*%
G04 Gerber Fmt 4.6, Leading zero omitted, Abs format (unit mm)*
G04 Created by KiCad (PCBNEW (5.1.7)-1) date 2021-03-01 18:39:25*
%MOMM*%
%LPD*%
G01*
G04 APERTURE LIST*
%ADD10R,1.000000X1.500000*%
%ADD11R,0.900000X0.800000*%
%ADD12R,1.100000X1.100000*%
%ADD13R,1.300000X1.700000*%
%ADD14R,0.500000X0.600000*%
%ADD15R,2.665000X4.190000*%
%ADD16R,1.780000X4.190000*%
%ADD17R,1.060000X0.650000*%
%ADD18R,0.500000X0.300000*%
%ADD19R,0.550000X0.550000*%
%ADD20R,1.850000X0.400000*%
%ADD21R,0.900000X1.625000*%
%ADD22R,1.900000X2.500000*%
%ADD23R,1.700000X2.100000*%
%ADD24R,0.675000X0.250000*%
%ADD25R,0.250000X0.675000*%
%ADD26R,0.650000X1.060000*%
%ADD27R,1.400000X1.200000*%
%ADD28R,0.500000X0.350000*%
G04 APERTURE END LIST*
G36*
G01*
X135825000Y-92050000D02*
X137175000Y-92050000D01*
G75*
G02*
X137450000Y-92325000I0J-275000D01*
G01*
X137450000Y-92875000D01*
G75*
G02*
X137175000Y-93150000I-275000J0D01*
G01*
X135825000Y-93150000D01*
G75*
G02*
X135550000Y-92875000I0J275000D01*
G01*
X135550000Y-92325000D01*
G75*
G02*
X135825000Y-92050000I275000J0D01*
G01*
G37*
G36*
G01*
X135825000Y-96200000D02*
X137175000Y-96200000D01*
G75*
G02*
X137450000Y-96475000I0J-275000D01*
G01*
X137450000Y-97025000D01*
G75*
G02*
X137175000Y-97300000I-275000J0D01*
G01*
X135825000Y-97300000D01*
G75*
G02*
X135550000Y-97025000I0J275000D01*
G01*
X135550000Y-96475000D01*
G75*
G02*
X135825000Y-96200000I275000J0D01*
G01*
G37*
D10*
X157816000Y-107752000D03*
X152816000Y-107752000D03*
X152816000Y-102032000D03*
X157816000Y-102032000D03*
X155316000Y-107752000D03*
X155316000Y-102032000D03*
G36*
G01*
X148325000Y-104900000D02*
X148875000Y-104900000D01*
G75*
G02*
X149075000Y-105100000I0J-200000D01*
G01*
X149075000Y-105500000D01*
G75*
G02*
X148875000Y-105700000I-200000J0D01*
G01*
X148325000Y-105700000D01*
G75*
G02*
X148125000Y-105500000I0J200000D01*
G01*
X148125000Y-105100000D01*
G75*
G02*
X148325000Y-104900000I200000J0D01*
G01*
G37*
G36*
G01*
X148325000Y-103250000D02*
X148875000Y-103250000D01*
G75*
G02*
X149075000Y-103450000I0J-200000D01*
G01*
X149075000Y-103850000D01*
G75*
G02*
X148875000Y-104050000I-200000J0D01*
G01*
X148325000Y-104050000D01*
G75*
G02*
X148125000Y-103850000I0J200000D01*
G01*
X148125000Y-103450000D01*
G75*
G02*
X148325000Y-103250000I200000J0D01*
G01*
G37*
D11*
X132500000Y-108750000D03*
X134500000Y-107800000D03*
X134500000Y-109700000D03*
D12*
X155750000Y-68850000D03*
X155750000Y-71650000D03*
D13*
X160400000Y-71500000D03*
X158600000Y-71500000D03*
X160400000Y-69100000D03*
X158600000Y-69100000D03*
D14*
X137760000Y-68920000D03*
X137760000Y-70020000D03*
X136960000Y-70020000D03*
X136960000Y-68920000D03*
G36*
G01*
X152366000Y-80717000D02*
X152866000Y-80717000D01*
G75*
G02*
X153091000Y-80942000I0J-225000D01*
G01*
X153091000Y-81392000D01*
G75*
G02*
X152866000Y-81617000I-225000J0D01*
G01*
X152366000Y-81617000D01*
G75*
G02*
X152141000Y-81392000I0J225000D01*
G01*
X152141000Y-80942000D01*
G75*
G02*
X152366000Y-80717000I225000J0D01*
G01*
G37*
G36*
G01*
X152366000Y-79167000D02*
X152866000Y-79167000D01*
G75*
G02*
X153091000Y-79392000I0J-225000D01*
G01*
X153091000Y-79842000D01*
G75*
G02*
X152866000Y-80067000I-225000J0D01*
G01*
X152366000Y-80067000D01*
G75*
G02*
X152141000Y-79842000I0J225000D01*
G01*
X152141000Y-79392000D01*
G75*
G02*
X152366000Y-79167000I225000J0D01*
G01*
G37*
G36*
G01*
X165175000Y-67600000D02*
X166525000Y-67600000D01*
G75*
G02*
X166800000Y-67875000I0J-275000D01*
G01*
X166800000Y-68425000D01*
G75*
G02*
X166525000Y-68700000I-275000J0D01*
G01*
X165175000Y-68700000D01*
G75*
G02*
X164900000Y-68425000I0J275000D01*
G01*
X164900000Y-67875000D01*
G75*
G02*
X165175000Y-67600000I275000J0D01*
G01*
G37*
G36*
G01*
X165175000Y-71750000D02*
X166525000Y-71750000D01*
G75*
G02*
X166800000Y-72025000I0J-275000D01*
G01*
X166800000Y-72575000D01*
G75*
G02*
X166525000Y-72850000I-275000J0D01*
G01*
X165175000Y-72850000D01*
G75*
G02*
X164900000Y-72575000I0J275000D01*
G01*
X164900000Y-72025000D01*
G75*
G02*
X165175000Y-71750000I275000J0D01*
G01*
G37*
D15*
X137195136Y-60542000D03*
D16*
X140687636Y-60542000D03*
D15*
X144180136Y-60542000D03*
D17*
X157466000Y-78542000D03*
X157466000Y-79492000D03*
X157466000Y-77592000D03*
X159666000Y-77592000D03*
X159666000Y-78542000D03*
X159666000Y-79492000D03*
D18*
X141037636Y-64470681D03*
D19*
X140687636Y-65070681D03*
X140687636Y-63870681D03*
D18*
X140337636Y-64470681D03*
G36*
G01*
X141026000Y-69032001D02*
X141026000Y-68361999D01*
G75*
G02*
X141275999Y-68112000I249999J0D01*
G01*
X141946001Y-68112000D01*
G75*
G02*
X142196000Y-68361999I0J-249999D01*
G01*
X142196000Y-69032001D01*
G75*
G02*
X141946001Y-69282000I-249999J0D01*
G01*
X141275999Y-69282000D01*
G75*
G02*
X141026000Y-69032001I0J249999D01*
G01*
G37*
G36*
G01*
X141026000Y-67682001D02*
X141026000Y-67011999D01*
G75*
G02*
X141275999Y-66762000I249999J0D01*
G01*
X141946001Y-66762000D01*
G75*
G02*
X142196000Y-67011999I0J-249999D01*
G01*
X142196000Y-67682001D01*
G75*
G02*
X141946001Y-67932000I-249999J0D01*
G01*
X141275999Y-67932000D01*
G75*
G02*
X141026000Y-67682001I0J249999D01*
G01*
G37*
G36*
G01*
X139676000Y-69032001D02*
X139676000Y-68361999D01*
G75*
G02*
X139925999Y-68112000I249999J0D01*
G01*
X140596001Y-68112000D01*
G75*
G02*
X140846000Y-68361999I0J-249999D01*
G01*
X140846000Y-69032001D01*
G75*
G02*
X140596001Y-69282000I-249999J0D01*
G01*
X139925999Y-69282000D01*
G75*
G02*
X139676000Y-69032001I0J249999D01*
G01*
G37*
G36*
G01*
X139676000Y-67682001D02*
X139676000Y-67011999D01*
G75*
G02*
X139925999Y-66762000I249999J0D01*
G01*
X140596001Y-66762000D01*
G75*
G02*
X140846000Y-67011999I0J-249999D01*
G01*
X140846000Y-67682001D01*
G75*
G02*
X140596001Y-67932000I-249999J0D01*
G01*
X139925999Y-67932000D01*
G75*
G02*
X139676000Y-67682001I0J249999D01*
G01*
G37*
G36*
G01*
X139561000Y-66409500D02*
X139561000Y-65709500D01*
G75*
G02*
X139623500Y-65647000I62500J0D01*
G01*
X139748500Y-65647000D01*
G75*
G02*
X139811000Y-65709500I0J-62500D01*
G01*
X139811000Y-66409500D01*
G75*
G02*
X139748500Y-66472000I-62500J0D01*
G01*
X139623500Y-66472000D01*
G75*
G02*
X139561000Y-66409500I0J62500D01*
G01*
G37*
G36*
G01*
X140061000Y-66409500D02*
X140061000Y-65709500D01*
G75*
G02*
X140123500Y-65647000I62500J0D01*
G01*
X140248500Y-65647000D01*
G75*
G02*
X140311000Y-65709500I0J-62500D01*
G01*
X140311000Y-66409500D01*
G75*
G02*
X140248500Y-66472000I-62500J0D01*
G01*
X140123500Y-66472000D01*
G75*
G02*
X140061000Y-66409500I0J62500D01*
G01*
G37*
G36*
G01*
X140561000Y-66409500D02*
X140561000Y-65709500D01*
G75*
G02*
X140623500Y-65647000I62500J0D01*
G01*
X140748500Y-65647000D01*
G75*
G02*
X140811000Y-65709500I0J-62500D01*
G01*
X140811000Y-66409500D01*
G75*
G02*
X140748500Y-66472000I-62500J0D01*
G01*
X140623500Y-66472000D01*
G75*
G02*
X140561000Y-66409500I0J62500D01*
G01*
G37*
G36*
G01*
X141061000Y-66409500D02*
X141061000Y-65709500D01*
G75*
G02*
X141123500Y-65647000I62500J0D01*
G01*
X141248500Y-65647000D01*
G75*
G02*
X141311000Y-65709500I0J-62500D01*
G01*
X141311000Y-66409500D01*
G75*
G02*
X141248500Y-66472000I-62500J0D01*
G01*
X141123500Y-66472000D01*
G75*
G02*
X141061000Y-66409500I0J62500D01*
G01*
G37*
G36*
G01*
X141561000Y-66409500D02*
X141561000Y-65709500D01*
G75*
G02*
X141623500Y-65647000I62500J0D01*
G01*
X141748500Y-65647000D01*
G75*
G02*
X141811000Y-65709500I0J-62500D01*
G01*
X141811000Y-66409500D01*
G75*
G02*
X141748500Y-66472000I-62500J0D01*
G01*
X141623500Y-66472000D01*
G75*
G02*
X141561000Y-66409500I0J62500D01*
G01*
G37*
G36*
G01*
X142061000Y-66409500D02*
X142061000Y-65709500D01*
G75*
G02*
X142123500Y-65647000I62500J0D01*
G01*
X142248500Y-65647000D01*
G75*
G02*
X142311000Y-65709500I0J-62500D01*
G01*
X142311000Y-66409500D01*
G75*
G02*
X142248500Y-66472000I-62500J0D01*
G01*
X142123500Y-66472000D01*
G75*
G02*
X142061000Y-66409500I0J62500D01*
G01*
G37*
G36*
G01*
X142486000Y-66834500D02*
X142486000Y-66709500D01*
G75*
G02*
X142548500Y-66647000I62500J0D01*
G01*
X143248500Y-66647000D01*
G75*
G02*
X143311000Y-66709500I0J-62500D01*
G01*
X143311000Y-66834500D01*
G75*
G02*
X143248500Y-66897000I-62500J0D01*
G01*
X142548500Y-66897000D01*
G75*
G02*
X142486000Y-66834500I0J62500D01*
G01*
G37*
G36*
G01*
X142486000Y-67334500D02*
X142486000Y-67209500D01*
G75*
G02*
X142548500Y-67147000I62500J0D01*
G01*
X143248500Y-67147000D01*
G75*
G02*
X143311000Y-67209500I0J-62500D01*
G01*
X143311000Y-67334500D01*
G75*
G02*
X143248500Y-67397000I-62500J0D01*
G01*
X142548500Y-67397000D01*
G75*
G02*
X142486000Y-67334500I0J62500D01*
G01*
G37*
G36*
G01*
X142486000Y-67834500D02*
X142486000Y-67709500D01*
G75*
G02*
X142548500Y-67647000I62500J0D01*
G01*
X143248500Y-67647000D01*
G75*
G02*
X143311000Y-67709500I0J-62500D01*
G01*
X143311000Y-67834500D01*
G75*
G02*
X143248500Y-67897000I-62500J0D01*
G01*
X142548500Y-67897000D01*
G75*
G02*
X142486000Y-67834500I0J62500D01*
G01*
G37*
G36*
G01*
X142486000Y-68334500D02*
X142486000Y-68209500D01*
G75*
G02*
X142548500Y-68147000I62500J0D01*
G01*
X143248500Y-68147000D01*
G75*
G02*
X143311000Y-68209500I0J-62500D01*
G01*
X143311000Y-68334500D01*
G75*
G02*
X143248500Y-68397000I-62500J0D01*
G01*
X142548500Y-68397000D01*
G75*
G02*
X142486000Y-68334500I0J62500D01*
G01*
G37*
G36*
G01*
X142486000Y-68834500D02*
X142486000Y-68709500D01*
G75*
G02*
X142548500Y-68647000I62500J0D01*
G01*
X143248500Y-68647000D01*
G75*
G02*
X143311000Y-68709500I0J-62500D01*
G01*
X143311000Y-68834500D01*
G75*
G02*
X143248500Y-68897000I-62500J0D01*
G01*
X142548500Y-68897000D01*
G75*
G02*
X142486000Y-68834500I0J62500D01*
G01*
G37*
G36*
G01*
X142486000Y-69334500D02*
X142486000Y-69209500D01*
G75*
G02*
X142548500Y-69147000I62500J0D01*
G01*
X143248500Y-69147000D01*
G75*
G02*
X143311000Y-69209500I0J-62500D01*
G01*
X143311000Y-69334500D01*
G75*
G02*
X143248500Y-69397000I-62500J0D01*
G01*
X142548500Y-69397000D01*
G75*
G02*
X142486000Y-69334500I0J62500D01*
G01*
G37*
G36*
G01*
X142061000Y-70334500D02*
X142061000Y-69634500D01*
G75*
G02*
X142123500Y-69572000I62500J0D01*
G01*
X142248500Y-69572000D01*
G75*
G02*
X142311000Y-69634500I0J-62500D01*
G01*
X142311000Y-70334500D01*
G75*
G02*
X142248500Y-70397000I-62500J0D01*
G01*
X142123500Y-70397000D01*
G75*
G02*
X142061000Y-70334500I0J62500D01*
G01*
G37*
G36*
G01*
X141561000Y-70334500D02*
X141561000Y-69634500D01*
G75*
G02*
X141623500Y-69572000I62500J0D01*
G01*
X141748500Y-69572000D01*
G75*
G02*
X141811000Y-69634500I0J-62500D01*
G01*
X141811000Y-70334500D01*
G75*
G02*
X141748500Y-70397000I-62500J0D01*
G01*
X141623500Y-70397000D01*
G75*
G02*
X141561000Y-70334500I0J62500D01*
G01*
G37*
G36*
G01*
X141061000Y-70334500D02*
X141061000Y-69634500D01*
G75*
G02*
X141123500Y-69572000I62500J0D01*
G01*
X141248500Y-69572000D01*
G75*
G02*
X141311000Y-69634500I0J-62500D01*
G01*
X141311000Y-70334500D01*
G75*
G02*
X141248500Y-70397000I-62500J0D01*
G01*
X141123500Y-70397000D01*
G75*
G02*
X141061000Y-70334500I0J62500D01*
G01*
G37*
G36*
G01*
X140561000Y-70334500D02*
X140561000Y-69634500D01*
G75*
G02*
X140623500Y-69572000I62500J0D01*
G01*
X140748500Y-69572000D01*
G75*
G02*
X140811000Y-69634500I0J-62500D01*
G01*
X140811000Y-70334500D01*
G75*
G02*
X140748500Y-70397000I-62500J0D01*
G01*
X140623500Y-70397000D01*
G75*
G02*
X140561000Y-70334500I0J62500D01*
G01*
G37*
G36*
G01*
X140061000Y-70334500D02*
X140061000Y-69634500D01*
G75*
G02*
X140123500Y-69572000I62500J0D01*
G01*
X140248500Y-69572000D01*
G75*
G02*
X140311000Y-69634500I0J-62500D01*
G01*
X140311000Y-70334500D01*
G75*
G02*
X140248500Y-70397000I-62500J0D01*
G01*
X140123500Y-70397000D01*
G75*
G02*
X140061000Y-70334500I0J62500D01*
G01*
G37*
G36*
G01*
X139561000Y-70334500D02*
X139561000Y-69634500D01*
G75*
G02*
X139623500Y-69572000I62500J0D01*
G01*
X139748500Y-69572000D01*
G75*
G02*
X139811000Y-69634500I0J-62500D01*
G01*
X139811000Y-70334500D01*
G75*
G02*
X139748500Y-70397000I-62500J0D01*
G01*
X139623500Y-70397000D01*
G75*
G02*
X139561000Y-70334500I0J62500D01*
G01*
G37*
G36*
G01*
X138561000Y-69334500D02*
X138561000Y-69209500D01*
G75*
G02*
X138623500Y-69147000I62500J0D01*
G01*
X139323500Y-69147000D01*
G75*
G02*
X139386000Y-69209500I0J-62500D01*
G01*
X139386000Y-69334500D01*
G75*
G02*
X139323500Y-69397000I-62500J0D01*
G01*
X138623500Y-69397000D01*
G75*
G02*
X138561000Y-69334500I0J62500D01*
G01*
G37*
G36*
G01*
X138561000Y-68834500D02*
X138561000Y-68709500D01*
G75*
G02*
X138623500Y-68647000I62500J0D01*
G01*
X139323500Y-68647000D01*
G75*
G02*
X139386000Y-68709500I0J-62500D01*
G01*
X139386000Y-68834500D01*
G75*
G02*
X139323500Y-68897000I-62500J0D01*
G01*
X138623500Y-68897000D01*
G75*
G02*
X138561000Y-68834500I0J62500D01*
G01*
G37*
G36*
G01*
X138561000Y-68334500D02*
X138561000Y-68209500D01*
G75*
G02*
X138623500Y-68147000I62500J0D01*
G01*
X139323500Y-68147000D01*
G75*
G02*
X139386000Y-68209500I0J-62500D01*
G01*
X139386000Y-68334500D01*
G75*
G02*
X139323500Y-68397000I-62500J0D01*
G01*
X138623500Y-68397000D01*
G75*
G02*
X138561000Y-68334500I0J62500D01*
G01*
G37*
G36*
G01*
X138561000Y-67834500D02*
X138561000Y-67709500D01*
G75*
G02*
X138623500Y-67647000I62500J0D01*
G01*
X139323500Y-67647000D01*
G75*
G02*
X139386000Y-67709500I0J-62500D01*
G01*
X139386000Y-67834500D01*
G75*
G02*
X139323500Y-67897000I-62500J0D01*
G01*
X138623500Y-67897000D01*
G75*
G02*
X138561000Y-67834500I0J62500D01*
G01*
G37*
G36*
G01*
X138561000Y-67334500D02*
X138561000Y-67209500D01*
G75*
G02*
X138623500Y-67147000I62500J0D01*
G01*
X139323500Y-67147000D01*
G75*
G02*
X139386000Y-67209500I0J-62500D01*
G01*
X139386000Y-67334500D01*
G75*
G02*
X139323500Y-67397000I-62500J0D01*
G01*
X138623500Y-67397000D01*
G75*
G02*
X138561000Y-67334500I0J62500D01*
G01*
G37*
G36*
G01*
X138561000Y-66834500D02*
X138561000Y-66709500D01*
G75*
G02*
X138623500Y-66647000I62500J0D01*
G01*
X139323500Y-66647000D01*
G75*
G02*
X139386000Y-66709500I0J-62500D01*
G01*
X139386000Y-66834500D01*
G75*
G02*
X139323500Y-66897000I-62500J0D01*
G01*
X138623500Y-66897000D01*
G75*
G02*
X138561000Y-66834500I0J62500D01*
G01*
G37*
G36*
G01*
X136816000Y-65852000D02*
X136816000Y-66192000D01*
G75*
G02*
X136676000Y-66332000I-140000J0D01*
G01*
X136396000Y-66332000D01*
G75*
G02*
X136256000Y-66192000I0J140000D01*
G01*
X136256000Y-65852000D01*
G75*
G02*
X136396000Y-65712000I140000J0D01*
G01*
X136676000Y-65712000D01*
G75*
G02*
X136816000Y-65852000I0J-140000D01*
G01*
G37*
G36*
G01*
X137776000Y-65852000D02*
X137776000Y-66192000D01*
G75*
G02*
X137636000Y-66332000I-140000J0D01*
G01*
X137356000Y-66332000D01*
G75*
G02*
X137216000Y-66192000I0J140000D01*
G01*
X137216000Y-65852000D01*
G75*
G02*
X137356000Y-65712000I140000J0D01*
G01*
X137636000Y-65712000D01*
G75*
G02*
X137776000Y-65852000I0J-140000D01*
G01*
G37*
G36*
G01*
X142686000Y-72597000D02*
X143186000Y-72597000D01*
G75*
G02*
X143411000Y-72822000I0J-225000D01*
G01*
X143411000Y-73272000D01*
G75*
G02*
X143186000Y-73497000I-225000J0D01*
G01*
X142686000Y-73497000D01*
G75*
G02*
X142461000Y-73272000I0J225000D01*
G01*
X142461000Y-72822000D01*
G75*
G02*
X142686000Y-72597000I225000J0D01*
G01*
G37*
G36*
G01*
X142686000Y-71047000D02*
X143186000Y-71047000D01*
G75*
G02*
X143411000Y-71272000I0J-225000D01*
G01*
X143411000Y-71722000D01*
G75*
G02*
X143186000Y-71947000I-225000J0D01*
G01*
X142686000Y-71947000D01*
G75*
G02*
X142461000Y-71722000I0J225000D01*
G01*
X142461000Y-71272000D01*
G75*
G02*
X142686000Y-71047000I225000J0D01*
G01*
G37*
G36*
G01*
X141186000Y-72597000D02*
X141686000Y-72597000D01*
G75*
G02*
X141911000Y-72822000I0J-225000D01*
G01*
X141911000Y-73272000D01*
G75*
G02*
X141686000Y-73497000I-225000J0D01*
G01*
X141186000Y-73497000D01*
G75*
G02*
X140961000Y-73272000I0J225000D01*
G01*
X140961000Y-72822000D01*
G75*
G02*
X141186000Y-72597000I225000J0D01*
G01*
G37*
G36*
G01*
X141186000Y-71047000D02*
X141686000Y-71047000D01*
G75*
G02*
X141911000Y-71272000I0J-225000D01*
G01*
X141911000Y-71722000D01*
G75*
G02*
X141686000Y-71947000I-225000J0D01*
G01*
X141186000Y-71947000D01*
G75*
G02*
X140961000Y-71722000I0J225000D01*
G01*
X140961000Y-71272000D01*
G75*
G02*
X141186000Y-71047000I225000J0D01*
G01*
G37*
G36*
G01*
X144266000Y-69572000D02*
X144766000Y-69572000D01*
G75*
G02*
X144991000Y-69797000I0J-225000D01*
G01*
X144991000Y-70247000D01*
G75*
G02*
X144766000Y-70472000I-225000J0D01*
G01*
X144266000Y-70472000D01*
G75*
G02*
X144041000Y-70247000I0J225000D01*
G01*
X144041000Y-69797000D01*
G75*
G02*
X144266000Y-69572000I225000J0D01*
G01*
G37*
G36*
G01*
X144266000Y-68022000D02*
X144766000Y-68022000D01*
G75*
G02*
X144991000Y-68247000I0J-225000D01*
G01*
X144991000Y-68697000D01*
G75*
G02*
X144766000Y-68922000I-225000J0D01*
G01*
X144266000Y-68922000D01*
G75*
G02*
X144041000Y-68697000I0J225000D01*
G01*
X144041000Y-68247000D01*
G75*
G02*
X144266000Y-68022000I225000J0D01*
G01*
G37*
G36*
G01*
X137216000Y-67192000D02*
X137216000Y-66852000D01*
G75*
G02*
X137356000Y-66712000I140000J0D01*
G01*
X137636000Y-66712000D01*
G75*
G02*
X137776000Y-66852000I0J-140000D01*
G01*
X137776000Y-67192000D01*
G75*
G02*
X137636000Y-67332000I-140000J0D01*
G01*
X137356000Y-67332000D01*
G75*
G02*
X137216000Y-67192000I0J140000D01*
G01*
G37*
G36*
G01*
X136256000Y-67192000D02*
X136256000Y-66852000D01*
G75*
G02*
X136396000Y-66712000I140000J0D01*
G01*
X136676000Y-66712000D01*
G75*
G02*
X136816000Y-66852000I0J-140000D01*
G01*
X136816000Y-67192000D01*
G75*
G02*
X136676000Y-67332000I-140000J0D01*
G01*
X136396000Y-67332000D01*
G75*
G02*
X136256000Y-67192000I0J140000D01*
G01*
G37*
D20*
X163891000Y-79492000D03*
X163891000Y-78842000D03*
X163891000Y-76892000D03*
X163891000Y-77542000D03*
D21*
X164366000Y-81429500D03*
X164366000Y-74954500D03*
D13*
X166716000Y-81467000D03*
X166716000Y-74917000D03*
D20*
X163891000Y-78192000D03*
D22*
X146716000Y-109492000D03*
X142616000Y-109492000D03*
D23*
X153000000Y-72192000D03*
X149500000Y-72192000D03*
X153000000Y-68392000D03*
G36*
G01*
X138666000Y-106317000D02*
X138666000Y-105367000D01*
G75*
G02*
X138916000Y-105117000I250000J0D01*
G01*
X139416000Y-105117000D01*
G75*
G02*
X139666000Y-105367000I0J-250000D01*
G01*
X139666000Y-106317000D01*
G75*
G02*
X139416000Y-106567000I-250000J0D01*
G01*
X138916000Y-106567000D01*
G75*
G02*
X138666000Y-106317000I0J250000D01*
G01*
G37*
G36*
G01*
X136766000Y-106317000D02*
X136766000Y-105367000D01*
G75*
G02*
X137016000Y-105117000I250000J0D01*
G01*
X137516000Y-105117000D01*
G75*
G02*
X137766000Y-105367000I0J-250000D01*
G01*
X137766000Y-106317000D01*
G75*
G02*
X137516000Y-106567000I-250000J0D01*
G01*
X137016000Y-106567000D01*
G75*
G02*
X136766000Y-106317000I0J250000D01*
G01*
G37*
G36*
G01*
X148966000Y-115017000D02*
X148966000Y-115967000D01*
G75*
G02*
X148716000Y-116217000I-250000J0D01*
G01*
X148216000Y-116217000D01*
G75*
G02*
X147966000Y-115967000I0J250000D01*
G01*
X147966000Y-115017000D01*
G75*
G02*
X148216000Y-114767000I250000J0D01*
G01*
X148716000Y-114767000D01*
G75*
G02*
X148966000Y-115017000I0J-250000D01*
G01*
G37*
G36*
G01*
X147066000Y-115017000D02*
X147066000Y-115967000D01*
G75*
G02*
X146816000Y-116217000I-250000J0D01*
G01*
X146316000Y-116217000D01*
G75*
G02*
X146066000Y-115967000I0J250000D01*
G01*
X146066000Y-115017000D01*
G75*
G02*
X146316000Y-114767000I250000J0D01*
G01*
X146816000Y-114767000D01*
G75*
G02*
X147066000Y-115017000I0J-250000D01*
G01*
G37*
G36*
G01*
X146066000Y-113967000D02*
X146066000Y-113017000D01*
G75*
G02*
X146316000Y-112767000I250000J0D01*
G01*
X146816000Y-112767000D01*
G75*
G02*
X147066000Y-113017000I0J-250000D01*
G01*
X147066000Y-113967000D01*
G75*
G02*
X146816000Y-114217000I-250000J0D01*
G01*
X146316000Y-114217000D01*
G75*
G02*
X146066000Y-113967000I0J250000D01*
G01*
G37*
G36*
G01*
X147966000Y-113967000D02*
X147966000Y-113017000D01*
G75*
G02*
X148216000Y-112767000I250000J0D01*
G01*
X148716000Y-112767000D01*
G75*
G02*
X148966000Y-113017000I0J-250000D01*
G01*
X148966000Y-113967000D01*
G75*
G02*
X148716000Y-114217000I-250000J0D01*
G01*
X148216000Y-114217000D01*
G75*
G02*
X147966000Y-113967000I0J250000D01*
G01*
G37*
G36*
G01*
X137766000Y-107567000D02*
X137766000Y-108517000D01*
G75*
G02*
X137516000Y-108767000I-250000J0D01*
G01*
X137016000Y-108767000D01*
G75*
G02*
X136766000Y-108517000I0J250000D01*
G01*
X136766000Y-107567000D01*
G75*
G02*
X137016000Y-107317000I250000J0D01*
G01*
X137516000Y-107317000D01*
G75*
G02*
X137766000Y-107567000I0J-250000D01*
G01*
G37*
G36*
G01*
X139666000Y-107567000D02*
X139666000Y-108517000D01*
G75*
G02*
X139416000Y-108767000I-250000J0D01*
G01*
X138916000Y-108767000D01*
G75*
G02*
X138666000Y-108517000I0J250000D01*
G01*
X138666000Y-107567000D01*
G75*
G02*
X138916000Y-107317000I250000J0D01*
G01*
X139416000Y-107317000D01*
G75*
G02*
X139666000Y-107567000I0J-250000D01*
G01*
G37*
D12*
X161600000Y-93202000D03*
X161600000Y-90402000D03*
G36*
G01*
X162325000Y-96925000D02*
X161075000Y-96925000D01*
G75*
G02*
X160825000Y-96675000I0J250000D01*
G01*
X160825000Y-95925000D01*
G75*
G02*
X161075000Y-95675000I250000J0D01*
G01*
X162325000Y-95675000D01*
G75*
G02*
X162575000Y-95925000I0J-250000D01*
G01*
X162575000Y-96675000D01*
G75*
G02*
X162325000Y-96925000I-250000J0D01*
G01*
G37*
G36*
G01*
X162325000Y-99725000D02*
X161075000Y-99725000D01*
G75*
G02*
X160825000Y-99475000I0J250000D01*
G01*
X160825000Y-98725000D01*
G75*
G02*
X161075000Y-98475000I250000J0D01*
G01*
X162325000Y-98475000D01*
G75*
G02*
X162575000Y-98725000I0J-250000D01*
G01*
X162575000Y-99475000D01*
G75*
G02*
X162325000Y-99725000I-250000J0D01*
G01*
G37*
G36*
G01*
X142603500Y-84342000D02*
X142603500Y-83842000D01*
G75*
G02*
X142828500Y-83617000I225000J0D01*
G01*
X143278500Y-83617000D01*
G75*
G02*
X143503500Y-83842000I0J-225000D01*
G01*
X143503500Y-84342000D01*
G75*
G02*
X143278500Y-84567000I-225000J0D01*
G01*
X142828500Y-84567000D01*
G75*
G02*
X142603500Y-84342000I0J225000D01*
G01*
G37*
G36*
G01*
X141053500Y-84342000D02*
X141053500Y-83842000D01*
G75*
G02*
X141278500Y-83617000I225000J0D01*
G01*
X141728500Y-83617000D01*
G75*
G02*
X141953500Y-83842000I0J-225000D01*
G01*
X141953500Y-84342000D01*
G75*
G02*
X141728500Y-84567000I-225000J0D01*
G01*
X141278500Y-84567000D01*
G75*
G02*
X141053500Y-84342000I0J225000D01*
G01*
G37*
G36*
G01*
X156378500Y-85842000D02*
X156378500Y-86342000D01*
G75*
G02*
X156153500Y-86567000I-225000J0D01*
G01*
X155703500Y-86567000D01*
G75*
G02*
X155478500Y-86342000I0J225000D01*
G01*
X155478500Y-85842000D01*
G75*
G02*
X155703500Y-85617000I225000J0D01*
G01*
X156153500Y-85617000D01*
G75*
G02*
X156378500Y-85842000I0J-225000D01*
G01*
G37*
G36*
G01*
X157928500Y-85842000D02*
X157928500Y-86342000D01*
G75*
G02*
X157703500Y-86567000I-225000J0D01*
G01*
X157253500Y-86567000D01*
G75*
G02*
X157028500Y-86342000I0J225000D01*
G01*
X157028500Y-85842000D01*
G75*
G02*
X157253500Y-85617000I225000J0D01*
G01*
X157703500Y-85617000D01*
G75*
G02*
X157928500Y-85842000I0J-225000D01*
G01*
G37*
G36*
G01*
X140403500Y-94417000D02*
X140903500Y-94417000D01*
G75*
G02*
X141128500Y-94642000I0J-225000D01*
G01*
X141128500Y-95092000D01*
G75*
G02*
X140903500Y-95317000I-225000J0D01*
G01*
X140403500Y-95317000D01*
G75*
G02*
X140178500Y-95092000I0J225000D01*
G01*
X140178500Y-94642000D01*
G75*
G02*
X140403500Y-94417000I225000J0D01*
G01*
G37*
G36*
G01*
X140403500Y-92867000D02*
X140903500Y-92867000D01*
G75*
G02*
X141128500Y-93092000I0J-225000D01*
G01*
X141128500Y-93542000D01*
G75*
G02*
X140903500Y-93767000I-225000J0D01*
G01*
X140403500Y-93767000D01*
G75*
G02*
X140178500Y-93542000I0J225000D01*
G01*
X140178500Y-93092000D01*
G75*
G02*
X140403500Y-92867000I225000J0D01*
G01*
G37*
G36*
G01*
X156378500Y-87342000D02*
X156378500Y-87842000D01*
G75*
G02*
X156153500Y-88067000I-225000J0D01*
G01*
X155703500Y-88067000D01*
G75*
G02*
X155478500Y-87842000I0J225000D01*
G01*
X155478500Y-87342000D01*
G75*
G02*
X155703500Y-87117000I225000J0D01*
G01*
X156153500Y-87117000D01*
G75*
G02*
X156378500Y-87342000I0J-225000D01*
G01*
G37*
G36*
G01*
X157928500Y-87342000D02*
X157928500Y-87842000D01*
G75*
G02*
X157703500Y-88067000I-225000J0D01*
G01*
X157253500Y-88067000D01*
G75*
G02*
X157028500Y-87842000I0J225000D01*
G01*
X157028500Y-87342000D01*
G75*
G02*
X157253500Y-87117000I225000J0D01*
G01*
X157703500Y-87117000D01*
G75*
G02*
X157928500Y-87342000I0J-225000D01*
G01*
G37*
D24*
X149716000Y-77792000D03*
X149716000Y-78292000D03*
X149716000Y-78792000D03*
X149716000Y-79292000D03*
X147191000Y-79292000D03*
X147191000Y-78792000D03*
X147191000Y-78292000D03*
X147191000Y-77792000D03*
D25*
X148953500Y-79554500D03*
X148453500Y-79554500D03*
X147953500Y-79554500D03*
X148953500Y-77529500D03*
X147953500Y-77529500D03*
X148453500Y-77529500D03*
G36*
G01*
X147475000Y-103393750D02*
X147475000Y-103906250D01*
G75*
G02*
X147256250Y-104125000I-218750J0D01*
G01*
X146818750Y-104125000D01*
G75*
G02*
X146600000Y-103906250I0J218750D01*
G01*
X146600000Y-103393750D01*
G75*
G02*
X146818750Y-103175000I218750J0D01*
G01*
X147256250Y-103175000D01*
G75*
G02*
X147475000Y-103393750I0J-218750D01*
G01*
G37*
G36*
G01*
X145900000Y-103393750D02*
X145900000Y-103906250D01*
G75*
G02*
X145681250Y-104125000I-218750J0D01*
G01*
X145243750Y-104125000D01*
G75*
G02*
X145025000Y-103906250I0J218750D01*
G01*
X145025000Y-103393750D01*
G75*
G02*
X145243750Y-103175000I218750J0D01*
G01*
X145681250Y-103175000D01*
G75*
G02*
X145900000Y-103393750I0J-218750D01*
G01*
G37*
G36*
G01*
X144428500Y-103385750D02*
X144428500Y-103898250D01*
G75*
G02*
X144209750Y-104117000I-218750J0D01*
G01*
X143772250Y-104117000D01*
G75*
G02*
X143553500Y-103898250I0J218750D01*
G01*
X143553500Y-103385750D01*
G75*
G02*
X143772250Y-103167000I218750J0D01*
G01*
X144209750Y-103167000D01*
G75*
G02*
X144428500Y-103385750I0J-218750D01*
G01*
G37*
G36*
G01*
X142853500Y-103385750D02*
X142853500Y-103898250D01*
G75*
G02*
X142634750Y-104117000I-218750J0D01*
G01*
X142197250Y-104117000D01*
G75*
G02*
X141978500Y-103898250I0J218750D01*
G01*
X141978500Y-103385750D01*
G75*
G02*
X142197250Y-103167000I218750J0D01*
G01*
X142634750Y-103167000D01*
G75*
G02*
X142853500Y-103385750I0J-218750D01*
G01*
G37*
G36*
G01*
X143478500Y-94242000D02*
X142078500Y-94242000D01*
G75*
G02*
X142003500Y-94167000I0J75000D01*
G01*
X142003500Y-94017000D01*
G75*
G02*
X142078500Y-93942000I75000J0D01*
G01*
X143478500Y-93942000D01*
G75*
G02*
X143553500Y-94017000I0J-75000D01*
G01*
X143553500Y-94167000D01*
G75*
G02*
X143478500Y-94242000I-75000J0D01*
G01*
G37*
G36*
G01*
X143478500Y-93742000D02*
X142078500Y-93742000D01*
G75*
G02*
X142003500Y-93667000I0J75000D01*
G01*
X142003500Y-93517000D01*
G75*
G02*
X142078500Y-93442000I75000J0D01*
G01*
X143478500Y-93442000D01*
G75*
G02*
X143553500Y-93517000I0J-75000D01*
G01*
X143553500Y-93667000D01*
G75*
G02*
X143478500Y-93742000I-75000J0D01*
G01*
G37*
G36*
G01*
X143478500Y-93242000D02*
X142078500Y-93242000D01*
G75*
G02*
X142003500Y-93167000I0J75000D01*
G01*
X142003500Y-93017000D01*
G75*
G02*
X142078500Y-92942000I75000J0D01*
G01*
X143478500Y-92942000D01*
G75*
G02*
X143553500Y-93017000I0J-75000D01*
G01*
X143553500Y-93167000D01*
G75*
G02*
X143478500Y-93242000I-75000J0D01*
G01*
G37*
G36*
G01*
X143478500Y-92742000D02*
X142078500Y-92742000D01*
G75*
G02*
X142003500Y-92667000I0J75000D01*
G01*
X142003500Y-92517000D01*
G75*
G02*
X142078500Y-92442000I75000J0D01*
G01*
X143478500Y-92442000D01*
G75*
G02*
X143553500Y-92517000I0J-75000D01*
G01*
X143553500Y-92667000D01*
G75*
G02*
X143478500Y-92742000I-75000J0D01*
G01*
G37*
G36*
G01*
X143478500Y-92242000D02*
X142078500Y-92242000D01*
G75*
G02*
X142003500Y-92167000I0J75000D01*
G01*
X142003500Y-92017000D01*
G75*
G02*
X142078500Y-91942000I75000J0D01*
G01*
X143478500Y-91942000D01*
G75*
G02*
X143553500Y-92017000I0J-75000D01*
G01*
X143553500Y-92167000D01*
G75*
G02*
X143478500Y-92242000I-75000J0D01*
G01*
G37*
G36*
G01*
X143478500Y-91742000D02*
X142078500Y-91742000D01*
G75*
G02*
X142003500Y-91667000I0J75000D01*
G01*
X142003500Y-91517000D01*
G75*
G02*
X142078500Y-91442000I75000J0D01*
G01*
X143478500Y-91442000D01*
G75*
G02*
X143553500Y-91517000I0J-75000D01*
G01*
X143553500Y-91667000D01*
G75*
G02*
X143478500Y-91742000I-75000J0D01*
G01*
G37*
G36*
G01*
X143478500Y-91242000D02*
X142078500Y-91242000D01*
G75*
G02*
X142003500Y-91167000I0J75000D01*
G01*
X142003500Y-91017000D01*
G75*
G02*
X142078500Y-90942000I75000J0D01*
G01*
X143478500Y-90942000D01*
G75*
G02*
X143553500Y-91017000I0J-75000D01*
G01*
X143553500Y-91167000D01*
G75*
G02*
X143478500Y-91242000I-75000J0D01*
G01*
G37*
G36*
G01*
X143478500Y-90742000D02*
X142078500Y-90742000D01*
G75*
G02*
X142003500Y-90667000I0J75000D01*
G01*
X142003500Y-90517000D01*
G75*
G02*
X142078500Y-90442000I75000J0D01*
G01*
X143478500Y-90442000D01*
G75*
G02*
X143553500Y-90517000I0J-75000D01*
G01*
X143553500Y-90667000D01*
G75*
G02*
X143478500Y-90742000I-75000J0D01*
G01*
G37*
G36*
G01*
X143478500Y-90242000D02*
X142078500Y-90242000D01*
G75*
G02*
X142003500Y-90167000I0J75000D01*
G01*
X142003500Y-90017000D01*
G75*
G02*
X142078500Y-89942000I75000J0D01*
G01*
X143478500Y-89942000D01*
G75*
G02*
X143553500Y-90017000I0J-75000D01*
G01*
X143553500Y-90167000D01*
G75*
G02*
X143478500Y-90242000I-75000J0D01*
G01*
G37*
G36*
G01*
X143478500Y-89742000D02*
X142078500Y-89742000D01*
G75*
G02*
X142003500Y-89667000I0J75000D01*
G01*
X142003500Y-89517000D01*
G75*
G02*
X142078500Y-89442000I75000J0D01*
G01*
X143478500Y-89442000D01*
G75*
G02*
X143553500Y-89517000I0J-75000D01*
G01*
X143553500Y-89667000D01*
G75*
G02*
X143478500Y-89742000I-75000J0D01*
G01*
G37*
G36*
G01*
X143478500Y-89242000D02*
X142078500Y-89242000D01*
G75*
G02*
X142003500Y-89167000I0J75000D01*
G01*
X142003500Y-89017000D01*
G75*
G02*
X142078500Y-88942000I75000J0D01*
G01*
X143478500Y-88942000D01*
G75*
G02*
X143553500Y-89017000I0J-75000D01*
G01*
X143553500Y-89167000D01*
G75*
G02*
X143478500Y-89242000I-75000J0D01*
G01*
G37*
G36*
G01*
X143478500Y-88742000D02*
X142078500Y-88742000D01*
G75*
G02*
X142003500Y-88667000I0J75000D01*
G01*
X142003500Y-88517000D01*
G75*
G02*
X142078500Y-88442000I75000J0D01*
G01*
X143478500Y-88442000D01*
G75*
G02*
X143553500Y-88517000I0J-75000D01*
G01*
X143553500Y-88667000D01*
G75*
G02*
X143478500Y-88742000I-75000J0D01*
G01*
G37*
G36*
G01*
X143478500Y-88242000D02*
X142078500Y-88242000D01*
G75*
G02*
X142003500Y-88167000I0J75000D01*
G01*
X142003500Y-88017000D01*
G75*
G02*
X142078500Y-87942000I75000J0D01*
G01*
X143478500Y-87942000D01*
G75*
G02*
X143553500Y-88017000I0J-75000D01*
G01*
X143553500Y-88167000D01*
G75*
G02*
X143478500Y-88242000I-75000J0D01*
G01*
G37*
G36*
G01*
X143478500Y-87742000D02*
X142078500Y-87742000D01*
G75*
G02*
X142003500Y-87667000I0J75000D01*
G01*
X142003500Y-87517000D01*
G75*
G02*
X142078500Y-87442000I75000J0D01*
G01*
X143478500Y-87442000D01*
G75*
G02*
X143553500Y-87517000I0J-75000D01*
G01*
X143553500Y-87667000D01*
G75*
G02*
X143478500Y-87742000I-75000J0D01*
G01*
G37*
G36*
G01*
X143478500Y-87242000D02*
X142078500Y-87242000D01*
G75*
G02*
X142003500Y-87167000I0J75000D01*
G01*
X142003500Y-87017000D01*
G75*
G02*
X142078500Y-86942000I75000J0D01*
G01*
X143478500Y-86942000D01*
G75*
G02*
X143553500Y-87017000I0J-75000D01*
G01*
X143553500Y-87167000D01*
G75*
G02*
X143478500Y-87242000I-75000J0D01*
G01*
G37*
G36*
G01*
X143478500Y-86742000D02*
X142078500Y-86742000D01*
G75*
G02*
X142003500Y-86667000I0J75000D01*
G01*
X142003500Y-86517000D01*
G75*
G02*
X142078500Y-86442000I75000J0D01*
G01*
X143478500Y-86442000D01*
G75*
G02*
X143553500Y-86517000I0J-75000D01*
G01*
X143553500Y-86667000D01*
G75*
G02*
X143478500Y-86742000I-75000J0D01*
G01*
G37*
G36*
G01*
X144778500Y-85442000D02*
X144628500Y-85442000D01*
G75*
G02*
X144553500Y-85367000I0J75000D01*
G01*
X144553500Y-83967000D01*
G75*
G02*
X144628500Y-83892000I75000J0D01*
G01*
X144778500Y-83892000D01*
G75*
G02*
X144853500Y-83967000I0J-75000D01*
G01*
X144853500Y-85367000D01*
G75*
G02*
X144778500Y-85442000I-75000J0D01*
G01*
G37*
G36*
G01*
X145278500Y-85442000D02*
X145128500Y-85442000D01*
G75*
G02*
X145053500Y-85367000I0J75000D01*
G01*
X145053500Y-83967000D01*
G75*
G02*
X145128500Y-83892000I75000J0D01*
G01*
X145278500Y-83892000D01*
G75*
G02*
X145353500Y-83967000I0J-75000D01*
G01*
X145353500Y-85367000D01*
G75*
G02*
X145278500Y-85442000I-75000J0D01*
G01*
G37*
G36*
G01*
X145778500Y-85442000D02*
X145628500Y-85442000D01*
G75*
G02*
X145553500Y-85367000I0J75000D01*
G01*
X145553500Y-83967000D01*
G75*
G02*
X145628500Y-83892000I75000J0D01*
G01*
X145778500Y-83892000D01*
G75*
G02*
X145853500Y-83967000I0J-75000D01*
G01*
X145853500Y-85367000D01*
G75*
G02*
X145778500Y-85442000I-75000J0D01*
G01*
G37*
G36*
G01*
X146278500Y-85442000D02*
X146128500Y-85442000D01*
G75*
G02*
X146053500Y-85367000I0J75000D01*
G01*
X146053500Y-83967000D01*
G75*
G02*
X146128500Y-83892000I75000J0D01*
G01*
X146278500Y-83892000D01*
G75*
G02*
X146353500Y-83967000I0J-75000D01*
G01*
X146353500Y-85367000D01*
G75*
G02*
X146278500Y-85442000I-75000J0D01*
G01*
G37*
G36*
G01*
X146778500Y-85442000D02*
X146628500Y-85442000D01*
G75*
G02*
X146553500Y-85367000I0J75000D01*
G01*
X146553500Y-83967000D01*
G75*
G02*
X146628500Y-83892000I75000J0D01*
G01*
X146778500Y-83892000D01*
G75*
G02*
X146853500Y-83967000I0J-75000D01*
G01*
X146853500Y-85367000D01*
G75*
G02*
X146778500Y-85442000I-75000J0D01*
G01*
G37*
G36*
G01*
X147278500Y-85442000D02*
X147128500Y-85442000D01*
G75*
G02*
X147053500Y-85367000I0J75000D01*
G01*
X147053500Y-83967000D01*
G75*
G02*
X147128500Y-83892000I75000J0D01*
G01*
X147278500Y-83892000D01*
G75*
G02*
X147353500Y-83967000I0J-75000D01*
G01*
X147353500Y-85367000D01*
G75*
G02*
X147278500Y-85442000I-75000J0D01*
G01*
G37*
G36*
G01*
X147778500Y-85442000D02*
X147628500Y-85442000D01*
G75*
G02*
X147553500Y-85367000I0J75000D01*
G01*
X147553500Y-83967000D01*
G75*
G02*
X147628500Y-83892000I75000J0D01*
G01*
X147778500Y-83892000D01*
G75*
G02*
X147853500Y-83967000I0J-75000D01*
G01*
X147853500Y-85367000D01*
G75*
G02*
X147778500Y-85442000I-75000J0D01*
G01*
G37*
G36*
G01*
X148278500Y-85442000D02*
X148128500Y-85442000D01*
G75*
G02*
X148053500Y-85367000I0J75000D01*
G01*
X148053500Y-83967000D01*
G75*
G02*
X148128500Y-83892000I75000J0D01*
G01*
X148278500Y-83892000D01*
G75*
G02*
X148353500Y-83967000I0J-75000D01*
G01*
X148353500Y-85367000D01*
G75*
G02*
X148278500Y-85442000I-75000J0D01*
G01*
G37*
G36*
G01*
X148778500Y-85442000D02*
X148628500Y-85442000D01*
G75*
G02*
X148553500Y-85367000I0J75000D01*
G01*
X148553500Y-83967000D01*
G75*
G02*
X148628500Y-83892000I75000J0D01*
G01*
X148778500Y-83892000D01*
G75*
G02*
X148853500Y-83967000I0J-75000D01*
G01*
X148853500Y-85367000D01*
G75*
G02*
X148778500Y-85442000I-75000J0D01*
G01*
G37*
G36*
G01*
X149278500Y-85442000D02*
X149128500Y-85442000D01*
G75*
G02*
X149053500Y-85367000I0J75000D01*
G01*
X149053500Y-83967000D01*
G75*
G02*
X149128500Y-83892000I75000J0D01*
G01*
X149278500Y-83892000D01*
G75*
G02*
X149353500Y-83967000I0J-75000D01*
G01*
X149353500Y-85367000D01*
G75*
G02*
X149278500Y-85442000I-75000J0D01*
G01*
G37*
G36*
G01*
X149778500Y-85442000D02*
X149628500Y-85442000D01*
G75*
G02*
X149553500Y-85367000I0J75000D01*
G01*
X149553500Y-83967000D01*
G75*
G02*
X149628500Y-83892000I75000J0D01*
G01*
X149778500Y-83892000D01*
G75*
G02*
X149853500Y-83967000I0J-75000D01*
G01*
X149853500Y-85367000D01*
G75*
G02*
X149778500Y-85442000I-75000J0D01*
G01*
G37*
G36*
G01*
X150278500Y-85442000D02*
X150128500Y-85442000D01*
G75*
G02*
X150053500Y-85367000I0J75000D01*
G01*
X150053500Y-83967000D01*
G75*
G02*
X150128500Y-83892000I75000J0D01*
G01*
X150278500Y-83892000D01*
G75*
G02*
X150353500Y-83967000I0J-75000D01*
G01*
X150353500Y-85367000D01*
G75*
G02*
X150278500Y-85442000I-75000J0D01*
G01*
G37*
G36*
G01*
X150778500Y-85442000D02*
X150628500Y-85442000D01*
G75*
G02*
X150553500Y-85367000I0J75000D01*
G01*
X150553500Y-83967000D01*
G75*
G02*
X150628500Y-83892000I75000J0D01*
G01*
X150778500Y-83892000D01*
G75*
G02*
X150853500Y-83967000I0J-75000D01*
G01*
X150853500Y-85367000D01*
G75*
G02*
X150778500Y-85442000I-75000J0D01*
G01*
G37*
G36*
G01*
X151278500Y-85442000D02*
X151128500Y-85442000D01*
G75*
G02*
X151053500Y-85367000I0J75000D01*
G01*
X151053500Y-83967000D01*
G75*
G02*
X151128500Y-83892000I75000J0D01*
G01*
X151278500Y-83892000D01*
G75*
G02*
X151353500Y-83967000I0J-75000D01*
G01*
X151353500Y-85367000D01*
G75*
G02*
X151278500Y-85442000I-75000J0D01*
G01*
G37*
G36*
G01*
X151778500Y-85442000D02*
X151628500Y-85442000D01*
G75*
G02*
X151553500Y-85367000I0J75000D01*
G01*
X151553500Y-83967000D01*
G75*
G02*
X151628500Y-83892000I75000J0D01*
G01*
X151778500Y-83892000D01*
G75*
G02*
X151853500Y-83967000I0J-75000D01*
G01*
X151853500Y-85367000D01*
G75*
G02*
X151778500Y-85442000I-75000J0D01*
G01*
G37*
G36*
G01*
X152278500Y-85442000D02*
X152128500Y-85442000D01*
G75*
G02*
X152053500Y-85367000I0J75000D01*
G01*
X152053500Y-83967000D01*
G75*
G02*
X152128500Y-83892000I75000J0D01*
G01*
X152278500Y-83892000D01*
G75*
G02*
X152353500Y-83967000I0J-75000D01*
G01*
X152353500Y-85367000D01*
G75*
G02*
X152278500Y-85442000I-75000J0D01*
G01*
G37*
G36*
G01*
X154828500Y-86742000D02*
X153428500Y-86742000D01*
G75*
G02*
X153353500Y-86667000I0J75000D01*
G01*
X153353500Y-86517000D01*
G75*
G02*
X153428500Y-86442000I75000J0D01*
G01*
X154828500Y-86442000D01*
G75*
G02*
X154903500Y-86517000I0J-75000D01*
G01*
X154903500Y-86667000D01*
G75*
G02*
X154828500Y-86742000I-75000J0D01*
G01*
G37*
G36*
G01*
X154828500Y-87242000D02*
X153428500Y-87242000D01*
G75*
G02*
X153353500Y-87167000I0J75000D01*
G01*
X153353500Y-87017000D01*
G75*
G02*
X153428500Y-86942000I75000J0D01*
G01*
X154828500Y-86942000D01*
G75*
G02*
X154903500Y-87017000I0J-75000D01*
G01*
X154903500Y-87167000D01*
G75*
G02*
X154828500Y-87242000I-75000J0D01*
G01*
G37*
G36*
G01*
X154828500Y-87742000D02*
X153428500Y-87742000D01*
G75*
G02*
X153353500Y-87667000I0J75000D01*
G01*
X153353500Y-87517000D01*
G75*
G02*
X153428500Y-87442000I75000J0D01*
G01*
X154828500Y-87442000D01*
G75*
G02*
X154903500Y-87517000I0J-75000D01*
G01*
X154903500Y-87667000D01*
G75*
G02*
X154828500Y-87742000I-75000J0D01*
G01*
G37*
G36*
G01*
X154828500Y-88242000D02*
X153428500Y-88242000D01*
G75*
G02*
X153353500Y-88167000I0J75000D01*
G01*
X153353500Y-88017000D01*
G75*
G02*
X153428500Y-87942000I75000J0D01*
G01*
X154828500Y-87942000D01*
G75*
G02*
X154903500Y-88017000I0J-75000D01*
G01*
X154903500Y-88167000D01*
G75*
G02*
X154828500Y-88242000I-75000J0D01*
G01*
G37*
G36*
G01*
X154828500Y-88742000D02*
X153428500Y-88742000D01*
G75*
G02*
X153353500Y-88667000I0J75000D01*
G01*
X153353500Y-88517000D01*
G75*
G02*
X153428500Y-88442000I75000J0D01*
G01*
X154828500Y-88442000D01*
G75*
G02*
X154903500Y-88517000I0J-75000D01*
G01*
X154903500Y-88667000D01*
G75*
G02*
X154828500Y-88742000I-75000J0D01*
G01*
G37*
G36*
G01*
X154828500Y-89242000D02*
X153428500Y-89242000D01*
G75*
G02*
X153353500Y-89167000I0J75000D01*
G01*
X153353500Y-89017000D01*
G75*
G02*
X153428500Y-88942000I75000J0D01*
G01*
X154828500Y-88942000D01*
G75*
G02*
X154903500Y-89017000I0J-75000D01*
G01*
X154903500Y-89167000D01*
G75*
G02*
X154828500Y-89242000I-75000J0D01*
G01*
G37*
G36*
G01*
X154828500Y-89742000D02*
X153428500Y-89742000D01*
G75*
G02*
X153353500Y-89667000I0J75000D01*
G01*
X153353500Y-89517000D01*
G75*
G02*
X153428500Y-89442000I75000J0D01*
G01*
X154828500Y-89442000D01*
G75*
G02*
X154903500Y-89517000I0J-75000D01*
G01*
X154903500Y-89667000D01*
G75*
G02*
X154828500Y-89742000I-75000J0D01*
G01*
G37*
G36*
G01*
X154828500Y-90242000D02*
X153428500Y-90242000D01*
G75*
G02*
X153353500Y-90167000I0J75000D01*
G01*
X153353500Y-90017000D01*
G75*
G02*
X153428500Y-89942000I75000J0D01*
G01*
X154828500Y-89942000D01*
G75*
G02*
X154903500Y-90017000I0J-75000D01*
G01*
X154903500Y-90167000D01*
G75*
G02*
X154828500Y-90242000I-75000J0D01*
G01*
G37*
G36*
G01*
X154828500Y-90742000D02*
X153428500Y-90742000D01*
G75*
G02*
X153353500Y-90667000I0J75000D01*
G01*
X153353500Y-90517000D01*
G75*
G02*
X153428500Y-90442000I75000J0D01*
G01*
X154828500Y-90442000D01*
G75*
G02*
X154903500Y-90517000I0J-75000D01*
G01*
X154903500Y-90667000D01*
G75*
G02*
X154828500Y-90742000I-75000J0D01*
G01*
G37*
G36*
G01*
X154828500Y-91242000D02*
X153428500Y-91242000D01*
G75*
G02*
X153353500Y-91167000I0J75000D01*
G01*
X153353500Y-91017000D01*
G75*
G02*
X153428500Y-90942000I75000J0D01*
G01*
X154828500Y-90942000D01*
G75*
G02*
X154903500Y-91017000I0J-75000D01*
G01*
X154903500Y-91167000D01*
G75*
G02*
X154828500Y-91242000I-75000J0D01*
G01*
G37*
G36*
G01*
X154828500Y-91742000D02*
X153428500Y-91742000D01*
G75*
G02*
X153353500Y-91667000I0J75000D01*
G01*
X153353500Y-91517000D01*
G75*
G02*
X153428500Y-91442000I75000J0D01*
G01*
X154828500Y-91442000D01*
G75*
G02*
X154903500Y-91517000I0J-75000D01*
G01*
X154903500Y-91667000D01*
G75*
G02*
X154828500Y-91742000I-75000J0D01*
G01*
G37*
G36*
G01*
X154828500Y-92242000D02*
X153428500Y-92242000D01*
G75*
G02*
X153353500Y-92167000I0J75000D01*
G01*
X153353500Y-92017000D01*
G75*
G02*
X153428500Y-91942000I75000J0D01*
G01*
X154828500Y-91942000D01*
G75*
G02*
X154903500Y-92017000I0J-75000D01*
G01*
X154903500Y-92167000D01*
G75*
G02*
X154828500Y-92242000I-75000J0D01*
G01*
G37*
G36*
G01*
X154828500Y-92742000D02*
X153428500Y-92742000D01*
G75*
G02*
X153353500Y-92667000I0J75000D01*
G01*
X153353500Y-92517000D01*
G75*
G02*
X153428500Y-92442000I75000J0D01*
G01*
X154828500Y-92442000D01*
G75*
G02*
X154903500Y-92517000I0J-75000D01*
G01*
X154903500Y-92667000D01*
G75*
G02*
X154828500Y-92742000I-75000J0D01*
G01*
G37*
G36*
G01*
X154828500Y-93242000D02*
X153428500Y-93242000D01*
G75*
G02*
X153353500Y-93167000I0J75000D01*
G01*
X153353500Y-93017000D01*
G75*
G02*
X153428500Y-92942000I75000J0D01*
G01*
X154828500Y-92942000D01*
G75*
G02*
X154903500Y-93017000I0J-75000D01*
G01*
X154903500Y-93167000D01*
G75*
G02*
X154828500Y-93242000I-75000J0D01*
G01*
G37*
G36*
G01*
X154828500Y-93742000D02*
X153428500Y-93742000D01*
G75*
G02*
X153353500Y-93667000I0J75000D01*
G01*
X153353500Y-93517000D01*
G75*
G02*
X153428500Y-93442000I75000J0D01*
G01*
X154828500Y-93442000D01*
G75*
G02*
X154903500Y-93517000I0J-75000D01*
G01*
X154903500Y-93667000D01*
G75*
G02*
X154828500Y-93742000I-75000J0D01*
G01*
G37*
G36*
G01*
X154828500Y-94242000D02*
X153428500Y-94242000D01*
G75*
G02*
X153353500Y-94167000I0J75000D01*
G01*
X153353500Y-94017000D01*
G75*
G02*
X153428500Y-93942000I75000J0D01*
G01*
X154828500Y-93942000D01*
G75*
G02*
X154903500Y-94017000I0J-75000D01*
G01*
X154903500Y-94167000D01*
G75*
G02*
X154828500Y-94242000I-75000J0D01*
G01*
G37*
G36*
G01*
X152278500Y-96792000D02*
X152128500Y-96792000D01*
G75*
G02*
X152053500Y-96717000I0J75000D01*
G01*
X152053500Y-95317000D01*
G75*
G02*
X152128500Y-95242000I75000J0D01*
G01*
X152278500Y-95242000D01*
G75*
G02*
X152353500Y-95317000I0J-75000D01*
G01*
X152353500Y-96717000D01*
G75*
G02*
X152278500Y-96792000I-75000J0D01*
G01*
G37*
G36*
G01*
X151778500Y-96792000D02*
X151628500Y-96792000D01*
G75*
G02*
X151553500Y-96717000I0J75000D01*
G01*
X151553500Y-95317000D01*
G75*
G02*
X151628500Y-95242000I75000J0D01*
G01*
X151778500Y-95242000D01*
G75*
G02*
X151853500Y-95317000I0J-75000D01*
G01*
X151853500Y-96717000D01*
G75*
G02*
X151778500Y-96792000I-75000J0D01*
G01*
G37*
G36*
G01*
X151278500Y-96792000D02*
X151128500Y-96792000D01*
G75*
G02*
X151053500Y-96717000I0J75000D01*
G01*
X151053500Y-95317000D01*
G75*
G02*
X151128500Y-95242000I75000J0D01*
G01*
X151278500Y-95242000D01*
G75*
G02*
X151353500Y-95317000I0J-75000D01*
G01*
X151353500Y-96717000D01*
G75*
G02*
X151278500Y-96792000I-75000J0D01*
G01*
G37*
G36*
G01*
X150778500Y-96792000D02*
X150628500Y-96792000D01*
G75*
G02*
X150553500Y-96717000I0J75000D01*
G01*
X150553500Y-95317000D01*
G75*
G02*
X150628500Y-95242000I75000J0D01*
G01*
X150778500Y-95242000D01*
G75*
G02*
X150853500Y-95317000I0J-75000D01*
G01*
X150853500Y-96717000D01*
G75*
G02*
X150778500Y-96792000I-75000J0D01*
G01*
G37*
G36*
G01*
X150278500Y-96792000D02*
X150128500Y-96792000D01*
G75*
G02*
X150053500Y-96717000I0J75000D01*
G01*
X150053500Y-95317000D01*
G75*
G02*
X150128500Y-95242000I75000J0D01*
G01*
X150278500Y-95242000D01*
G75*
G02*
X150353500Y-95317000I0J-75000D01*
G01*
X150353500Y-96717000D01*
G75*
G02*
X150278500Y-96792000I-75000J0D01*
G01*
G37*
G36*
G01*
X149778500Y-96792000D02*
X149628500Y-96792000D01*
G75*
G02*
X149553500Y-96717000I0J75000D01*
G01*
X149553500Y-95317000D01*
G75*
G02*
X149628500Y-95242000I75000J0D01*
G01*
X149778500Y-95242000D01*
G75*
G02*
X149853500Y-95317000I0J-75000D01*
G01*
X149853500Y-96717000D01*
G75*
G02*
X149778500Y-96792000I-75000J0D01*
G01*
G37*
G36*
G01*
X149278500Y-96792000D02*
X149128500Y-96792000D01*
G75*
G02*
X149053500Y-96717000I0J75000D01*
G01*
X149053500Y-95317000D01*
G75*
G02*
X149128500Y-95242000I75000J0D01*
G01*
X149278500Y-95242000D01*
G75*
G02*
X149353500Y-95317000I0J-75000D01*
G01*
X149353500Y-96717000D01*
G75*
G02*
X149278500Y-96792000I-75000J0D01*
G01*
G37*
G36*
G01*
X148778500Y-96792000D02*
X148628500Y-96792000D01*
G75*
G02*
X148553500Y-96717000I0J75000D01*
G01*
X148553500Y-95317000D01*
G75*
G02*
X148628500Y-95242000I75000J0D01*
G01*
X148778500Y-95242000D01*
G75*
G02*
X148853500Y-95317000I0J-75000D01*
G01*
X148853500Y-96717000D01*
G75*
G02*
X148778500Y-96792000I-75000J0D01*
G01*
G37*
G36*
G01*
X148278500Y-96792000D02*
X148128500Y-96792000D01*
G75*
G02*
X148053500Y-96717000I0J75000D01*
G01*
X148053500Y-95317000D01*
G75*
G02*
X148128500Y-95242000I75000J0D01*
G01*
X148278500Y-95242000D01*
G75*
G02*
X148353500Y-95317000I0J-75000D01*
G01*
X148353500Y-96717000D01*
G75*
G02*
X148278500Y-96792000I-75000J0D01*
G01*
G37*
G36*
G01*
X147778500Y-96792000D02*
X147628500Y-96792000D01*
G75*
G02*
X147553500Y-96717000I0J75000D01*
G01*
X147553500Y-95317000D01*
G75*
G02*
X147628500Y-95242000I75000J0D01*
G01*
X147778500Y-95242000D01*
G75*
G02*
X147853500Y-95317000I0J-75000D01*
G01*
X147853500Y-96717000D01*
G75*
G02*
X147778500Y-96792000I-75000J0D01*
G01*
G37*
G36*
G01*
X147278500Y-96792000D02*
X147128500Y-96792000D01*
G75*
G02*
X147053500Y-96717000I0J75000D01*
G01*
X147053500Y-95317000D01*
G75*
G02*
X147128500Y-95242000I75000J0D01*
G01*
X147278500Y-95242000D01*
G75*
G02*
X147353500Y-95317000I0J-75000D01*
G01*
X147353500Y-96717000D01*
G75*
G02*
X147278500Y-96792000I-75000J0D01*
G01*
G37*
G36*
G01*
X146778500Y-96792000D02*
X146628500Y-96792000D01*
G75*
G02*
X146553500Y-96717000I0J75000D01*
G01*
X146553500Y-95317000D01*
G75*
G02*
X146628500Y-95242000I75000J0D01*
G01*
X146778500Y-95242000D01*
G75*
G02*
X146853500Y-95317000I0J-75000D01*
G01*
X146853500Y-96717000D01*
G75*
G02*
X146778500Y-96792000I-75000J0D01*
G01*
G37*
G36*
G01*
X146278500Y-96792000D02*
X146128500Y-96792000D01*
G75*
G02*
X146053500Y-96717000I0J75000D01*
G01*
X146053500Y-95317000D01*
G75*
G02*
X146128500Y-95242000I75000J0D01*
G01*
X146278500Y-95242000D01*
G75*
G02*
X146353500Y-95317000I0J-75000D01*
G01*
X146353500Y-96717000D01*
G75*
G02*
X146278500Y-96792000I-75000J0D01*
G01*
G37*
G36*
G01*
X145778500Y-96792000D02*
X145628500Y-96792000D01*
G75*
G02*
X145553500Y-96717000I0J75000D01*
G01*
X145553500Y-95317000D01*
G75*
G02*
X145628500Y-95242000I75000J0D01*
G01*
X145778500Y-95242000D01*
G75*
G02*
X145853500Y-95317000I0J-75000D01*
G01*
X145853500Y-96717000D01*
G75*
G02*
X145778500Y-96792000I-75000J0D01*
G01*
G37*
G36*
G01*
X145278500Y-96792000D02*
X145128500Y-96792000D01*
G75*
G02*
X145053500Y-96717000I0J75000D01*
G01*
X145053500Y-95317000D01*
G75*
G02*
X145128500Y-95242000I75000J0D01*
G01*
X145278500Y-95242000D01*
G75*
G02*
X145353500Y-95317000I0J-75000D01*
G01*
X145353500Y-96717000D01*
G75*
G02*
X145278500Y-96792000I-75000J0D01*
G01*
G37*
G36*
G01*
X144778500Y-96792000D02*
X144628500Y-96792000D01*
G75*
G02*
X144553500Y-96717000I0J75000D01*
G01*
X144553500Y-95317000D01*
G75*
G02*
X144628500Y-95242000I75000J0D01*
G01*
X144778500Y-95242000D01*
G75*
G02*
X144853500Y-95317000I0J-75000D01*
G01*
X144853500Y-96717000D01*
G75*
G02*
X144778500Y-96792000I-75000J0D01*
G01*
G37*
G36*
G01*
X151372250Y-80042000D02*
X150859750Y-80042000D01*
G75*
G02*
X150641000Y-79823250I0J218750D01*
G01*
X150641000Y-79385750D01*
G75*
G02*
X150859750Y-79167000I218750J0D01*
G01*
X151372250Y-79167000D01*
G75*
G02*
X151591000Y-79385750I0J-218750D01*
G01*
X151591000Y-79823250D01*
G75*
G02*
X151372250Y-80042000I-218750J0D01*
G01*
G37*
G36*
G01*
X151372250Y-81617000D02*
X150859750Y-81617000D01*
G75*
G02*
X150641000Y-81398250I0J218750D01*
G01*
X150641000Y-80960750D01*
G75*
G02*
X150859750Y-80742000I218750J0D01*
G01*
X151372250Y-80742000D01*
G75*
G02*
X151591000Y-80960750I0J-218750D01*
G01*
X151591000Y-81398250D01*
G75*
G02*
X151372250Y-81617000I-218750J0D01*
G01*
G37*
G36*
G01*
X148866000Y-81348250D02*
X148866000Y-80835750D01*
G75*
G02*
X149084750Y-80617000I218750J0D01*
G01*
X149522250Y-80617000D01*
G75*
G02*
X149741000Y-80835750I0J-218750D01*
G01*
X149741000Y-81348250D01*
G75*
G02*
X149522250Y-81567000I-218750J0D01*
G01*
X149084750Y-81567000D01*
G75*
G02*
X148866000Y-81348250I0J218750D01*
G01*
G37*
G36*
G01*
X147291000Y-81348250D02*
X147291000Y-80835750D01*
G75*
G02*
X147509750Y-80617000I218750J0D01*
G01*
X147947250Y-80617000D01*
G75*
G02*
X148166000Y-80835750I0J-218750D01*
G01*
X148166000Y-81348250D01*
G75*
G02*
X147947250Y-81567000I-218750J0D01*
G01*
X147509750Y-81567000D01*
G75*
G02*
X147291000Y-81348250I0J218750D01*
G01*
G37*
G36*
G01*
X142828500Y-80735750D02*
X142828500Y-81248250D01*
G75*
G02*
X142609750Y-81467000I-218750J0D01*
G01*
X142172250Y-81467000D01*
G75*
G02*
X141953500Y-81248250I0J218750D01*
G01*
X141953500Y-80735750D01*
G75*
G02*
X142172250Y-80517000I218750J0D01*
G01*
X142609750Y-80517000D01*
G75*
G02*
X142828500Y-80735750I0J-218750D01*
G01*
G37*
G36*
G01*
X141253500Y-80735750D02*
X141253500Y-81248250D01*
G75*
G02*
X141034750Y-81467000I-218750J0D01*
G01*
X140597250Y-81467000D01*
G75*
G02*
X140378500Y-81248250I0J218750D01*
G01*
X140378500Y-80735750D01*
G75*
G02*
X140597250Y-80517000I218750J0D01*
G01*
X141034750Y-80517000D01*
G75*
G02*
X141253500Y-80735750I0J-218750D01*
G01*
G37*
D26*
X138266000Y-114942000D03*
X139216000Y-114942000D03*
X137316000Y-114942000D03*
X137316000Y-112742000D03*
X138266000Y-112742000D03*
X139216000Y-112742000D03*
G36*
G01*
X138141000Y-101398250D02*
X138141000Y-100885750D01*
G75*
G02*
X138359750Y-100667000I218750J0D01*
G01*
X138797250Y-100667000D01*
G75*
G02*
X139016000Y-100885750I0J-218750D01*
G01*
X139016000Y-101398250D01*
G75*
G02*
X138797250Y-101617000I-218750J0D01*
G01*
X138359750Y-101617000D01*
G75*
G02*
X138141000Y-101398250I0J218750D01*
G01*
G37*
G36*
G01*
X139716000Y-101398250D02*
X139716000Y-100885750D01*
G75*
G02*
X139934750Y-100667000I218750J0D01*
G01*
X140372250Y-100667000D01*
G75*
G02*
X140591000Y-100885750I0J-218750D01*
G01*
X140591000Y-101398250D01*
G75*
G02*
X140372250Y-101617000I-218750J0D01*
G01*
X139934750Y-101617000D01*
G75*
G02*
X139716000Y-101398250I0J218750D01*
G01*
G37*
G36*
G01*
X150616000Y-100148250D02*
X150616000Y-99635750D01*
G75*
G02*
X150834750Y-99417000I218750J0D01*
G01*
X151272250Y-99417000D01*
G75*
G02*
X151491000Y-99635750I0J-218750D01*
G01*
X151491000Y-100148250D01*
G75*
G02*
X151272250Y-100367000I-218750J0D01*
G01*
X150834750Y-100367000D01*
G75*
G02*
X150616000Y-100148250I0J218750D01*
G01*
G37*
G36*
G01*
X152191000Y-100148250D02*
X152191000Y-99635750D01*
G75*
G02*
X152409750Y-99417000I218750J0D01*
G01*
X152847250Y-99417000D01*
G75*
G02*
X153066000Y-99635750I0J-218750D01*
G01*
X153066000Y-100148250D01*
G75*
G02*
X152847250Y-100367000I-218750J0D01*
G01*
X152409750Y-100367000D01*
G75*
G02*
X152191000Y-100148250I0J218750D01*
G01*
G37*
D27*
X144953500Y-100392000D03*
X147153500Y-100392000D03*
X147153500Y-98692000D03*
X144953500Y-98692000D03*
D28*
X140816000Y-79567000D03*
X142416000Y-77617000D03*
X142416000Y-78267000D03*
X142416000Y-78917000D03*
X140816000Y-77617000D03*
X140816000Y-78267000D03*
X140816000Y-78917000D03*
X142416000Y-79567000D03*
G36*
G01*
X162112500Y-82493750D02*
X162112500Y-83006250D01*
G75*
G02*
X161893750Y-83225000I-218750J0D01*
G01*
X161456250Y-83225000D01*
G75*
G02*
X161237500Y-83006250I0J218750D01*
G01*
X161237500Y-82493750D01*
G75*
G02*
X161456250Y-82275000I218750J0D01*
G01*
X161893750Y-82275000D01*
G75*
G02*
X162112500Y-82493750I0J-218750D01*
G01*
G37*
G36*
G01*
X160537500Y-82493750D02*
X160537500Y-83006250D01*
G75*
G02*
X160318750Y-83225000I-218750J0D01*
G01*
X159881250Y-83225000D01*
G75*
G02*
X159662500Y-83006250I0J218750D01*
G01*
X159662500Y-82493750D01*
G75*
G02*
X159881250Y-82275000I218750J0D01*
G01*
X160318750Y-82275000D01*
G75*
G02*
X160537500Y-82493750I0J-218750D01*
G01*
G37*
G36*
G01*
X143409750Y-99112500D02*
X142897250Y-99112500D01*
G75*
G02*
X142678500Y-98893750I0J218750D01*
G01*
X142678500Y-98456250D01*
G75*
G02*
X142897250Y-98237500I218750J0D01*
G01*
X143409750Y-98237500D01*
G75*
G02*
X143628500Y-98456250I0J-218750D01*
G01*
X143628500Y-98893750D01*
G75*
G02*
X143409750Y-99112500I-218750J0D01*
G01*
G37*
G36*
G01*
X143409750Y-100687500D02*
X142897250Y-100687500D01*
G75*
G02*
X142678500Y-100468750I0J218750D01*
G01*
X142678500Y-100031250D01*
G75*
G02*
X142897250Y-99812500I218750J0D01*
G01*
X143409750Y-99812500D01*
G75*
G02*
X143628500Y-100031250I0J-218750D01*
G01*
X143628500Y-100468750D01*
G75*
G02*
X143409750Y-100687500I-218750J0D01*
G01*
G37*
G36*
G01*
X144491000Y-115985750D02*
X144491000Y-116498250D01*
G75*
G02*
X144272250Y-116717000I-218750J0D01*
G01*
X143834750Y-116717000D01*
G75*
G02*
X143616000Y-116498250I0J218750D01*
G01*
X143616000Y-115985750D01*
G75*
G02*
X143834750Y-115767000I218750J0D01*
G01*
X144272250Y-115767000D01*
G75*
G02*
X144491000Y-115985750I0J-218750D01*
G01*
G37*
G36*
G01*
X142916000Y-115985750D02*
X142916000Y-116498250D01*
G75*
G02*
X142697250Y-116717000I-218750J0D01*
G01*
X142259750Y-116717000D01*
G75*
G02*
X142041000Y-116498250I0J218750D01*
G01*
X142041000Y-115985750D01*
G75*
G02*
X142259750Y-115767000I218750J0D01*
G01*
X142697250Y-115767000D01*
G75*
G02*
X142916000Y-115985750I0J-218750D01*
G01*
G37*
G36*
G01*
X143459750Y-77367000D02*
X143972250Y-77367000D01*
G75*
G02*
X144191000Y-77585750I0J-218750D01*
G01*
X144191000Y-78023250D01*
G75*
G02*
X143972250Y-78242000I-218750J0D01*
G01*
X143459750Y-78242000D01*
G75*
G02*
X143241000Y-78023250I0J218750D01*
G01*
X143241000Y-77585750D01*
G75*
G02*
X143459750Y-77367000I218750J0D01*
G01*
G37*
G36*
G01*
X143459750Y-78942000D02*
X143972250Y-78942000D01*
G75*
G02*
X144191000Y-79160750I0J-218750D01*
G01*
X144191000Y-79598250D01*
G75*
G02*
X143972250Y-79817000I-218750J0D01*
G01*
X143459750Y-79817000D01*
G75*
G02*
X143241000Y-79598250I0J218750D01*
G01*
X143241000Y-79160750D01*
G75*
G02*
X143459750Y-78942000I218750J0D01*
G01*
G37*
G36*
G01*
X149193750Y-100725000D02*
X148681250Y-100725000D01*
G75*
G02*
X148462500Y-100506250I0J218750D01*
G01*
X148462500Y-100068750D01*
G75*
G02*
X148681250Y-99850000I218750J0D01*
G01*
X149193750Y-99850000D01*
G75*
G02*
X149412500Y-100068750I0J-218750D01*
G01*
X149412500Y-100506250D01*
G75*
G02*
X149193750Y-100725000I-218750J0D01*
G01*
G37*
G36*
G01*
X149193750Y-99150000D02*
X148681250Y-99150000D01*
G75*
G02*
X148462500Y-98931250I0J218750D01*
G01*
X148462500Y-98493750D01*
G75*
G02*
X148681250Y-98275000I218750J0D01*
G01*
X149193750Y-98275000D01*
G75*
G02*
X149412500Y-98493750I0J-218750D01*
G01*
X149412500Y-98931250D01*
G75*
G02*
X149193750Y-99150000I-218750J0D01*
G01*
G37*
G36*
G01*
X156672250Y-95004500D02*
X156159750Y-95004500D01*
G75*
G02*
X155941000Y-94785750I0J218750D01*
G01*
X155941000Y-94348250D01*
G75*
G02*
X156159750Y-94129500I218750J0D01*
G01*
X156672250Y-94129500D01*
G75*
G02*
X156891000Y-94348250I0J-218750D01*
G01*
X156891000Y-94785750D01*
G75*
G02*
X156672250Y-95004500I-218750J0D01*
G01*
G37*
G36*
G01*
X156672250Y-93429500D02*
X156159750Y-93429500D01*
G75*
G02*
X155941000Y-93210750I0J218750D01*
G01*
X155941000Y-92773250D01*
G75*
G02*
X156159750Y-92554500I218750J0D01*
G01*
X156672250Y-92554500D01*
G75*
G02*
X156891000Y-92773250I0J-218750D01*
G01*
X156891000Y-93210750D01*
G75*
G02*
X156672250Y-93429500I-218750J0D01*
G01*
G37*
G36*
G01*
X142041000Y-113498250D02*
X142041000Y-112985750D01*
G75*
G02*
X142259750Y-112767000I218750J0D01*
G01*
X142697250Y-112767000D01*
G75*
G02*
X142916000Y-112985750I0J-218750D01*
G01*
X142916000Y-113498250D01*
G75*
G02*
X142697250Y-113717000I-218750J0D01*
G01*
X142259750Y-113717000D01*
G75*
G02*
X142041000Y-113498250I0J218750D01*
G01*
G37*
G36*
G01*
X143616000Y-113498250D02*
X143616000Y-112985750D01*
G75*
G02*
X143834750Y-112767000I218750J0D01*
G01*
X144272250Y-112767000D01*
G75*
G02*
X144491000Y-112985750I0J-218750D01*
G01*
X144491000Y-113498250D01*
G75*
G02*
X144272250Y-113717000I-218750J0D01*
G01*
X143834750Y-113717000D01*
G75*
G02*
X143616000Y-113498250I0J218750D01*
G01*
G37*
G36*
G01*
X142041000Y-114998250D02*
X142041000Y-114485750D01*
G75*
G02*
X142259750Y-114267000I218750J0D01*
G01*
X142697250Y-114267000D01*
G75*
G02*
X142916000Y-114485750I0J-218750D01*
G01*
X142916000Y-114998250D01*
G75*
G02*
X142697250Y-115217000I-218750J0D01*
G01*
X142259750Y-115217000D01*
G75*
G02*
X142041000Y-114998250I0J218750D01*
G01*
G37*
G36*
G01*
X143616000Y-114998250D02*
X143616000Y-114485750D01*
G75*
G02*
X143834750Y-114267000I218750J0D01*
G01*
X144272250Y-114267000D01*
G75*
G02*
X144491000Y-114485750I0J-218750D01*
G01*
X144491000Y-114998250D01*
G75*
G02*
X144272250Y-115217000I-218750J0D01*
G01*
X143834750Y-115217000D01*
G75*
G02*
X143616000Y-114998250I0J218750D01*
G01*
G37*
G36*
G01*
X150628500Y-98448250D02*
X150628500Y-97935750D01*
G75*
G02*
X150847250Y-97717000I218750J0D01*
G01*
X151284750Y-97717000D01*
G75*
G02*
X151503500Y-97935750I0J-218750D01*
G01*
X151503500Y-98448250D01*
G75*
G02*
X151284750Y-98667000I-218750J0D01*
G01*
X150847250Y-98667000D01*
G75*
G02*
X150628500Y-98448250I0J218750D01*
G01*
G37*
G36*
G01*
X152203500Y-98448250D02*
X152203500Y-97935750D01*
G75*
G02*
X152422250Y-97717000I218750J0D01*
G01*
X152859750Y-97717000D01*
G75*
G02*
X153078500Y-97935750I0J-218750D01*
G01*
X153078500Y-98448250D01*
G75*
G02*
X152859750Y-98667000I-218750J0D01*
G01*
X152422250Y-98667000D01*
G75*
G02*
X152203500Y-98448250I0J218750D01*
G01*
G37*
G36*
G01*
X141478500Y-96598250D02*
X141478500Y-96085750D01*
G75*
G02*
X141697250Y-95867000I218750J0D01*
G01*
X142134750Y-95867000D01*
G75*
G02*
X142353500Y-96085750I0J-218750D01*
G01*
X142353500Y-96598250D01*
G75*
G02*
X142134750Y-96817000I-218750J0D01*
G01*
X141697250Y-96817000D01*
G75*
G02*
X141478500Y-96598250I0J218750D01*
G01*
G37*
G36*
G01*
X143053500Y-96598250D02*
X143053500Y-96085750D01*
G75*
G02*
X143272250Y-95867000I218750J0D01*
G01*
X143709750Y-95867000D01*
G75*
G02*
X143928500Y-96085750I0J-218750D01*
G01*
X143928500Y-96598250D01*
G75*
G02*
X143709750Y-96817000I-218750J0D01*
G01*
X143272250Y-96817000D01*
G75*
G02*
X143053500Y-96598250I0J218750D01*
G01*
G37*
M02*
