G04 #@! TF.GenerationSoftware,KiCad,Pcbnew,(5.1.7)-1*
G04 #@! TF.CreationDate,2021-03-01T18:39:25+01:00*
G04 #@! TF.ProjectId,Zeggreus,5a656767-7265-4757-932e-6b696361645f,rev?*
G04 #@! TF.SameCoordinates,Original*
G04 #@! TF.FileFunction,Legend,Bot*
G04 #@! TF.FilePolarity,Positive*
%FSLAX46Y46*%
G04 Gerber Fmt 4.6, Leading zero omitted, Abs format (unit mm)*
G04 Created by KiCad (PCBNEW (5.1.7)-1) date 2021-03-01 18:39:25*
%MOMM*%
%LPD*%
G01*
G04 APERTURE LIST*
%ADD10C,0.200000*%
%ADD11C,0.120000*%
%ADD12C,0.150000*%
G04 APERTURE END LIST*
D10*
X129465714Y-100664285D02*
X130380000Y-100664285D01*
X129415714Y-104164285D02*
X130330000Y-104164285D01*
X129872857Y-103707142D02*
X129872857Y-104621428D01*
D11*
X158750000Y-103800000D02*
X158750000Y-105200000D01*
X159450000Y-105900000D02*
X160050000Y-105900000D01*
X160750000Y-105200000D02*
X160750000Y-103800000D01*
X160050000Y-103100000D02*
X159450000Y-103100000D01*
X158750000Y-105200000D02*
G75*
G03*
X159450000Y-105900000I700000J0D01*
G01*
X160050000Y-105900000D02*
G75*
G03*
X160750000Y-105200000I0J700000D01*
G01*
X160750000Y-103800000D02*
G75*
G03*
X160050000Y-103100000I-700000J0D01*
G01*
X159450000Y-103100000D02*
G75*
G03*
X158750000Y-103800000I0J-700000D01*
G01*
X132177500Y-90287742D02*
X132177500Y-90762258D01*
X133222500Y-90287742D02*
X133222500Y-90762258D01*
X132177500Y-85537742D02*
X132177500Y-86012258D01*
X133222500Y-85537742D02*
X133222500Y-86012258D01*
X153372500Y-67062742D02*
X153372500Y-67537258D01*
X152327500Y-67062742D02*
X152327500Y-67537258D01*
X130734420Y-71340000D02*
X131015580Y-71340000D01*
X130734420Y-72360000D02*
X131015580Y-72360000D01*
X163060000Y-67159420D02*
X163060000Y-67440580D01*
X162040000Y-67159420D02*
X162040000Y-67440580D01*
X136106000Y-73232580D02*
X136106000Y-72951420D01*
X137126000Y-73232580D02*
X137126000Y-72951420D01*
X134237258Y-82177500D02*
X133762742Y-82177500D01*
X134237258Y-83222500D02*
X133762742Y-83222500D01*
X151872500Y-67537258D02*
X151872500Y-67062742D01*
X150827500Y-67537258D02*
X150827500Y-67062742D01*
X150246000Y-111252000D02*
X149316000Y-111252000D01*
X147086000Y-111252000D02*
X148016000Y-111252000D01*
X147086000Y-111252000D02*
X147086000Y-109092000D01*
X150246000Y-111252000D02*
X150246000Y-109792000D01*
X150551000Y-107053252D02*
X150551000Y-106530748D01*
X149081000Y-107053252D02*
X149081000Y-106530748D01*
X145237742Y-76427500D02*
X145712258Y-76427500D01*
X145237742Y-77472500D02*
X145712258Y-77472500D01*
X148688500Y-72379742D02*
X148688500Y-72854258D01*
X147643500Y-72379742D02*
X147643500Y-72854258D01*
X146877500Y-90112258D02*
X146877500Y-89637742D01*
X147922500Y-90112258D02*
X147922500Y-89637742D01*
X149302500Y-67537258D02*
X149302500Y-67062742D01*
X150347500Y-67537258D02*
X150347500Y-67062742D01*
X161553258Y-90014500D02*
X161078742Y-90014500D01*
X161553258Y-88969500D02*
X161078742Y-88969500D01*
X161553258Y-91514500D02*
X161078742Y-91514500D01*
X161553258Y-90469500D02*
X161078742Y-90469500D01*
X148993500Y-93154258D02*
X148993500Y-92679742D01*
X150038500Y-93154258D02*
X150038500Y-92679742D01*
X148181000Y-114380748D02*
X148181000Y-114903252D01*
X149651000Y-114380748D02*
X149651000Y-114903252D01*
X158751000Y-100603252D02*
X158751000Y-100080748D01*
X157281000Y-100603252D02*
X157281000Y-100080748D01*
X157511500Y-67070742D02*
X157511500Y-67545258D01*
X158556500Y-67070742D02*
X158556500Y-67545258D01*
X159011500Y-67070742D02*
X159011500Y-67545258D01*
X160056500Y-67070742D02*
X160056500Y-67545258D01*
X160511500Y-67070742D02*
X160511500Y-67545258D01*
X161556500Y-67070742D02*
X161556500Y-67545258D01*
X157030000Y-68210000D02*
X156100000Y-68210000D01*
X153870000Y-68210000D02*
X154800000Y-68210000D01*
X153870000Y-68210000D02*
X153870000Y-66050000D01*
X157030000Y-68210000D02*
X157030000Y-66750000D01*
X148660000Y-79865580D02*
X148660000Y-79584420D01*
X147640000Y-79865580D02*
X147640000Y-79584420D01*
X148810000Y-67462779D02*
X148810000Y-67137221D01*
X147790000Y-67462779D02*
X147790000Y-67137221D01*
D12*
X150216000Y-81142000D02*
X150216000Y-83842000D01*
X151916000Y-85442000D02*
X158616000Y-85442000D01*
X151616000Y-71042000D02*
X158716000Y-71042000D01*
X161616000Y-71042000D02*
X163616000Y-71042000D01*
X161416000Y-85542000D02*
X164316000Y-85542000D01*
D11*
X147656000Y-75466721D02*
X147656000Y-75792279D01*
X148676000Y-75466721D02*
X148676000Y-75792279D01*
X155016000Y-88867000D02*
X157741000Y-88867000D01*
X157741000Y-88867000D02*
X157741000Y-89127000D01*
X155016000Y-88867000D02*
X152291000Y-88867000D01*
X152291000Y-88867000D02*
X152291000Y-89127000D01*
X155016000Y-94317000D02*
X157741000Y-94317000D01*
X157741000Y-94317000D02*
X157741000Y-94057000D01*
X155016000Y-94317000D02*
X152291000Y-94317000D01*
X152291000Y-94317000D02*
X152291000Y-94057000D01*
X152291000Y-94057000D02*
X150616000Y-94057000D01*
X161137221Y-88410000D02*
X161462779Y-88410000D01*
X161137221Y-87390000D02*
X161462779Y-87390000D01*
X157926000Y-108392000D02*
X157926000Y-102382000D01*
X151106000Y-106142000D02*
X151106000Y-102382000D01*
X157926000Y-102382000D02*
X156666000Y-102382000D01*
X151106000Y-102382000D02*
X152366000Y-102382000D01*
X150026000Y-89741721D02*
X150026000Y-90067279D01*
X149006000Y-89741721D02*
X149006000Y-90067279D01*
X163406000Y-107254779D02*
X163406000Y-106929221D01*
X164426000Y-107254779D02*
X164426000Y-106929221D01*
X133803221Y-80160000D02*
X134128779Y-80160000D01*
X133803221Y-79140000D02*
X134128779Y-79140000D01*
X163590000Y-67462779D02*
X163590000Y-67137221D01*
X164610000Y-67462779D02*
X164610000Y-67137221D01*
X142540000Y-89837221D02*
X142540000Y-90162779D01*
X143560000Y-89837221D02*
X143560000Y-90162779D01*
X139478779Y-102248000D02*
X139153221Y-102248000D01*
X139478779Y-103268000D02*
X139153221Y-103268000D01*
X134112779Y-80690000D02*
X133787221Y-80690000D01*
X134112779Y-81710000D02*
X133787221Y-81710000D01*
X163406000Y-97254779D02*
X163406000Y-96929221D01*
X164426000Y-97254779D02*
X164426000Y-96929221D01*
M02*
