G04 #@! TF.GenerationSoftware,KiCad,Pcbnew,(5.1.7)-1*
G04 #@! TF.CreationDate,2021-03-01T18:39:25+01:00*
G04 #@! TF.ProjectId,Zeggreus,5a656767-7265-4757-932e-6b696361645f,rev?*
G04 #@! TF.SameCoordinates,Original*
G04 #@! TF.FileFunction,Profile,NP*
%FSLAX46Y46*%
G04 Gerber Fmt 4.6, Leading zero omitted, Abs format (unit mm)*
G04 Created by KiCad (PCBNEW (5.1.7)-1) date 2021-03-01 18:39:25*
%MOMM*%
%LPD*%
G01*
G04 APERTURE LIST*
G04 #@! TA.AperFunction,Profile*
%ADD10C,0.050000*%
G04 #@! TD*
G04 APERTURE END LIST*
D10*
X136020000Y-58390000D02*
X136100000Y-58400000D01*
X135920000Y-58370000D02*
X136020000Y-58390000D01*
X135790000Y-58330000D02*
X135920000Y-58370000D01*
X135670000Y-58260000D02*
X135790000Y-58330000D01*
X135560000Y-58160000D02*
X135670000Y-58260000D01*
X135460000Y-58040000D02*
X135560000Y-58160000D01*
X135391157Y-57950231D02*
X135460000Y-58040000D01*
X145430000Y-58390000D02*
X145300000Y-58400000D01*
X145580000Y-58350000D02*
X145430000Y-58390000D01*
X145720000Y-58280000D02*
X145580000Y-58350000D01*
X145830000Y-58200000D02*
X145720000Y-58280000D01*
X145910000Y-58120000D02*
X145830000Y-58200000D01*
X145965818Y-58043847D02*
X145910000Y-58120000D01*
X135391157Y-57950231D02*
G75*
G03*
X134725518Y-57593992I-665639J-443761D01*
G01*
X145965818Y-58043847D02*
G75*
G02*
X146685176Y-57593882I719358J-350035D01*
G01*
X132016000Y-57592000D02*
X134725518Y-57593992D01*
X136100000Y-58400000D02*
X145300000Y-58400000D01*
X128516000Y-61092000D02*
G75*
G02*
X132016000Y-57592000I3500000J0D01*
G01*
X132016000Y-117592000D02*
G75*
G02*
X128516000Y-114092000I0J3500000D01*
G01*
X168516000Y-114092000D02*
G75*
G02*
X165016000Y-117592000I-3500000J0D01*
G01*
X165016000Y-57592000D02*
G75*
G02*
X168516000Y-61092000I0J-3500000D01*
G01*
X128516000Y-61092000D02*
X128516000Y-114092000D01*
X165016000Y-57592000D02*
X146685176Y-57593882D01*
X168516000Y-114092000D02*
X168516000Y-61092000D01*
X132016000Y-117592000D02*
X165016000Y-117592000D01*
M02*
