G04 #@! TF.GenerationSoftware,KiCad,Pcbnew,(5.1.7)-1*
G04 #@! TF.CreationDate,2021-03-01T18:39:25+01:00*
G04 #@! TF.ProjectId,Zeggreus,5a656767-7265-4757-932e-6b696361645f,rev?*
G04 #@! TF.SameCoordinates,Original*
G04 #@! TF.FileFunction,Copper,L4,Bot*
G04 #@! TF.FilePolarity,Positive*
%FSLAX46Y46*%
G04 Gerber Fmt 4.6, Leading zero omitted, Abs format (unit mm)*
G04 Created by KiCad (PCBNEW (5.1.7)-1) date 2021-03-01 18:39:25*
%MOMM*%
%LPD*%
G01*
G04 APERTURE LIST*
G04 #@! TA.AperFunction,SMDPad,CuDef*
%ADD10C,0.100000*%
G04 #@! TD*
G04 #@! TA.AperFunction,ComponentPad*
%ADD11O,1.700000X1.700000*%
G04 #@! TD*
G04 #@! TA.AperFunction,ComponentPad*
%ADD12R,1.700000X1.700000*%
G04 #@! TD*
G04 #@! TA.AperFunction,ComponentPad*
%ADD13C,2.400000*%
G04 #@! TD*
G04 #@! TA.AperFunction,ComponentPad*
%ADD14R,2.400000X2.400000*%
G04 #@! TD*
G04 #@! TA.AperFunction,SMDPad,CuDef*
%ADD15R,0.460000X0.890000*%
G04 #@! TD*
G04 #@! TA.AperFunction,ComponentPad*
%ADD16C,0.970000*%
G04 #@! TD*
G04 #@! TA.AperFunction,SMDPad,CuDef*
%ADD17R,2.665000X4.190000*%
G04 #@! TD*
G04 #@! TA.AperFunction,SMDPad,CuDef*
%ADD18R,0.800000X0.900000*%
G04 #@! TD*
G04 #@! TA.AperFunction,SMDPad,CuDef*
%ADD19R,2.700000X2.700000*%
G04 #@! TD*
G04 #@! TA.AperFunction,ComponentPad*
%ADD20C,0.500000*%
G04 #@! TD*
G04 #@! TA.AperFunction,SMDPad,CuDef*
%ADD21R,1.400000X0.700000*%
G04 #@! TD*
G04 #@! TA.AperFunction,SMDPad,CuDef*
%ADD22R,1.400000X1.600000*%
G04 #@! TD*
G04 #@! TA.AperFunction,SMDPad,CuDef*
%ADD23R,2.200000X1.200000*%
G04 #@! TD*
G04 #@! TA.AperFunction,SMDPad,CuDef*
%ADD24R,3.800000X2.000000*%
G04 #@! TD*
G04 #@! TA.AperFunction,SMDPad,CuDef*
%ADD25R,1.500000X2.000000*%
G04 #@! TD*
G04 #@! TA.AperFunction,ViaPad*
%ADD26C,0.800000*%
G04 #@! TD*
G04 #@! TA.AperFunction,ViaPad*
%ADD27C,0.600000*%
G04 #@! TD*
G04 #@! TA.AperFunction,ViaPad*
%ADD28C,0.450000*%
G04 #@! TD*
G04 #@! TA.AperFunction,Conductor*
%ADD29C,0.500000*%
G04 #@! TD*
G04 #@! TA.AperFunction,Conductor*
%ADD30C,1.000000*%
G04 #@! TD*
G04 #@! TA.AperFunction,Conductor*
%ADD31C,0.250000*%
G04 #@! TD*
G04 #@! TA.AperFunction,Conductor*
%ADD32C,1.500000*%
G04 #@! TD*
G04 #@! TA.AperFunction,Conductor*
%ADD33C,0.700000*%
G04 #@! TD*
G04 #@! TA.AperFunction,Conductor*
%ADD34C,0.300000*%
G04 #@! TD*
G04 #@! TA.AperFunction,Conductor*
%ADD35C,0.230000*%
G04 #@! TD*
G04 #@! TA.AperFunction,Conductor*
%ADD36C,0.400000*%
G04 #@! TD*
G04 #@! TA.AperFunction,Conductor*
%ADD37C,0.254000*%
G04 #@! TD*
G04 #@! TA.AperFunction,Conductor*
%ADD38C,0.100000*%
G04 #@! TD*
G04 APERTURE END LIST*
G04 #@! TA.AperFunction,SMDPad,CuDef*
D10*
G36*
X159000000Y-104350000D02*
G01*
X159000000Y-103850000D01*
X159000602Y-103850000D01*
X159000602Y-103825466D01*
X159005412Y-103776635D01*
X159014984Y-103728510D01*
X159029228Y-103681555D01*
X159048005Y-103636222D01*
X159071136Y-103592949D01*
X159098396Y-103552150D01*
X159129524Y-103514221D01*
X159164221Y-103479524D01*
X159202150Y-103448396D01*
X159242949Y-103421136D01*
X159286222Y-103398005D01*
X159331555Y-103379228D01*
X159378510Y-103364984D01*
X159426635Y-103355412D01*
X159475466Y-103350602D01*
X159500000Y-103350602D01*
X159500000Y-103350000D01*
X160000000Y-103350000D01*
X160000000Y-103350602D01*
X160024534Y-103350602D01*
X160073365Y-103355412D01*
X160121490Y-103364984D01*
X160168445Y-103379228D01*
X160213778Y-103398005D01*
X160257051Y-103421136D01*
X160297850Y-103448396D01*
X160335779Y-103479524D01*
X160370476Y-103514221D01*
X160401604Y-103552150D01*
X160428864Y-103592949D01*
X160451995Y-103636222D01*
X160470772Y-103681555D01*
X160485016Y-103728510D01*
X160494588Y-103776635D01*
X160499398Y-103825466D01*
X160499398Y-103850000D01*
X160500000Y-103850000D01*
X160500000Y-104350000D01*
X159000000Y-104350000D01*
G37*
G04 #@! TD.AperFunction*
G04 #@! TA.AperFunction,SMDPad,CuDef*
G36*
X160499398Y-105150000D02*
G01*
X160499398Y-105174534D01*
X160494588Y-105223365D01*
X160485016Y-105271490D01*
X160470772Y-105318445D01*
X160451995Y-105363778D01*
X160428864Y-105407051D01*
X160401604Y-105447850D01*
X160370476Y-105485779D01*
X160335779Y-105520476D01*
X160297850Y-105551604D01*
X160257051Y-105578864D01*
X160213778Y-105601995D01*
X160168445Y-105620772D01*
X160121490Y-105635016D01*
X160073365Y-105644588D01*
X160024534Y-105649398D01*
X160000000Y-105649398D01*
X160000000Y-105650000D01*
X159500000Y-105650000D01*
X159500000Y-105649398D01*
X159475466Y-105649398D01*
X159426635Y-105644588D01*
X159378510Y-105635016D01*
X159331555Y-105620772D01*
X159286222Y-105601995D01*
X159242949Y-105578864D01*
X159202150Y-105551604D01*
X159164221Y-105520476D01*
X159129524Y-105485779D01*
X159098396Y-105447850D01*
X159071136Y-105407051D01*
X159048005Y-105363778D01*
X159029228Y-105318445D01*
X159014984Y-105271490D01*
X159005412Y-105223365D01*
X159000602Y-105174534D01*
X159000602Y-105150000D01*
X159000000Y-105150000D01*
X159000000Y-104650000D01*
X160500000Y-104650000D01*
X160500000Y-105150000D01*
X160499398Y-105150000D01*
G37*
G04 #@! TD.AperFunction*
G04 #@! TA.AperFunction,SMDPad,CuDef*
G36*
G01*
X132425000Y-90950000D02*
X132975000Y-90950000D01*
G75*
G02*
X133175000Y-91150000I0J-200000D01*
G01*
X133175000Y-91550000D01*
G75*
G02*
X132975000Y-91750000I-200000J0D01*
G01*
X132425000Y-91750000D01*
G75*
G02*
X132225000Y-91550000I0J200000D01*
G01*
X132225000Y-91150000D01*
G75*
G02*
X132425000Y-90950000I200000J0D01*
G01*
G37*
G04 #@! TD.AperFunction*
G04 #@! TA.AperFunction,SMDPad,CuDef*
G36*
G01*
X132425000Y-89300000D02*
X132975000Y-89300000D01*
G75*
G02*
X133175000Y-89500000I0J-200000D01*
G01*
X133175000Y-89900000D01*
G75*
G02*
X132975000Y-90100000I-200000J0D01*
G01*
X132425000Y-90100000D01*
G75*
G02*
X132225000Y-89900000I0J200000D01*
G01*
X132225000Y-89500000D01*
G75*
G02*
X132425000Y-89300000I200000J0D01*
G01*
G37*
G04 #@! TD.AperFunction*
D11*
X130050000Y-92260000D03*
X130050000Y-89720000D03*
X130050000Y-87180000D03*
D12*
X130050000Y-84640000D03*
G04 #@! TA.AperFunction,SMDPad,CuDef*
G36*
G01*
X132425000Y-86200000D02*
X132975000Y-86200000D01*
G75*
G02*
X133175000Y-86400000I0J-200000D01*
G01*
X133175000Y-86800000D01*
G75*
G02*
X132975000Y-87000000I-200000J0D01*
G01*
X132425000Y-87000000D01*
G75*
G02*
X132225000Y-86800000I0J200000D01*
G01*
X132225000Y-86400000D01*
G75*
G02*
X132425000Y-86200000I200000J0D01*
G01*
G37*
G04 #@! TD.AperFunction*
G04 #@! TA.AperFunction,SMDPad,CuDef*
G36*
G01*
X132425000Y-84550000D02*
X132975000Y-84550000D01*
G75*
G02*
X133175000Y-84750000I0J-200000D01*
G01*
X133175000Y-85150000D01*
G75*
G02*
X132975000Y-85350000I-200000J0D01*
G01*
X132425000Y-85350000D01*
G75*
G02*
X132225000Y-85150000I0J200000D01*
G01*
X132225000Y-84750000D01*
G75*
G02*
X132425000Y-84550000I200000J0D01*
G01*
G37*
G04 #@! TD.AperFunction*
D13*
X132500000Y-104250000D03*
D14*
X132500000Y-100750000D03*
G04 #@! TA.AperFunction,SMDPad,CuDef*
G36*
G01*
X152575000Y-67725000D02*
X153125000Y-67725000D01*
G75*
G02*
X153325000Y-67925000I0J-200000D01*
G01*
X153325000Y-68325000D01*
G75*
G02*
X153125000Y-68525000I-200000J0D01*
G01*
X152575000Y-68525000D01*
G75*
G02*
X152375000Y-68325000I0J200000D01*
G01*
X152375000Y-67925000D01*
G75*
G02*
X152575000Y-67725000I200000J0D01*
G01*
G37*
G04 #@! TD.AperFunction*
G04 #@! TA.AperFunction,SMDPad,CuDef*
G36*
G01*
X152575000Y-66075000D02*
X153125000Y-66075000D01*
G75*
G02*
X153325000Y-66275000I0J-200000D01*
G01*
X153325000Y-66675000D01*
G75*
G02*
X153125000Y-66875000I-200000J0D01*
G01*
X152575000Y-66875000D01*
G75*
G02*
X152375000Y-66675000I0J200000D01*
G01*
X152375000Y-66275000D01*
G75*
G02*
X152575000Y-66075000I200000J0D01*
G01*
G37*
G04 #@! TD.AperFunction*
D12*
X166516000Y-85392000D03*
G04 #@! TA.AperFunction,SMDPad,CuDef*
G36*
G01*
X131200000Y-72100000D02*
X131200000Y-71600000D01*
G75*
G02*
X131425000Y-71375000I225000J0D01*
G01*
X131875000Y-71375000D01*
G75*
G02*
X132100000Y-71600000I0J-225000D01*
G01*
X132100000Y-72100000D01*
G75*
G02*
X131875000Y-72325000I-225000J0D01*
G01*
X131425000Y-72325000D01*
G75*
G02*
X131200000Y-72100000I0J225000D01*
G01*
G37*
G04 #@! TD.AperFunction*
G04 #@! TA.AperFunction,SMDPad,CuDef*
G36*
G01*
X129650000Y-72100000D02*
X129650000Y-71600000D01*
G75*
G02*
X129875000Y-71375000I225000J0D01*
G01*
X130325000Y-71375000D01*
G75*
G02*
X130550000Y-71600000I0J-225000D01*
G01*
X130550000Y-72100000D01*
G75*
G02*
X130325000Y-72325000I-225000J0D01*
G01*
X129875000Y-72325000D01*
G75*
G02*
X129650000Y-72100000I0J225000D01*
G01*
G37*
G04 #@! TD.AperFunction*
G04 #@! TA.AperFunction,SMDPad,CuDef*
G36*
G01*
X162300000Y-67625000D02*
X162800000Y-67625000D01*
G75*
G02*
X163025000Y-67850000I0J-225000D01*
G01*
X163025000Y-68300000D01*
G75*
G02*
X162800000Y-68525000I-225000J0D01*
G01*
X162300000Y-68525000D01*
G75*
G02*
X162075000Y-68300000I0J225000D01*
G01*
X162075000Y-67850000D01*
G75*
G02*
X162300000Y-67625000I225000J0D01*
G01*
G37*
G04 #@! TD.AperFunction*
G04 #@! TA.AperFunction,SMDPad,CuDef*
G36*
G01*
X162300000Y-66075000D02*
X162800000Y-66075000D01*
G75*
G02*
X163025000Y-66300000I0J-225000D01*
G01*
X163025000Y-66750000D01*
G75*
G02*
X162800000Y-66975000I-225000J0D01*
G01*
X162300000Y-66975000D01*
G75*
G02*
X162075000Y-66750000I0J225000D01*
G01*
X162075000Y-66300000D01*
G75*
G02*
X162300000Y-66075000I225000J0D01*
G01*
G37*
G04 #@! TD.AperFunction*
D15*
X144180136Y-63082000D03*
D16*
X144180136Y-63527000D03*
D17*
X137195136Y-60542000D03*
X144180136Y-60542000D03*
D16*
X137195136Y-63527000D03*
D15*
X137195136Y-63082000D03*
D11*
X130050000Y-82100000D03*
X130050000Y-79560000D03*
X130050000Y-77020000D03*
D12*
X130050000Y-74480000D03*
G04 #@! TA.AperFunction,SMDPad,CuDef*
G36*
G01*
X136866000Y-72767000D02*
X136366000Y-72767000D01*
G75*
G02*
X136141000Y-72542000I0J225000D01*
G01*
X136141000Y-72092000D01*
G75*
G02*
X136366000Y-71867000I225000J0D01*
G01*
X136866000Y-71867000D01*
G75*
G02*
X137091000Y-72092000I0J-225000D01*
G01*
X137091000Y-72542000D01*
G75*
G02*
X136866000Y-72767000I-225000J0D01*
G01*
G37*
G04 #@! TD.AperFunction*
G04 #@! TA.AperFunction,SMDPad,CuDef*
G36*
G01*
X136866000Y-74317000D02*
X136366000Y-74317000D01*
G75*
G02*
X136141000Y-74092000I0J225000D01*
G01*
X136141000Y-73642000D01*
G75*
G02*
X136366000Y-73417000I225000J0D01*
G01*
X136866000Y-73417000D01*
G75*
G02*
X137091000Y-73642000I0J-225000D01*
G01*
X137091000Y-74092000D01*
G75*
G02*
X136866000Y-74317000I-225000J0D01*
G01*
G37*
G04 #@! TD.AperFunction*
G04 #@! TA.AperFunction,SMDPad,CuDef*
G36*
G01*
X133575000Y-82425000D02*
X133575000Y-82975000D01*
G75*
G02*
X133375000Y-83175000I-200000J0D01*
G01*
X132975000Y-83175000D01*
G75*
G02*
X132775000Y-82975000I0J200000D01*
G01*
X132775000Y-82425000D01*
G75*
G02*
X132975000Y-82225000I200000J0D01*
G01*
X133375000Y-82225000D01*
G75*
G02*
X133575000Y-82425000I0J-200000D01*
G01*
G37*
G04 #@! TD.AperFunction*
G04 #@! TA.AperFunction,SMDPad,CuDef*
G36*
G01*
X135225000Y-82425000D02*
X135225000Y-82975000D01*
G75*
G02*
X135025000Y-83175000I-200000J0D01*
G01*
X134625000Y-83175000D01*
G75*
G02*
X134425000Y-82975000I0J200000D01*
G01*
X134425000Y-82425000D01*
G75*
G02*
X134625000Y-82225000I200000J0D01*
G01*
X135025000Y-82225000D01*
G75*
G02*
X135225000Y-82425000I0J-200000D01*
G01*
G37*
G04 #@! TD.AperFunction*
G04 #@! TA.AperFunction,SMDPad,CuDef*
G36*
G01*
X151625000Y-66875000D02*
X151075000Y-66875000D01*
G75*
G02*
X150875000Y-66675000I0J200000D01*
G01*
X150875000Y-66275000D01*
G75*
G02*
X151075000Y-66075000I200000J0D01*
G01*
X151625000Y-66075000D01*
G75*
G02*
X151825000Y-66275000I0J-200000D01*
G01*
X151825000Y-66675000D01*
G75*
G02*
X151625000Y-66875000I-200000J0D01*
G01*
G37*
G04 #@! TD.AperFunction*
G04 #@! TA.AperFunction,SMDPad,CuDef*
G36*
G01*
X151625000Y-68525000D02*
X151075000Y-68525000D01*
G75*
G02*
X150875000Y-68325000I0J200000D01*
G01*
X150875000Y-67925000D01*
G75*
G02*
X151075000Y-67725000I200000J0D01*
G01*
X151625000Y-67725000D01*
G75*
G02*
X151825000Y-67925000I0J-200000D01*
G01*
X151825000Y-68325000D01*
G75*
G02*
X151625000Y-68525000I-200000J0D01*
G01*
G37*
G04 #@! TD.AperFunction*
D18*
X148666000Y-111492000D03*
X149616000Y-109492000D03*
X147716000Y-109492000D03*
G04 #@! TA.AperFunction,SMDPad,CuDef*
G36*
G01*
X150291000Y-106342000D02*
X149341000Y-106342000D01*
G75*
G02*
X149091000Y-106092000I0J250000D01*
G01*
X149091000Y-105592000D01*
G75*
G02*
X149341000Y-105342000I250000J0D01*
G01*
X150291000Y-105342000D01*
G75*
G02*
X150541000Y-105592000I0J-250000D01*
G01*
X150541000Y-106092000D01*
G75*
G02*
X150291000Y-106342000I-250000J0D01*
G01*
G37*
G04 #@! TD.AperFunction*
G04 #@! TA.AperFunction,SMDPad,CuDef*
G36*
G01*
X150291000Y-108242000D02*
X149341000Y-108242000D01*
G75*
G02*
X149091000Y-107992000I0J250000D01*
G01*
X149091000Y-107492000D01*
G75*
G02*
X149341000Y-107242000I250000J0D01*
G01*
X150291000Y-107242000D01*
G75*
G02*
X150541000Y-107492000I0J-250000D01*
G01*
X150541000Y-107992000D01*
G75*
G02*
X150291000Y-108242000I-250000J0D01*
G01*
G37*
G04 #@! TD.AperFunction*
G04 #@! TA.AperFunction,SMDPad,CuDef*
G36*
G01*
X145900000Y-77225000D02*
X145900000Y-76675000D01*
G75*
G02*
X146100000Y-76475000I200000J0D01*
G01*
X146500000Y-76475000D01*
G75*
G02*
X146700000Y-76675000I0J-200000D01*
G01*
X146700000Y-77225000D01*
G75*
G02*
X146500000Y-77425000I-200000J0D01*
G01*
X146100000Y-77425000D01*
G75*
G02*
X145900000Y-77225000I0J200000D01*
G01*
G37*
G04 #@! TD.AperFunction*
G04 #@! TA.AperFunction,SMDPad,CuDef*
G36*
G01*
X144250000Y-77225000D02*
X144250000Y-76675000D01*
G75*
G02*
X144450000Y-76475000I200000J0D01*
G01*
X144850000Y-76475000D01*
G75*
G02*
X145050000Y-76675000I0J-200000D01*
G01*
X145050000Y-77225000D01*
G75*
G02*
X144850000Y-77425000I-200000J0D01*
G01*
X144450000Y-77425000D01*
G75*
G02*
X144250000Y-77225000I0J200000D01*
G01*
G37*
G04 #@! TD.AperFunction*
G04 #@! TA.AperFunction,SMDPad,CuDef*
G36*
G01*
X147891000Y-73042000D02*
X148441000Y-73042000D01*
G75*
G02*
X148641000Y-73242000I0J-200000D01*
G01*
X148641000Y-73642000D01*
G75*
G02*
X148441000Y-73842000I-200000J0D01*
G01*
X147891000Y-73842000D01*
G75*
G02*
X147691000Y-73642000I0J200000D01*
G01*
X147691000Y-73242000D01*
G75*
G02*
X147891000Y-73042000I200000J0D01*
G01*
G37*
G04 #@! TD.AperFunction*
G04 #@! TA.AperFunction,SMDPad,CuDef*
G36*
G01*
X147891000Y-71392000D02*
X148441000Y-71392000D01*
G75*
G02*
X148641000Y-71592000I0J-200000D01*
G01*
X148641000Y-71992000D01*
G75*
G02*
X148441000Y-72192000I-200000J0D01*
G01*
X147891000Y-72192000D01*
G75*
G02*
X147691000Y-71992000I0J200000D01*
G01*
X147691000Y-71592000D01*
G75*
G02*
X147891000Y-71392000I200000J0D01*
G01*
G37*
G04 #@! TD.AperFunction*
G04 #@! TA.AperFunction,SMDPad,CuDef*
G36*
G01*
X147675000Y-89450000D02*
X147125000Y-89450000D01*
G75*
G02*
X146925000Y-89250000I0J200000D01*
G01*
X146925000Y-88850000D01*
G75*
G02*
X147125000Y-88650000I200000J0D01*
G01*
X147675000Y-88650000D01*
G75*
G02*
X147875000Y-88850000I0J-200000D01*
G01*
X147875000Y-89250000D01*
G75*
G02*
X147675000Y-89450000I-200000J0D01*
G01*
G37*
G04 #@! TD.AperFunction*
G04 #@! TA.AperFunction,SMDPad,CuDef*
G36*
G01*
X147675000Y-91100000D02*
X147125000Y-91100000D01*
G75*
G02*
X146925000Y-90900000I0J200000D01*
G01*
X146925000Y-90500000D01*
G75*
G02*
X147125000Y-90300000I200000J0D01*
G01*
X147675000Y-90300000D01*
G75*
G02*
X147875000Y-90500000I0J-200000D01*
G01*
X147875000Y-90900000D01*
G75*
G02*
X147675000Y-91100000I-200000J0D01*
G01*
G37*
G04 #@! TD.AperFunction*
G04 #@! TA.AperFunction,SMDPad,CuDef*
G36*
G01*
X150100000Y-66875000D02*
X149550000Y-66875000D01*
G75*
G02*
X149350000Y-66675000I0J200000D01*
G01*
X149350000Y-66275000D01*
G75*
G02*
X149550000Y-66075000I200000J0D01*
G01*
X150100000Y-66075000D01*
G75*
G02*
X150300000Y-66275000I0J-200000D01*
G01*
X150300000Y-66675000D01*
G75*
G02*
X150100000Y-66875000I-200000J0D01*
G01*
G37*
G04 #@! TD.AperFunction*
G04 #@! TA.AperFunction,SMDPad,CuDef*
G36*
G01*
X150100000Y-68525000D02*
X149550000Y-68525000D01*
G75*
G02*
X149350000Y-68325000I0J200000D01*
G01*
X149350000Y-67925000D01*
G75*
G02*
X149550000Y-67725000I200000J0D01*
G01*
X150100000Y-67725000D01*
G75*
G02*
X150300000Y-67925000I0J-200000D01*
G01*
X150300000Y-68325000D01*
G75*
G02*
X150100000Y-68525000I-200000J0D01*
G01*
G37*
G04 #@! TD.AperFunction*
G04 #@! TA.AperFunction,SMDPad,CuDef*
G36*
G01*
X160891000Y-89217000D02*
X160891000Y-89767000D01*
G75*
G02*
X160691000Y-89967000I-200000J0D01*
G01*
X160291000Y-89967000D01*
G75*
G02*
X160091000Y-89767000I0J200000D01*
G01*
X160091000Y-89217000D01*
G75*
G02*
X160291000Y-89017000I200000J0D01*
G01*
X160691000Y-89017000D01*
G75*
G02*
X160891000Y-89217000I0J-200000D01*
G01*
G37*
G04 #@! TD.AperFunction*
G04 #@! TA.AperFunction,SMDPad,CuDef*
G36*
G01*
X162541000Y-89217000D02*
X162541000Y-89767000D01*
G75*
G02*
X162341000Y-89967000I-200000J0D01*
G01*
X161941000Y-89967000D01*
G75*
G02*
X161741000Y-89767000I0J200000D01*
G01*
X161741000Y-89217000D01*
G75*
G02*
X161941000Y-89017000I200000J0D01*
G01*
X162341000Y-89017000D01*
G75*
G02*
X162541000Y-89217000I0J-200000D01*
G01*
G37*
G04 #@! TD.AperFunction*
G04 #@! TA.AperFunction,SMDPad,CuDef*
G36*
G01*
X160891000Y-90717000D02*
X160891000Y-91267000D01*
G75*
G02*
X160691000Y-91467000I-200000J0D01*
G01*
X160291000Y-91467000D01*
G75*
G02*
X160091000Y-91267000I0J200000D01*
G01*
X160091000Y-90717000D01*
G75*
G02*
X160291000Y-90517000I200000J0D01*
G01*
X160691000Y-90517000D01*
G75*
G02*
X160891000Y-90717000I0J-200000D01*
G01*
G37*
G04 #@! TD.AperFunction*
G04 #@! TA.AperFunction,SMDPad,CuDef*
G36*
G01*
X162541000Y-90717000D02*
X162541000Y-91267000D01*
G75*
G02*
X162341000Y-91467000I-200000J0D01*
G01*
X161941000Y-91467000D01*
G75*
G02*
X161741000Y-91267000I0J200000D01*
G01*
X161741000Y-90717000D01*
G75*
G02*
X161941000Y-90517000I200000J0D01*
G01*
X162341000Y-90517000D01*
G75*
G02*
X162541000Y-90717000I0J-200000D01*
G01*
G37*
G04 #@! TD.AperFunction*
G04 #@! TA.AperFunction,SMDPad,CuDef*
G36*
G01*
X149791000Y-94142000D02*
X149241000Y-94142000D01*
G75*
G02*
X149041000Y-93942000I0J200000D01*
G01*
X149041000Y-93542000D01*
G75*
G02*
X149241000Y-93342000I200000J0D01*
G01*
X149791000Y-93342000D01*
G75*
G02*
X149991000Y-93542000I0J-200000D01*
G01*
X149991000Y-93942000D01*
G75*
G02*
X149791000Y-94142000I-200000J0D01*
G01*
G37*
G04 #@! TD.AperFunction*
G04 #@! TA.AperFunction,SMDPad,CuDef*
G36*
G01*
X149791000Y-92492000D02*
X149241000Y-92492000D01*
G75*
G02*
X149041000Y-92292000I0J200000D01*
G01*
X149041000Y-91892000D01*
G75*
G02*
X149241000Y-91692000I200000J0D01*
G01*
X149791000Y-91692000D01*
G75*
G02*
X149991000Y-91892000I0J-200000D01*
G01*
X149991000Y-92292000D01*
G75*
G02*
X149791000Y-92492000I-200000J0D01*
G01*
G37*
G04 #@! TD.AperFunction*
D19*
X140936000Y-68022000D03*
D20*
X142036000Y-69122000D03*
X140936000Y-69122000D03*
X139836000Y-69122000D03*
X142036000Y-68022000D03*
X140936000Y-68022000D03*
X139836000Y-68022000D03*
X142036000Y-66922000D03*
X140936000Y-66922000D03*
X139836000Y-66922000D03*
D11*
X166516000Y-100592000D03*
X166516000Y-103132000D03*
X166516000Y-105672000D03*
D12*
X166516000Y-108212000D03*
D11*
X166516000Y-87932000D03*
X166516000Y-90472000D03*
X166516000Y-93012000D03*
X166516000Y-95552000D03*
D12*
X166516000Y-98092000D03*
G04 #@! TA.AperFunction,SMDPad,CuDef*
G36*
G01*
X148441000Y-115092000D02*
X149391000Y-115092000D01*
G75*
G02*
X149641000Y-115342000I0J-250000D01*
G01*
X149641000Y-115842000D01*
G75*
G02*
X149391000Y-116092000I-250000J0D01*
G01*
X148441000Y-116092000D01*
G75*
G02*
X148191000Y-115842000I0J250000D01*
G01*
X148191000Y-115342000D01*
G75*
G02*
X148441000Y-115092000I250000J0D01*
G01*
G37*
G04 #@! TD.AperFunction*
G04 #@! TA.AperFunction,SMDPad,CuDef*
G36*
G01*
X148441000Y-113192000D02*
X149391000Y-113192000D01*
G75*
G02*
X149641000Y-113442000I0J-250000D01*
G01*
X149641000Y-113942000D01*
G75*
G02*
X149391000Y-114192000I-250000J0D01*
G01*
X148441000Y-114192000D01*
G75*
G02*
X148191000Y-113942000I0J250000D01*
G01*
X148191000Y-113442000D01*
G75*
G02*
X148441000Y-113192000I250000J0D01*
G01*
G37*
G04 #@! TD.AperFunction*
G04 #@! TA.AperFunction,SMDPad,CuDef*
G36*
G01*
X158491000Y-99892000D02*
X157541000Y-99892000D01*
G75*
G02*
X157291000Y-99642000I0J250000D01*
G01*
X157291000Y-99142000D01*
G75*
G02*
X157541000Y-98892000I250000J0D01*
G01*
X158491000Y-98892000D01*
G75*
G02*
X158741000Y-99142000I0J-250000D01*
G01*
X158741000Y-99642000D01*
G75*
G02*
X158491000Y-99892000I-250000J0D01*
G01*
G37*
G04 #@! TD.AperFunction*
G04 #@! TA.AperFunction,SMDPad,CuDef*
G36*
G01*
X158491000Y-101792000D02*
X157541000Y-101792000D01*
G75*
G02*
X157291000Y-101542000I0J250000D01*
G01*
X157291000Y-101042000D01*
G75*
G02*
X157541000Y-100792000I250000J0D01*
G01*
X158491000Y-100792000D01*
G75*
G02*
X158741000Y-101042000I0J-250000D01*
G01*
X158741000Y-101542000D01*
G75*
G02*
X158491000Y-101792000I-250000J0D01*
G01*
G37*
G04 #@! TD.AperFunction*
G04 #@! TA.AperFunction,SMDPad,CuDef*
G36*
G01*
X157759000Y-67733000D02*
X158309000Y-67733000D01*
G75*
G02*
X158509000Y-67933000I0J-200000D01*
G01*
X158509000Y-68333000D01*
G75*
G02*
X158309000Y-68533000I-200000J0D01*
G01*
X157759000Y-68533000D01*
G75*
G02*
X157559000Y-68333000I0J200000D01*
G01*
X157559000Y-67933000D01*
G75*
G02*
X157759000Y-67733000I200000J0D01*
G01*
G37*
G04 #@! TD.AperFunction*
G04 #@! TA.AperFunction,SMDPad,CuDef*
G36*
G01*
X157759000Y-66083000D02*
X158309000Y-66083000D01*
G75*
G02*
X158509000Y-66283000I0J-200000D01*
G01*
X158509000Y-66683000D01*
G75*
G02*
X158309000Y-66883000I-200000J0D01*
G01*
X157759000Y-66883000D01*
G75*
G02*
X157559000Y-66683000I0J200000D01*
G01*
X157559000Y-66283000D01*
G75*
G02*
X157759000Y-66083000I200000J0D01*
G01*
G37*
G04 #@! TD.AperFunction*
G04 #@! TA.AperFunction,SMDPad,CuDef*
G36*
G01*
X159259000Y-67733000D02*
X159809000Y-67733000D01*
G75*
G02*
X160009000Y-67933000I0J-200000D01*
G01*
X160009000Y-68333000D01*
G75*
G02*
X159809000Y-68533000I-200000J0D01*
G01*
X159259000Y-68533000D01*
G75*
G02*
X159059000Y-68333000I0J200000D01*
G01*
X159059000Y-67933000D01*
G75*
G02*
X159259000Y-67733000I200000J0D01*
G01*
G37*
G04 #@! TD.AperFunction*
G04 #@! TA.AperFunction,SMDPad,CuDef*
G36*
G01*
X159259000Y-66083000D02*
X159809000Y-66083000D01*
G75*
G02*
X160009000Y-66283000I0J-200000D01*
G01*
X160009000Y-66683000D01*
G75*
G02*
X159809000Y-66883000I-200000J0D01*
G01*
X159259000Y-66883000D01*
G75*
G02*
X159059000Y-66683000I0J200000D01*
G01*
X159059000Y-66283000D01*
G75*
G02*
X159259000Y-66083000I200000J0D01*
G01*
G37*
G04 #@! TD.AperFunction*
G04 #@! TA.AperFunction,SMDPad,CuDef*
G36*
G01*
X160759000Y-67733000D02*
X161309000Y-67733000D01*
G75*
G02*
X161509000Y-67933000I0J-200000D01*
G01*
X161509000Y-68333000D01*
G75*
G02*
X161309000Y-68533000I-200000J0D01*
G01*
X160759000Y-68533000D01*
G75*
G02*
X160559000Y-68333000I0J200000D01*
G01*
X160559000Y-67933000D01*
G75*
G02*
X160759000Y-67733000I200000J0D01*
G01*
G37*
G04 #@! TD.AperFunction*
G04 #@! TA.AperFunction,SMDPad,CuDef*
G36*
G01*
X160759000Y-66083000D02*
X161309000Y-66083000D01*
G75*
G02*
X161509000Y-66283000I0J-200000D01*
G01*
X161509000Y-66683000D01*
G75*
G02*
X161309000Y-66883000I-200000J0D01*
G01*
X160759000Y-66883000D01*
G75*
G02*
X160559000Y-66683000I0J200000D01*
G01*
X160559000Y-66283000D01*
G75*
G02*
X160759000Y-66083000I200000J0D01*
G01*
G37*
G04 #@! TD.AperFunction*
D18*
X155450000Y-68450000D03*
X156400000Y-66450000D03*
X154500000Y-66450000D03*
G04 #@! TA.AperFunction,SMDPad,CuDef*
G36*
G01*
X148400000Y-79400000D02*
X147900000Y-79400000D01*
G75*
G02*
X147675000Y-79175000I0J225000D01*
G01*
X147675000Y-78725000D01*
G75*
G02*
X147900000Y-78500000I225000J0D01*
G01*
X148400000Y-78500000D01*
G75*
G02*
X148625000Y-78725000I0J-225000D01*
G01*
X148625000Y-79175000D01*
G75*
G02*
X148400000Y-79400000I-225000J0D01*
G01*
G37*
G04 #@! TD.AperFunction*
G04 #@! TA.AperFunction,SMDPad,CuDef*
G36*
G01*
X148400000Y-80950000D02*
X147900000Y-80950000D01*
G75*
G02*
X147675000Y-80725000I0J225000D01*
G01*
X147675000Y-80275000D01*
G75*
G02*
X147900000Y-80050000I225000J0D01*
G01*
X148400000Y-80050000D01*
G75*
G02*
X148625000Y-80275000I0J-225000D01*
G01*
X148625000Y-80725000D01*
G75*
G02*
X148400000Y-80950000I-225000J0D01*
G01*
G37*
G04 #@! TD.AperFunction*
G04 #@! TA.AperFunction,SMDPad,CuDef*
G36*
G01*
X148556250Y-66950000D02*
X148043750Y-66950000D01*
G75*
G02*
X147825000Y-66731250I0J218750D01*
G01*
X147825000Y-66293750D01*
G75*
G02*
X148043750Y-66075000I218750J0D01*
G01*
X148556250Y-66075000D01*
G75*
G02*
X148775000Y-66293750I0J-218750D01*
G01*
X148775000Y-66731250D01*
G75*
G02*
X148556250Y-66950000I-218750J0D01*
G01*
G37*
G04 #@! TD.AperFunction*
G04 #@! TA.AperFunction,SMDPad,CuDef*
G36*
G01*
X148556250Y-68525000D02*
X148043750Y-68525000D01*
G75*
G02*
X147825000Y-68306250I0J218750D01*
G01*
X147825000Y-67868750D01*
G75*
G02*
X148043750Y-67650000I218750J0D01*
G01*
X148556250Y-67650000D01*
G75*
G02*
X148775000Y-67868750I0J-218750D01*
G01*
X148775000Y-68306250D01*
G75*
G02*
X148556250Y-68525000I-218750J0D01*
G01*
G37*
G04 #@! TD.AperFunction*
D21*
X149916000Y-72892000D03*
X149916000Y-73992000D03*
X149916000Y-75092000D03*
X149916000Y-76192000D03*
X149916000Y-77292000D03*
X149916000Y-78392000D03*
X149916000Y-71792000D03*
X149916000Y-79492000D03*
D22*
X150516000Y-70342000D03*
D23*
X160116000Y-70592000D03*
X160116000Y-86092000D03*
D22*
X150516000Y-85192000D03*
D21*
X149916000Y-80592000D03*
G04 #@! TA.AperFunction,SMDPad,CuDef*
G36*
G01*
X147909750Y-75979500D02*
X148422250Y-75979500D01*
G75*
G02*
X148641000Y-76198250I0J-218750D01*
G01*
X148641000Y-76635750D01*
G75*
G02*
X148422250Y-76854500I-218750J0D01*
G01*
X147909750Y-76854500D01*
G75*
G02*
X147691000Y-76635750I0J218750D01*
G01*
X147691000Y-76198250D01*
G75*
G02*
X147909750Y-75979500I218750J0D01*
G01*
G37*
G04 #@! TD.AperFunction*
G04 #@! TA.AperFunction,SMDPad,CuDef*
G36*
G01*
X147909750Y-74404500D02*
X148422250Y-74404500D01*
G75*
G02*
X148641000Y-74623250I0J-218750D01*
G01*
X148641000Y-75060750D01*
G75*
G02*
X148422250Y-75279500I-218750J0D01*
G01*
X147909750Y-75279500D01*
G75*
G02*
X147691000Y-75060750I0J218750D01*
G01*
X147691000Y-74623250D01*
G75*
G02*
X147909750Y-74404500I218750J0D01*
G01*
G37*
G04 #@! TD.AperFunction*
G04 #@! TA.AperFunction,SMDPad,CuDef*
G36*
G01*
X157816000Y-93647000D02*
X157816000Y-93347000D01*
G75*
G02*
X157966000Y-93197000I150000J0D01*
G01*
X159266000Y-93197000D01*
G75*
G02*
X159416000Y-93347000I0J-150000D01*
G01*
X159416000Y-93647000D01*
G75*
G02*
X159266000Y-93797000I-150000J0D01*
G01*
X157966000Y-93797000D01*
G75*
G02*
X157816000Y-93647000I0J150000D01*
G01*
G37*
G04 #@! TD.AperFunction*
G04 #@! TA.AperFunction,SMDPad,CuDef*
G36*
G01*
X157816000Y-92377000D02*
X157816000Y-92077000D01*
G75*
G02*
X157966000Y-91927000I150000J0D01*
G01*
X159266000Y-91927000D01*
G75*
G02*
X159416000Y-92077000I0J-150000D01*
G01*
X159416000Y-92377000D01*
G75*
G02*
X159266000Y-92527000I-150000J0D01*
G01*
X157966000Y-92527000D01*
G75*
G02*
X157816000Y-92377000I0J150000D01*
G01*
G37*
G04 #@! TD.AperFunction*
G04 #@! TA.AperFunction,SMDPad,CuDef*
G36*
G01*
X157816000Y-91107000D02*
X157816000Y-90807000D01*
G75*
G02*
X157966000Y-90657000I150000J0D01*
G01*
X159266000Y-90657000D01*
G75*
G02*
X159416000Y-90807000I0J-150000D01*
G01*
X159416000Y-91107000D01*
G75*
G02*
X159266000Y-91257000I-150000J0D01*
G01*
X157966000Y-91257000D01*
G75*
G02*
X157816000Y-91107000I0J150000D01*
G01*
G37*
G04 #@! TD.AperFunction*
G04 #@! TA.AperFunction,SMDPad,CuDef*
G36*
G01*
X157816000Y-89837000D02*
X157816000Y-89537000D01*
G75*
G02*
X157966000Y-89387000I150000J0D01*
G01*
X159266000Y-89387000D01*
G75*
G02*
X159416000Y-89537000I0J-150000D01*
G01*
X159416000Y-89837000D01*
G75*
G02*
X159266000Y-89987000I-150000J0D01*
G01*
X157966000Y-89987000D01*
G75*
G02*
X157816000Y-89837000I0J150000D01*
G01*
G37*
G04 #@! TD.AperFunction*
G04 #@! TA.AperFunction,SMDPad,CuDef*
G36*
G01*
X150616000Y-89837000D02*
X150616000Y-89537000D01*
G75*
G02*
X150766000Y-89387000I150000J0D01*
G01*
X152066000Y-89387000D01*
G75*
G02*
X152216000Y-89537000I0J-150000D01*
G01*
X152216000Y-89837000D01*
G75*
G02*
X152066000Y-89987000I-150000J0D01*
G01*
X150766000Y-89987000D01*
G75*
G02*
X150616000Y-89837000I0J150000D01*
G01*
G37*
G04 #@! TD.AperFunction*
G04 #@! TA.AperFunction,SMDPad,CuDef*
G36*
G01*
X150616000Y-91107000D02*
X150616000Y-90807000D01*
G75*
G02*
X150766000Y-90657000I150000J0D01*
G01*
X152066000Y-90657000D01*
G75*
G02*
X152216000Y-90807000I0J-150000D01*
G01*
X152216000Y-91107000D01*
G75*
G02*
X152066000Y-91257000I-150000J0D01*
G01*
X150766000Y-91257000D01*
G75*
G02*
X150616000Y-91107000I0J150000D01*
G01*
G37*
G04 #@! TD.AperFunction*
G04 #@! TA.AperFunction,SMDPad,CuDef*
G36*
G01*
X150616000Y-92377000D02*
X150616000Y-92077000D01*
G75*
G02*
X150766000Y-91927000I150000J0D01*
G01*
X152066000Y-91927000D01*
G75*
G02*
X152216000Y-92077000I0J-150000D01*
G01*
X152216000Y-92377000D01*
G75*
G02*
X152066000Y-92527000I-150000J0D01*
G01*
X150766000Y-92527000D01*
G75*
G02*
X150616000Y-92377000I0J150000D01*
G01*
G37*
G04 #@! TD.AperFunction*
G04 #@! TA.AperFunction,SMDPad,CuDef*
G36*
G01*
X150616000Y-93647000D02*
X150616000Y-93347000D01*
G75*
G02*
X150766000Y-93197000I150000J0D01*
G01*
X152066000Y-93197000D01*
G75*
G02*
X152216000Y-93347000I0J-150000D01*
G01*
X152216000Y-93647000D01*
G75*
G02*
X152066000Y-93797000I-150000J0D01*
G01*
X150766000Y-93797000D01*
G75*
G02*
X150616000Y-93647000I0J150000D01*
G01*
G37*
G04 #@! TD.AperFunction*
G04 #@! TA.AperFunction,SMDPad,CuDef*
G36*
G01*
X161650000Y-88156250D02*
X161650000Y-87643750D01*
G75*
G02*
X161868750Y-87425000I218750J0D01*
G01*
X162306250Y-87425000D01*
G75*
G02*
X162525000Y-87643750I0J-218750D01*
G01*
X162525000Y-88156250D01*
G75*
G02*
X162306250Y-88375000I-218750J0D01*
G01*
X161868750Y-88375000D01*
G75*
G02*
X161650000Y-88156250I0J218750D01*
G01*
G37*
G04 #@! TD.AperFunction*
G04 #@! TA.AperFunction,SMDPad,CuDef*
G36*
G01*
X160075000Y-88156250D02*
X160075000Y-87643750D01*
G75*
G02*
X160293750Y-87425000I218750J0D01*
G01*
X160731250Y-87425000D01*
G75*
G02*
X160950000Y-87643750I0J-218750D01*
G01*
X160950000Y-88156250D01*
G75*
G02*
X160731250Y-88375000I-218750J0D01*
G01*
X160293750Y-88375000D01*
G75*
G02*
X160075000Y-88156250I0J218750D01*
G01*
G37*
G04 #@! TD.AperFunction*
D24*
X154516000Y-101142000D03*
D25*
X154516000Y-107442000D03*
X152216000Y-107442000D03*
X156816000Y-107442000D03*
D11*
X151829000Y-110752000D03*
X151829000Y-113292000D03*
D12*
X151829000Y-115832000D03*
X154369000Y-115832000D03*
D11*
X154369000Y-113292000D03*
X154369000Y-110752000D03*
D12*
X156909000Y-115832000D03*
D11*
X156909000Y-113292000D03*
X156909000Y-110752000D03*
X159449000Y-110752000D03*
X159449000Y-113292000D03*
D12*
X159449000Y-115832000D03*
G04 #@! TA.AperFunction,SMDPad,CuDef*
G36*
G01*
X149259750Y-88679500D02*
X149772250Y-88679500D01*
G75*
G02*
X149991000Y-88898250I0J-218750D01*
G01*
X149991000Y-89335750D01*
G75*
G02*
X149772250Y-89554500I-218750J0D01*
G01*
X149259750Y-89554500D01*
G75*
G02*
X149041000Y-89335750I0J218750D01*
G01*
X149041000Y-88898250D01*
G75*
G02*
X149259750Y-88679500I218750J0D01*
G01*
G37*
G04 #@! TD.AperFunction*
G04 #@! TA.AperFunction,SMDPad,CuDef*
G36*
G01*
X149259750Y-90254500D02*
X149772250Y-90254500D01*
G75*
G02*
X149991000Y-90473250I0J-218750D01*
G01*
X149991000Y-90910750D01*
G75*
G02*
X149772250Y-91129500I-218750J0D01*
G01*
X149259750Y-91129500D01*
G75*
G02*
X149041000Y-90910750I0J218750D01*
G01*
X149041000Y-90473250D01*
G75*
G02*
X149259750Y-90254500I218750J0D01*
G01*
G37*
G04 #@! TD.AperFunction*
G04 #@! TA.AperFunction,SMDPad,CuDef*
G36*
G01*
X164172250Y-108317000D02*
X163659750Y-108317000D01*
G75*
G02*
X163441000Y-108098250I0J218750D01*
G01*
X163441000Y-107660750D01*
G75*
G02*
X163659750Y-107442000I218750J0D01*
G01*
X164172250Y-107442000D01*
G75*
G02*
X164391000Y-107660750I0J-218750D01*
G01*
X164391000Y-108098250D01*
G75*
G02*
X164172250Y-108317000I-218750J0D01*
G01*
G37*
G04 #@! TD.AperFunction*
G04 #@! TA.AperFunction,SMDPad,CuDef*
G36*
G01*
X164172250Y-106742000D02*
X163659750Y-106742000D01*
G75*
G02*
X163441000Y-106523250I0J218750D01*
G01*
X163441000Y-106085750D01*
G75*
G02*
X163659750Y-105867000I218750J0D01*
G01*
X164172250Y-105867000D01*
G75*
G02*
X164391000Y-106085750I0J-218750D01*
G01*
X164391000Y-106523250D01*
G75*
G02*
X164172250Y-106742000I-218750J0D01*
G01*
G37*
G04 #@! TD.AperFunction*
G04 #@! TA.AperFunction,SMDPad,CuDef*
G36*
G01*
X134316000Y-79906250D02*
X134316000Y-79393750D01*
G75*
G02*
X134534750Y-79175000I218750J0D01*
G01*
X134972250Y-79175000D01*
G75*
G02*
X135191000Y-79393750I0J-218750D01*
G01*
X135191000Y-79906250D01*
G75*
G02*
X134972250Y-80125000I-218750J0D01*
G01*
X134534750Y-80125000D01*
G75*
G02*
X134316000Y-79906250I0J218750D01*
G01*
G37*
G04 #@! TD.AperFunction*
G04 #@! TA.AperFunction,SMDPad,CuDef*
G36*
G01*
X132741000Y-79906250D02*
X132741000Y-79393750D01*
G75*
G02*
X132959750Y-79175000I218750J0D01*
G01*
X133397250Y-79175000D01*
G75*
G02*
X133616000Y-79393750I0J-218750D01*
G01*
X133616000Y-79906250D01*
G75*
G02*
X133397250Y-80125000I-218750J0D01*
G01*
X132959750Y-80125000D01*
G75*
G02*
X132741000Y-79906250I0J218750D01*
G01*
G37*
G04 #@! TD.AperFunction*
G04 #@! TA.AperFunction,SMDPad,CuDef*
G36*
G01*
X164356250Y-68525000D02*
X163843750Y-68525000D01*
G75*
G02*
X163625000Y-68306250I0J218750D01*
G01*
X163625000Y-67868750D01*
G75*
G02*
X163843750Y-67650000I218750J0D01*
G01*
X164356250Y-67650000D01*
G75*
G02*
X164575000Y-67868750I0J-218750D01*
G01*
X164575000Y-68306250D01*
G75*
G02*
X164356250Y-68525000I-218750J0D01*
G01*
G37*
G04 #@! TD.AperFunction*
G04 #@! TA.AperFunction,SMDPad,CuDef*
G36*
G01*
X164356250Y-66950000D02*
X163843750Y-66950000D01*
G75*
G02*
X163625000Y-66731250I0J218750D01*
G01*
X163625000Y-66293750D01*
G75*
G02*
X163843750Y-66075000I218750J0D01*
G01*
X164356250Y-66075000D01*
G75*
G02*
X164575000Y-66293750I0J-218750D01*
G01*
X164575000Y-66731250D01*
G75*
G02*
X164356250Y-66950000I-218750J0D01*
G01*
G37*
G04 #@! TD.AperFunction*
G04 #@! TA.AperFunction,SMDPad,CuDef*
G36*
G01*
X142793750Y-90350000D02*
X143306250Y-90350000D01*
G75*
G02*
X143525000Y-90568750I0J-218750D01*
G01*
X143525000Y-91006250D01*
G75*
G02*
X143306250Y-91225000I-218750J0D01*
G01*
X142793750Y-91225000D01*
G75*
G02*
X142575000Y-91006250I0J218750D01*
G01*
X142575000Y-90568750D01*
G75*
G02*
X142793750Y-90350000I218750J0D01*
G01*
G37*
G04 #@! TD.AperFunction*
G04 #@! TA.AperFunction,SMDPad,CuDef*
G36*
G01*
X142793750Y-88775000D02*
X143306250Y-88775000D01*
G75*
G02*
X143525000Y-88993750I0J-218750D01*
G01*
X143525000Y-89431250D01*
G75*
G02*
X143306250Y-89650000I-218750J0D01*
G01*
X142793750Y-89650000D01*
G75*
G02*
X142575000Y-89431250I0J218750D01*
G01*
X142575000Y-88993750D01*
G75*
G02*
X142793750Y-88775000I218750J0D01*
G01*
G37*
G04 #@! TD.AperFunction*
G04 #@! TA.AperFunction,SMDPad,CuDef*
G36*
G01*
X138966000Y-102501750D02*
X138966000Y-103014250D01*
G75*
G02*
X138747250Y-103233000I-218750J0D01*
G01*
X138309750Y-103233000D01*
G75*
G02*
X138091000Y-103014250I0J218750D01*
G01*
X138091000Y-102501750D01*
G75*
G02*
X138309750Y-102283000I218750J0D01*
G01*
X138747250Y-102283000D01*
G75*
G02*
X138966000Y-102501750I0J-218750D01*
G01*
G37*
G04 #@! TD.AperFunction*
G04 #@! TA.AperFunction,SMDPad,CuDef*
G36*
G01*
X140541000Y-102501750D02*
X140541000Y-103014250D01*
G75*
G02*
X140322250Y-103233000I-218750J0D01*
G01*
X139884750Y-103233000D01*
G75*
G02*
X139666000Y-103014250I0J218750D01*
G01*
X139666000Y-102501750D01*
G75*
G02*
X139884750Y-102283000I218750J0D01*
G01*
X140322250Y-102283000D01*
G75*
G02*
X140541000Y-102501750I0J-218750D01*
G01*
G37*
G04 #@! TD.AperFunction*
G04 #@! TA.AperFunction,SMDPad,CuDef*
G36*
G01*
X133600000Y-80943750D02*
X133600000Y-81456250D01*
G75*
G02*
X133381250Y-81675000I-218750J0D01*
G01*
X132943750Y-81675000D01*
G75*
G02*
X132725000Y-81456250I0J218750D01*
G01*
X132725000Y-80943750D01*
G75*
G02*
X132943750Y-80725000I218750J0D01*
G01*
X133381250Y-80725000D01*
G75*
G02*
X133600000Y-80943750I0J-218750D01*
G01*
G37*
G04 #@! TD.AperFunction*
G04 #@! TA.AperFunction,SMDPad,CuDef*
G36*
G01*
X135175000Y-80943750D02*
X135175000Y-81456250D01*
G75*
G02*
X134956250Y-81675000I-218750J0D01*
G01*
X134518750Y-81675000D01*
G75*
G02*
X134300000Y-81456250I0J218750D01*
G01*
X134300000Y-80943750D01*
G75*
G02*
X134518750Y-80725000I218750J0D01*
G01*
X134956250Y-80725000D01*
G75*
G02*
X135175000Y-80943750I0J-218750D01*
G01*
G37*
G04 #@! TD.AperFunction*
G04 #@! TA.AperFunction,SMDPad,CuDef*
G36*
G01*
X164172250Y-98317000D02*
X163659750Y-98317000D01*
G75*
G02*
X163441000Y-98098250I0J218750D01*
G01*
X163441000Y-97660750D01*
G75*
G02*
X163659750Y-97442000I218750J0D01*
G01*
X164172250Y-97442000D01*
G75*
G02*
X164391000Y-97660750I0J-218750D01*
G01*
X164391000Y-98098250D01*
G75*
G02*
X164172250Y-98317000I-218750J0D01*
G01*
G37*
G04 #@! TD.AperFunction*
G04 #@! TA.AperFunction,SMDPad,CuDef*
G36*
G01*
X164172250Y-96742000D02*
X163659750Y-96742000D01*
G75*
G02*
X163441000Y-96523250I0J218750D01*
G01*
X163441000Y-96085750D01*
G75*
G02*
X163659750Y-95867000I218750J0D01*
G01*
X164172250Y-95867000D01*
G75*
G02*
X164391000Y-96085750I0J-218750D01*
G01*
X164391000Y-96523250D01*
G75*
G02*
X164172250Y-96742000I-218750J0D01*
G01*
G37*
G04 #@! TD.AperFunction*
D26*
X146816000Y-80992000D03*
X139753500Y-94892000D03*
X143053500Y-84992000D03*
X152416000Y-78792000D03*
X157216000Y-92992000D03*
X144416000Y-94892000D03*
X137316000Y-73292000D03*
X159016000Y-102192000D03*
D27*
X162866000Y-89492000D03*
D26*
X142000000Y-81766994D03*
D27*
X147555000Y-72900000D03*
D26*
X151200000Y-77700000D03*
X155305010Y-85769250D03*
D27*
X133150000Y-83450000D03*
D26*
X144900000Y-68900000D03*
D27*
X139500000Y-100600004D03*
D26*
X153653500Y-99635021D03*
X155424682Y-99635021D03*
X154523334Y-99635021D03*
X150344990Y-91100000D03*
X161500000Y-71700000D03*
D27*
X146249462Y-90950538D03*
D26*
X143450002Y-76950000D03*
D27*
X133200000Y-78750000D03*
X163400000Y-65700000D03*
D26*
X140600000Y-71600000D03*
D27*
X131499992Y-91300000D03*
D26*
X155216000Y-106305010D03*
X153000000Y-73750000D03*
D27*
X133750000Y-86600000D03*
X136500000Y-95500000D03*
X149250000Y-67250000D03*
X136300000Y-62100000D03*
X136300000Y-59100000D03*
X136300000Y-60600000D03*
X145100000Y-62100000D03*
X145100000Y-60600000D03*
X145100000Y-59100000D03*
D26*
X146166000Y-64592000D03*
X146166000Y-67100000D03*
X146166000Y-72700000D03*
X134320000Y-64570000D03*
X134316000Y-67112000D03*
X134316000Y-72692000D03*
X134316000Y-75450000D03*
X140416000Y-75492000D03*
X146166000Y-69900000D03*
X137400000Y-75492000D03*
X146166000Y-75492000D03*
D27*
X141753500Y-97592000D03*
X141753500Y-101592000D03*
X141753500Y-100592000D03*
X141753500Y-99592000D03*
X141753500Y-98592000D03*
X150153500Y-101592000D03*
X150153500Y-100592000D03*
X150153500Y-99592000D03*
X150153500Y-98592000D03*
D26*
X139753500Y-93292000D03*
X160466000Y-78542000D03*
X145566000Y-112442000D03*
X145566000Y-113342000D03*
X145566000Y-114242000D03*
X145566000Y-116042000D03*
D27*
X149103500Y-101592000D03*
X148053500Y-101592000D03*
X147003500Y-101592000D03*
X145953500Y-101592000D03*
X144903500Y-101592000D03*
X143853500Y-101592000D03*
X142803500Y-101592000D03*
D26*
X140016000Y-113492000D03*
X140016000Y-112592000D03*
X140016000Y-111692000D03*
X140816000Y-112192000D03*
X140816000Y-113092000D03*
X140316000Y-108192000D03*
X140316000Y-107292000D03*
X140316000Y-106392000D03*
X140316000Y-105492000D03*
X145566000Y-115142000D03*
X141116000Y-106892000D03*
X141116000Y-107792000D03*
X141116000Y-105992000D03*
X146516000Y-112092000D03*
X147316000Y-107392000D03*
X158616000Y-107492000D03*
X151053500Y-99092000D03*
X150516000Y-108692000D03*
D27*
X146326824Y-78534986D03*
D26*
X148916006Y-81491994D03*
X157516000Y-108792000D03*
X143870500Y-98675000D03*
X148166761Y-100398550D03*
X134316000Y-69892000D03*
X157316000Y-94592000D03*
X152916000Y-93592000D03*
X150716000Y-107047010D03*
X137516000Y-72192000D03*
X159164518Y-99543482D03*
X150738058Y-94502321D03*
X153491928Y-80678616D03*
X140816000Y-81792000D03*
X141600000Y-84750000D03*
D27*
X143700000Y-72800000D03*
X140700000Y-72979661D03*
X142399996Y-73950000D03*
X144350000Y-71950000D03*
D26*
X144827036Y-86080356D03*
D27*
X144350000Y-88900000D03*
D28*
X141600000Y-65250000D03*
X139800000Y-65300000D03*
X141700000Y-63700000D03*
X139700000Y-63700000D03*
D27*
X136500000Y-65350000D03*
X136000000Y-66500000D03*
X136026699Y-67476699D03*
D26*
X152600000Y-87400000D03*
D27*
X162550000Y-65750000D03*
D26*
X141180603Y-95881985D03*
X149177265Y-88667376D03*
D27*
X162500000Y-88350000D03*
D26*
X158158000Y-86092000D03*
X158125000Y-87275000D03*
D27*
X139450000Y-102100000D03*
D26*
X150750000Y-81550000D03*
X143678317Y-80156534D03*
D27*
X149300000Y-70000000D03*
D26*
X151550000Y-75100000D03*
X160700000Y-83550000D03*
D27*
X161800000Y-70450000D03*
X165900000Y-71100000D03*
D26*
X162216000Y-76792000D03*
X159097157Y-98655010D03*
D27*
X143455010Y-70135933D03*
D26*
X156200000Y-67350000D03*
X151050000Y-100850000D03*
X143500000Y-75492000D03*
D27*
X143321043Y-73771043D03*
X139000000Y-66000000D03*
X138179984Y-68877010D03*
X136980000Y-70629998D03*
D26*
X134500000Y-110750006D03*
X157700000Y-106000000D03*
D27*
X153000000Y-70250000D03*
X140815999Y-91464979D03*
X138000000Y-92250000D03*
D26*
X154650000Y-68850000D03*
D27*
X148066000Y-86334005D03*
X157100000Y-96049998D03*
X151141196Y-88808804D03*
X154685023Y-95564977D03*
X158484193Y-96160193D03*
X157699992Y-85050000D03*
X146886019Y-86149913D03*
X150950012Y-87850000D03*
X154600000Y-97364990D03*
X153650000Y-95500000D03*
X149800000Y-83297000D03*
X153696031Y-84934745D03*
X158134485Y-84350314D03*
X146050000Y-92000000D03*
X164700000Y-90850000D03*
X164700000Y-69200000D03*
X164700009Y-88850009D03*
X152916000Y-92392000D03*
X155692019Y-83244990D03*
X157250657Y-91262935D03*
X155150000Y-83850000D03*
X157100000Y-83900008D03*
X156877807Y-90577807D03*
X152916000Y-91592000D03*
X154408739Y-79808944D03*
X154450000Y-82094386D03*
X155116000Y-81592000D03*
X153012009Y-77387989D03*
X146665009Y-81959328D03*
X151766000Y-83272000D03*
X150816000Y-83242002D03*
X145387000Y-81963000D03*
X158266000Y-95392000D03*
X151641075Y-94331979D03*
X157294990Y-71400000D03*
X146750000Y-92344990D03*
X144750000Y-104450000D03*
X137000000Y-84450000D03*
X143066000Y-65792000D03*
X140200000Y-84250000D03*
X136613057Y-76644990D03*
X134816000Y-76644990D03*
X135595002Y-78745423D03*
X139094075Y-83077886D03*
X144308629Y-67149725D03*
X136950000Y-81400010D03*
X144364739Y-66292060D03*
X139750000Y-83500000D03*
X139750000Y-80100000D03*
X145050740Y-65920818D03*
X160350000Y-67300000D03*
X158850000Y-67300000D03*
X148916000Y-83342000D03*
X144138845Y-83447000D03*
X134055750Y-80444250D03*
X143710204Y-82745401D03*
X147984193Y-83297010D03*
X134423021Y-77539988D03*
X134550000Y-78750000D03*
X150629865Y-86558541D03*
X155550000Y-89700002D03*
X159535005Y-87569989D03*
X148000000Y-87344990D03*
X158900001Y-84500001D03*
X146250000Y-79650000D03*
X144600000Y-82100000D03*
X144143285Y-91651101D03*
X147852401Y-91697877D03*
X137850000Y-101900000D03*
X158324994Y-88174994D03*
X138016000Y-67167000D03*
X142223131Y-70786757D03*
X152800009Y-88394990D03*
X152700000Y-90300000D03*
X140115780Y-74189663D03*
X138460990Y-83644990D03*
X139013193Y-74289193D03*
X137722258Y-81694553D03*
X135416000Y-69492000D03*
X136194990Y-81650000D03*
D26*
X152799101Y-103162000D03*
X151216000Y-104292000D03*
X154136000Y-103212000D03*
X161650000Y-100950000D03*
X141316000Y-115592000D03*
X155316000Y-109192000D03*
D27*
X156200000Y-105424230D03*
X153100006Y-105400000D03*
X159535000Y-85000000D03*
X162550000Y-84350000D03*
X133750000Y-85250000D03*
X133720000Y-89720000D03*
D29*
X153416000Y-101142000D02*
X153428000Y-101142000D01*
D30*
X153476000Y-101082000D02*
X153416000Y-101142000D01*
D29*
X154666000Y-101292000D02*
X154516000Y-101142000D01*
X158016000Y-101292000D02*
X154666000Y-101292000D01*
D31*
X158616000Y-93497000D02*
X158616000Y-92227000D01*
D29*
X149781000Y-90957000D02*
X149516000Y-90692000D01*
D31*
X149516000Y-92092000D02*
X149516000Y-90692000D01*
D29*
X166303500Y-97879500D02*
X166516000Y-98092000D01*
X163916000Y-97879500D02*
X166303500Y-97879500D01*
X166183500Y-107879500D02*
X166516000Y-108212000D01*
X163916000Y-107879500D02*
X166183500Y-107879500D01*
D31*
X136741000Y-73867000D02*
X137316000Y-73292000D01*
X136616000Y-73867000D02*
X136741000Y-73867000D01*
D29*
X151416000Y-90957000D02*
X150131000Y-90957000D01*
X150131000Y-90957000D02*
X149781000Y-90957000D01*
X148791000Y-77292000D02*
X149916000Y-77292000D01*
X149041000Y-77292000D02*
X149916000Y-77292000D01*
X148166000Y-76417000D02*
X149041000Y-77292000D01*
X158916000Y-102192000D02*
X159016000Y-102192000D01*
X158016000Y-101292000D02*
X158916000Y-102192000D01*
D31*
X162141000Y-90992000D02*
X162141000Y-89492000D01*
X157721000Y-93497000D02*
X157216000Y-92992000D01*
X158616000Y-93497000D02*
X157721000Y-93497000D01*
X162141000Y-89492000D02*
X162866000Y-89492000D01*
X148097000Y-73442000D02*
X147555000Y-72900000D01*
X148166000Y-73442000D02*
X148097000Y-73442000D01*
D29*
X150792000Y-77292000D02*
X151200000Y-77700000D01*
X149916000Y-77292000D02*
X150792000Y-77292000D01*
D31*
X133175000Y-83425000D02*
X133150000Y-83450000D01*
X133175000Y-82700000D02*
X133175000Y-83425000D01*
D29*
X154516000Y-99642355D02*
X154523334Y-99635021D01*
X154516000Y-101142000D02*
X154516000Y-99642355D01*
D31*
X150131000Y-90957000D02*
X150201990Y-90957000D01*
X150201990Y-90957000D02*
X150344990Y-91100000D01*
X146500000Y-90700000D02*
X146249462Y-90950538D01*
X147400000Y-90700000D02*
X146500000Y-90700000D01*
D29*
X148150000Y-77933000D02*
X148791000Y-77292000D01*
X148150000Y-78950000D02*
X148150000Y-77933000D01*
D31*
X143450002Y-76950000D02*
X144650000Y-76950000D01*
X133162500Y-82687500D02*
X133175000Y-82700000D01*
X133162500Y-81200000D02*
X133162500Y-82687500D01*
X133162500Y-79666000D02*
X133178500Y-79650000D01*
X133162500Y-81200000D02*
X133162500Y-79666000D01*
X133178500Y-78771500D02*
X133200000Y-78750000D01*
X133178500Y-79650000D02*
X133178500Y-78771500D01*
X164100000Y-66512500D02*
X164100000Y-66400000D01*
X164100000Y-66400000D02*
X163400000Y-65700000D01*
X149787500Y-66512500D02*
X149825000Y-66475000D01*
X148300000Y-66512500D02*
X149787500Y-66512500D01*
D29*
X155424682Y-100233318D02*
X154516000Y-101142000D01*
X155424682Y-99635021D02*
X155424682Y-100233318D01*
X153653500Y-100279500D02*
X154516000Y-101142000D01*
X153653500Y-99635021D02*
X153653500Y-100279500D01*
D31*
X132700000Y-91350000D02*
X131549992Y-91350000D01*
X131549992Y-91350000D02*
X131499992Y-91300000D01*
D29*
X154516000Y-107442000D02*
X154516000Y-107005010D01*
X154516000Y-107005010D02*
X155216000Y-106305010D01*
D31*
X132700000Y-86600000D02*
X133750000Y-86600000D01*
D29*
X130100000Y-71850000D02*
X130100000Y-74430000D01*
X130100000Y-74430000D02*
X130050000Y-74480000D01*
D31*
X149250000Y-67050000D02*
X149250000Y-67250000D01*
X149825000Y-66475000D02*
X149250000Y-67050000D01*
D32*
X151829000Y-115832000D02*
X154369000Y-115832000D01*
X154369000Y-115832000D02*
X156909000Y-115832000D01*
X159449000Y-115832000D02*
X156909000Y-115832000D01*
D31*
X147716000Y-107792000D02*
X147316000Y-107392000D01*
X147716000Y-109492000D02*
X147716000Y-107792000D01*
D33*
X158566000Y-107442000D02*
X158616000Y-107492000D01*
X156816000Y-107442000D02*
X158566000Y-107442000D01*
D29*
X149816000Y-107992000D02*
X150516000Y-108692000D01*
X149816000Y-107742000D02*
X149816000Y-107992000D01*
D33*
X156816000Y-108092000D02*
X157516000Y-108792000D01*
X156816000Y-107442000D02*
X156816000Y-108092000D01*
D29*
X165763500Y-96304500D02*
X166516000Y-95552000D01*
X163916000Y-96304500D02*
X165763500Y-96304500D01*
X165883500Y-106304500D02*
X166516000Y-105672000D01*
X163916000Y-106304500D02*
X165883500Y-106304500D01*
X149816000Y-107742000D02*
X150510990Y-107047010D01*
X150510990Y-107047010D02*
X150716000Y-107047010D01*
D31*
X137391000Y-72317000D02*
X137516000Y-72192000D01*
X136616000Y-72317000D02*
X137391000Y-72317000D01*
D29*
X148416000Y-75092000D02*
X148166000Y-74842000D01*
X149916000Y-75092000D02*
X148416000Y-75092000D01*
X158016000Y-99392000D02*
X159013036Y-99392000D01*
X159013036Y-99392000D02*
X159164518Y-99543482D01*
D31*
X144037500Y-89212500D02*
X144350000Y-88900000D01*
X143050000Y-89212500D02*
X144037500Y-89212500D01*
X162550000Y-66525000D02*
X162550000Y-65750000D01*
D29*
X149533000Y-89100000D02*
X149516000Y-89117000D01*
X150400000Y-89100000D02*
X149533000Y-89100000D01*
X151416000Y-89687000D02*
X150987000Y-89687000D01*
X150987000Y-89687000D02*
X150400000Y-89100000D01*
X149516000Y-89117000D02*
X149516000Y-89006111D01*
X149516000Y-89006111D02*
X149177265Y-88667376D01*
D31*
X162087500Y-87937500D02*
X162500000Y-88350000D01*
X162087500Y-87900000D02*
X162087500Y-87937500D01*
X140103500Y-102753500D02*
X139450000Y-102100000D01*
X140103500Y-102758000D02*
X140103500Y-102753500D01*
D29*
X148150000Y-80725988D02*
X148916006Y-81491994D01*
X148150000Y-80500000D02*
X148150000Y-80725988D01*
D34*
X137223500Y-59742000D02*
X137223500Y-62727000D01*
X144208500Y-59742000D02*
X144208500Y-62727000D01*
X158158000Y-86092000D02*
X160116000Y-86092000D01*
X149642000Y-70342000D02*
X149300000Y-70000000D01*
X150516000Y-70342000D02*
X149642000Y-70342000D01*
D29*
X151542000Y-75092000D02*
X151550000Y-75100000D01*
X149916000Y-75092000D02*
X151542000Y-75092000D01*
D35*
X145715392Y-85192000D02*
X144827036Y-86080356D01*
X150516000Y-85192000D02*
X145715392Y-85192000D01*
D31*
X161658000Y-70592000D02*
X161800000Y-70450000D01*
X160116000Y-70592000D02*
X161658000Y-70592000D01*
D29*
X158752990Y-98655010D02*
X159097157Y-98655010D01*
X158016000Y-99392000D02*
X158752990Y-98655010D01*
X156400000Y-67150000D02*
X156200000Y-67350000D01*
X156400000Y-66450000D02*
X156400000Y-67150000D01*
D32*
X151811000Y-115850000D02*
X151829000Y-115832000D01*
X149174000Y-115850000D02*
X151811000Y-115850000D01*
X148916000Y-115592000D02*
X149174000Y-115850000D01*
D29*
X131650000Y-75420000D02*
X131650000Y-71850000D01*
X130050000Y-77020000D02*
X131650000Y-75420000D01*
D33*
X156816000Y-107442000D02*
X156816000Y-106884000D01*
X156816000Y-106884000D02*
X157700000Y-106000000D01*
D31*
X153000000Y-69775000D02*
X153000000Y-70250000D01*
X151350000Y-68125000D02*
X153000000Y-69775000D01*
D32*
X148916000Y-113692000D02*
X150116000Y-113692000D01*
X150516000Y-113292000D02*
X151829000Y-113292000D01*
X150116000Y-113692000D02*
X150516000Y-113292000D01*
X151829000Y-113292000D02*
X154369000Y-113292000D01*
X154369000Y-113292000D02*
X156909000Y-113292000D01*
X156909000Y-113292000D02*
X159449000Y-113292000D01*
D33*
X148666000Y-113442000D02*
X148916000Y-113692000D01*
X148666000Y-111492000D02*
X148666000Y-113442000D01*
D31*
X144300000Y-92350000D02*
X141701020Y-92350000D01*
X144750000Y-91300000D02*
X144750000Y-91900000D01*
X141701020Y-92350000D02*
X140815999Y-91464979D01*
X144750000Y-91900000D02*
X144300000Y-92350000D01*
X144237500Y-90787500D02*
X144750000Y-91300000D01*
X143050000Y-90787500D02*
X144237500Y-90787500D01*
X138785021Y-91464979D02*
X140815999Y-91464979D01*
X138000000Y-92250000D02*
X138785021Y-91464979D01*
D36*
X155050000Y-68450000D02*
X154650000Y-68850000D01*
X155450000Y-68450000D02*
X155050000Y-68450000D01*
D31*
X151041196Y-88808804D02*
X151141196Y-88808804D01*
X148066000Y-86334005D02*
X148566397Y-86334005D01*
X148566397Y-86334005D02*
X151041196Y-88808804D01*
X157100000Y-96049998D02*
X155170044Y-96049998D01*
X155170044Y-96049998D02*
X154685023Y-95564977D01*
X146886019Y-86149913D02*
X147306937Y-85728995D01*
X148829007Y-85728995D02*
X150950012Y-87850000D01*
X147306937Y-85728995D02*
X148829007Y-85728995D01*
X157369999Y-88469999D02*
X157369999Y-85379993D01*
X157900000Y-89000000D02*
X157369999Y-88469999D01*
X157369999Y-85379993D02*
X157699992Y-85050000D01*
X159594999Y-89000000D02*
X157900000Y-89000000D01*
X159894999Y-88700000D02*
X159594999Y-89000000D01*
X160950000Y-88700000D02*
X159894999Y-88700000D01*
X161300000Y-89050000D02*
X160950000Y-88700000D01*
X161300000Y-93344386D02*
X161300000Y-89050000D01*
X158484193Y-96160193D02*
X161300000Y-93344386D01*
X154600000Y-96450000D02*
X153650000Y-95500000D01*
X154600000Y-97364990D02*
X154600000Y-96450000D01*
X152761286Y-84000000D02*
X153696031Y-84934745D01*
X150503000Y-84000000D02*
X152761286Y-84000000D01*
X149800000Y-83297000D02*
X150503000Y-84000000D01*
X151350000Y-66625000D02*
X152850000Y-68125000D01*
X151350000Y-66475000D02*
X151350000Y-66625000D01*
X154000000Y-69275000D02*
X152850000Y-68125000D01*
X154000000Y-74220000D02*
X154000000Y-69275000D01*
X158134485Y-78354485D02*
X154000000Y-74220000D01*
X158134485Y-84350314D02*
X158134485Y-78354485D01*
X164087500Y-68075000D02*
X164100000Y-68087500D01*
X162550000Y-68075000D02*
X164087500Y-68075000D01*
X164100000Y-68600000D02*
X164700000Y-69200000D01*
X164100000Y-68087500D02*
X164100000Y-68600000D01*
X164700000Y-93500000D02*
X164700000Y-90850000D01*
X160250000Y-97950000D02*
X164700000Y-93500000D01*
X157750000Y-97950000D02*
X160250000Y-97950000D01*
X156800000Y-98900000D02*
X157750000Y-97950000D01*
X147400000Y-94400000D02*
X151900000Y-98900000D01*
X147400000Y-92099588D02*
X147400000Y-94400000D01*
X151900000Y-98900000D02*
X156800000Y-98900000D01*
X147000413Y-91700001D02*
X147400000Y-92099588D01*
X146349999Y-91700001D02*
X147000413Y-91700001D01*
X146050000Y-92000000D02*
X146349999Y-91700001D01*
X164700009Y-83600009D02*
X164700009Y-88850009D01*
X163901012Y-82801012D02*
X164700009Y-83600009D01*
X163901012Y-68286488D02*
X163901012Y-82801012D01*
X164100000Y-68087500D02*
X163901012Y-68286488D01*
X149761000Y-93497000D02*
X149516000Y-93742000D01*
X151416000Y-93497000D02*
X149761000Y-93497000D01*
X151811000Y-93497000D02*
X151416000Y-93497000D01*
X152916000Y-92392000D02*
X151811000Y-93497000D01*
X160456000Y-90957000D02*
X160491000Y-90992000D01*
X158616000Y-90957000D02*
X160456000Y-90957000D01*
X155750000Y-83187009D02*
X155692019Y-83244990D01*
X155750000Y-79000000D02*
X155750000Y-83187009D01*
X152942000Y-76192000D02*
X155750000Y-79000000D01*
X149916000Y-76192000D02*
X152942000Y-76192000D01*
X157556592Y-90957000D02*
X157250657Y-91262935D01*
X158616000Y-90957000D02*
X157556592Y-90957000D01*
X160296000Y-89687000D02*
X160491000Y-89492000D01*
X158616000Y-89687000D02*
X160296000Y-89687000D01*
X152801012Y-80818885D02*
X152801012Y-81501012D01*
X152801012Y-81501012D02*
X155150000Y-83850000D01*
X150374127Y-78392000D02*
X152801012Y-80818885D01*
X149916000Y-78392000D02*
X150374127Y-78392000D01*
X157100000Y-83900008D02*
X156800001Y-84200007D01*
X158616000Y-89687000D02*
X157768614Y-89687000D01*
X156800001Y-84200007D02*
X156800001Y-90500001D01*
X156800001Y-90500001D02*
X156877807Y-90577807D01*
X157768614Y-89687000D02*
X156877807Y-90577807D01*
X152051000Y-91592000D02*
X151416000Y-92227000D01*
X152916000Y-91592000D02*
X152051000Y-91592000D01*
X149916000Y-73992000D02*
X150866000Y-73992000D01*
X156316000Y-90034000D02*
X156316000Y-78416000D01*
X151892000Y-73992000D02*
X149916000Y-73992000D01*
X156316000Y-78416000D02*
X151892000Y-73992000D01*
X154758000Y-91592000D02*
X156316000Y-90034000D01*
X152916000Y-91592000D02*
X154758000Y-91592000D01*
X149825000Y-68525000D02*
X149825000Y-68125000D01*
X151150000Y-69000000D02*
X150300000Y-69000000D01*
X152000000Y-69850000D02*
X151150000Y-69000000D01*
X152000000Y-73850000D02*
X152000000Y-69850000D01*
X151892000Y-73958000D02*
X152000000Y-73850000D01*
X150300000Y-69000000D02*
X149825000Y-68525000D01*
X151892000Y-73992000D02*
X151892000Y-73958000D01*
X154408739Y-79808944D02*
X154408739Y-82053125D01*
X154408739Y-82053125D02*
X154450000Y-82094386D01*
X155116000Y-81592000D02*
X155116000Y-79491980D01*
X155116000Y-79491980D02*
X153012009Y-77387989D01*
X150753327Y-82259327D02*
X151766000Y-83272000D01*
X146665009Y-81965009D02*
X146959327Y-82259327D01*
X146959327Y-82259327D02*
X150753327Y-82259327D01*
X146665009Y-81959328D02*
X146665009Y-81965009D01*
X150265998Y-82692000D02*
X146116000Y-82692000D01*
X146116000Y-82692000D02*
X145387000Y-81963000D01*
X150816000Y-83242002D02*
X150265998Y-82692000D01*
X154347429Y-94331979D02*
X151641075Y-94331979D01*
X155407450Y-95392000D02*
X154347429Y-94331979D01*
X158266000Y-95392000D02*
X155407450Y-95392000D01*
X157080000Y-71185010D02*
X157294990Y-71400000D01*
X157080000Y-67437000D02*
X157080000Y-71185010D01*
X158034000Y-66483000D02*
X157080000Y-67437000D01*
X146750000Y-93600000D02*
X146750000Y-92344990D01*
X146651402Y-93698598D02*
X146750000Y-93600000D01*
X146651402Y-93700000D02*
X146651402Y-93698598D01*
X142800098Y-95650000D02*
X144701402Y-95650000D01*
X141050000Y-97400098D02*
X142800098Y-95650000D01*
X141050000Y-102050000D02*
X141050000Y-97400098D01*
X143450000Y-104450000D02*
X141050000Y-102050000D01*
X144701402Y-95650000D02*
X146651402Y-93700000D01*
X144750000Y-104450000D02*
X143450000Y-104450000D01*
X149916000Y-71791002D02*
X149916000Y-71792000D01*
X148100000Y-69975002D02*
X149916000Y-71791002D01*
X146950000Y-71125002D02*
X148100000Y-69975002D01*
X146950000Y-73300000D02*
X146950000Y-71125002D01*
X145400000Y-74850000D02*
X146950000Y-73300000D01*
X142932368Y-79905447D02*
X145400000Y-77437815D01*
X145400000Y-77437815D02*
X145400000Y-74850000D01*
X141850000Y-83500000D02*
X141850000Y-82960396D01*
X142932368Y-81878028D02*
X142932368Y-79905447D01*
X141845402Y-83500000D02*
X141850000Y-83500000D01*
X140490401Y-84855001D02*
X141845402Y-83500000D01*
X137405001Y-84855001D02*
X140490401Y-84855001D01*
X141850000Y-82960396D02*
X142932368Y-81878028D01*
X137000000Y-84450000D02*
X137405001Y-84855001D01*
X148100000Y-68287500D02*
X148300000Y-68087500D01*
X148100000Y-69975002D02*
X148100000Y-68287500D01*
X140200000Y-84250000D02*
X137800000Y-84250000D01*
X137800000Y-84250000D02*
X135589989Y-82039989D01*
X135589989Y-77418979D02*
X134816000Y-76644990D01*
X135589989Y-78750436D02*
X135595002Y-78745423D01*
X135589989Y-78839989D02*
X135589989Y-78750436D01*
X135589989Y-82039989D02*
X135589989Y-78839989D01*
X135589989Y-78839989D02*
X135589989Y-77418979D01*
X135485011Y-82039989D02*
X134825000Y-82700000D01*
X135589989Y-82039989D02*
X135485011Y-82039989D01*
X136613057Y-75136943D02*
X136613057Y-76644990D01*
X139390928Y-72359072D02*
X136613057Y-75136943D01*
X141590928Y-72359072D02*
X139390928Y-72359072D01*
X142850000Y-71100000D02*
X141590928Y-72359072D01*
X142850000Y-66008000D02*
X142850000Y-71100000D01*
X143066000Y-65792000D02*
X142850000Y-66008000D01*
X144308629Y-68091371D02*
X144308629Y-67149725D01*
X144050000Y-69150000D02*
X144050000Y-68350000D01*
X144530011Y-69630011D02*
X144050000Y-69150000D01*
X144050000Y-68350000D02*
X144308629Y-68091371D01*
X141400000Y-74027299D02*
X144530011Y-70897288D01*
X141400000Y-75750000D02*
X141400000Y-74027299D01*
X139094075Y-78055925D02*
X141400000Y-75750000D01*
X144530011Y-70897288D02*
X144530011Y-69630011D01*
X139094075Y-83077886D02*
X139094075Y-78055925D01*
X138822321Y-73584661D02*
X141123339Y-73584661D01*
X144060011Y-70647989D02*
X144060011Y-69845532D01*
X143550000Y-66682535D02*
X143940475Y-66292060D01*
X136950000Y-77308000D02*
X138150000Y-76108000D01*
X143550000Y-69335521D02*
X143550000Y-66682535D01*
X144060011Y-69845532D02*
X143550000Y-69335521D01*
X138150000Y-74256982D02*
X138822321Y-73584661D01*
X138150000Y-76108000D02*
X138150000Y-74256982D01*
X136950000Y-81400010D02*
X136950000Y-77308000D01*
X143940475Y-66292060D02*
X144364739Y-66292060D01*
X141123339Y-73584661D02*
X144060011Y-70647989D01*
X139750000Y-80900000D02*
X139750000Y-80100000D01*
X139750000Y-83500000D02*
X139750000Y-80900000D01*
X145655001Y-68461599D02*
X145050740Y-67857338D01*
X145655001Y-69188401D02*
X145655001Y-68461599D01*
X145050740Y-67857338D02*
X145050740Y-65920818D01*
X145000004Y-69843398D02*
X145655001Y-69188401D01*
X139750000Y-80900000D02*
X139750000Y-78197701D01*
X145000004Y-72947697D02*
X145000004Y-69843398D01*
X139750000Y-78197701D02*
X145000004Y-72947697D01*
X161034000Y-66616000D02*
X160350000Y-67300000D01*
X161034000Y-66483000D02*
X161034000Y-66616000D01*
X159534000Y-66616000D02*
X158850000Y-67300000D01*
X159534000Y-66483000D02*
X159534000Y-66616000D01*
X149266000Y-72892000D02*
X149916000Y-72892000D01*
X148166000Y-71792000D02*
X149266000Y-72892000D01*
X148619538Y-79744990D02*
X149466548Y-80592000D01*
X147680462Y-79744990D02*
X148619538Y-79744990D01*
X147100000Y-79164528D02*
X147680462Y-79744990D01*
X147100000Y-77750000D02*
X147100000Y-79164528D01*
X149466548Y-80592000D02*
X149916000Y-80592000D01*
X146300000Y-76950000D02*
X147100000Y-77750000D01*
X148916000Y-83342000D02*
X148260999Y-83997001D01*
X148260999Y-83997001D02*
X144688846Y-83997001D01*
X144688846Y-83997001D02*
X144138845Y-83447000D01*
X134737500Y-81126000D02*
X134055750Y-80444250D01*
X144921010Y-83297010D02*
X147984193Y-83297010D01*
X143710204Y-82745401D02*
X144369401Y-82745401D01*
X144369401Y-82745401D02*
X144921010Y-83297010D01*
X134423021Y-78623021D02*
X134550000Y-78750000D01*
X134423021Y-77539988D02*
X134423021Y-78623021D01*
X134550000Y-79446500D02*
X134753500Y-79650000D01*
X134550000Y-78750000D02*
X134550000Y-79446500D01*
X133260012Y-77539988D02*
X134423021Y-77539988D01*
X131240000Y-79560000D02*
X133260012Y-77539988D01*
X130050000Y-79560000D02*
X131240000Y-79560000D01*
X150629865Y-86558541D02*
X152194999Y-88123675D01*
X152194999Y-88690397D02*
X153204604Y-89700002D01*
X152194999Y-88123675D02*
X152194999Y-88690397D01*
X153204604Y-89700002D02*
X155550000Y-89700002D01*
X163350000Y-86250000D02*
X162602999Y-86997001D01*
X162600000Y-83450000D02*
X163350000Y-84200000D01*
X162602999Y-86997001D02*
X160107993Y-86997001D01*
X158500000Y-74270000D02*
X162600000Y-78370000D01*
X160107993Y-86997001D02*
X159535005Y-87569989D01*
X158500000Y-69750000D02*
X158500000Y-74270000D01*
X163350000Y-84200000D02*
X163350000Y-86250000D01*
X159534000Y-68716000D02*
X158500000Y-69750000D01*
X162600000Y-78370000D02*
X162600000Y-83450000D01*
X159534000Y-68133000D02*
X159534000Y-68716000D01*
X146450000Y-89500000D02*
X146450000Y-88470726D01*
X146850000Y-89900000D02*
X146450000Y-89500000D01*
X146450000Y-88470726D02*
X147575736Y-87344990D01*
X147789192Y-89900000D02*
X146850000Y-89900000D01*
X147575736Y-87344990D02*
X148000000Y-87344990D01*
X161034000Y-68133000D02*
X163250000Y-70349000D01*
X148457402Y-94049278D02*
X148457402Y-90568210D01*
X163250000Y-70349000D02*
X163250000Y-83150000D01*
X163250000Y-83150000D02*
X164000000Y-83900000D01*
X164000000Y-83900000D02*
X164000000Y-89250000D01*
X164000000Y-89250000D02*
X163471001Y-89778999D01*
X163471001Y-92428999D02*
X158850000Y-97050000D01*
X163471001Y-89778999D02*
X163471001Y-92428999D01*
X152378114Y-97969990D02*
X148457402Y-94049278D01*
X156480010Y-97969990D02*
X152378114Y-97969990D01*
X157400000Y-97050000D02*
X156480010Y-97969990D01*
X158850000Y-97050000D02*
X157400000Y-97050000D01*
X148457402Y-90568210D02*
X147789192Y-89900000D01*
X157900000Y-68267000D02*
X158034000Y-68133000D01*
X157900000Y-76450000D02*
X157900000Y-68267000D01*
X159600000Y-78150000D02*
X157900000Y-76450000D01*
X159600000Y-83800002D02*
X159600000Y-78150000D01*
X158900001Y-84500001D02*
X159600000Y-83800002D01*
X145950001Y-79949999D02*
X146250000Y-79650000D01*
X144600000Y-81300000D02*
X145950001Y-79949999D01*
X144600000Y-82100000D02*
X144600000Y-81300000D01*
X143450000Y-82100000D02*
X144600000Y-82100000D01*
X143848444Y-84052001D02*
X143105203Y-83308760D01*
X143848444Y-86321556D02*
X143848444Y-84052001D01*
X141900000Y-88270000D02*
X143848444Y-86321556D01*
X141900000Y-91050000D02*
X141900000Y-88270000D01*
X143105203Y-82444797D02*
X143450000Y-82100000D01*
X143105203Y-83308760D02*
X143105203Y-82444797D01*
X142501101Y-91651101D02*
X141900000Y-91050000D01*
X144143285Y-91651101D02*
X142501101Y-91651101D01*
X164050000Y-93000000D02*
X164050000Y-90398000D01*
X159569989Y-97480011D02*
X164050000Y-93000000D01*
X157578115Y-97480011D02*
X159569989Y-97480011D01*
X156608126Y-98450000D02*
X157578115Y-97480011D01*
X164050000Y-90398000D02*
X166516000Y-87932000D01*
X152150000Y-98450000D02*
X156608126Y-98450000D01*
X147852401Y-94152401D02*
X152150000Y-98450000D01*
X147852401Y-91697877D02*
X147852401Y-94152401D01*
X138528500Y-102578500D02*
X137850000Y-101900000D01*
X138528500Y-102758000D02*
X138528500Y-102578500D01*
X159800006Y-88174994D02*
X158324994Y-88174994D01*
X160075000Y-87900000D02*
X159800006Y-88174994D01*
X160512500Y-87900000D02*
X160075000Y-87900000D01*
X150339712Y-90300000D02*
X152700000Y-90300000D01*
X149899222Y-89859510D02*
X150339712Y-90300000D01*
X148684510Y-89859510D02*
X149899222Y-89859510D01*
X147875000Y-89050000D02*
X148684510Y-89859510D01*
X147400000Y-89050000D02*
X147875000Y-89050000D01*
X154600000Y-86594999D02*
X152800009Y-88394990D01*
X154600000Y-84200000D02*
X154600000Y-86594999D01*
X152150000Y-81150000D02*
X152150000Y-81750000D01*
X150492000Y-79492000D02*
X152150000Y-81150000D01*
X152150000Y-81750000D02*
X154600000Y-84200000D01*
X149916000Y-79492000D02*
X150492000Y-79492000D01*
X139550000Y-76650000D02*
X138460990Y-77739010D01*
X138460990Y-77739010D02*
X138460990Y-83644990D01*
X139550000Y-74755443D02*
X139550000Y-76650000D01*
X140115780Y-74189663D02*
X139550000Y-74755443D01*
X137722258Y-77527742D02*
X137722258Y-81694553D01*
X138850000Y-76400000D02*
X137722258Y-77527742D01*
X138850000Y-74452386D02*
X138850000Y-76400000D01*
X139013193Y-74289193D02*
X138850000Y-74452386D01*
X136200002Y-81644988D02*
X136194990Y-81650000D01*
X135416000Y-69492000D02*
X135416000Y-76496596D01*
X135416000Y-76496596D02*
X136200002Y-77280598D01*
X136200002Y-77280598D02*
X136200002Y-81644988D01*
D33*
X149816000Y-105842000D02*
X151266000Y-105842000D01*
X152216000Y-106792000D02*
X152216000Y-107442000D01*
X151266000Y-105842000D02*
X152216000Y-106792000D01*
X151266000Y-105842000D02*
X152716000Y-104392000D01*
X152799101Y-104308899D02*
X152799101Y-103162000D01*
X152716000Y-104392000D02*
X152799101Y-104308899D01*
D29*
X159002408Y-105150000D02*
X159750000Y-105150000D01*
X158244408Y-104392000D02*
X159002408Y-105150000D01*
X152716000Y-104392000D02*
X158244408Y-104392000D01*
D33*
X149358000Y-104292000D02*
X151216000Y-104292000D01*
X148400000Y-105250000D02*
X149358000Y-104292000D01*
X148400000Y-108400000D02*
X148400000Y-105250000D01*
X149492000Y-109492000D02*
X148400000Y-108400000D01*
X149616000Y-109492000D02*
X149492000Y-109492000D01*
D29*
X161650000Y-101950000D02*
X159750000Y-103850000D01*
X161650000Y-100950000D02*
X161650000Y-101950000D01*
X158112000Y-103212000D02*
X158750000Y-103850000D01*
X154136000Y-103212000D02*
X158112000Y-103212000D01*
X158750000Y-103850000D02*
X159750000Y-103850000D01*
D31*
X151458000Y-109192000D02*
X155316000Y-109192000D01*
X144858000Y-110492000D02*
X150158000Y-110492000D01*
X150158000Y-110492000D02*
X151458000Y-109192000D01*
X141316000Y-114034000D02*
X144858000Y-110492000D01*
X141316000Y-115592000D02*
X141316000Y-114034000D01*
X153124236Y-105424230D02*
X153100006Y-105400000D01*
X156200000Y-105424230D02*
X153124236Y-105424230D01*
X159535000Y-85000000D02*
X161900000Y-85000000D01*
X161900000Y-85000000D02*
X162550000Y-84350000D01*
X154475000Y-66475000D02*
X154500000Y-66450000D01*
X152850000Y-66475000D02*
X154475000Y-66475000D01*
X132390000Y-84640000D02*
X132700000Y-84950000D01*
X130050000Y-84640000D02*
X132390000Y-84640000D01*
X133450000Y-84950000D02*
X133750000Y-85250000D01*
X132700000Y-84950000D02*
X133450000Y-84950000D01*
X130070000Y-89700000D02*
X130050000Y-89720000D01*
X132700000Y-89700000D02*
X130070000Y-89700000D01*
X133700000Y-89700000D02*
X133720000Y-89720000D01*
X132700000Y-89700000D02*
X133700000Y-89700000D01*
D37*
X155723000Y-101023000D02*
X153377000Y-101023000D01*
X153377000Y-99377000D01*
X155723000Y-99377000D01*
X155723000Y-101023000D01*
G04 #@! TA.AperFunction,Conductor*
D38*
G36*
X155723000Y-101023000D02*
G01*
X153377000Y-101023000D01*
X153377000Y-99377000D01*
X155723000Y-99377000D01*
X155723000Y-101023000D01*
G37*
G04 #@! TD.AperFunction*
M02*
