G04 #@! TF.GenerationSoftware,KiCad,Pcbnew,(5.1.7)-1*
G04 #@! TF.CreationDate,2021-03-01T18:39:25+01:00*
G04 #@! TF.ProjectId,Zeggreus,5a656767-7265-4757-932e-6b696361645f,rev?*
G04 #@! TF.SameCoordinates,Original*
G04 #@! TF.FileFunction,Copper,L1,Top*
G04 #@! TF.FilePolarity,Positive*
%FSLAX46Y46*%
G04 Gerber Fmt 4.6, Leading zero omitted, Abs format (unit mm)*
G04 Created by KiCad (PCBNEW (5.1.7)-1) date 2021-03-01 18:39:25*
%MOMM*%
%LPD*%
G01*
G04 APERTURE LIST*
G04 #@! TA.AperFunction,NonConductor*
%ADD10C,0.100000*%
G04 #@! TD*
G04 #@! TA.AperFunction,SMDPad,CuDef*
%ADD11R,1.000000X1.500000*%
G04 #@! TD*
G04 #@! TA.AperFunction,ComponentPad*
%ADD12O,1.700000X1.700000*%
G04 #@! TD*
G04 #@! TA.AperFunction,ComponentPad*
%ADD13R,1.700000X1.700000*%
G04 #@! TD*
G04 #@! TA.AperFunction,SMDPad,CuDef*
%ADD14R,0.900000X0.800000*%
G04 #@! TD*
G04 #@! TA.AperFunction,SMDPad,CuDef*
%ADD15R,1.100000X1.100000*%
G04 #@! TD*
G04 #@! TA.AperFunction,SMDPad,CuDef*
%ADD16R,1.300000X1.700000*%
G04 #@! TD*
G04 #@! TA.AperFunction,SMDPad,CuDef*
%ADD17R,0.500000X0.600000*%
G04 #@! TD*
G04 #@! TA.AperFunction,ComponentPad*
%ADD18C,2.400000*%
G04 #@! TD*
G04 #@! TA.AperFunction,ComponentPad*
%ADD19R,2.400000X2.400000*%
G04 #@! TD*
G04 #@! TA.AperFunction,SMDPad,CuDef*
%ADD20C,1.000000*%
G04 #@! TD*
G04 #@! TA.AperFunction,ComponentPad*
%ADD21C,0.970000*%
G04 #@! TD*
G04 #@! TA.AperFunction,SMDPad,CuDef*
%ADD22R,0.460000X0.890000*%
G04 #@! TD*
G04 #@! TA.AperFunction,SMDPad,CuDef*
%ADD23R,2.665000X4.190000*%
G04 #@! TD*
G04 #@! TA.AperFunction,SMDPad,CuDef*
%ADD24R,1.780000X4.190000*%
G04 #@! TD*
G04 #@! TA.AperFunction,SMDPad,CuDef*
%ADD25R,1.060000X0.650000*%
G04 #@! TD*
G04 #@! TA.AperFunction,SMDPad,CuDef*
%ADD26R,0.500000X0.300000*%
G04 #@! TD*
G04 #@! TA.AperFunction,SMDPad,CuDef*
%ADD27R,0.550000X0.550000*%
G04 #@! TD*
G04 #@! TA.AperFunction,ComponentPad*
%ADD28C,0.500000*%
G04 #@! TD*
G04 #@! TA.AperFunction,SMDPad,CuDef*
%ADD29R,2.700000X2.700000*%
G04 #@! TD*
G04 #@! TA.AperFunction,SMDPad,CuDef*
%ADD30R,1.850000X0.400000*%
G04 #@! TD*
G04 #@! TA.AperFunction,SMDPad,CuDef*
%ADD31R,0.900000X1.625000*%
G04 #@! TD*
G04 #@! TA.AperFunction,SMDPad,CuDef*
%ADD32R,1.900000X2.500000*%
G04 #@! TD*
G04 #@! TA.AperFunction,SMDPad,CuDef*
%ADD33R,1.700000X2.100000*%
G04 #@! TD*
G04 #@! TA.AperFunction,SMDPad,CuDef*
%ADD34R,0.675000X0.250000*%
G04 #@! TD*
G04 #@! TA.AperFunction,SMDPad,CuDef*
%ADD35R,0.250000X0.675000*%
G04 #@! TD*
G04 #@! TA.AperFunction,SMDPad,CuDef*
%ADD36R,0.650000X1.060000*%
G04 #@! TD*
G04 #@! TA.AperFunction,SMDPad,CuDef*
%ADD37R,1.400000X1.200000*%
G04 #@! TD*
G04 #@! TA.AperFunction,SMDPad,CuDef*
%ADD38R,0.500000X0.350000*%
G04 #@! TD*
G04 #@! TA.AperFunction,ViaPad*
%ADD39C,0.800000*%
G04 #@! TD*
G04 #@! TA.AperFunction,ViaPad*
%ADD40C,0.600000*%
G04 #@! TD*
G04 #@! TA.AperFunction,ViaPad*
%ADD41C,0.450000*%
G04 #@! TD*
G04 #@! TA.AperFunction,Conductor*
%ADD42C,0.300000*%
G04 #@! TD*
G04 #@! TA.AperFunction,Conductor*
%ADD43C,0.500000*%
G04 #@! TD*
G04 #@! TA.AperFunction,Conductor*
%ADD44C,0.250000*%
G04 #@! TD*
G04 #@! TA.AperFunction,Conductor*
%ADD45C,0.400000*%
G04 #@! TD*
G04 #@! TA.AperFunction,Conductor*
%ADD46C,0.700000*%
G04 #@! TD*
G04 #@! TA.AperFunction,Conductor*
%ADD47C,0.280000*%
G04 #@! TD*
G04 #@! TA.AperFunction,Conductor*
%ADD48C,0.200000*%
G04 #@! TD*
G04 #@! TA.AperFunction,Conductor*
%ADD49C,0.254000*%
G04 #@! TD*
G04 #@! TA.AperFunction,Conductor*
%ADD50C,0.100000*%
G04 #@! TD*
G04 APERTURE END LIST*
D10*
G36*
X141576075Y-62628641D02*
G01*
X140686852Y-63300000D01*
X139800017Y-62623468D01*
X141576075Y-62628641D01*
G37*
G36*
X140962439Y-63597724D02*
G01*
X140412732Y-63596821D01*
X140694705Y-63280000D01*
X140962439Y-63597724D01*
G37*
G36*
X140962408Y-65339657D02*
G01*
X140806888Y-65598127D01*
X140564847Y-65598674D01*
X140414256Y-65335824D01*
X140962408Y-65339657D01*
G37*
G04 #@! TA.AperFunction,SMDPad,CuDef*
G36*
G01*
X135825000Y-92050000D02*
X137175000Y-92050000D01*
G75*
G02*
X137450000Y-92325000I0J-275000D01*
G01*
X137450000Y-92875000D01*
G75*
G02*
X137175000Y-93150000I-275000J0D01*
G01*
X135825000Y-93150000D01*
G75*
G02*
X135550000Y-92875000I0J275000D01*
G01*
X135550000Y-92325000D01*
G75*
G02*
X135825000Y-92050000I275000J0D01*
G01*
G37*
G04 #@! TD.AperFunction*
G04 #@! TA.AperFunction,SMDPad,CuDef*
G36*
G01*
X135825000Y-96200000D02*
X137175000Y-96200000D01*
G75*
G02*
X137450000Y-96475000I0J-275000D01*
G01*
X137450000Y-97025000D01*
G75*
G02*
X137175000Y-97300000I-275000J0D01*
G01*
X135825000Y-97300000D01*
G75*
G02*
X135550000Y-97025000I0J275000D01*
G01*
X135550000Y-96475000D01*
G75*
G02*
X135825000Y-96200000I275000J0D01*
G01*
G37*
G04 #@! TD.AperFunction*
D11*
X157816000Y-107752000D03*
X152816000Y-107752000D03*
X152816000Y-102032000D03*
X157816000Y-102032000D03*
X155316000Y-107752000D03*
X155316000Y-102032000D03*
G04 #@! TA.AperFunction,SMDPad,CuDef*
G36*
G01*
X148325000Y-104900000D02*
X148875000Y-104900000D01*
G75*
G02*
X149075000Y-105100000I0J-200000D01*
G01*
X149075000Y-105500000D01*
G75*
G02*
X148875000Y-105700000I-200000J0D01*
G01*
X148325000Y-105700000D01*
G75*
G02*
X148125000Y-105500000I0J200000D01*
G01*
X148125000Y-105100000D01*
G75*
G02*
X148325000Y-104900000I200000J0D01*
G01*
G37*
G04 #@! TD.AperFunction*
G04 #@! TA.AperFunction,SMDPad,CuDef*
G36*
G01*
X148325000Y-103250000D02*
X148875000Y-103250000D01*
G75*
G02*
X149075000Y-103450000I0J-200000D01*
G01*
X149075000Y-103850000D01*
G75*
G02*
X148875000Y-104050000I-200000J0D01*
G01*
X148325000Y-104050000D01*
G75*
G02*
X148125000Y-103850000I0J200000D01*
G01*
X148125000Y-103450000D01*
G75*
G02*
X148325000Y-103250000I200000J0D01*
G01*
G37*
G04 #@! TD.AperFunction*
D12*
X130050000Y-92260000D03*
X130050000Y-89720000D03*
X130050000Y-87180000D03*
D13*
X130050000Y-84640000D03*
D14*
X132500000Y-108750000D03*
X134500000Y-107800000D03*
X134500000Y-109700000D03*
D15*
X155750000Y-68850000D03*
X155750000Y-71650000D03*
D16*
X160400000Y-71500000D03*
X158600000Y-71500000D03*
X160400000Y-69100000D03*
X158600000Y-69100000D03*
D17*
X137760000Y-68920000D03*
X137760000Y-70020000D03*
X136960000Y-70020000D03*
X136960000Y-68920000D03*
D18*
X132500000Y-104250000D03*
D19*
X132500000Y-100750000D03*
D20*
X138650000Y-89500000D03*
X136800000Y-79050000D03*
X136650000Y-83150000D03*
X138550000Y-86550000D03*
X139100000Y-79100000D03*
X140350000Y-88000000D03*
X145800000Y-82900000D03*
X156100000Y-81650000D03*
X144000000Y-81450000D03*
X154500000Y-78300000D03*
X145550000Y-77150000D03*
D13*
X166516000Y-85392000D03*
G04 #@! TA.AperFunction,SMDPad,CuDef*
G36*
G01*
X152366000Y-80717000D02*
X152866000Y-80717000D01*
G75*
G02*
X153091000Y-80942000I0J-225000D01*
G01*
X153091000Y-81392000D01*
G75*
G02*
X152866000Y-81617000I-225000J0D01*
G01*
X152366000Y-81617000D01*
G75*
G02*
X152141000Y-81392000I0J225000D01*
G01*
X152141000Y-80942000D01*
G75*
G02*
X152366000Y-80717000I225000J0D01*
G01*
G37*
G04 #@! TD.AperFunction*
G04 #@! TA.AperFunction,SMDPad,CuDef*
G36*
G01*
X152366000Y-79167000D02*
X152866000Y-79167000D01*
G75*
G02*
X153091000Y-79392000I0J-225000D01*
G01*
X153091000Y-79842000D01*
G75*
G02*
X152866000Y-80067000I-225000J0D01*
G01*
X152366000Y-80067000D01*
G75*
G02*
X152141000Y-79842000I0J225000D01*
G01*
X152141000Y-79392000D01*
G75*
G02*
X152366000Y-79167000I225000J0D01*
G01*
G37*
G04 #@! TD.AperFunction*
G04 #@! TA.AperFunction,SMDPad,CuDef*
G36*
G01*
X165175000Y-67600000D02*
X166525000Y-67600000D01*
G75*
G02*
X166800000Y-67875000I0J-275000D01*
G01*
X166800000Y-68425000D01*
G75*
G02*
X166525000Y-68700000I-275000J0D01*
G01*
X165175000Y-68700000D01*
G75*
G02*
X164900000Y-68425000I0J275000D01*
G01*
X164900000Y-67875000D01*
G75*
G02*
X165175000Y-67600000I275000J0D01*
G01*
G37*
G04 #@! TD.AperFunction*
G04 #@! TA.AperFunction,SMDPad,CuDef*
G36*
G01*
X165175000Y-71750000D02*
X166525000Y-71750000D01*
G75*
G02*
X166800000Y-72025000I0J-275000D01*
G01*
X166800000Y-72575000D01*
G75*
G02*
X166525000Y-72850000I-275000J0D01*
G01*
X165175000Y-72850000D01*
G75*
G02*
X164900000Y-72575000I0J275000D01*
G01*
X164900000Y-72025000D01*
G75*
G02*
X165175000Y-71750000I275000J0D01*
G01*
G37*
G04 #@! TD.AperFunction*
D21*
X144180136Y-63527000D03*
D22*
X144180136Y-63082000D03*
D23*
X137195136Y-60542000D03*
D24*
X140687636Y-60542000D03*
D23*
X144180136Y-60542000D03*
D21*
X137195136Y-63527000D03*
D22*
X137195136Y-63082000D03*
D12*
X130050000Y-82100000D03*
X130050000Y-79560000D03*
X130050000Y-77020000D03*
D13*
X130050000Y-74480000D03*
D25*
X157466000Y-78542000D03*
X157466000Y-79492000D03*
X157466000Y-77592000D03*
X159666000Y-77592000D03*
X159666000Y-78542000D03*
X159666000Y-79492000D03*
D26*
X141037636Y-64470681D03*
D27*
X140687636Y-65070681D03*
X140687636Y-63870681D03*
D26*
X140337636Y-64470681D03*
D28*
X142036000Y-69122000D03*
X140936000Y-69122000D03*
X139836000Y-69122000D03*
X142036000Y-68022000D03*
X140936000Y-68022000D03*
X139836000Y-68022000D03*
X142036000Y-66922000D03*
X140936000Y-66922000D03*
X139836000Y-66922000D03*
D29*
X140936000Y-68022000D03*
G04 #@! TA.AperFunction,SMDPad,CuDef*
G36*
G01*
X139561000Y-66409500D02*
X139561000Y-65709500D01*
G75*
G02*
X139623500Y-65647000I62500J0D01*
G01*
X139748500Y-65647000D01*
G75*
G02*
X139811000Y-65709500I0J-62500D01*
G01*
X139811000Y-66409500D01*
G75*
G02*
X139748500Y-66472000I-62500J0D01*
G01*
X139623500Y-66472000D01*
G75*
G02*
X139561000Y-66409500I0J62500D01*
G01*
G37*
G04 #@! TD.AperFunction*
G04 #@! TA.AperFunction,SMDPad,CuDef*
G36*
G01*
X140061000Y-66409500D02*
X140061000Y-65709500D01*
G75*
G02*
X140123500Y-65647000I62500J0D01*
G01*
X140248500Y-65647000D01*
G75*
G02*
X140311000Y-65709500I0J-62500D01*
G01*
X140311000Y-66409500D01*
G75*
G02*
X140248500Y-66472000I-62500J0D01*
G01*
X140123500Y-66472000D01*
G75*
G02*
X140061000Y-66409500I0J62500D01*
G01*
G37*
G04 #@! TD.AperFunction*
G04 #@! TA.AperFunction,SMDPad,CuDef*
G36*
G01*
X140561000Y-66409500D02*
X140561000Y-65709500D01*
G75*
G02*
X140623500Y-65647000I62500J0D01*
G01*
X140748500Y-65647000D01*
G75*
G02*
X140811000Y-65709500I0J-62500D01*
G01*
X140811000Y-66409500D01*
G75*
G02*
X140748500Y-66472000I-62500J0D01*
G01*
X140623500Y-66472000D01*
G75*
G02*
X140561000Y-66409500I0J62500D01*
G01*
G37*
G04 #@! TD.AperFunction*
G04 #@! TA.AperFunction,SMDPad,CuDef*
G36*
G01*
X141061000Y-66409500D02*
X141061000Y-65709500D01*
G75*
G02*
X141123500Y-65647000I62500J0D01*
G01*
X141248500Y-65647000D01*
G75*
G02*
X141311000Y-65709500I0J-62500D01*
G01*
X141311000Y-66409500D01*
G75*
G02*
X141248500Y-66472000I-62500J0D01*
G01*
X141123500Y-66472000D01*
G75*
G02*
X141061000Y-66409500I0J62500D01*
G01*
G37*
G04 #@! TD.AperFunction*
G04 #@! TA.AperFunction,SMDPad,CuDef*
G36*
G01*
X141561000Y-66409500D02*
X141561000Y-65709500D01*
G75*
G02*
X141623500Y-65647000I62500J0D01*
G01*
X141748500Y-65647000D01*
G75*
G02*
X141811000Y-65709500I0J-62500D01*
G01*
X141811000Y-66409500D01*
G75*
G02*
X141748500Y-66472000I-62500J0D01*
G01*
X141623500Y-66472000D01*
G75*
G02*
X141561000Y-66409500I0J62500D01*
G01*
G37*
G04 #@! TD.AperFunction*
G04 #@! TA.AperFunction,SMDPad,CuDef*
G36*
G01*
X142061000Y-66409500D02*
X142061000Y-65709500D01*
G75*
G02*
X142123500Y-65647000I62500J0D01*
G01*
X142248500Y-65647000D01*
G75*
G02*
X142311000Y-65709500I0J-62500D01*
G01*
X142311000Y-66409500D01*
G75*
G02*
X142248500Y-66472000I-62500J0D01*
G01*
X142123500Y-66472000D01*
G75*
G02*
X142061000Y-66409500I0J62500D01*
G01*
G37*
G04 #@! TD.AperFunction*
G04 #@! TA.AperFunction,SMDPad,CuDef*
G36*
G01*
X142486000Y-66834500D02*
X142486000Y-66709500D01*
G75*
G02*
X142548500Y-66647000I62500J0D01*
G01*
X143248500Y-66647000D01*
G75*
G02*
X143311000Y-66709500I0J-62500D01*
G01*
X143311000Y-66834500D01*
G75*
G02*
X143248500Y-66897000I-62500J0D01*
G01*
X142548500Y-66897000D01*
G75*
G02*
X142486000Y-66834500I0J62500D01*
G01*
G37*
G04 #@! TD.AperFunction*
G04 #@! TA.AperFunction,SMDPad,CuDef*
G36*
G01*
X142486000Y-67334500D02*
X142486000Y-67209500D01*
G75*
G02*
X142548500Y-67147000I62500J0D01*
G01*
X143248500Y-67147000D01*
G75*
G02*
X143311000Y-67209500I0J-62500D01*
G01*
X143311000Y-67334500D01*
G75*
G02*
X143248500Y-67397000I-62500J0D01*
G01*
X142548500Y-67397000D01*
G75*
G02*
X142486000Y-67334500I0J62500D01*
G01*
G37*
G04 #@! TD.AperFunction*
G04 #@! TA.AperFunction,SMDPad,CuDef*
G36*
G01*
X142486000Y-67834500D02*
X142486000Y-67709500D01*
G75*
G02*
X142548500Y-67647000I62500J0D01*
G01*
X143248500Y-67647000D01*
G75*
G02*
X143311000Y-67709500I0J-62500D01*
G01*
X143311000Y-67834500D01*
G75*
G02*
X143248500Y-67897000I-62500J0D01*
G01*
X142548500Y-67897000D01*
G75*
G02*
X142486000Y-67834500I0J62500D01*
G01*
G37*
G04 #@! TD.AperFunction*
G04 #@! TA.AperFunction,SMDPad,CuDef*
G36*
G01*
X142486000Y-68334500D02*
X142486000Y-68209500D01*
G75*
G02*
X142548500Y-68147000I62500J0D01*
G01*
X143248500Y-68147000D01*
G75*
G02*
X143311000Y-68209500I0J-62500D01*
G01*
X143311000Y-68334500D01*
G75*
G02*
X143248500Y-68397000I-62500J0D01*
G01*
X142548500Y-68397000D01*
G75*
G02*
X142486000Y-68334500I0J62500D01*
G01*
G37*
G04 #@! TD.AperFunction*
G04 #@! TA.AperFunction,SMDPad,CuDef*
G36*
G01*
X142486000Y-68834500D02*
X142486000Y-68709500D01*
G75*
G02*
X142548500Y-68647000I62500J0D01*
G01*
X143248500Y-68647000D01*
G75*
G02*
X143311000Y-68709500I0J-62500D01*
G01*
X143311000Y-68834500D01*
G75*
G02*
X143248500Y-68897000I-62500J0D01*
G01*
X142548500Y-68897000D01*
G75*
G02*
X142486000Y-68834500I0J62500D01*
G01*
G37*
G04 #@! TD.AperFunction*
G04 #@! TA.AperFunction,SMDPad,CuDef*
G36*
G01*
X142486000Y-69334500D02*
X142486000Y-69209500D01*
G75*
G02*
X142548500Y-69147000I62500J0D01*
G01*
X143248500Y-69147000D01*
G75*
G02*
X143311000Y-69209500I0J-62500D01*
G01*
X143311000Y-69334500D01*
G75*
G02*
X143248500Y-69397000I-62500J0D01*
G01*
X142548500Y-69397000D01*
G75*
G02*
X142486000Y-69334500I0J62500D01*
G01*
G37*
G04 #@! TD.AperFunction*
G04 #@! TA.AperFunction,SMDPad,CuDef*
G36*
G01*
X142061000Y-70334500D02*
X142061000Y-69634500D01*
G75*
G02*
X142123500Y-69572000I62500J0D01*
G01*
X142248500Y-69572000D01*
G75*
G02*
X142311000Y-69634500I0J-62500D01*
G01*
X142311000Y-70334500D01*
G75*
G02*
X142248500Y-70397000I-62500J0D01*
G01*
X142123500Y-70397000D01*
G75*
G02*
X142061000Y-70334500I0J62500D01*
G01*
G37*
G04 #@! TD.AperFunction*
G04 #@! TA.AperFunction,SMDPad,CuDef*
G36*
G01*
X141561000Y-70334500D02*
X141561000Y-69634500D01*
G75*
G02*
X141623500Y-69572000I62500J0D01*
G01*
X141748500Y-69572000D01*
G75*
G02*
X141811000Y-69634500I0J-62500D01*
G01*
X141811000Y-70334500D01*
G75*
G02*
X141748500Y-70397000I-62500J0D01*
G01*
X141623500Y-70397000D01*
G75*
G02*
X141561000Y-70334500I0J62500D01*
G01*
G37*
G04 #@! TD.AperFunction*
G04 #@! TA.AperFunction,SMDPad,CuDef*
G36*
G01*
X141061000Y-70334500D02*
X141061000Y-69634500D01*
G75*
G02*
X141123500Y-69572000I62500J0D01*
G01*
X141248500Y-69572000D01*
G75*
G02*
X141311000Y-69634500I0J-62500D01*
G01*
X141311000Y-70334500D01*
G75*
G02*
X141248500Y-70397000I-62500J0D01*
G01*
X141123500Y-70397000D01*
G75*
G02*
X141061000Y-70334500I0J62500D01*
G01*
G37*
G04 #@! TD.AperFunction*
G04 #@! TA.AperFunction,SMDPad,CuDef*
G36*
G01*
X140561000Y-70334500D02*
X140561000Y-69634500D01*
G75*
G02*
X140623500Y-69572000I62500J0D01*
G01*
X140748500Y-69572000D01*
G75*
G02*
X140811000Y-69634500I0J-62500D01*
G01*
X140811000Y-70334500D01*
G75*
G02*
X140748500Y-70397000I-62500J0D01*
G01*
X140623500Y-70397000D01*
G75*
G02*
X140561000Y-70334500I0J62500D01*
G01*
G37*
G04 #@! TD.AperFunction*
G04 #@! TA.AperFunction,SMDPad,CuDef*
G36*
G01*
X140061000Y-70334500D02*
X140061000Y-69634500D01*
G75*
G02*
X140123500Y-69572000I62500J0D01*
G01*
X140248500Y-69572000D01*
G75*
G02*
X140311000Y-69634500I0J-62500D01*
G01*
X140311000Y-70334500D01*
G75*
G02*
X140248500Y-70397000I-62500J0D01*
G01*
X140123500Y-70397000D01*
G75*
G02*
X140061000Y-70334500I0J62500D01*
G01*
G37*
G04 #@! TD.AperFunction*
G04 #@! TA.AperFunction,SMDPad,CuDef*
G36*
G01*
X139561000Y-70334500D02*
X139561000Y-69634500D01*
G75*
G02*
X139623500Y-69572000I62500J0D01*
G01*
X139748500Y-69572000D01*
G75*
G02*
X139811000Y-69634500I0J-62500D01*
G01*
X139811000Y-70334500D01*
G75*
G02*
X139748500Y-70397000I-62500J0D01*
G01*
X139623500Y-70397000D01*
G75*
G02*
X139561000Y-70334500I0J62500D01*
G01*
G37*
G04 #@! TD.AperFunction*
G04 #@! TA.AperFunction,SMDPad,CuDef*
G36*
G01*
X138561000Y-69334500D02*
X138561000Y-69209500D01*
G75*
G02*
X138623500Y-69147000I62500J0D01*
G01*
X139323500Y-69147000D01*
G75*
G02*
X139386000Y-69209500I0J-62500D01*
G01*
X139386000Y-69334500D01*
G75*
G02*
X139323500Y-69397000I-62500J0D01*
G01*
X138623500Y-69397000D01*
G75*
G02*
X138561000Y-69334500I0J62500D01*
G01*
G37*
G04 #@! TD.AperFunction*
G04 #@! TA.AperFunction,SMDPad,CuDef*
G36*
G01*
X138561000Y-68834500D02*
X138561000Y-68709500D01*
G75*
G02*
X138623500Y-68647000I62500J0D01*
G01*
X139323500Y-68647000D01*
G75*
G02*
X139386000Y-68709500I0J-62500D01*
G01*
X139386000Y-68834500D01*
G75*
G02*
X139323500Y-68897000I-62500J0D01*
G01*
X138623500Y-68897000D01*
G75*
G02*
X138561000Y-68834500I0J62500D01*
G01*
G37*
G04 #@! TD.AperFunction*
G04 #@! TA.AperFunction,SMDPad,CuDef*
G36*
G01*
X138561000Y-68334500D02*
X138561000Y-68209500D01*
G75*
G02*
X138623500Y-68147000I62500J0D01*
G01*
X139323500Y-68147000D01*
G75*
G02*
X139386000Y-68209500I0J-62500D01*
G01*
X139386000Y-68334500D01*
G75*
G02*
X139323500Y-68397000I-62500J0D01*
G01*
X138623500Y-68397000D01*
G75*
G02*
X138561000Y-68334500I0J62500D01*
G01*
G37*
G04 #@! TD.AperFunction*
G04 #@! TA.AperFunction,SMDPad,CuDef*
G36*
G01*
X138561000Y-67834500D02*
X138561000Y-67709500D01*
G75*
G02*
X138623500Y-67647000I62500J0D01*
G01*
X139323500Y-67647000D01*
G75*
G02*
X139386000Y-67709500I0J-62500D01*
G01*
X139386000Y-67834500D01*
G75*
G02*
X139323500Y-67897000I-62500J0D01*
G01*
X138623500Y-67897000D01*
G75*
G02*
X138561000Y-67834500I0J62500D01*
G01*
G37*
G04 #@! TD.AperFunction*
G04 #@! TA.AperFunction,SMDPad,CuDef*
G36*
G01*
X138561000Y-67334500D02*
X138561000Y-67209500D01*
G75*
G02*
X138623500Y-67147000I62500J0D01*
G01*
X139323500Y-67147000D01*
G75*
G02*
X139386000Y-67209500I0J-62500D01*
G01*
X139386000Y-67334500D01*
G75*
G02*
X139323500Y-67397000I-62500J0D01*
G01*
X138623500Y-67397000D01*
G75*
G02*
X138561000Y-67334500I0J62500D01*
G01*
G37*
G04 #@! TD.AperFunction*
G04 #@! TA.AperFunction,SMDPad,CuDef*
G36*
G01*
X138561000Y-66834500D02*
X138561000Y-66709500D01*
G75*
G02*
X138623500Y-66647000I62500J0D01*
G01*
X139323500Y-66647000D01*
G75*
G02*
X139386000Y-66709500I0J-62500D01*
G01*
X139386000Y-66834500D01*
G75*
G02*
X139323500Y-66897000I-62500J0D01*
G01*
X138623500Y-66897000D01*
G75*
G02*
X138561000Y-66834500I0J62500D01*
G01*
G37*
G04 #@! TD.AperFunction*
G04 #@! TA.AperFunction,SMDPad,CuDef*
G36*
G01*
X136816000Y-65852000D02*
X136816000Y-66192000D01*
G75*
G02*
X136676000Y-66332000I-140000J0D01*
G01*
X136396000Y-66332000D01*
G75*
G02*
X136256000Y-66192000I0J140000D01*
G01*
X136256000Y-65852000D01*
G75*
G02*
X136396000Y-65712000I140000J0D01*
G01*
X136676000Y-65712000D01*
G75*
G02*
X136816000Y-65852000I0J-140000D01*
G01*
G37*
G04 #@! TD.AperFunction*
G04 #@! TA.AperFunction,SMDPad,CuDef*
G36*
G01*
X137776000Y-65852000D02*
X137776000Y-66192000D01*
G75*
G02*
X137636000Y-66332000I-140000J0D01*
G01*
X137356000Y-66332000D01*
G75*
G02*
X137216000Y-66192000I0J140000D01*
G01*
X137216000Y-65852000D01*
G75*
G02*
X137356000Y-65712000I140000J0D01*
G01*
X137636000Y-65712000D01*
G75*
G02*
X137776000Y-65852000I0J-140000D01*
G01*
G37*
G04 #@! TD.AperFunction*
G04 #@! TA.AperFunction,SMDPad,CuDef*
G36*
G01*
X142686000Y-72597000D02*
X143186000Y-72597000D01*
G75*
G02*
X143411000Y-72822000I0J-225000D01*
G01*
X143411000Y-73272000D01*
G75*
G02*
X143186000Y-73497000I-225000J0D01*
G01*
X142686000Y-73497000D01*
G75*
G02*
X142461000Y-73272000I0J225000D01*
G01*
X142461000Y-72822000D01*
G75*
G02*
X142686000Y-72597000I225000J0D01*
G01*
G37*
G04 #@! TD.AperFunction*
G04 #@! TA.AperFunction,SMDPad,CuDef*
G36*
G01*
X142686000Y-71047000D02*
X143186000Y-71047000D01*
G75*
G02*
X143411000Y-71272000I0J-225000D01*
G01*
X143411000Y-71722000D01*
G75*
G02*
X143186000Y-71947000I-225000J0D01*
G01*
X142686000Y-71947000D01*
G75*
G02*
X142461000Y-71722000I0J225000D01*
G01*
X142461000Y-71272000D01*
G75*
G02*
X142686000Y-71047000I225000J0D01*
G01*
G37*
G04 #@! TD.AperFunction*
G04 #@! TA.AperFunction,SMDPad,CuDef*
G36*
G01*
X141186000Y-72597000D02*
X141686000Y-72597000D01*
G75*
G02*
X141911000Y-72822000I0J-225000D01*
G01*
X141911000Y-73272000D01*
G75*
G02*
X141686000Y-73497000I-225000J0D01*
G01*
X141186000Y-73497000D01*
G75*
G02*
X140961000Y-73272000I0J225000D01*
G01*
X140961000Y-72822000D01*
G75*
G02*
X141186000Y-72597000I225000J0D01*
G01*
G37*
G04 #@! TD.AperFunction*
G04 #@! TA.AperFunction,SMDPad,CuDef*
G36*
G01*
X141186000Y-71047000D02*
X141686000Y-71047000D01*
G75*
G02*
X141911000Y-71272000I0J-225000D01*
G01*
X141911000Y-71722000D01*
G75*
G02*
X141686000Y-71947000I-225000J0D01*
G01*
X141186000Y-71947000D01*
G75*
G02*
X140961000Y-71722000I0J225000D01*
G01*
X140961000Y-71272000D01*
G75*
G02*
X141186000Y-71047000I225000J0D01*
G01*
G37*
G04 #@! TD.AperFunction*
G04 #@! TA.AperFunction,SMDPad,CuDef*
G36*
G01*
X144266000Y-69572000D02*
X144766000Y-69572000D01*
G75*
G02*
X144991000Y-69797000I0J-225000D01*
G01*
X144991000Y-70247000D01*
G75*
G02*
X144766000Y-70472000I-225000J0D01*
G01*
X144266000Y-70472000D01*
G75*
G02*
X144041000Y-70247000I0J225000D01*
G01*
X144041000Y-69797000D01*
G75*
G02*
X144266000Y-69572000I225000J0D01*
G01*
G37*
G04 #@! TD.AperFunction*
G04 #@! TA.AperFunction,SMDPad,CuDef*
G36*
G01*
X144266000Y-68022000D02*
X144766000Y-68022000D01*
G75*
G02*
X144991000Y-68247000I0J-225000D01*
G01*
X144991000Y-68697000D01*
G75*
G02*
X144766000Y-68922000I-225000J0D01*
G01*
X144266000Y-68922000D01*
G75*
G02*
X144041000Y-68697000I0J225000D01*
G01*
X144041000Y-68247000D01*
G75*
G02*
X144266000Y-68022000I225000J0D01*
G01*
G37*
G04 #@! TD.AperFunction*
G04 #@! TA.AperFunction,SMDPad,CuDef*
G36*
G01*
X137216000Y-67192000D02*
X137216000Y-66852000D01*
G75*
G02*
X137356000Y-66712000I140000J0D01*
G01*
X137636000Y-66712000D01*
G75*
G02*
X137776000Y-66852000I0J-140000D01*
G01*
X137776000Y-67192000D01*
G75*
G02*
X137636000Y-67332000I-140000J0D01*
G01*
X137356000Y-67332000D01*
G75*
G02*
X137216000Y-67192000I0J140000D01*
G01*
G37*
G04 #@! TD.AperFunction*
G04 #@! TA.AperFunction,SMDPad,CuDef*
G36*
G01*
X136256000Y-67192000D02*
X136256000Y-66852000D01*
G75*
G02*
X136396000Y-66712000I140000J0D01*
G01*
X136676000Y-66712000D01*
G75*
G02*
X136816000Y-66852000I0J-140000D01*
G01*
X136816000Y-67192000D01*
G75*
G02*
X136676000Y-67332000I-140000J0D01*
G01*
X136396000Y-67332000D01*
G75*
G02*
X136256000Y-67192000I0J140000D01*
G01*
G37*
G04 #@! TD.AperFunction*
D12*
X166516000Y-100592000D03*
X166516000Y-103132000D03*
X166516000Y-105672000D03*
D13*
X166516000Y-108212000D03*
D12*
X166516000Y-87932000D03*
X166516000Y-90472000D03*
X166516000Y-93012000D03*
X166516000Y-95552000D03*
D13*
X166516000Y-98092000D03*
D30*
X163891000Y-79492000D03*
X163891000Y-78842000D03*
X163891000Y-76892000D03*
X163891000Y-77542000D03*
D31*
X164366000Y-81429500D03*
X164366000Y-74954500D03*
D16*
X166716000Y-81467000D03*
X166716000Y-74917000D03*
D30*
X163891000Y-78192000D03*
D32*
X146716000Y-109492000D03*
X142616000Y-109492000D03*
D33*
X153000000Y-72192000D03*
X149500000Y-72192000D03*
X153000000Y-68392000D03*
G04 #@! TA.AperFunction,SMDPad,CuDef*
G36*
G01*
X138666000Y-106317000D02*
X138666000Y-105367000D01*
G75*
G02*
X138916000Y-105117000I250000J0D01*
G01*
X139416000Y-105117000D01*
G75*
G02*
X139666000Y-105367000I0J-250000D01*
G01*
X139666000Y-106317000D01*
G75*
G02*
X139416000Y-106567000I-250000J0D01*
G01*
X138916000Y-106567000D01*
G75*
G02*
X138666000Y-106317000I0J250000D01*
G01*
G37*
G04 #@! TD.AperFunction*
G04 #@! TA.AperFunction,SMDPad,CuDef*
G36*
G01*
X136766000Y-106317000D02*
X136766000Y-105367000D01*
G75*
G02*
X137016000Y-105117000I250000J0D01*
G01*
X137516000Y-105117000D01*
G75*
G02*
X137766000Y-105367000I0J-250000D01*
G01*
X137766000Y-106317000D01*
G75*
G02*
X137516000Y-106567000I-250000J0D01*
G01*
X137016000Y-106567000D01*
G75*
G02*
X136766000Y-106317000I0J250000D01*
G01*
G37*
G04 #@! TD.AperFunction*
G04 #@! TA.AperFunction,SMDPad,CuDef*
G36*
G01*
X148966000Y-115017000D02*
X148966000Y-115967000D01*
G75*
G02*
X148716000Y-116217000I-250000J0D01*
G01*
X148216000Y-116217000D01*
G75*
G02*
X147966000Y-115967000I0J250000D01*
G01*
X147966000Y-115017000D01*
G75*
G02*
X148216000Y-114767000I250000J0D01*
G01*
X148716000Y-114767000D01*
G75*
G02*
X148966000Y-115017000I0J-250000D01*
G01*
G37*
G04 #@! TD.AperFunction*
G04 #@! TA.AperFunction,SMDPad,CuDef*
G36*
G01*
X147066000Y-115017000D02*
X147066000Y-115967000D01*
G75*
G02*
X146816000Y-116217000I-250000J0D01*
G01*
X146316000Y-116217000D01*
G75*
G02*
X146066000Y-115967000I0J250000D01*
G01*
X146066000Y-115017000D01*
G75*
G02*
X146316000Y-114767000I250000J0D01*
G01*
X146816000Y-114767000D01*
G75*
G02*
X147066000Y-115017000I0J-250000D01*
G01*
G37*
G04 #@! TD.AperFunction*
G04 #@! TA.AperFunction,SMDPad,CuDef*
G36*
G01*
X146066000Y-113967000D02*
X146066000Y-113017000D01*
G75*
G02*
X146316000Y-112767000I250000J0D01*
G01*
X146816000Y-112767000D01*
G75*
G02*
X147066000Y-113017000I0J-250000D01*
G01*
X147066000Y-113967000D01*
G75*
G02*
X146816000Y-114217000I-250000J0D01*
G01*
X146316000Y-114217000D01*
G75*
G02*
X146066000Y-113967000I0J250000D01*
G01*
G37*
G04 #@! TD.AperFunction*
G04 #@! TA.AperFunction,SMDPad,CuDef*
G36*
G01*
X147966000Y-113967000D02*
X147966000Y-113017000D01*
G75*
G02*
X148216000Y-112767000I250000J0D01*
G01*
X148716000Y-112767000D01*
G75*
G02*
X148966000Y-113017000I0J-250000D01*
G01*
X148966000Y-113967000D01*
G75*
G02*
X148716000Y-114217000I-250000J0D01*
G01*
X148216000Y-114217000D01*
G75*
G02*
X147966000Y-113967000I0J250000D01*
G01*
G37*
G04 #@! TD.AperFunction*
G04 #@! TA.AperFunction,SMDPad,CuDef*
G36*
G01*
X137766000Y-107567000D02*
X137766000Y-108517000D01*
G75*
G02*
X137516000Y-108767000I-250000J0D01*
G01*
X137016000Y-108767000D01*
G75*
G02*
X136766000Y-108517000I0J250000D01*
G01*
X136766000Y-107567000D01*
G75*
G02*
X137016000Y-107317000I250000J0D01*
G01*
X137516000Y-107317000D01*
G75*
G02*
X137766000Y-107567000I0J-250000D01*
G01*
G37*
G04 #@! TD.AperFunction*
G04 #@! TA.AperFunction,SMDPad,CuDef*
G36*
G01*
X139666000Y-107567000D02*
X139666000Y-108517000D01*
G75*
G02*
X139416000Y-108767000I-250000J0D01*
G01*
X138916000Y-108767000D01*
G75*
G02*
X138666000Y-108517000I0J250000D01*
G01*
X138666000Y-107567000D01*
G75*
G02*
X138916000Y-107317000I250000J0D01*
G01*
X139416000Y-107317000D01*
G75*
G02*
X139666000Y-107567000I0J-250000D01*
G01*
G37*
G04 #@! TD.AperFunction*
D15*
X161600000Y-93202000D03*
X161600000Y-90402000D03*
G04 #@! TA.AperFunction,SMDPad,CuDef*
G36*
G01*
X162325000Y-96925000D02*
X161075000Y-96925000D01*
G75*
G02*
X160825000Y-96675000I0J250000D01*
G01*
X160825000Y-95925000D01*
G75*
G02*
X161075000Y-95675000I250000J0D01*
G01*
X162325000Y-95675000D01*
G75*
G02*
X162575000Y-95925000I0J-250000D01*
G01*
X162575000Y-96675000D01*
G75*
G02*
X162325000Y-96925000I-250000J0D01*
G01*
G37*
G04 #@! TD.AperFunction*
G04 #@! TA.AperFunction,SMDPad,CuDef*
G36*
G01*
X162325000Y-99725000D02*
X161075000Y-99725000D01*
G75*
G02*
X160825000Y-99475000I0J250000D01*
G01*
X160825000Y-98725000D01*
G75*
G02*
X161075000Y-98475000I250000J0D01*
G01*
X162325000Y-98475000D01*
G75*
G02*
X162575000Y-98725000I0J-250000D01*
G01*
X162575000Y-99475000D01*
G75*
G02*
X162325000Y-99725000I-250000J0D01*
G01*
G37*
G04 #@! TD.AperFunction*
G04 #@! TA.AperFunction,SMDPad,CuDef*
G36*
G01*
X142603500Y-84342000D02*
X142603500Y-83842000D01*
G75*
G02*
X142828500Y-83617000I225000J0D01*
G01*
X143278500Y-83617000D01*
G75*
G02*
X143503500Y-83842000I0J-225000D01*
G01*
X143503500Y-84342000D01*
G75*
G02*
X143278500Y-84567000I-225000J0D01*
G01*
X142828500Y-84567000D01*
G75*
G02*
X142603500Y-84342000I0J225000D01*
G01*
G37*
G04 #@! TD.AperFunction*
G04 #@! TA.AperFunction,SMDPad,CuDef*
G36*
G01*
X141053500Y-84342000D02*
X141053500Y-83842000D01*
G75*
G02*
X141278500Y-83617000I225000J0D01*
G01*
X141728500Y-83617000D01*
G75*
G02*
X141953500Y-83842000I0J-225000D01*
G01*
X141953500Y-84342000D01*
G75*
G02*
X141728500Y-84567000I-225000J0D01*
G01*
X141278500Y-84567000D01*
G75*
G02*
X141053500Y-84342000I0J225000D01*
G01*
G37*
G04 #@! TD.AperFunction*
G04 #@! TA.AperFunction,SMDPad,CuDef*
G36*
G01*
X156378500Y-85842000D02*
X156378500Y-86342000D01*
G75*
G02*
X156153500Y-86567000I-225000J0D01*
G01*
X155703500Y-86567000D01*
G75*
G02*
X155478500Y-86342000I0J225000D01*
G01*
X155478500Y-85842000D01*
G75*
G02*
X155703500Y-85617000I225000J0D01*
G01*
X156153500Y-85617000D01*
G75*
G02*
X156378500Y-85842000I0J-225000D01*
G01*
G37*
G04 #@! TD.AperFunction*
G04 #@! TA.AperFunction,SMDPad,CuDef*
G36*
G01*
X157928500Y-85842000D02*
X157928500Y-86342000D01*
G75*
G02*
X157703500Y-86567000I-225000J0D01*
G01*
X157253500Y-86567000D01*
G75*
G02*
X157028500Y-86342000I0J225000D01*
G01*
X157028500Y-85842000D01*
G75*
G02*
X157253500Y-85617000I225000J0D01*
G01*
X157703500Y-85617000D01*
G75*
G02*
X157928500Y-85842000I0J-225000D01*
G01*
G37*
G04 #@! TD.AperFunction*
G04 #@! TA.AperFunction,SMDPad,CuDef*
G36*
G01*
X140403500Y-94417000D02*
X140903500Y-94417000D01*
G75*
G02*
X141128500Y-94642000I0J-225000D01*
G01*
X141128500Y-95092000D01*
G75*
G02*
X140903500Y-95317000I-225000J0D01*
G01*
X140403500Y-95317000D01*
G75*
G02*
X140178500Y-95092000I0J225000D01*
G01*
X140178500Y-94642000D01*
G75*
G02*
X140403500Y-94417000I225000J0D01*
G01*
G37*
G04 #@! TD.AperFunction*
G04 #@! TA.AperFunction,SMDPad,CuDef*
G36*
G01*
X140403500Y-92867000D02*
X140903500Y-92867000D01*
G75*
G02*
X141128500Y-93092000I0J-225000D01*
G01*
X141128500Y-93542000D01*
G75*
G02*
X140903500Y-93767000I-225000J0D01*
G01*
X140403500Y-93767000D01*
G75*
G02*
X140178500Y-93542000I0J225000D01*
G01*
X140178500Y-93092000D01*
G75*
G02*
X140403500Y-92867000I225000J0D01*
G01*
G37*
G04 #@! TD.AperFunction*
G04 #@! TA.AperFunction,SMDPad,CuDef*
G36*
G01*
X156378500Y-87342000D02*
X156378500Y-87842000D01*
G75*
G02*
X156153500Y-88067000I-225000J0D01*
G01*
X155703500Y-88067000D01*
G75*
G02*
X155478500Y-87842000I0J225000D01*
G01*
X155478500Y-87342000D01*
G75*
G02*
X155703500Y-87117000I225000J0D01*
G01*
X156153500Y-87117000D01*
G75*
G02*
X156378500Y-87342000I0J-225000D01*
G01*
G37*
G04 #@! TD.AperFunction*
G04 #@! TA.AperFunction,SMDPad,CuDef*
G36*
G01*
X157928500Y-87342000D02*
X157928500Y-87842000D01*
G75*
G02*
X157703500Y-88067000I-225000J0D01*
G01*
X157253500Y-88067000D01*
G75*
G02*
X157028500Y-87842000I0J225000D01*
G01*
X157028500Y-87342000D01*
G75*
G02*
X157253500Y-87117000I225000J0D01*
G01*
X157703500Y-87117000D01*
G75*
G02*
X157928500Y-87342000I0J-225000D01*
G01*
G37*
G04 #@! TD.AperFunction*
D34*
X149716000Y-77792000D03*
X149716000Y-78292000D03*
X149716000Y-78792000D03*
X149716000Y-79292000D03*
X147191000Y-79292000D03*
X147191000Y-78792000D03*
X147191000Y-78292000D03*
X147191000Y-77792000D03*
D35*
X148953500Y-79554500D03*
X148453500Y-79554500D03*
X147953500Y-79554500D03*
X148953500Y-77529500D03*
X147953500Y-77529500D03*
X148453500Y-77529500D03*
G04 #@! TA.AperFunction,SMDPad,CuDef*
G36*
G01*
X147475000Y-103393750D02*
X147475000Y-103906250D01*
G75*
G02*
X147256250Y-104125000I-218750J0D01*
G01*
X146818750Y-104125000D01*
G75*
G02*
X146600000Y-103906250I0J218750D01*
G01*
X146600000Y-103393750D01*
G75*
G02*
X146818750Y-103175000I218750J0D01*
G01*
X147256250Y-103175000D01*
G75*
G02*
X147475000Y-103393750I0J-218750D01*
G01*
G37*
G04 #@! TD.AperFunction*
G04 #@! TA.AperFunction,SMDPad,CuDef*
G36*
G01*
X145900000Y-103393750D02*
X145900000Y-103906250D01*
G75*
G02*
X145681250Y-104125000I-218750J0D01*
G01*
X145243750Y-104125000D01*
G75*
G02*
X145025000Y-103906250I0J218750D01*
G01*
X145025000Y-103393750D01*
G75*
G02*
X145243750Y-103175000I218750J0D01*
G01*
X145681250Y-103175000D01*
G75*
G02*
X145900000Y-103393750I0J-218750D01*
G01*
G37*
G04 #@! TD.AperFunction*
G04 #@! TA.AperFunction,SMDPad,CuDef*
G36*
G01*
X144428500Y-103385750D02*
X144428500Y-103898250D01*
G75*
G02*
X144209750Y-104117000I-218750J0D01*
G01*
X143772250Y-104117000D01*
G75*
G02*
X143553500Y-103898250I0J218750D01*
G01*
X143553500Y-103385750D01*
G75*
G02*
X143772250Y-103167000I218750J0D01*
G01*
X144209750Y-103167000D01*
G75*
G02*
X144428500Y-103385750I0J-218750D01*
G01*
G37*
G04 #@! TD.AperFunction*
G04 #@! TA.AperFunction,SMDPad,CuDef*
G36*
G01*
X142853500Y-103385750D02*
X142853500Y-103898250D01*
G75*
G02*
X142634750Y-104117000I-218750J0D01*
G01*
X142197250Y-104117000D01*
G75*
G02*
X141978500Y-103898250I0J218750D01*
G01*
X141978500Y-103385750D01*
G75*
G02*
X142197250Y-103167000I218750J0D01*
G01*
X142634750Y-103167000D01*
G75*
G02*
X142853500Y-103385750I0J-218750D01*
G01*
G37*
G04 #@! TD.AperFunction*
G04 #@! TA.AperFunction,SMDPad,CuDef*
G36*
G01*
X143478500Y-94242000D02*
X142078500Y-94242000D01*
G75*
G02*
X142003500Y-94167000I0J75000D01*
G01*
X142003500Y-94017000D01*
G75*
G02*
X142078500Y-93942000I75000J0D01*
G01*
X143478500Y-93942000D01*
G75*
G02*
X143553500Y-94017000I0J-75000D01*
G01*
X143553500Y-94167000D01*
G75*
G02*
X143478500Y-94242000I-75000J0D01*
G01*
G37*
G04 #@! TD.AperFunction*
G04 #@! TA.AperFunction,SMDPad,CuDef*
G36*
G01*
X143478500Y-93742000D02*
X142078500Y-93742000D01*
G75*
G02*
X142003500Y-93667000I0J75000D01*
G01*
X142003500Y-93517000D01*
G75*
G02*
X142078500Y-93442000I75000J0D01*
G01*
X143478500Y-93442000D01*
G75*
G02*
X143553500Y-93517000I0J-75000D01*
G01*
X143553500Y-93667000D01*
G75*
G02*
X143478500Y-93742000I-75000J0D01*
G01*
G37*
G04 #@! TD.AperFunction*
G04 #@! TA.AperFunction,SMDPad,CuDef*
G36*
G01*
X143478500Y-93242000D02*
X142078500Y-93242000D01*
G75*
G02*
X142003500Y-93167000I0J75000D01*
G01*
X142003500Y-93017000D01*
G75*
G02*
X142078500Y-92942000I75000J0D01*
G01*
X143478500Y-92942000D01*
G75*
G02*
X143553500Y-93017000I0J-75000D01*
G01*
X143553500Y-93167000D01*
G75*
G02*
X143478500Y-93242000I-75000J0D01*
G01*
G37*
G04 #@! TD.AperFunction*
G04 #@! TA.AperFunction,SMDPad,CuDef*
G36*
G01*
X143478500Y-92742000D02*
X142078500Y-92742000D01*
G75*
G02*
X142003500Y-92667000I0J75000D01*
G01*
X142003500Y-92517000D01*
G75*
G02*
X142078500Y-92442000I75000J0D01*
G01*
X143478500Y-92442000D01*
G75*
G02*
X143553500Y-92517000I0J-75000D01*
G01*
X143553500Y-92667000D01*
G75*
G02*
X143478500Y-92742000I-75000J0D01*
G01*
G37*
G04 #@! TD.AperFunction*
G04 #@! TA.AperFunction,SMDPad,CuDef*
G36*
G01*
X143478500Y-92242000D02*
X142078500Y-92242000D01*
G75*
G02*
X142003500Y-92167000I0J75000D01*
G01*
X142003500Y-92017000D01*
G75*
G02*
X142078500Y-91942000I75000J0D01*
G01*
X143478500Y-91942000D01*
G75*
G02*
X143553500Y-92017000I0J-75000D01*
G01*
X143553500Y-92167000D01*
G75*
G02*
X143478500Y-92242000I-75000J0D01*
G01*
G37*
G04 #@! TD.AperFunction*
G04 #@! TA.AperFunction,SMDPad,CuDef*
G36*
G01*
X143478500Y-91742000D02*
X142078500Y-91742000D01*
G75*
G02*
X142003500Y-91667000I0J75000D01*
G01*
X142003500Y-91517000D01*
G75*
G02*
X142078500Y-91442000I75000J0D01*
G01*
X143478500Y-91442000D01*
G75*
G02*
X143553500Y-91517000I0J-75000D01*
G01*
X143553500Y-91667000D01*
G75*
G02*
X143478500Y-91742000I-75000J0D01*
G01*
G37*
G04 #@! TD.AperFunction*
G04 #@! TA.AperFunction,SMDPad,CuDef*
G36*
G01*
X143478500Y-91242000D02*
X142078500Y-91242000D01*
G75*
G02*
X142003500Y-91167000I0J75000D01*
G01*
X142003500Y-91017000D01*
G75*
G02*
X142078500Y-90942000I75000J0D01*
G01*
X143478500Y-90942000D01*
G75*
G02*
X143553500Y-91017000I0J-75000D01*
G01*
X143553500Y-91167000D01*
G75*
G02*
X143478500Y-91242000I-75000J0D01*
G01*
G37*
G04 #@! TD.AperFunction*
G04 #@! TA.AperFunction,SMDPad,CuDef*
G36*
G01*
X143478500Y-90742000D02*
X142078500Y-90742000D01*
G75*
G02*
X142003500Y-90667000I0J75000D01*
G01*
X142003500Y-90517000D01*
G75*
G02*
X142078500Y-90442000I75000J0D01*
G01*
X143478500Y-90442000D01*
G75*
G02*
X143553500Y-90517000I0J-75000D01*
G01*
X143553500Y-90667000D01*
G75*
G02*
X143478500Y-90742000I-75000J0D01*
G01*
G37*
G04 #@! TD.AperFunction*
G04 #@! TA.AperFunction,SMDPad,CuDef*
G36*
G01*
X143478500Y-90242000D02*
X142078500Y-90242000D01*
G75*
G02*
X142003500Y-90167000I0J75000D01*
G01*
X142003500Y-90017000D01*
G75*
G02*
X142078500Y-89942000I75000J0D01*
G01*
X143478500Y-89942000D01*
G75*
G02*
X143553500Y-90017000I0J-75000D01*
G01*
X143553500Y-90167000D01*
G75*
G02*
X143478500Y-90242000I-75000J0D01*
G01*
G37*
G04 #@! TD.AperFunction*
G04 #@! TA.AperFunction,SMDPad,CuDef*
G36*
G01*
X143478500Y-89742000D02*
X142078500Y-89742000D01*
G75*
G02*
X142003500Y-89667000I0J75000D01*
G01*
X142003500Y-89517000D01*
G75*
G02*
X142078500Y-89442000I75000J0D01*
G01*
X143478500Y-89442000D01*
G75*
G02*
X143553500Y-89517000I0J-75000D01*
G01*
X143553500Y-89667000D01*
G75*
G02*
X143478500Y-89742000I-75000J0D01*
G01*
G37*
G04 #@! TD.AperFunction*
G04 #@! TA.AperFunction,SMDPad,CuDef*
G36*
G01*
X143478500Y-89242000D02*
X142078500Y-89242000D01*
G75*
G02*
X142003500Y-89167000I0J75000D01*
G01*
X142003500Y-89017000D01*
G75*
G02*
X142078500Y-88942000I75000J0D01*
G01*
X143478500Y-88942000D01*
G75*
G02*
X143553500Y-89017000I0J-75000D01*
G01*
X143553500Y-89167000D01*
G75*
G02*
X143478500Y-89242000I-75000J0D01*
G01*
G37*
G04 #@! TD.AperFunction*
G04 #@! TA.AperFunction,SMDPad,CuDef*
G36*
G01*
X143478500Y-88742000D02*
X142078500Y-88742000D01*
G75*
G02*
X142003500Y-88667000I0J75000D01*
G01*
X142003500Y-88517000D01*
G75*
G02*
X142078500Y-88442000I75000J0D01*
G01*
X143478500Y-88442000D01*
G75*
G02*
X143553500Y-88517000I0J-75000D01*
G01*
X143553500Y-88667000D01*
G75*
G02*
X143478500Y-88742000I-75000J0D01*
G01*
G37*
G04 #@! TD.AperFunction*
G04 #@! TA.AperFunction,SMDPad,CuDef*
G36*
G01*
X143478500Y-88242000D02*
X142078500Y-88242000D01*
G75*
G02*
X142003500Y-88167000I0J75000D01*
G01*
X142003500Y-88017000D01*
G75*
G02*
X142078500Y-87942000I75000J0D01*
G01*
X143478500Y-87942000D01*
G75*
G02*
X143553500Y-88017000I0J-75000D01*
G01*
X143553500Y-88167000D01*
G75*
G02*
X143478500Y-88242000I-75000J0D01*
G01*
G37*
G04 #@! TD.AperFunction*
G04 #@! TA.AperFunction,SMDPad,CuDef*
G36*
G01*
X143478500Y-87742000D02*
X142078500Y-87742000D01*
G75*
G02*
X142003500Y-87667000I0J75000D01*
G01*
X142003500Y-87517000D01*
G75*
G02*
X142078500Y-87442000I75000J0D01*
G01*
X143478500Y-87442000D01*
G75*
G02*
X143553500Y-87517000I0J-75000D01*
G01*
X143553500Y-87667000D01*
G75*
G02*
X143478500Y-87742000I-75000J0D01*
G01*
G37*
G04 #@! TD.AperFunction*
G04 #@! TA.AperFunction,SMDPad,CuDef*
G36*
G01*
X143478500Y-87242000D02*
X142078500Y-87242000D01*
G75*
G02*
X142003500Y-87167000I0J75000D01*
G01*
X142003500Y-87017000D01*
G75*
G02*
X142078500Y-86942000I75000J0D01*
G01*
X143478500Y-86942000D01*
G75*
G02*
X143553500Y-87017000I0J-75000D01*
G01*
X143553500Y-87167000D01*
G75*
G02*
X143478500Y-87242000I-75000J0D01*
G01*
G37*
G04 #@! TD.AperFunction*
G04 #@! TA.AperFunction,SMDPad,CuDef*
G36*
G01*
X143478500Y-86742000D02*
X142078500Y-86742000D01*
G75*
G02*
X142003500Y-86667000I0J75000D01*
G01*
X142003500Y-86517000D01*
G75*
G02*
X142078500Y-86442000I75000J0D01*
G01*
X143478500Y-86442000D01*
G75*
G02*
X143553500Y-86517000I0J-75000D01*
G01*
X143553500Y-86667000D01*
G75*
G02*
X143478500Y-86742000I-75000J0D01*
G01*
G37*
G04 #@! TD.AperFunction*
G04 #@! TA.AperFunction,SMDPad,CuDef*
G36*
G01*
X144778500Y-85442000D02*
X144628500Y-85442000D01*
G75*
G02*
X144553500Y-85367000I0J75000D01*
G01*
X144553500Y-83967000D01*
G75*
G02*
X144628500Y-83892000I75000J0D01*
G01*
X144778500Y-83892000D01*
G75*
G02*
X144853500Y-83967000I0J-75000D01*
G01*
X144853500Y-85367000D01*
G75*
G02*
X144778500Y-85442000I-75000J0D01*
G01*
G37*
G04 #@! TD.AperFunction*
G04 #@! TA.AperFunction,SMDPad,CuDef*
G36*
G01*
X145278500Y-85442000D02*
X145128500Y-85442000D01*
G75*
G02*
X145053500Y-85367000I0J75000D01*
G01*
X145053500Y-83967000D01*
G75*
G02*
X145128500Y-83892000I75000J0D01*
G01*
X145278500Y-83892000D01*
G75*
G02*
X145353500Y-83967000I0J-75000D01*
G01*
X145353500Y-85367000D01*
G75*
G02*
X145278500Y-85442000I-75000J0D01*
G01*
G37*
G04 #@! TD.AperFunction*
G04 #@! TA.AperFunction,SMDPad,CuDef*
G36*
G01*
X145778500Y-85442000D02*
X145628500Y-85442000D01*
G75*
G02*
X145553500Y-85367000I0J75000D01*
G01*
X145553500Y-83967000D01*
G75*
G02*
X145628500Y-83892000I75000J0D01*
G01*
X145778500Y-83892000D01*
G75*
G02*
X145853500Y-83967000I0J-75000D01*
G01*
X145853500Y-85367000D01*
G75*
G02*
X145778500Y-85442000I-75000J0D01*
G01*
G37*
G04 #@! TD.AperFunction*
G04 #@! TA.AperFunction,SMDPad,CuDef*
G36*
G01*
X146278500Y-85442000D02*
X146128500Y-85442000D01*
G75*
G02*
X146053500Y-85367000I0J75000D01*
G01*
X146053500Y-83967000D01*
G75*
G02*
X146128500Y-83892000I75000J0D01*
G01*
X146278500Y-83892000D01*
G75*
G02*
X146353500Y-83967000I0J-75000D01*
G01*
X146353500Y-85367000D01*
G75*
G02*
X146278500Y-85442000I-75000J0D01*
G01*
G37*
G04 #@! TD.AperFunction*
G04 #@! TA.AperFunction,SMDPad,CuDef*
G36*
G01*
X146778500Y-85442000D02*
X146628500Y-85442000D01*
G75*
G02*
X146553500Y-85367000I0J75000D01*
G01*
X146553500Y-83967000D01*
G75*
G02*
X146628500Y-83892000I75000J0D01*
G01*
X146778500Y-83892000D01*
G75*
G02*
X146853500Y-83967000I0J-75000D01*
G01*
X146853500Y-85367000D01*
G75*
G02*
X146778500Y-85442000I-75000J0D01*
G01*
G37*
G04 #@! TD.AperFunction*
G04 #@! TA.AperFunction,SMDPad,CuDef*
G36*
G01*
X147278500Y-85442000D02*
X147128500Y-85442000D01*
G75*
G02*
X147053500Y-85367000I0J75000D01*
G01*
X147053500Y-83967000D01*
G75*
G02*
X147128500Y-83892000I75000J0D01*
G01*
X147278500Y-83892000D01*
G75*
G02*
X147353500Y-83967000I0J-75000D01*
G01*
X147353500Y-85367000D01*
G75*
G02*
X147278500Y-85442000I-75000J0D01*
G01*
G37*
G04 #@! TD.AperFunction*
G04 #@! TA.AperFunction,SMDPad,CuDef*
G36*
G01*
X147778500Y-85442000D02*
X147628500Y-85442000D01*
G75*
G02*
X147553500Y-85367000I0J75000D01*
G01*
X147553500Y-83967000D01*
G75*
G02*
X147628500Y-83892000I75000J0D01*
G01*
X147778500Y-83892000D01*
G75*
G02*
X147853500Y-83967000I0J-75000D01*
G01*
X147853500Y-85367000D01*
G75*
G02*
X147778500Y-85442000I-75000J0D01*
G01*
G37*
G04 #@! TD.AperFunction*
G04 #@! TA.AperFunction,SMDPad,CuDef*
G36*
G01*
X148278500Y-85442000D02*
X148128500Y-85442000D01*
G75*
G02*
X148053500Y-85367000I0J75000D01*
G01*
X148053500Y-83967000D01*
G75*
G02*
X148128500Y-83892000I75000J0D01*
G01*
X148278500Y-83892000D01*
G75*
G02*
X148353500Y-83967000I0J-75000D01*
G01*
X148353500Y-85367000D01*
G75*
G02*
X148278500Y-85442000I-75000J0D01*
G01*
G37*
G04 #@! TD.AperFunction*
G04 #@! TA.AperFunction,SMDPad,CuDef*
G36*
G01*
X148778500Y-85442000D02*
X148628500Y-85442000D01*
G75*
G02*
X148553500Y-85367000I0J75000D01*
G01*
X148553500Y-83967000D01*
G75*
G02*
X148628500Y-83892000I75000J0D01*
G01*
X148778500Y-83892000D01*
G75*
G02*
X148853500Y-83967000I0J-75000D01*
G01*
X148853500Y-85367000D01*
G75*
G02*
X148778500Y-85442000I-75000J0D01*
G01*
G37*
G04 #@! TD.AperFunction*
G04 #@! TA.AperFunction,SMDPad,CuDef*
G36*
G01*
X149278500Y-85442000D02*
X149128500Y-85442000D01*
G75*
G02*
X149053500Y-85367000I0J75000D01*
G01*
X149053500Y-83967000D01*
G75*
G02*
X149128500Y-83892000I75000J0D01*
G01*
X149278500Y-83892000D01*
G75*
G02*
X149353500Y-83967000I0J-75000D01*
G01*
X149353500Y-85367000D01*
G75*
G02*
X149278500Y-85442000I-75000J0D01*
G01*
G37*
G04 #@! TD.AperFunction*
G04 #@! TA.AperFunction,SMDPad,CuDef*
G36*
G01*
X149778500Y-85442000D02*
X149628500Y-85442000D01*
G75*
G02*
X149553500Y-85367000I0J75000D01*
G01*
X149553500Y-83967000D01*
G75*
G02*
X149628500Y-83892000I75000J0D01*
G01*
X149778500Y-83892000D01*
G75*
G02*
X149853500Y-83967000I0J-75000D01*
G01*
X149853500Y-85367000D01*
G75*
G02*
X149778500Y-85442000I-75000J0D01*
G01*
G37*
G04 #@! TD.AperFunction*
G04 #@! TA.AperFunction,SMDPad,CuDef*
G36*
G01*
X150278500Y-85442000D02*
X150128500Y-85442000D01*
G75*
G02*
X150053500Y-85367000I0J75000D01*
G01*
X150053500Y-83967000D01*
G75*
G02*
X150128500Y-83892000I75000J0D01*
G01*
X150278500Y-83892000D01*
G75*
G02*
X150353500Y-83967000I0J-75000D01*
G01*
X150353500Y-85367000D01*
G75*
G02*
X150278500Y-85442000I-75000J0D01*
G01*
G37*
G04 #@! TD.AperFunction*
G04 #@! TA.AperFunction,SMDPad,CuDef*
G36*
G01*
X150778500Y-85442000D02*
X150628500Y-85442000D01*
G75*
G02*
X150553500Y-85367000I0J75000D01*
G01*
X150553500Y-83967000D01*
G75*
G02*
X150628500Y-83892000I75000J0D01*
G01*
X150778500Y-83892000D01*
G75*
G02*
X150853500Y-83967000I0J-75000D01*
G01*
X150853500Y-85367000D01*
G75*
G02*
X150778500Y-85442000I-75000J0D01*
G01*
G37*
G04 #@! TD.AperFunction*
G04 #@! TA.AperFunction,SMDPad,CuDef*
G36*
G01*
X151278500Y-85442000D02*
X151128500Y-85442000D01*
G75*
G02*
X151053500Y-85367000I0J75000D01*
G01*
X151053500Y-83967000D01*
G75*
G02*
X151128500Y-83892000I75000J0D01*
G01*
X151278500Y-83892000D01*
G75*
G02*
X151353500Y-83967000I0J-75000D01*
G01*
X151353500Y-85367000D01*
G75*
G02*
X151278500Y-85442000I-75000J0D01*
G01*
G37*
G04 #@! TD.AperFunction*
G04 #@! TA.AperFunction,SMDPad,CuDef*
G36*
G01*
X151778500Y-85442000D02*
X151628500Y-85442000D01*
G75*
G02*
X151553500Y-85367000I0J75000D01*
G01*
X151553500Y-83967000D01*
G75*
G02*
X151628500Y-83892000I75000J0D01*
G01*
X151778500Y-83892000D01*
G75*
G02*
X151853500Y-83967000I0J-75000D01*
G01*
X151853500Y-85367000D01*
G75*
G02*
X151778500Y-85442000I-75000J0D01*
G01*
G37*
G04 #@! TD.AperFunction*
G04 #@! TA.AperFunction,SMDPad,CuDef*
G36*
G01*
X152278500Y-85442000D02*
X152128500Y-85442000D01*
G75*
G02*
X152053500Y-85367000I0J75000D01*
G01*
X152053500Y-83967000D01*
G75*
G02*
X152128500Y-83892000I75000J0D01*
G01*
X152278500Y-83892000D01*
G75*
G02*
X152353500Y-83967000I0J-75000D01*
G01*
X152353500Y-85367000D01*
G75*
G02*
X152278500Y-85442000I-75000J0D01*
G01*
G37*
G04 #@! TD.AperFunction*
G04 #@! TA.AperFunction,SMDPad,CuDef*
G36*
G01*
X154828500Y-86742000D02*
X153428500Y-86742000D01*
G75*
G02*
X153353500Y-86667000I0J75000D01*
G01*
X153353500Y-86517000D01*
G75*
G02*
X153428500Y-86442000I75000J0D01*
G01*
X154828500Y-86442000D01*
G75*
G02*
X154903500Y-86517000I0J-75000D01*
G01*
X154903500Y-86667000D01*
G75*
G02*
X154828500Y-86742000I-75000J0D01*
G01*
G37*
G04 #@! TD.AperFunction*
G04 #@! TA.AperFunction,SMDPad,CuDef*
G36*
G01*
X154828500Y-87242000D02*
X153428500Y-87242000D01*
G75*
G02*
X153353500Y-87167000I0J75000D01*
G01*
X153353500Y-87017000D01*
G75*
G02*
X153428500Y-86942000I75000J0D01*
G01*
X154828500Y-86942000D01*
G75*
G02*
X154903500Y-87017000I0J-75000D01*
G01*
X154903500Y-87167000D01*
G75*
G02*
X154828500Y-87242000I-75000J0D01*
G01*
G37*
G04 #@! TD.AperFunction*
G04 #@! TA.AperFunction,SMDPad,CuDef*
G36*
G01*
X154828500Y-87742000D02*
X153428500Y-87742000D01*
G75*
G02*
X153353500Y-87667000I0J75000D01*
G01*
X153353500Y-87517000D01*
G75*
G02*
X153428500Y-87442000I75000J0D01*
G01*
X154828500Y-87442000D01*
G75*
G02*
X154903500Y-87517000I0J-75000D01*
G01*
X154903500Y-87667000D01*
G75*
G02*
X154828500Y-87742000I-75000J0D01*
G01*
G37*
G04 #@! TD.AperFunction*
G04 #@! TA.AperFunction,SMDPad,CuDef*
G36*
G01*
X154828500Y-88242000D02*
X153428500Y-88242000D01*
G75*
G02*
X153353500Y-88167000I0J75000D01*
G01*
X153353500Y-88017000D01*
G75*
G02*
X153428500Y-87942000I75000J0D01*
G01*
X154828500Y-87942000D01*
G75*
G02*
X154903500Y-88017000I0J-75000D01*
G01*
X154903500Y-88167000D01*
G75*
G02*
X154828500Y-88242000I-75000J0D01*
G01*
G37*
G04 #@! TD.AperFunction*
G04 #@! TA.AperFunction,SMDPad,CuDef*
G36*
G01*
X154828500Y-88742000D02*
X153428500Y-88742000D01*
G75*
G02*
X153353500Y-88667000I0J75000D01*
G01*
X153353500Y-88517000D01*
G75*
G02*
X153428500Y-88442000I75000J0D01*
G01*
X154828500Y-88442000D01*
G75*
G02*
X154903500Y-88517000I0J-75000D01*
G01*
X154903500Y-88667000D01*
G75*
G02*
X154828500Y-88742000I-75000J0D01*
G01*
G37*
G04 #@! TD.AperFunction*
G04 #@! TA.AperFunction,SMDPad,CuDef*
G36*
G01*
X154828500Y-89242000D02*
X153428500Y-89242000D01*
G75*
G02*
X153353500Y-89167000I0J75000D01*
G01*
X153353500Y-89017000D01*
G75*
G02*
X153428500Y-88942000I75000J0D01*
G01*
X154828500Y-88942000D01*
G75*
G02*
X154903500Y-89017000I0J-75000D01*
G01*
X154903500Y-89167000D01*
G75*
G02*
X154828500Y-89242000I-75000J0D01*
G01*
G37*
G04 #@! TD.AperFunction*
G04 #@! TA.AperFunction,SMDPad,CuDef*
G36*
G01*
X154828500Y-89742000D02*
X153428500Y-89742000D01*
G75*
G02*
X153353500Y-89667000I0J75000D01*
G01*
X153353500Y-89517000D01*
G75*
G02*
X153428500Y-89442000I75000J0D01*
G01*
X154828500Y-89442000D01*
G75*
G02*
X154903500Y-89517000I0J-75000D01*
G01*
X154903500Y-89667000D01*
G75*
G02*
X154828500Y-89742000I-75000J0D01*
G01*
G37*
G04 #@! TD.AperFunction*
G04 #@! TA.AperFunction,SMDPad,CuDef*
G36*
G01*
X154828500Y-90242000D02*
X153428500Y-90242000D01*
G75*
G02*
X153353500Y-90167000I0J75000D01*
G01*
X153353500Y-90017000D01*
G75*
G02*
X153428500Y-89942000I75000J0D01*
G01*
X154828500Y-89942000D01*
G75*
G02*
X154903500Y-90017000I0J-75000D01*
G01*
X154903500Y-90167000D01*
G75*
G02*
X154828500Y-90242000I-75000J0D01*
G01*
G37*
G04 #@! TD.AperFunction*
G04 #@! TA.AperFunction,SMDPad,CuDef*
G36*
G01*
X154828500Y-90742000D02*
X153428500Y-90742000D01*
G75*
G02*
X153353500Y-90667000I0J75000D01*
G01*
X153353500Y-90517000D01*
G75*
G02*
X153428500Y-90442000I75000J0D01*
G01*
X154828500Y-90442000D01*
G75*
G02*
X154903500Y-90517000I0J-75000D01*
G01*
X154903500Y-90667000D01*
G75*
G02*
X154828500Y-90742000I-75000J0D01*
G01*
G37*
G04 #@! TD.AperFunction*
G04 #@! TA.AperFunction,SMDPad,CuDef*
G36*
G01*
X154828500Y-91242000D02*
X153428500Y-91242000D01*
G75*
G02*
X153353500Y-91167000I0J75000D01*
G01*
X153353500Y-91017000D01*
G75*
G02*
X153428500Y-90942000I75000J0D01*
G01*
X154828500Y-90942000D01*
G75*
G02*
X154903500Y-91017000I0J-75000D01*
G01*
X154903500Y-91167000D01*
G75*
G02*
X154828500Y-91242000I-75000J0D01*
G01*
G37*
G04 #@! TD.AperFunction*
G04 #@! TA.AperFunction,SMDPad,CuDef*
G36*
G01*
X154828500Y-91742000D02*
X153428500Y-91742000D01*
G75*
G02*
X153353500Y-91667000I0J75000D01*
G01*
X153353500Y-91517000D01*
G75*
G02*
X153428500Y-91442000I75000J0D01*
G01*
X154828500Y-91442000D01*
G75*
G02*
X154903500Y-91517000I0J-75000D01*
G01*
X154903500Y-91667000D01*
G75*
G02*
X154828500Y-91742000I-75000J0D01*
G01*
G37*
G04 #@! TD.AperFunction*
G04 #@! TA.AperFunction,SMDPad,CuDef*
G36*
G01*
X154828500Y-92242000D02*
X153428500Y-92242000D01*
G75*
G02*
X153353500Y-92167000I0J75000D01*
G01*
X153353500Y-92017000D01*
G75*
G02*
X153428500Y-91942000I75000J0D01*
G01*
X154828500Y-91942000D01*
G75*
G02*
X154903500Y-92017000I0J-75000D01*
G01*
X154903500Y-92167000D01*
G75*
G02*
X154828500Y-92242000I-75000J0D01*
G01*
G37*
G04 #@! TD.AperFunction*
G04 #@! TA.AperFunction,SMDPad,CuDef*
G36*
G01*
X154828500Y-92742000D02*
X153428500Y-92742000D01*
G75*
G02*
X153353500Y-92667000I0J75000D01*
G01*
X153353500Y-92517000D01*
G75*
G02*
X153428500Y-92442000I75000J0D01*
G01*
X154828500Y-92442000D01*
G75*
G02*
X154903500Y-92517000I0J-75000D01*
G01*
X154903500Y-92667000D01*
G75*
G02*
X154828500Y-92742000I-75000J0D01*
G01*
G37*
G04 #@! TD.AperFunction*
G04 #@! TA.AperFunction,SMDPad,CuDef*
G36*
G01*
X154828500Y-93242000D02*
X153428500Y-93242000D01*
G75*
G02*
X153353500Y-93167000I0J75000D01*
G01*
X153353500Y-93017000D01*
G75*
G02*
X153428500Y-92942000I75000J0D01*
G01*
X154828500Y-92942000D01*
G75*
G02*
X154903500Y-93017000I0J-75000D01*
G01*
X154903500Y-93167000D01*
G75*
G02*
X154828500Y-93242000I-75000J0D01*
G01*
G37*
G04 #@! TD.AperFunction*
G04 #@! TA.AperFunction,SMDPad,CuDef*
G36*
G01*
X154828500Y-93742000D02*
X153428500Y-93742000D01*
G75*
G02*
X153353500Y-93667000I0J75000D01*
G01*
X153353500Y-93517000D01*
G75*
G02*
X153428500Y-93442000I75000J0D01*
G01*
X154828500Y-93442000D01*
G75*
G02*
X154903500Y-93517000I0J-75000D01*
G01*
X154903500Y-93667000D01*
G75*
G02*
X154828500Y-93742000I-75000J0D01*
G01*
G37*
G04 #@! TD.AperFunction*
G04 #@! TA.AperFunction,SMDPad,CuDef*
G36*
G01*
X154828500Y-94242000D02*
X153428500Y-94242000D01*
G75*
G02*
X153353500Y-94167000I0J75000D01*
G01*
X153353500Y-94017000D01*
G75*
G02*
X153428500Y-93942000I75000J0D01*
G01*
X154828500Y-93942000D01*
G75*
G02*
X154903500Y-94017000I0J-75000D01*
G01*
X154903500Y-94167000D01*
G75*
G02*
X154828500Y-94242000I-75000J0D01*
G01*
G37*
G04 #@! TD.AperFunction*
G04 #@! TA.AperFunction,SMDPad,CuDef*
G36*
G01*
X152278500Y-96792000D02*
X152128500Y-96792000D01*
G75*
G02*
X152053500Y-96717000I0J75000D01*
G01*
X152053500Y-95317000D01*
G75*
G02*
X152128500Y-95242000I75000J0D01*
G01*
X152278500Y-95242000D01*
G75*
G02*
X152353500Y-95317000I0J-75000D01*
G01*
X152353500Y-96717000D01*
G75*
G02*
X152278500Y-96792000I-75000J0D01*
G01*
G37*
G04 #@! TD.AperFunction*
G04 #@! TA.AperFunction,SMDPad,CuDef*
G36*
G01*
X151778500Y-96792000D02*
X151628500Y-96792000D01*
G75*
G02*
X151553500Y-96717000I0J75000D01*
G01*
X151553500Y-95317000D01*
G75*
G02*
X151628500Y-95242000I75000J0D01*
G01*
X151778500Y-95242000D01*
G75*
G02*
X151853500Y-95317000I0J-75000D01*
G01*
X151853500Y-96717000D01*
G75*
G02*
X151778500Y-96792000I-75000J0D01*
G01*
G37*
G04 #@! TD.AperFunction*
G04 #@! TA.AperFunction,SMDPad,CuDef*
G36*
G01*
X151278500Y-96792000D02*
X151128500Y-96792000D01*
G75*
G02*
X151053500Y-96717000I0J75000D01*
G01*
X151053500Y-95317000D01*
G75*
G02*
X151128500Y-95242000I75000J0D01*
G01*
X151278500Y-95242000D01*
G75*
G02*
X151353500Y-95317000I0J-75000D01*
G01*
X151353500Y-96717000D01*
G75*
G02*
X151278500Y-96792000I-75000J0D01*
G01*
G37*
G04 #@! TD.AperFunction*
G04 #@! TA.AperFunction,SMDPad,CuDef*
G36*
G01*
X150778500Y-96792000D02*
X150628500Y-96792000D01*
G75*
G02*
X150553500Y-96717000I0J75000D01*
G01*
X150553500Y-95317000D01*
G75*
G02*
X150628500Y-95242000I75000J0D01*
G01*
X150778500Y-95242000D01*
G75*
G02*
X150853500Y-95317000I0J-75000D01*
G01*
X150853500Y-96717000D01*
G75*
G02*
X150778500Y-96792000I-75000J0D01*
G01*
G37*
G04 #@! TD.AperFunction*
G04 #@! TA.AperFunction,SMDPad,CuDef*
G36*
G01*
X150278500Y-96792000D02*
X150128500Y-96792000D01*
G75*
G02*
X150053500Y-96717000I0J75000D01*
G01*
X150053500Y-95317000D01*
G75*
G02*
X150128500Y-95242000I75000J0D01*
G01*
X150278500Y-95242000D01*
G75*
G02*
X150353500Y-95317000I0J-75000D01*
G01*
X150353500Y-96717000D01*
G75*
G02*
X150278500Y-96792000I-75000J0D01*
G01*
G37*
G04 #@! TD.AperFunction*
G04 #@! TA.AperFunction,SMDPad,CuDef*
G36*
G01*
X149778500Y-96792000D02*
X149628500Y-96792000D01*
G75*
G02*
X149553500Y-96717000I0J75000D01*
G01*
X149553500Y-95317000D01*
G75*
G02*
X149628500Y-95242000I75000J0D01*
G01*
X149778500Y-95242000D01*
G75*
G02*
X149853500Y-95317000I0J-75000D01*
G01*
X149853500Y-96717000D01*
G75*
G02*
X149778500Y-96792000I-75000J0D01*
G01*
G37*
G04 #@! TD.AperFunction*
G04 #@! TA.AperFunction,SMDPad,CuDef*
G36*
G01*
X149278500Y-96792000D02*
X149128500Y-96792000D01*
G75*
G02*
X149053500Y-96717000I0J75000D01*
G01*
X149053500Y-95317000D01*
G75*
G02*
X149128500Y-95242000I75000J0D01*
G01*
X149278500Y-95242000D01*
G75*
G02*
X149353500Y-95317000I0J-75000D01*
G01*
X149353500Y-96717000D01*
G75*
G02*
X149278500Y-96792000I-75000J0D01*
G01*
G37*
G04 #@! TD.AperFunction*
G04 #@! TA.AperFunction,SMDPad,CuDef*
G36*
G01*
X148778500Y-96792000D02*
X148628500Y-96792000D01*
G75*
G02*
X148553500Y-96717000I0J75000D01*
G01*
X148553500Y-95317000D01*
G75*
G02*
X148628500Y-95242000I75000J0D01*
G01*
X148778500Y-95242000D01*
G75*
G02*
X148853500Y-95317000I0J-75000D01*
G01*
X148853500Y-96717000D01*
G75*
G02*
X148778500Y-96792000I-75000J0D01*
G01*
G37*
G04 #@! TD.AperFunction*
G04 #@! TA.AperFunction,SMDPad,CuDef*
G36*
G01*
X148278500Y-96792000D02*
X148128500Y-96792000D01*
G75*
G02*
X148053500Y-96717000I0J75000D01*
G01*
X148053500Y-95317000D01*
G75*
G02*
X148128500Y-95242000I75000J0D01*
G01*
X148278500Y-95242000D01*
G75*
G02*
X148353500Y-95317000I0J-75000D01*
G01*
X148353500Y-96717000D01*
G75*
G02*
X148278500Y-96792000I-75000J0D01*
G01*
G37*
G04 #@! TD.AperFunction*
G04 #@! TA.AperFunction,SMDPad,CuDef*
G36*
G01*
X147778500Y-96792000D02*
X147628500Y-96792000D01*
G75*
G02*
X147553500Y-96717000I0J75000D01*
G01*
X147553500Y-95317000D01*
G75*
G02*
X147628500Y-95242000I75000J0D01*
G01*
X147778500Y-95242000D01*
G75*
G02*
X147853500Y-95317000I0J-75000D01*
G01*
X147853500Y-96717000D01*
G75*
G02*
X147778500Y-96792000I-75000J0D01*
G01*
G37*
G04 #@! TD.AperFunction*
G04 #@! TA.AperFunction,SMDPad,CuDef*
G36*
G01*
X147278500Y-96792000D02*
X147128500Y-96792000D01*
G75*
G02*
X147053500Y-96717000I0J75000D01*
G01*
X147053500Y-95317000D01*
G75*
G02*
X147128500Y-95242000I75000J0D01*
G01*
X147278500Y-95242000D01*
G75*
G02*
X147353500Y-95317000I0J-75000D01*
G01*
X147353500Y-96717000D01*
G75*
G02*
X147278500Y-96792000I-75000J0D01*
G01*
G37*
G04 #@! TD.AperFunction*
G04 #@! TA.AperFunction,SMDPad,CuDef*
G36*
G01*
X146778500Y-96792000D02*
X146628500Y-96792000D01*
G75*
G02*
X146553500Y-96717000I0J75000D01*
G01*
X146553500Y-95317000D01*
G75*
G02*
X146628500Y-95242000I75000J0D01*
G01*
X146778500Y-95242000D01*
G75*
G02*
X146853500Y-95317000I0J-75000D01*
G01*
X146853500Y-96717000D01*
G75*
G02*
X146778500Y-96792000I-75000J0D01*
G01*
G37*
G04 #@! TD.AperFunction*
G04 #@! TA.AperFunction,SMDPad,CuDef*
G36*
G01*
X146278500Y-96792000D02*
X146128500Y-96792000D01*
G75*
G02*
X146053500Y-96717000I0J75000D01*
G01*
X146053500Y-95317000D01*
G75*
G02*
X146128500Y-95242000I75000J0D01*
G01*
X146278500Y-95242000D01*
G75*
G02*
X146353500Y-95317000I0J-75000D01*
G01*
X146353500Y-96717000D01*
G75*
G02*
X146278500Y-96792000I-75000J0D01*
G01*
G37*
G04 #@! TD.AperFunction*
G04 #@! TA.AperFunction,SMDPad,CuDef*
G36*
G01*
X145778500Y-96792000D02*
X145628500Y-96792000D01*
G75*
G02*
X145553500Y-96717000I0J75000D01*
G01*
X145553500Y-95317000D01*
G75*
G02*
X145628500Y-95242000I75000J0D01*
G01*
X145778500Y-95242000D01*
G75*
G02*
X145853500Y-95317000I0J-75000D01*
G01*
X145853500Y-96717000D01*
G75*
G02*
X145778500Y-96792000I-75000J0D01*
G01*
G37*
G04 #@! TD.AperFunction*
G04 #@! TA.AperFunction,SMDPad,CuDef*
G36*
G01*
X145278500Y-96792000D02*
X145128500Y-96792000D01*
G75*
G02*
X145053500Y-96717000I0J75000D01*
G01*
X145053500Y-95317000D01*
G75*
G02*
X145128500Y-95242000I75000J0D01*
G01*
X145278500Y-95242000D01*
G75*
G02*
X145353500Y-95317000I0J-75000D01*
G01*
X145353500Y-96717000D01*
G75*
G02*
X145278500Y-96792000I-75000J0D01*
G01*
G37*
G04 #@! TD.AperFunction*
G04 #@! TA.AperFunction,SMDPad,CuDef*
G36*
G01*
X144778500Y-96792000D02*
X144628500Y-96792000D01*
G75*
G02*
X144553500Y-96717000I0J75000D01*
G01*
X144553500Y-95317000D01*
G75*
G02*
X144628500Y-95242000I75000J0D01*
G01*
X144778500Y-95242000D01*
G75*
G02*
X144853500Y-95317000I0J-75000D01*
G01*
X144853500Y-96717000D01*
G75*
G02*
X144778500Y-96792000I-75000J0D01*
G01*
G37*
G04 #@! TD.AperFunction*
G04 #@! TA.AperFunction,SMDPad,CuDef*
G36*
G01*
X151372250Y-80042000D02*
X150859750Y-80042000D01*
G75*
G02*
X150641000Y-79823250I0J218750D01*
G01*
X150641000Y-79385750D01*
G75*
G02*
X150859750Y-79167000I218750J0D01*
G01*
X151372250Y-79167000D01*
G75*
G02*
X151591000Y-79385750I0J-218750D01*
G01*
X151591000Y-79823250D01*
G75*
G02*
X151372250Y-80042000I-218750J0D01*
G01*
G37*
G04 #@! TD.AperFunction*
G04 #@! TA.AperFunction,SMDPad,CuDef*
G36*
G01*
X151372250Y-81617000D02*
X150859750Y-81617000D01*
G75*
G02*
X150641000Y-81398250I0J218750D01*
G01*
X150641000Y-80960750D01*
G75*
G02*
X150859750Y-80742000I218750J0D01*
G01*
X151372250Y-80742000D01*
G75*
G02*
X151591000Y-80960750I0J-218750D01*
G01*
X151591000Y-81398250D01*
G75*
G02*
X151372250Y-81617000I-218750J0D01*
G01*
G37*
G04 #@! TD.AperFunction*
G04 #@! TA.AperFunction,SMDPad,CuDef*
G36*
G01*
X148866000Y-81348250D02*
X148866000Y-80835750D01*
G75*
G02*
X149084750Y-80617000I218750J0D01*
G01*
X149522250Y-80617000D01*
G75*
G02*
X149741000Y-80835750I0J-218750D01*
G01*
X149741000Y-81348250D01*
G75*
G02*
X149522250Y-81567000I-218750J0D01*
G01*
X149084750Y-81567000D01*
G75*
G02*
X148866000Y-81348250I0J218750D01*
G01*
G37*
G04 #@! TD.AperFunction*
G04 #@! TA.AperFunction,SMDPad,CuDef*
G36*
G01*
X147291000Y-81348250D02*
X147291000Y-80835750D01*
G75*
G02*
X147509750Y-80617000I218750J0D01*
G01*
X147947250Y-80617000D01*
G75*
G02*
X148166000Y-80835750I0J-218750D01*
G01*
X148166000Y-81348250D01*
G75*
G02*
X147947250Y-81567000I-218750J0D01*
G01*
X147509750Y-81567000D01*
G75*
G02*
X147291000Y-81348250I0J218750D01*
G01*
G37*
G04 #@! TD.AperFunction*
G04 #@! TA.AperFunction,SMDPad,CuDef*
G36*
G01*
X142828500Y-80735750D02*
X142828500Y-81248250D01*
G75*
G02*
X142609750Y-81467000I-218750J0D01*
G01*
X142172250Y-81467000D01*
G75*
G02*
X141953500Y-81248250I0J218750D01*
G01*
X141953500Y-80735750D01*
G75*
G02*
X142172250Y-80517000I218750J0D01*
G01*
X142609750Y-80517000D01*
G75*
G02*
X142828500Y-80735750I0J-218750D01*
G01*
G37*
G04 #@! TD.AperFunction*
G04 #@! TA.AperFunction,SMDPad,CuDef*
G36*
G01*
X141253500Y-80735750D02*
X141253500Y-81248250D01*
G75*
G02*
X141034750Y-81467000I-218750J0D01*
G01*
X140597250Y-81467000D01*
G75*
G02*
X140378500Y-81248250I0J218750D01*
G01*
X140378500Y-80735750D01*
G75*
G02*
X140597250Y-80517000I218750J0D01*
G01*
X141034750Y-80517000D01*
G75*
G02*
X141253500Y-80735750I0J-218750D01*
G01*
G37*
G04 #@! TD.AperFunction*
D36*
X138266000Y-114942000D03*
X139216000Y-114942000D03*
X137316000Y-114942000D03*
X137316000Y-112742000D03*
X138266000Y-112742000D03*
X139216000Y-112742000D03*
G04 #@! TA.AperFunction,SMDPad,CuDef*
G36*
G01*
X138141000Y-101398250D02*
X138141000Y-100885750D01*
G75*
G02*
X138359750Y-100667000I218750J0D01*
G01*
X138797250Y-100667000D01*
G75*
G02*
X139016000Y-100885750I0J-218750D01*
G01*
X139016000Y-101398250D01*
G75*
G02*
X138797250Y-101617000I-218750J0D01*
G01*
X138359750Y-101617000D01*
G75*
G02*
X138141000Y-101398250I0J218750D01*
G01*
G37*
G04 #@! TD.AperFunction*
G04 #@! TA.AperFunction,SMDPad,CuDef*
G36*
G01*
X139716000Y-101398250D02*
X139716000Y-100885750D01*
G75*
G02*
X139934750Y-100667000I218750J0D01*
G01*
X140372250Y-100667000D01*
G75*
G02*
X140591000Y-100885750I0J-218750D01*
G01*
X140591000Y-101398250D01*
G75*
G02*
X140372250Y-101617000I-218750J0D01*
G01*
X139934750Y-101617000D01*
G75*
G02*
X139716000Y-101398250I0J218750D01*
G01*
G37*
G04 #@! TD.AperFunction*
G04 #@! TA.AperFunction,SMDPad,CuDef*
G36*
G01*
X150616000Y-100148250D02*
X150616000Y-99635750D01*
G75*
G02*
X150834750Y-99417000I218750J0D01*
G01*
X151272250Y-99417000D01*
G75*
G02*
X151491000Y-99635750I0J-218750D01*
G01*
X151491000Y-100148250D01*
G75*
G02*
X151272250Y-100367000I-218750J0D01*
G01*
X150834750Y-100367000D01*
G75*
G02*
X150616000Y-100148250I0J218750D01*
G01*
G37*
G04 #@! TD.AperFunction*
G04 #@! TA.AperFunction,SMDPad,CuDef*
G36*
G01*
X152191000Y-100148250D02*
X152191000Y-99635750D01*
G75*
G02*
X152409750Y-99417000I218750J0D01*
G01*
X152847250Y-99417000D01*
G75*
G02*
X153066000Y-99635750I0J-218750D01*
G01*
X153066000Y-100148250D01*
G75*
G02*
X152847250Y-100367000I-218750J0D01*
G01*
X152409750Y-100367000D01*
G75*
G02*
X152191000Y-100148250I0J218750D01*
G01*
G37*
G04 #@! TD.AperFunction*
D37*
X144953500Y-100392000D03*
X147153500Y-100392000D03*
X147153500Y-98692000D03*
X144953500Y-98692000D03*
D12*
X151829000Y-110752000D03*
X151829000Y-113292000D03*
D13*
X151829000Y-115832000D03*
X154369000Y-115832000D03*
D12*
X154369000Y-113292000D03*
X154369000Y-110752000D03*
D13*
X156909000Y-115832000D03*
D12*
X156909000Y-113292000D03*
X156909000Y-110752000D03*
D38*
X140816000Y-79567000D03*
X142416000Y-77617000D03*
X142416000Y-78267000D03*
X142416000Y-78917000D03*
X140816000Y-77617000D03*
X140816000Y-78267000D03*
X140816000Y-78917000D03*
X142416000Y-79567000D03*
D12*
X159449000Y-110752000D03*
X159449000Y-113292000D03*
D13*
X159449000Y-115832000D03*
G04 #@! TA.AperFunction,SMDPad,CuDef*
G36*
G01*
X162112500Y-82493750D02*
X162112500Y-83006250D01*
G75*
G02*
X161893750Y-83225000I-218750J0D01*
G01*
X161456250Y-83225000D01*
G75*
G02*
X161237500Y-83006250I0J218750D01*
G01*
X161237500Y-82493750D01*
G75*
G02*
X161456250Y-82275000I218750J0D01*
G01*
X161893750Y-82275000D01*
G75*
G02*
X162112500Y-82493750I0J-218750D01*
G01*
G37*
G04 #@! TD.AperFunction*
G04 #@! TA.AperFunction,SMDPad,CuDef*
G36*
G01*
X160537500Y-82493750D02*
X160537500Y-83006250D01*
G75*
G02*
X160318750Y-83225000I-218750J0D01*
G01*
X159881250Y-83225000D01*
G75*
G02*
X159662500Y-83006250I0J218750D01*
G01*
X159662500Y-82493750D01*
G75*
G02*
X159881250Y-82275000I218750J0D01*
G01*
X160318750Y-82275000D01*
G75*
G02*
X160537500Y-82493750I0J-218750D01*
G01*
G37*
G04 #@! TD.AperFunction*
G04 #@! TA.AperFunction,SMDPad,CuDef*
G36*
G01*
X143409750Y-99112500D02*
X142897250Y-99112500D01*
G75*
G02*
X142678500Y-98893750I0J218750D01*
G01*
X142678500Y-98456250D01*
G75*
G02*
X142897250Y-98237500I218750J0D01*
G01*
X143409750Y-98237500D01*
G75*
G02*
X143628500Y-98456250I0J-218750D01*
G01*
X143628500Y-98893750D01*
G75*
G02*
X143409750Y-99112500I-218750J0D01*
G01*
G37*
G04 #@! TD.AperFunction*
G04 #@! TA.AperFunction,SMDPad,CuDef*
G36*
G01*
X143409750Y-100687500D02*
X142897250Y-100687500D01*
G75*
G02*
X142678500Y-100468750I0J218750D01*
G01*
X142678500Y-100031250D01*
G75*
G02*
X142897250Y-99812500I218750J0D01*
G01*
X143409750Y-99812500D01*
G75*
G02*
X143628500Y-100031250I0J-218750D01*
G01*
X143628500Y-100468750D01*
G75*
G02*
X143409750Y-100687500I-218750J0D01*
G01*
G37*
G04 #@! TD.AperFunction*
G04 #@! TA.AperFunction,SMDPad,CuDef*
G36*
G01*
X144491000Y-115985750D02*
X144491000Y-116498250D01*
G75*
G02*
X144272250Y-116717000I-218750J0D01*
G01*
X143834750Y-116717000D01*
G75*
G02*
X143616000Y-116498250I0J218750D01*
G01*
X143616000Y-115985750D01*
G75*
G02*
X143834750Y-115767000I218750J0D01*
G01*
X144272250Y-115767000D01*
G75*
G02*
X144491000Y-115985750I0J-218750D01*
G01*
G37*
G04 #@! TD.AperFunction*
G04 #@! TA.AperFunction,SMDPad,CuDef*
G36*
G01*
X142916000Y-115985750D02*
X142916000Y-116498250D01*
G75*
G02*
X142697250Y-116717000I-218750J0D01*
G01*
X142259750Y-116717000D01*
G75*
G02*
X142041000Y-116498250I0J218750D01*
G01*
X142041000Y-115985750D01*
G75*
G02*
X142259750Y-115767000I218750J0D01*
G01*
X142697250Y-115767000D01*
G75*
G02*
X142916000Y-115985750I0J-218750D01*
G01*
G37*
G04 #@! TD.AperFunction*
G04 #@! TA.AperFunction,SMDPad,CuDef*
G36*
G01*
X143459750Y-77367000D02*
X143972250Y-77367000D01*
G75*
G02*
X144191000Y-77585750I0J-218750D01*
G01*
X144191000Y-78023250D01*
G75*
G02*
X143972250Y-78242000I-218750J0D01*
G01*
X143459750Y-78242000D01*
G75*
G02*
X143241000Y-78023250I0J218750D01*
G01*
X143241000Y-77585750D01*
G75*
G02*
X143459750Y-77367000I218750J0D01*
G01*
G37*
G04 #@! TD.AperFunction*
G04 #@! TA.AperFunction,SMDPad,CuDef*
G36*
G01*
X143459750Y-78942000D02*
X143972250Y-78942000D01*
G75*
G02*
X144191000Y-79160750I0J-218750D01*
G01*
X144191000Y-79598250D01*
G75*
G02*
X143972250Y-79817000I-218750J0D01*
G01*
X143459750Y-79817000D01*
G75*
G02*
X143241000Y-79598250I0J218750D01*
G01*
X143241000Y-79160750D01*
G75*
G02*
X143459750Y-78942000I218750J0D01*
G01*
G37*
G04 #@! TD.AperFunction*
G04 #@! TA.AperFunction,SMDPad,CuDef*
G36*
G01*
X149193750Y-100725000D02*
X148681250Y-100725000D01*
G75*
G02*
X148462500Y-100506250I0J218750D01*
G01*
X148462500Y-100068750D01*
G75*
G02*
X148681250Y-99850000I218750J0D01*
G01*
X149193750Y-99850000D01*
G75*
G02*
X149412500Y-100068750I0J-218750D01*
G01*
X149412500Y-100506250D01*
G75*
G02*
X149193750Y-100725000I-218750J0D01*
G01*
G37*
G04 #@! TD.AperFunction*
G04 #@! TA.AperFunction,SMDPad,CuDef*
G36*
G01*
X149193750Y-99150000D02*
X148681250Y-99150000D01*
G75*
G02*
X148462500Y-98931250I0J218750D01*
G01*
X148462500Y-98493750D01*
G75*
G02*
X148681250Y-98275000I218750J0D01*
G01*
X149193750Y-98275000D01*
G75*
G02*
X149412500Y-98493750I0J-218750D01*
G01*
X149412500Y-98931250D01*
G75*
G02*
X149193750Y-99150000I-218750J0D01*
G01*
G37*
G04 #@! TD.AperFunction*
G04 #@! TA.AperFunction,SMDPad,CuDef*
G36*
G01*
X156672250Y-95004500D02*
X156159750Y-95004500D01*
G75*
G02*
X155941000Y-94785750I0J218750D01*
G01*
X155941000Y-94348250D01*
G75*
G02*
X156159750Y-94129500I218750J0D01*
G01*
X156672250Y-94129500D01*
G75*
G02*
X156891000Y-94348250I0J-218750D01*
G01*
X156891000Y-94785750D01*
G75*
G02*
X156672250Y-95004500I-218750J0D01*
G01*
G37*
G04 #@! TD.AperFunction*
G04 #@! TA.AperFunction,SMDPad,CuDef*
G36*
G01*
X156672250Y-93429500D02*
X156159750Y-93429500D01*
G75*
G02*
X155941000Y-93210750I0J218750D01*
G01*
X155941000Y-92773250D01*
G75*
G02*
X156159750Y-92554500I218750J0D01*
G01*
X156672250Y-92554500D01*
G75*
G02*
X156891000Y-92773250I0J-218750D01*
G01*
X156891000Y-93210750D01*
G75*
G02*
X156672250Y-93429500I-218750J0D01*
G01*
G37*
G04 #@! TD.AperFunction*
G04 #@! TA.AperFunction,SMDPad,CuDef*
G36*
G01*
X142041000Y-113498250D02*
X142041000Y-112985750D01*
G75*
G02*
X142259750Y-112767000I218750J0D01*
G01*
X142697250Y-112767000D01*
G75*
G02*
X142916000Y-112985750I0J-218750D01*
G01*
X142916000Y-113498250D01*
G75*
G02*
X142697250Y-113717000I-218750J0D01*
G01*
X142259750Y-113717000D01*
G75*
G02*
X142041000Y-113498250I0J218750D01*
G01*
G37*
G04 #@! TD.AperFunction*
G04 #@! TA.AperFunction,SMDPad,CuDef*
G36*
G01*
X143616000Y-113498250D02*
X143616000Y-112985750D01*
G75*
G02*
X143834750Y-112767000I218750J0D01*
G01*
X144272250Y-112767000D01*
G75*
G02*
X144491000Y-112985750I0J-218750D01*
G01*
X144491000Y-113498250D01*
G75*
G02*
X144272250Y-113717000I-218750J0D01*
G01*
X143834750Y-113717000D01*
G75*
G02*
X143616000Y-113498250I0J218750D01*
G01*
G37*
G04 #@! TD.AperFunction*
G04 #@! TA.AperFunction,SMDPad,CuDef*
G36*
G01*
X142041000Y-114998250D02*
X142041000Y-114485750D01*
G75*
G02*
X142259750Y-114267000I218750J0D01*
G01*
X142697250Y-114267000D01*
G75*
G02*
X142916000Y-114485750I0J-218750D01*
G01*
X142916000Y-114998250D01*
G75*
G02*
X142697250Y-115217000I-218750J0D01*
G01*
X142259750Y-115217000D01*
G75*
G02*
X142041000Y-114998250I0J218750D01*
G01*
G37*
G04 #@! TD.AperFunction*
G04 #@! TA.AperFunction,SMDPad,CuDef*
G36*
G01*
X143616000Y-114998250D02*
X143616000Y-114485750D01*
G75*
G02*
X143834750Y-114267000I218750J0D01*
G01*
X144272250Y-114267000D01*
G75*
G02*
X144491000Y-114485750I0J-218750D01*
G01*
X144491000Y-114998250D01*
G75*
G02*
X144272250Y-115217000I-218750J0D01*
G01*
X143834750Y-115217000D01*
G75*
G02*
X143616000Y-114998250I0J218750D01*
G01*
G37*
G04 #@! TD.AperFunction*
G04 #@! TA.AperFunction,SMDPad,CuDef*
G36*
G01*
X150628500Y-98448250D02*
X150628500Y-97935750D01*
G75*
G02*
X150847250Y-97717000I218750J0D01*
G01*
X151284750Y-97717000D01*
G75*
G02*
X151503500Y-97935750I0J-218750D01*
G01*
X151503500Y-98448250D01*
G75*
G02*
X151284750Y-98667000I-218750J0D01*
G01*
X150847250Y-98667000D01*
G75*
G02*
X150628500Y-98448250I0J218750D01*
G01*
G37*
G04 #@! TD.AperFunction*
G04 #@! TA.AperFunction,SMDPad,CuDef*
G36*
G01*
X152203500Y-98448250D02*
X152203500Y-97935750D01*
G75*
G02*
X152422250Y-97717000I218750J0D01*
G01*
X152859750Y-97717000D01*
G75*
G02*
X153078500Y-97935750I0J-218750D01*
G01*
X153078500Y-98448250D01*
G75*
G02*
X152859750Y-98667000I-218750J0D01*
G01*
X152422250Y-98667000D01*
G75*
G02*
X152203500Y-98448250I0J218750D01*
G01*
G37*
G04 #@! TD.AperFunction*
G04 #@! TA.AperFunction,SMDPad,CuDef*
G36*
G01*
X141478500Y-96598250D02*
X141478500Y-96085750D01*
G75*
G02*
X141697250Y-95867000I218750J0D01*
G01*
X142134750Y-95867000D01*
G75*
G02*
X142353500Y-96085750I0J-218750D01*
G01*
X142353500Y-96598250D01*
G75*
G02*
X142134750Y-96817000I-218750J0D01*
G01*
X141697250Y-96817000D01*
G75*
G02*
X141478500Y-96598250I0J218750D01*
G01*
G37*
G04 #@! TD.AperFunction*
G04 #@! TA.AperFunction,SMDPad,CuDef*
G36*
G01*
X143053500Y-96598250D02*
X143053500Y-96085750D01*
G75*
G02*
X143272250Y-95867000I218750J0D01*
G01*
X143709750Y-95867000D01*
G75*
G02*
X143928500Y-96085750I0J-218750D01*
G01*
X143928500Y-96598250D01*
G75*
G02*
X143709750Y-96817000I-218750J0D01*
G01*
X143272250Y-96817000D01*
G75*
G02*
X143053500Y-96598250I0J218750D01*
G01*
G37*
G04 #@! TD.AperFunction*
D39*
X146816000Y-80992000D03*
X139753500Y-94892000D03*
X143053500Y-84992000D03*
X152416000Y-78792000D03*
X157216000Y-92992000D03*
X144416000Y-94892000D03*
X137316000Y-73292000D03*
X159016000Y-102192000D03*
D40*
X162866000Y-89492000D03*
D39*
X142000000Y-81766994D03*
D40*
X147555000Y-72900000D03*
D39*
X151200000Y-77700000D03*
X155305010Y-85769250D03*
D40*
X133150000Y-83450000D03*
D39*
X144900000Y-68900000D03*
D40*
X139500000Y-100600004D03*
D39*
X153653500Y-99635021D03*
X155424682Y-99635021D03*
X154523334Y-99635021D03*
X150344990Y-91100000D03*
X161500000Y-71700000D03*
D40*
X146249462Y-90950538D03*
D39*
X143450002Y-76950000D03*
D40*
X133200000Y-78750000D03*
X163400000Y-65700000D03*
D39*
X140600000Y-71600000D03*
D40*
X131499992Y-91300000D03*
D39*
X155216000Y-106305010D03*
X153000000Y-73750000D03*
D40*
X133750000Y-86600000D03*
X136500000Y-95500000D03*
X149250000Y-67250000D03*
X136300000Y-62100000D03*
X136300000Y-59100000D03*
X136300000Y-60600000D03*
X145100000Y-62100000D03*
X145100000Y-60600000D03*
X145100000Y-59100000D03*
D39*
X146166000Y-64592000D03*
X146166000Y-67100000D03*
X146166000Y-72700000D03*
X134320000Y-64570000D03*
X134316000Y-67112000D03*
X134316000Y-72692000D03*
X134316000Y-75450000D03*
X140416000Y-75492000D03*
X146166000Y-69900000D03*
X137400000Y-75492000D03*
X146166000Y-75492000D03*
D40*
X141753500Y-97592000D03*
X141753500Y-101592000D03*
X141753500Y-100592000D03*
X141753500Y-99592000D03*
X141753500Y-98592000D03*
X150153500Y-101592000D03*
X150153500Y-100592000D03*
X150153500Y-99592000D03*
X150153500Y-98592000D03*
D39*
X139753500Y-93292000D03*
X160466000Y-78542000D03*
X145566000Y-112442000D03*
X145566000Y-113342000D03*
X145566000Y-114242000D03*
X145566000Y-116042000D03*
D40*
X149103500Y-101592000D03*
X148053500Y-101592000D03*
X147003500Y-101592000D03*
X145953500Y-101592000D03*
X144903500Y-101592000D03*
X143853500Y-101592000D03*
X142803500Y-101592000D03*
D39*
X140016000Y-113492000D03*
X140016000Y-112592000D03*
X140016000Y-111692000D03*
X140816000Y-112192000D03*
X140816000Y-113092000D03*
X140316000Y-108192000D03*
X140316000Y-107292000D03*
X140316000Y-106392000D03*
X140316000Y-105492000D03*
X145566000Y-115142000D03*
X141116000Y-106892000D03*
X141116000Y-107792000D03*
X141116000Y-105992000D03*
X146516000Y-112092000D03*
X147316000Y-107392000D03*
X158616000Y-107492000D03*
X151053500Y-99092000D03*
X150516000Y-108692000D03*
D40*
X146326824Y-78534986D03*
D39*
X148916006Y-81491994D03*
X157516000Y-108792000D03*
X143870500Y-98675000D03*
X148166761Y-100398550D03*
X134316000Y-69892000D03*
X157316000Y-94592000D03*
X152916000Y-93592000D03*
X150716000Y-107047010D03*
X137516000Y-72192000D03*
X159164518Y-99543482D03*
X150738058Y-94502321D03*
X153491928Y-80678616D03*
X140816000Y-81792000D03*
X141600000Y-84750000D03*
D40*
X143700000Y-72800000D03*
X140700000Y-72979661D03*
X142399996Y-73950000D03*
X144350000Y-71950000D03*
D39*
X144827036Y-86080356D03*
D40*
X144350000Y-88900000D03*
D41*
X141600000Y-65250000D03*
X139800000Y-65300000D03*
X141700000Y-63700000D03*
X139700000Y-63700000D03*
D40*
X136500000Y-65350000D03*
X136000000Y-66500000D03*
X136026699Y-67476699D03*
D39*
X152600000Y-87400000D03*
D40*
X162550000Y-65750000D03*
D39*
X141180603Y-95881985D03*
X149177265Y-88667376D03*
D40*
X162500000Y-88350000D03*
D39*
X158158000Y-86092000D03*
X158125000Y-87275000D03*
D40*
X139450000Y-102100000D03*
D39*
X150750000Y-81550000D03*
X143678317Y-80156534D03*
D40*
X149300000Y-70000000D03*
D39*
X151550000Y-75100000D03*
X160700000Y-83550000D03*
D40*
X161800000Y-70450000D03*
X165900000Y-71100000D03*
D39*
X162216000Y-76792000D03*
X159097157Y-98655010D03*
D40*
X143455010Y-70135933D03*
D39*
X156200000Y-67350000D03*
X151050000Y-100850000D03*
X143500000Y-75492000D03*
D40*
X143321043Y-73771043D03*
X139000000Y-66000000D03*
X138179984Y-68877010D03*
X136980000Y-70629998D03*
D39*
X134500000Y-110750006D03*
X157700000Y-106000000D03*
D40*
X153000000Y-70250000D03*
X140815999Y-91464979D03*
X138000000Y-92250000D03*
D39*
X154650000Y-68850000D03*
D40*
X148066000Y-86334005D03*
X157100000Y-96049998D03*
X151141196Y-88808804D03*
X154685023Y-95564977D03*
X158484193Y-96160193D03*
X157699992Y-85050000D03*
X146886019Y-86149913D03*
X150950012Y-87850000D03*
X154600000Y-97364990D03*
X153650000Y-95500000D03*
X149800000Y-83297000D03*
X153696031Y-84934745D03*
X158134485Y-84350314D03*
X146050000Y-92000000D03*
X164700000Y-90850000D03*
X164700000Y-69200000D03*
X164700009Y-88850009D03*
X152916000Y-92392000D03*
X155692019Y-83244990D03*
X157250657Y-91262935D03*
X155150000Y-83850000D03*
X157100000Y-83900008D03*
X156877807Y-90577807D03*
X152916000Y-91592000D03*
X154408739Y-79808944D03*
X154450000Y-82094386D03*
X155116000Y-81592000D03*
X153012009Y-77387989D03*
X146665009Y-81959328D03*
X151766000Y-83272000D03*
X150816000Y-83242002D03*
X145387000Y-81963000D03*
X158266000Y-95392000D03*
X151641075Y-94331979D03*
X157294990Y-71400000D03*
X146750000Y-92344990D03*
X144750000Y-104450000D03*
X137000000Y-84450000D03*
X143066000Y-65792000D03*
X140200000Y-84250000D03*
X136613057Y-76644990D03*
X134816000Y-76644990D03*
X135595002Y-78745423D03*
X139094075Y-83077886D03*
X144308629Y-67149725D03*
X136950000Y-81400010D03*
X144364739Y-66292060D03*
X139750000Y-83500000D03*
X139750000Y-80100000D03*
X145050740Y-65920818D03*
X160350000Y-67300000D03*
X158850000Y-67300000D03*
X148916000Y-83342000D03*
X144138845Y-83447000D03*
X134055750Y-80444250D03*
X143710204Y-82745401D03*
X147984193Y-83297010D03*
X134423021Y-77539988D03*
X134550000Y-78750000D03*
X150629865Y-86558541D03*
X155550000Y-89700002D03*
X159535005Y-87569989D03*
X148000000Y-87344990D03*
X158900001Y-84500001D03*
X146250000Y-79650000D03*
X144600000Y-82100000D03*
X144143285Y-91651101D03*
X147852401Y-91697877D03*
X137850000Y-101900000D03*
X158324994Y-88174994D03*
X138016000Y-67167000D03*
X142223131Y-70786757D03*
X152800009Y-88394990D03*
X152700000Y-90300000D03*
X140115780Y-74189663D03*
X138460990Y-83644990D03*
X139013193Y-74289193D03*
X137722258Y-81694553D03*
X135416000Y-69492000D03*
X136194990Y-81650000D03*
D39*
X152799101Y-103162000D03*
X151216000Y-104292000D03*
X154136000Y-103212000D03*
X161650000Y-100950000D03*
X141316000Y-115592000D03*
X155316000Y-109192000D03*
D40*
X156200000Y-105424230D03*
X153100006Y-105400000D03*
X159535000Y-85000000D03*
X162550000Y-84350000D03*
X133750000Y-85250000D03*
X133720000Y-89720000D03*
D42*
X144378500Y-96342000D02*
X144703500Y-96017000D01*
X143491000Y-96342000D02*
X144378500Y-96342000D01*
D43*
X146916000Y-81092000D02*
X146816000Y-80992000D01*
X147728500Y-81092000D02*
X146916000Y-81092000D01*
D44*
X147953500Y-80867000D02*
X147728500Y-81092000D01*
X147953500Y-79554500D02*
X147953500Y-80867000D01*
D42*
X152641000Y-98192000D02*
X152353500Y-98192000D01*
D43*
X152628500Y-99892000D02*
X152628500Y-98204500D01*
X152628500Y-98204500D02*
X152641000Y-98192000D01*
D42*
X151453500Y-97292000D02*
X151130728Y-97292000D01*
X151130728Y-97292000D02*
X150703500Y-96864772D01*
X150703500Y-96864772D02*
X150703500Y-96017000D01*
X152353500Y-98192000D02*
X151453500Y-97292000D01*
D44*
X140653500Y-94867000D02*
X140778500Y-94867000D01*
X141553500Y-94092000D02*
X142778500Y-94092000D01*
X140778500Y-94867000D02*
X141553500Y-94092000D01*
D43*
X140841000Y-94867000D02*
X140816000Y-94892000D01*
X140653500Y-94867000D02*
X139778500Y-94867000D01*
X143053500Y-84092000D02*
X143053500Y-84992000D01*
D44*
X155428500Y-86592000D02*
X155928500Y-86092000D01*
X154128500Y-86592000D02*
X155428500Y-86592000D01*
X150816000Y-79292000D02*
X151116000Y-79592000D01*
X149716000Y-79292000D02*
X150816000Y-79292000D01*
D43*
X152603500Y-79604500D02*
X152616000Y-79617000D01*
X151116000Y-79604500D02*
X152603500Y-79604500D01*
X152616000Y-78992000D02*
X152416000Y-78792000D01*
X152616000Y-79617000D02*
X152616000Y-78992000D01*
D44*
X144316000Y-68272000D02*
X144516000Y-68472000D01*
X142898500Y-68272000D02*
X144316000Y-68272000D01*
X156316000Y-93092000D02*
X156416000Y-92992000D01*
X154128500Y-93092000D02*
X156316000Y-93092000D01*
X156416000Y-92992000D02*
X157216000Y-92992000D01*
D42*
X144703500Y-95179500D02*
X144416000Y-94892000D01*
X144703500Y-96017000D02*
X144703500Y-95179500D01*
D44*
X143716000Y-77804500D02*
X143603500Y-77804500D01*
X143141000Y-78267000D02*
X142416000Y-78267000D01*
X143603500Y-77804500D02*
X143141000Y-78267000D01*
X142416000Y-78267000D02*
X142416000Y-77617000D01*
X142391000Y-79592000D02*
X142416000Y-79567000D01*
X142391000Y-80992000D02*
X142391000Y-79592000D01*
X142091998Y-79567000D02*
X142416000Y-79567000D01*
X141441998Y-78917000D02*
X142091998Y-79567000D01*
X140816000Y-78917000D02*
X141441998Y-78917000D01*
X143053500Y-84092000D02*
X144128500Y-84092000D01*
X144128500Y-84092000D02*
X144703500Y-84667000D01*
X142391000Y-81375994D02*
X142000000Y-81766994D01*
X142391000Y-80992000D02*
X142391000Y-81375994D01*
D43*
X155627760Y-86092000D02*
X155305010Y-85769250D01*
X155928500Y-86092000D02*
X155627760Y-86092000D01*
D44*
X141436000Y-70684068D02*
X141436000Y-71497000D01*
X141686000Y-70434068D02*
X141436000Y-70684068D01*
X141686000Y-69984500D02*
X141686000Y-70434068D01*
X144516000Y-68472000D02*
X144900000Y-68856000D01*
X144900000Y-68856000D02*
X144900000Y-68900000D01*
X140153500Y-101142000D02*
X139611504Y-100600004D01*
X139611504Y-100600004D02*
X139500000Y-100600004D01*
D43*
X153396521Y-99892000D02*
X153653500Y-99635021D01*
X152628500Y-99892000D02*
X153396521Y-99892000D01*
X161300000Y-71500000D02*
X161500000Y-71700000D01*
X160400000Y-71500000D02*
X161300000Y-71500000D01*
X143716000Y-77804500D02*
X143716000Y-77215998D01*
X143716000Y-77215998D02*
X143450002Y-76950000D01*
X153653500Y-99635021D02*
X154523334Y-99635021D01*
D44*
X140703000Y-71497000D02*
X140600000Y-71600000D01*
X141436000Y-71497000D02*
X140703000Y-71497000D01*
D45*
X153542000Y-71650000D02*
X153000000Y-72192000D01*
X155750000Y-71650000D02*
X153542000Y-71650000D01*
X153000000Y-72192000D02*
X153000000Y-73750000D01*
D44*
X136500000Y-96575000D02*
X136500000Y-95500000D01*
X142255740Y-69122000D02*
X142036000Y-69122000D01*
X142405740Y-69272000D02*
X142255740Y-69122000D01*
X142898500Y-69272000D02*
X142405740Y-69272000D01*
X150206500Y-96020000D02*
X150203500Y-96017000D01*
X148953500Y-80742000D02*
X149303500Y-81092000D01*
X148953500Y-79554500D02*
X148953500Y-80742000D01*
D42*
X150203500Y-97329500D02*
X150203500Y-96017000D01*
X151066000Y-98192000D02*
X150203500Y-97329500D01*
D44*
X140928500Y-93592000D02*
X142778500Y-93592000D01*
X140653500Y-93317000D02*
X140928500Y-93592000D01*
D43*
X140841000Y-93317000D02*
X140816000Y-93292000D01*
X140653500Y-93317000D02*
X139778500Y-93317000D01*
X159666000Y-78542000D02*
X160466000Y-78542000D01*
D45*
X162316000Y-76892000D02*
X162216000Y-76792000D01*
D44*
X145166000Y-114742000D02*
X145566000Y-115142000D01*
X144053500Y-114742000D02*
X145166000Y-114742000D01*
D46*
X158076000Y-107492000D02*
X157816000Y-107752000D01*
X158616000Y-107492000D02*
X158076000Y-107492000D01*
D43*
X151066000Y-98192000D02*
X151066000Y-99079500D01*
X151053500Y-99892000D02*
X151053500Y-99092000D01*
X152603500Y-81179500D02*
X152616000Y-81167000D01*
X151116000Y-81179500D02*
X152603500Y-81179500D01*
D44*
X146569810Y-78292000D02*
X146326824Y-78534986D01*
X147191000Y-78792000D02*
X146583838Y-78792000D01*
X146583838Y-78792000D02*
X146326824Y-78534986D01*
X147191000Y-78292000D02*
X146569810Y-78292000D01*
D43*
X149303500Y-81092000D02*
X149303500Y-81104500D01*
X149303500Y-81104500D02*
X148916006Y-81491994D01*
X149303500Y-81092000D02*
X149616028Y-81092000D01*
D47*
X144953500Y-98692000D02*
X145353500Y-98692000D01*
D44*
X155441000Y-93592000D02*
X156416000Y-94567000D01*
X154128500Y-93592000D02*
X155441000Y-93592000D01*
X157291000Y-94567000D02*
X157316000Y-94592000D01*
X156416000Y-94567000D02*
X157291000Y-94567000D01*
X154128500Y-93592000D02*
X152916000Y-93592000D01*
D43*
X148277811Y-100287500D02*
X148166761Y-100398550D01*
X148937500Y-100287500D02*
X148277811Y-100287500D01*
X148160211Y-100392000D02*
X148166761Y-100398550D01*
X147153500Y-100392000D02*
X148160211Y-100392000D01*
X144936500Y-98675000D02*
X144953500Y-98692000D01*
X143870500Y-98675000D02*
X144936500Y-98675000D01*
X143870500Y-98675000D02*
X143153500Y-98675000D01*
D44*
X148959750Y-81092000D02*
X149303500Y-81092000D01*
X148453500Y-80585750D02*
X148959750Y-81092000D01*
X148453500Y-79554500D02*
X148453500Y-80585750D01*
X143253500Y-78917000D02*
X142416000Y-78917000D01*
X143716000Y-79379500D02*
X143253500Y-78917000D01*
X140816000Y-80992000D02*
X140816000Y-79567000D01*
X141186000Y-67772000D02*
X140936000Y-68022000D01*
X141186000Y-66059500D02*
X141186000Y-67772000D01*
X141686000Y-67272000D02*
X140936000Y-68022000D01*
X141686000Y-66059500D02*
X141686000Y-67272000D01*
X139686000Y-66059500D02*
X139686000Y-66586990D01*
X140186000Y-67272000D02*
X140936000Y-68022000D01*
X140186000Y-66059500D02*
X140186000Y-67272000D01*
X140186000Y-68772000D02*
X140936000Y-68022000D01*
X138973500Y-68772000D02*
X140186000Y-68772000D01*
X150203500Y-95036879D02*
X150738058Y-94502321D01*
X150203500Y-96017000D02*
X150203500Y-95036879D01*
D43*
X152616000Y-81167000D02*
X153003544Y-81167000D01*
X153003544Y-81167000D02*
X153491928Y-80678616D01*
D44*
X140816000Y-80992000D02*
X140816000Y-81792000D01*
D43*
X141503500Y-84653500D02*
X141600000Y-84750000D01*
X141503500Y-84092000D02*
X141503500Y-84653500D01*
D45*
X143453000Y-73047000D02*
X143700000Y-72800000D01*
X142936000Y-73047000D02*
X143453000Y-73047000D01*
X140767339Y-73047000D02*
X140700000Y-72979661D01*
X141436000Y-73047000D02*
X140767339Y-73047000D01*
X141436000Y-73047000D02*
X142936000Y-73047000D01*
X142936000Y-73413996D02*
X142399996Y-73950000D01*
X142936000Y-73047000D02*
X142936000Y-73413996D01*
X144516000Y-71784000D02*
X144350000Y-71950000D01*
X144516000Y-70022000D02*
X144516000Y-71784000D01*
X144350000Y-72150000D02*
X143700000Y-72800000D01*
X144350000Y-71950000D02*
X144350000Y-72150000D01*
D44*
X145203500Y-85703892D02*
X144827036Y-86080356D01*
X145203500Y-84667000D02*
X145203500Y-85703892D01*
X136536000Y-65386000D02*
X136500000Y-65350000D01*
X136536000Y-66022000D02*
X136536000Y-65386000D01*
X136536000Y-66514000D02*
X136014000Y-66514000D01*
X136536000Y-67022000D02*
X136536000Y-66514000D01*
X136014000Y-66514000D02*
X136000000Y-66500000D01*
X136536000Y-66514000D02*
X136536000Y-66022000D01*
X136481398Y-67022000D02*
X136026699Y-67476699D01*
X136536000Y-67022000D02*
X136481398Y-67022000D01*
X154128500Y-87092000D02*
X152908000Y-87092000D01*
X152908000Y-87092000D02*
X152600000Y-87400000D01*
D42*
X141640618Y-96342000D02*
X141180603Y-95881985D01*
X141916000Y-96342000D02*
X141640618Y-96342000D01*
D43*
X157478500Y-86092000D02*
X158158000Y-86092000D01*
X157478500Y-87592000D02*
X157808000Y-87592000D01*
X157808000Y-87592000D02*
X158125000Y-87275000D01*
D44*
X151116000Y-81184000D02*
X150750000Y-81550000D01*
X151116000Y-81179500D02*
X151116000Y-81184000D01*
D43*
X150292000Y-81092000D02*
X150750000Y-81550000D01*
X149303500Y-81092000D02*
X150292000Y-81092000D01*
D44*
X143716000Y-79379500D02*
X143716000Y-80118851D01*
X143716000Y-80118851D02*
X143678317Y-80156534D01*
D42*
X144208500Y-59742000D02*
X144208500Y-62727000D01*
X137223500Y-59742000D02*
X137223500Y-62282000D01*
D43*
X160100000Y-82950000D02*
X160700000Y-83550000D01*
X160100000Y-82750000D02*
X160100000Y-82950000D01*
D44*
X165850000Y-71150000D02*
X165900000Y-71100000D01*
X165850000Y-72300000D02*
X165850000Y-71150000D01*
D45*
X163891000Y-76892000D02*
X162316000Y-76892000D01*
D44*
X142898500Y-69579423D02*
X143455010Y-70135933D01*
X142898500Y-69272000D02*
X142898500Y-69579423D01*
X143568943Y-70022000D02*
X143455010Y-70135933D01*
X144516000Y-70022000D02*
X143568943Y-70022000D01*
D43*
X151053500Y-100846500D02*
X151050000Y-100850000D01*
X151053500Y-99892000D02*
X151053500Y-100846500D01*
D45*
X142936000Y-73047000D02*
X142936000Y-73386000D01*
X142936000Y-73386000D02*
X143321043Y-73771043D01*
D44*
X139059500Y-66059500D02*
X139000000Y-66000000D01*
X139686000Y-66059500D02*
X139059500Y-66059500D01*
X138284994Y-68772000D02*
X138179984Y-68877010D01*
X137760000Y-68920000D02*
X138136994Y-68920000D01*
X138136994Y-68920000D02*
X138179984Y-68877010D01*
X138973500Y-68772000D02*
X138284994Y-68772000D01*
X136960000Y-70020000D02*
X136960000Y-70609998D01*
X136960000Y-70609998D02*
X136980000Y-70629998D01*
X134750000Y-101000000D02*
X132500000Y-101000000D01*
X136400000Y-102650000D02*
X134750000Y-101000000D01*
X146037500Y-102650000D02*
X136400000Y-102650000D01*
X147037500Y-103650000D02*
X146037500Y-102650000D01*
X134500000Y-109700000D02*
X134500000Y-110750006D01*
D47*
X148917000Y-98692000D02*
X148937500Y-98712500D01*
X147153500Y-98692000D02*
X148917000Y-98692000D01*
X147203500Y-98642000D02*
X147203500Y-96017000D01*
X147153500Y-98692000D02*
X147203500Y-98642000D01*
D42*
X145137500Y-100450000D02*
X145387500Y-100450000D01*
X144887500Y-100450000D02*
X145137500Y-100450000D01*
D44*
X144887500Y-100450000D02*
X145195500Y-100450000D01*
D42*
X144887500Y-100450000D02*
X145095500Y-100450000D01*
D47*
X144811500Y-100250000D02*
X144953500Y-100392000D01*
X143153500Y-100250000D02*
X144811500Y-100250000D01*
X146703500Y-97265998D02*
X146703500Y-96017000D01*
X146133499Y-97835999D02*
X146703500Y-97265998D01*
X146133499Y-99412001D02*
X146133499Y-97835999D01*
X145153500Y-100392000D02*
X146133499Y-99412001D01*
X144953500Y-100392000D02*
X145153500Y-100392000D01*
D44*
X144053500Y-116242000D02*
X144053500Y-116329500D01*
X144053500Y-116329500D02*
X144616000Y-116892000D01*
X144616000Y-116892000D02*
X147516000Y-116892000D01*
X148466000Y-115942000D02*
X148466000Y-115492000D01*
X147516000Y-116892000D02*
X148466000Y-115942000D01*
X160850000Y-91500000D02*
X165488000Y-91500000D01*
X160250000Y-90900000D02*
X160850000Y-91500000D01*
X160250000Y-90158127D02*
X160250000Y-90900000D01*
X161080011Y-89328116D02*
X160250000Y-90158127D01*
X161080011Y-85076480D02*
X161080011Y-89328116D01*
X158643519Y-82639988D02*
X161080011Y-85076480D01*
X145703500Y-84667000D02*
X145703500Y-86153500D01*
X145703500Y-86153500D02*
X147500000Y-87950000D01*
X147500000Y-87950000D02*
X149754598Y-87950000D01*
X149754598Y-87950000D02*
X150459599Y-87244999D01*
X150459599Y-87244999D02*
X151053470Y-87244999D01*
X151053470Y-87244999D02*
X152083482Y-86214987D01*
X152576056Y-86214987D02*
X153088521Y-85702522D01*
X153678116Y-84330010D02*
X155368137Y-82639988D01*
X152083482Y-86214987D02*
X152576056Y-86214987D01*
X165488000Y-91500000D02*
X166516000Y-90472000D01*
X153088521Y-85702522D02*
X153088521Y-84419603D01*
X153088521Y-84419603D02*
X153178114Y-84330010D01*
X153178114Y-84330010D02*
X153678116Y-84330010D01*
X155368137Y-82639988D02*
X158643519Y-82639988D01*
X142778500Y-92092000D02*
X141869299Y-92092000D01*
X141869299Y-92092000D02*
X141242278Y-91464979D01*
X141242278Y-91464979D02*
X140815999Y-91464979D01*
X137825000Y-92425000D02*
X138000000Y-92250000D01*
X136500000Y-92425000D02*
X137825000Y-92425000D01*
D45*
X153458000Y-68850000D02*
X153000000Y-68392000D01*
X154650000Y-68850000D02*
X153458000Y-68850000D01*
X155750000Y-68850000D02*
X154650000Y-68850000D01*
D43*
X159035999Y-80511999D02*
X161496001Y-80511999D01*
X158516000Y-79992000D02*
X159035999Y-80511999D01*
X158516000Y-78892000D02*
X158516000Y-79992000D01*
X158166000Y-78542000D02*
X158516000Y-78892000D01*
X157466000Y-78542000D02*
X158166000Y-78542000D01*
X161691000Y-90311000D02*
X161600000Y-90402000D01*
X161691000Y-80706998D02*
X161691000Y-90311000D01*
X161496001Y-80511999D02*
X161691000Y-80706998D01*
X161496001Y-80511999D02*
X162516000Y-79492000D01*
X162516000Y-79492000D02*
X163891000Y-79492000D01*
D44*
X132516000Y-104592000D02*
X133308000Y-103800000D01*
X142024000Y-103250000D02*
X142416000Y-103642000D01*
X133750000Y-103250000D02*
X142024000Y-103250000D01*
X132500000Y-104500000D02*
X133750000Y-103250000D01*
X158216000Y-98072344D02*
X154235656Y-94092000D01*
X158216000Y-99592000D02*
X158216000Y-98072344D01*
X160400000Y-101776000D02*
X158216000Y-99592000D01*
X160400000Y-108800000D02*
X160400000Y-101776000D01*
X154235656Y-94092000D02*
X154128500Y-94092000D01*
X159449000Y-109751000D02*
X160400000Y-108800000D01*
X159449000Y-110752000D02*
X159449000Y-109751000D01*
X147703500Y-85971505D02*
X148066000Y-86334005D01*
X147703500Y-84667000D02*
X147703500Y-85971505D01*
X152210999Y-93930401D02*
X152827608Y-94547010D01*
X151141196Y-88808804D02*
X151141196Y-92241196D01*
X151141196Y-92241196D02*
X152210999Y-93310999D01*
X152210999Y-93310999D02*
X152210999Y-93930401D01*
X152827608Y-94547010D02*
X153667056Y-94547010D01*
X153667056Y-94547010D02*
X154685023Y-95564977D01*
X157474260Y-96049998D02*
X157100000Y-96049998D01*
X159374262Y-97950000D02*
X157474260Y-96049998D01*
X162950000Y-97950000D02*
X159374262Y-97950000D01*
X165100000Y-100100000D02*
X162950000Y-97950000D01*
X165100000Y-101900000D02*
X165100000Y-100100000D01*
X166332000Y-103132000D02*
X165100000Y-101900000D01*
X166516000Y-103132000D02*
X166332000Y-103132000D01*
X147203500Y-84667000D02*
X147203500Y-85832432D01*
X147203500Y-85832432D02*
X146886019Y-86149913D01*
X152261598Y-86644998D02*
X151056596Y-87850000D01*
X153504819Y-85903265D02*
X152763086Y-86644998D01*
X154512525Y-85050000D02*
X153659260Y-85903265D01*
X153659260Y-85903265D02*
X153504819Y-85903265D01*
X157699992Y-85050000D02*
X154512525Y-85050000D01*
X152763086Y-86644998D02*
X152261598Y-86644998D01*
X151056596Y-87850000D02*
X150950012Y-87850000D01*
X159724000Y-97400000D02*
X158484193Y-96160193D01*
X163324000Y-97400000D02*
X159724000Y-97400000D01*
X166516000Y-100592000D02*
X163324000Y-97400000D01*
X153175736Y-95500000D02*
X153650000Y-95500000D01*
X151471104Y-94936980D02*
X152612716Y-94936980D01*
X151203500Y-95204584D02*
X151471104Y-94936980D01*
X151203500Y-96017000D02*
X151203500Y-95204584D01*
X152612716Y-94936980D02*
X153175736Y-95500000D01*
X154628904Y-97393894D02*
X154600000Y-97364990D01*
X154628904Y-97674306D02*
X154628904Y-97393894D01*
X156405990Y-99451392D02*
X154628904Y-97674306D01*
X156405990Y-102844010D02*
X156405990Y-99451392D01*
X153816000Y-105434000D02*
X156405990Y-102844010D01*
X153816000Y-108765000D02*
X153816000Y-105434000D01*
X151829000Y-110752000D02*
X153816000Y-108765000D01*
X154369000Y-105639000D02*
X154369000Y-110752000D01*
X156916000Y-103092000D02*
X154369000Y-105639000D01*
X154750000Y-96650000D02*
X156916000Y-98816000D01*
X153150000Y-96650000D02*
X154750000Y-96650000D01*
X152106491Y-97244991D02*
X152555009Y-97244991D01*
X156916000Y-98816000D02*
X156916000Y-103092000D01*
X151703500Y-96842000D02*
X152106491Y-97244991D01*
X152555009Y-97244991D02*
X153150000Y-96650000D01*
X151703500Y-96017000D02*
X151703500Y-96842000D01*
X156909000Y-110752000D02*
X156416000Y-110259000D01*
X159821001Y-101953599D02*
X159821001Y-107839999D01*
X157616002Y-99748600D02*
X159821001Y-101953599D01*
X157616002Y-98716002D02*
X157616002Y-99748600D01*
X159821001Y-107839999D02*
X156909000Y-110752000D01*
X155100000Y-96200000D02*
X157616002Y-98716002D01*
X152386500Y-96200000D02*
X155100000Y-96200000D01*
X152203500Y-96017000D02*
X152386500Y-96200000D01*
X149703500Y-83393500D02*
X149800000Y-83297000D01*
X149703500Y-84667000D02*
X149703500Y-83393500D01*
X157504276Y-84350314D02*
X158134485Y-84350314D01*
X154010786Y-84619990D02*
X157234600Y-84619990D01*
X157234600Y-84619990D02*
X157504276Y-84350314D01*
X153696031Y-84934745D02*
X154010786Y-84619990D01*
X145534608Y-94080010D02*
X144689686Y-93235090D01*
X145343972Y-92000000D02*
X146050000Y-92000000D01*
X147703500Y-95161626D02*
X146621885Y-94080011D01*
X144689686Y-93235090D02*
X144689686Y-92654286D01*
X147703500Y-96017000D02*
X147703500Y-95161626D01*
X146621885Y-94080011D02*
X145534608Y-94080010D01*
X144689686Y-92654286D02*
X145343972Y-92000000D01*
X164800000Y-69200000D02*
X165850000Y-68150000D01*
X164700000Y-69200000D02*
X164800000Y-69200000D01*
X164700000Y-90850000D02*
X164700000Y-88850018D01*
X164700000Y-88850018D02*
X164700009Y-88850009D01*
X153116000Y-92592000D02*
X152916000Y-92392000D01*
X154128500Y-92592000D02*
X153116000Y-92592000D01*
X158537065Y-91262935D02*
X157250657Y-91262935D01*
X160650000Y-89150000D02*
X158537065Y-91262935D01*
X155692019Y-83244990D02*
X158640394Y-83244990D01*
X158640394Y-83244990D02*
X160650000Y-85254596D01*
X156421592Y-92092000D02*
X157250657Y-91262935D01*
X160650000Y-85254596D02*
X160650000Y-89150000D01*
X154128500Y-92092000D02*
X156421592Y-92092000D01*
X157049992Y-83850000D02*
X157100000Y-83900008D01*
X155150000Y-83850000D02*
X157049992Y-83850000D01*
X156363614Y-91092000D02*
X156877807Y-90577807D01*
X154128500Y-91092000D02*
X156363614Y-91092000D01*
X154128500Y-91592000D02*
X152916000Y-91592000D01*
X154408739Y-79784739D02*
X154408739Y-79808944D01*
X152203500Y-84667000D02*
X152203500Y-83746883D01*
X152203500Y-83746883D02*
X152480394Y-83469989D01*
X152480394Y-83469989D02*
X153074396Y-83469989D01*
X153074396Y-83469989D02*
X154450000Y-82094386D01*
X154400000Y-79800205D02*
X154408739Y-79808944D01*
X154400000Y-78400000D02*
X154400000Y-79800205D01*
X154500000Y-78300000D02*
X154400000Y-78400000D01*
X148953500Y-76942000D02*
X148953500Y-77529500D01*
X149103500Y-76792000D02*
X148953500Y-76942000D01*
X151416000Y-76792000D02*
X149103500Y-76792000D01*
X152924000Y-78300000D02*
X151416000Y-76792000D01*
X154500000Y-78300000D02*
X152924000Y-78300000D01*
X156042000Y-81592000D02*
X156100000Y-81650000D01*
X155116000Y-81592000D02*
X156042000Y-81592000D01*
X148453500Y-76746375D02*
X148907875Y-76292000D01*
X148453500Y-77529500D02*
X148453500Y-76746375D01*
X148907875Y-76292000D02*
X151916020Y-76292000D01*
X151916020Y-76292000D02*
X153012009Y-77387989D01*
X152658510Y-85524406D02*
X152658510Y-84241487D01*
X151971094Y-85747010D02*
X152435906Y-85747010D01*
X152999998Y-83899999D02*
X153500000Y-83899999D01*
X152435906Y-85747010D02*
X152658510Y-85524406D01*
X151703500Y-85479416D02*
X151971094Y-85747010D01*
X151703500Y-84667000D02*
X151703500Y-85479416D01*
X155116000Y-82283998D02*
X155116000Y-81592000D01*
X152658510Y-84241487D02*
X152999998Y-83899999D01*
X153500000Y-83899999D02*
X155116000Y-82283998D01*
X151203500Y-83834500D02*
X151766000Y-83272000D01*
X151203500Y-84667000D02*
X151203500Y-83834500D01*
X146259328Y-81959328D02*
X146665009Y-81959328D01*
X145616000Y-81316000D02*
X146259328Y-81959328D01*
X145616000Y-78300126D02*
X145616000Y-81316000D01*
X146124126Y-77792000D02*
X145616000Y-78300126D01*
X147191000Y-77792000D02*
X146124126Y-77792000D01*
X145800000Y-82824337D02*
X146665009Y-81959328D01*
X145800000Y-82900000D02*
X145800000Y-82824337D01*
X150703500Y-83354502D02*
X150816000Y-83242002D01*
X150703500Y-84667000D02*
X150703500Y-83354502D01*
X145087001Y-81663001D02*
X145387000Y-81963000D01*
X145087001Y-77612999D02*
X145087001Y-81663001D01*
X145550000Y-77150000D02*
X145087001Y-77612999D01*
X147574000Y-77150000D02*
X145550000Y-77150000D01*
X147953500Y-77529500D02*
X147574000Y-77150000D01*
X144342000Y-86592000D02*
X151641075Y-93891075D01*
X142778500Y-86592000D02*
X144342000Y-86592000D01*
X151641075Y-93891075D02*
X151641075Y-94331979D01*
X158266000Y-93334000D02*
X158266000Y-95392000D01*
X159550000Y-92050000D02*
X158266000Y-93334000D01*
X165554000Y-92050000D02*
X159550000Y-92050000D01*
X166516000Y-93012000D02*
X165554000Y-92050000D01*
D45*
X139216000Y-114942000D02*
X140666000Y-114942000D01*
X142366000Y-113242000D02*
X142478500Y-113242000D01*
X140666000Y-114942000D02*
X142366000Y-113242000D01*
D44*
X158600000Y-71500000D02*
X157394990Y-71500000D01*
X157394990Y-71500000D02*
X157294990Y-71400000D01*
X142478500Y-116242000D02*
X142478500Y-114742000D01*
X142028500Y-116692000D02*
X142478500Y-116242000D01*
X138316000Y-116692000D02*
X142028500Y-116692000D01*
X137316000Y-115692000D02*
X138316000Y-116692000D01*
X137316000Y-114942000D02*
X137316000Y-115692000D01*
X149203500Y-96017000D02*
X149203500Y-94348904D01*
X149203500Y-94348904D02*
X147199586Y-92344990D01*
X147199586Y-92344990D02*
X146750000Y-92344990D01*
X144700000Y-104500000D02*
X144750000Y-104450000D01*
X143999000Y-103650000D02*
X143991000Y-103642000D01*
X144800000Y-104400000D02*
X144750000Y-104450000D01*
X144800000Y-103650000D02*
X144800000Y-104400000D01*
X145462500Y-103650000D02*
X144800000Y-103650000D01*
X144800000Y-103650000D02*
X143999000Y-103650000D01*
X137000000Y-88900000D02*
X137000000Y-84450000D01*
X137000000Y-89400000D02*
X137000000Y-88900000D01*
X138100000Y-90500000D02*
X137000000Y-89400000D01*
X139200000Y-90500000D02*
X138100000Y-90500000D01*
X139769989Y-89930011D02*
X139200000Y-90500000D01*
X141742000Y-90092000D02*
X141580011Y-89930011D01*
X141580011Y-89930011D02*
X139769989Y-89930011D01*
X142778500Y-90092000D02*
X141742000Y-90092000D01*
X142453500Y-65792000D02*
X143066000Y-65792000D01*
X142186000Y-66059500D02*
X142453500Y-65792000D01*
X141816000Y-87092000D02*
X140200000Y-85476000D01*
X142778500Y-87092000D02*
X141816000Y-87092000D01*
X140200000Y-85476000D02*
X140200000Y-84250000D01*
X136613057Y-76644990D02*
X134816000Y-76644990D01*
X135899579Y-79050000D02*
X135595002Y-78745423D01*
X136800000Y-79050000D02*
X135899579Y-79050000D01*
X139094075Y-85794075D02*
X139094075Y-83077886D01*
X139550000Y-86250000D02*
X139094075Y-85794075D01*
X139550000Y-87200000D02*
X139550000Y-86250000D01*
X140442000Y-88092000D02*
X139550000Y-87200000D01*
X142778500Y-88092000D02*
X140442000Y-88092000D01*
X143686354Y-67772000D02*
X144308629Y-67149725D01*
X142898500Y-67772000D02*
X143686354Y-67772000D01*
X144310680Y-66292060D02*
X144364739Y-66292060D01*
X143330740Y-67272000D02*
X144310680Y-66292060D01*
X142898500Y-67272000D02*
X143330740Y-67272000D01*
X142778500Y-90592000D02*
X141542000Y-90592000D01*
X141542000Y-90592000D02*
X141350000Y-90400000D01*
X141350000Y-90400000D02*
X140100000Y-90400000D01*
X140100000Y-90400000D02*
X139400000Y-91100000D01*
X139400000Y-91100000D02*
X137800000Y-91100000D01*
X137800000Y-91100000D02*
X136350000Y-89650000D01*
X136350000Y-83450000D02*
X136950000Y-82850000D01*
X136350000Y-89650000D02*
X136350000Y-83450000D01*
X136950000Y-82850000D02*
X136950000Y-81400010D01*
X142778500Y-87592000D02*
X141524126Y-87592000D01*
X141524126Y-87592000D02*
X139594999Y-85662873D01*
X139594999Y-85662873D02*
X139594999Y-83655001D01*
X139594999Y-83655001D02*
X139750000Y-83500000D01*
X139100000Y-79450000D02*
X139750000Y-80100000D01*
X139100000Y-79100000D02*
X139100000Y-79450000D01*
X144140576Y-65620819D02*
X144750741Y-65620819D01*
X144750741Y-65620819D02*
X145050740Y-65920818D01*
X142989395Y-66772000D02*
X144140576Y-65620819D01*
X142898500Y-66772000D02*
X142989395Y-66772000D01*
D42*
X154128500Y-87592000D02*
X155928500Y-87592000D01*
D44*
X160350000Y-69050000D02*
X160400000Y-69100000D01*
X160350000Y-67300000D02*
X160350000Y-69050000D01*
X158850000Y-68850000D02*
X158600000Y-69100000D01*
X158850000Y-67300000D02*
X158850000Y-68850000D01*
D43*
X161600000Y-96200000D02*
X161700000Y-96300000D01*
X161600000Y-93202000D02*
X161600000Y-96200000D01*
D44*
X148703500Y-84667000D02*
X148703500Y-83554500D01*
X148703500Y-83554500D02*
X148916000Y-83342000D01*
X135355002Y-78144998D02*
X135700000Y-77800000D01*
X139849000Y-77800000D02*
X140316000Y-78267000D01*
X134259598Y-78144998D02*
X135355002Y-78144998D01*
X133944998Y-78459598D02*
X134259598Y-78144998D01*
X133944998Y-80333498D02*
X133944998Y-78459598D01*
X140316000Y-78267000D02*
X140816000Y-78267000D01*
X135700000Y-77800000D02*
X139849000Y-77800000D01*
X134055750Y-80444250D02*
X133944998Y-80333498D01*
X134055750Y-80444250D02*
X134211500Y-80600000D01*
X134211500Y-80600000D02*
X137745402Y-80600000D01*
X143633048Y-83447000D02*
X144138845Y-83447000D01*
X137745402Y-80600000D02*
X140457392Y-83311990D01*
X140457392Y-83311990D02*
X143498038Y-83311990D01*
X143498038Y-83311990D02*
X143633048Y-83447000D01*
X132400000Y-82100000D02*
X134055750Y-80444250D01*
X130050000Y-82100000D02*
X132400000Y-82100000D01*
X148203500Y-83516317D02*
X147984193Y-83297010D01*
X148203500Y-84667000D02*
X148203500Y-83516317D01*
X140816000Y-77617000D02*
X140488989Y-77289989D01*
X134673020Y-77289989D02*
X134423021Y-77539988D01*
X140488989Y-77289989D02*
X134673020Y-77289989D01*
X134550000Y-79500000D02*
X134550000Y-78750000D01*
X135050000Y-80000000D02*
X134550000Y-79500000D01*
X138024000Y-80000000D02*
X135050000Y-80000000D01*
X140769401Y-82745401D02*
X138024000Y-80000000D01*
X143710204Y-82745401D02*
X140769401Y-82745401D01*
X150203500Y-84667000D02*
X150203500Y-86132176D01*
X150203500Y-86132176D02*
X150629865Y-86558541D01*
X159535005Y-88689995D02*
X159535005Y-87569989D01*
X158725000Y-89500000D02*
X159535005Y-88689995D01*
X155750002Y-89500000D02*
X158725000Y-89500000D01*
X155550000Y-89700002D02*
X155750002Y-89500000D01*
X149203500Y-86141490D02*
X148000000Y-87344990D01*
X149203500Y-84667000D02*
X149203500Y-86141490D01*
X158350391Y-89044999D02*
X158930000Y-88465390D01*
X158930000Y-88465390D02*
X158930000Y-84530000D01*
X155259599Y-89044999D02*
X158350391Y-89044999D01*
X158930000Y-84530000D02*
X158900001Y-84500001D01*
X154128500Y-89092000D02*
X155212598Y-89092000D01*
X155212598Y-89092000D02*
X155259599Y-89044999D01*
X146608000Y-79292000D02*
X147191000Y-79292000D01*
X146250000Y-79650000D02*
X146608000Y-79292000D01*
X144600000Y-82050000D02*
X144000000Y-81450000D01*
X144600000Y-82100000D02*
X144600000Y-82050000D01*
X144143285Y-93493285D02*
X144143285Y-91651101D01*
X145703500Y-95053500D02*
X144143285Y-93493285D01*
X145703500Y-96017000D02*
X145703500Y-95053500D01*
X145746524Y-89592000D02*
X147852401Y-91697877D01*
X142778500Y-89592000D02*
X145746524Y-89592000D01*
X137850000Y-101870500D02*
X138578500Y-101142000D01*
X137850000Y-101900000D02*
X137850000Y-101870500D01*
X157907988Y-88592000D02*
X158324994Y-88174994D01*
X154128500Y-88592000D02*
X157907988Y-88592000D01*
X138121000Y-67272000D02*
X138016000Y-67167000D01*
X138973500Y-67272000D02*
X138121000Y-67272000D01*
D45*
X137871000Y-67022000D02*
X138016000Y-67167000D01*
X137496000Y-67022000D02*
X137871000Y-67022000D01*
D44*
X142186000Y-70749626D02*
X142223131Y-70786757D01*
D43*
X142936000Y-71497000D02*
X142225757Y-70786757D01*
X142225757Y-70786757D02*
X142223131Y-70786757D01*
D44*
X142186000Y-69984500D02*
X142186000Y-70749626D01*
X137811000Y-66022000D02*
X137496000Y-66022000D01*
X138561000Y-66772000D02*
X137811000Y-66022000D01*
X138973500Y-66772000D02*
X138561000Y-66772000D01*
X152992000Y-90592000D02*
X152700000Y-90300000D01*
X154128500Y-90592000D02*
X152992000Y-90592000D01*
X152800009Y-90199991D02*
X152700000Y-90300000D01*
X152800009Y-88394990D02*
X152800009Y-90199991D01*
X140186000Y-69984500D02*
X140186000Y-70822000D01*
X140186000Y-70822000D02*
X139616000Y-71392000D01*
X139616000Y-71392000D02*
X139616000Y-73689883D01*
X139616000Y-73689883D02*
X140115780Y-74189663D01*
X138460990Y-87810990D02*
X138460990Y-83644990D01*
X139600000Y-88950000D02*
X138460990Y-87810990D01*
X141491875Y-88950000D02*
X139600000Y-88950000D01*
X141804885Y-88636990D02*
X141491875Y-88950000D01*
X142733510Y-88636990D02*
X141804885Y-88636990D01*
X142778500Y-88592000D02*
X142733510Y-88636990D01*
X139013193Y-70657307D02*
X139013193Y-74289193D01*
X139686000Y-69984500D02*
X139013193Y-70657307D01*
X137650000Y-81766811D02*
X137722258Y-81694553D01*
X137650000Y-88850000D02*
X137650000Y-81766811D01*
X138300000Y-89500000D02*
X137650000Y-88850000D01*
X141550000Y-89500000D02*
X138300000Y-89500000D01*
X141913010Y-89136990D02*
X141550000Y-89500000D01*
X142733510Y-89136990D02*
X141913010Y-89136990D01*
X142778500Y-89092000D02*
X142733510Y-89136990D01*
X137760000Y-70020000D02*
X137760000Y-69970000D01*
X138658000Y-69272000D02*
X138973500Y-69272000D01*
X137910000Y-70020000D02*
X138658000Y-69272000D01*
X137760000Y-70020000D02*
X137910000Y-70020000D01*
X137418000Y-68272000D02*
X138973500Y-68272000D01*
X136960000Y-68730000D02*
X137418000Y-68272000D01*
X136960000Y-68920000D02*
X136960000Y-68730000D01*
X136586998Y-67772000D02*
X135334000Y-69024998D01*
X135334000Y-69024998D02*
X135334000Y-69410000D01*
X135334000Y-69410000D02*
X135416000Y-69492000D01*
X138973500Y-67772000D02*
X136586998Y-67772000D01*
X136194990Y-81650000D02*
X135750000Y-82094990D01*
X135750000Y-90050000D02*
X137269990Y-91569990D01*
X137269990Y-91569990D02*
X139730010Y-91569990D01*
X141281390Y-91034968D02*
X141946468Y-91034968D01*
X139730010Y-91569990D02*
X140440022Y-90859978D01*
X141106400Y-90859978D02*
X141281390Y-91034968D01*
X141946468Y-91034968D02*
X142003500Y-91092000D01*
X142003500Y-91092000D02*
X142778500Y-91092000D01*
X135750000Y-82094990D02*
X135750000Y-90050000D01*
X140440022Y-90859978D02*
X141106400Y-90859978D01*
D48*
X153102366Y-82611998D02*
X147773986Y-82611998D01*
X147773986Y-82611998D02*
X146703500Y-83682484D01*
X156222364Y-79492000D02*
X153102366Y-82611998D01*
X157466000Y-79492000D02*
X156222364Y-79492000D01*
X146703500Y-83682484D02*
X146703500Y-84667000D01*
X156016000Y-79160948D02*
X156016000Y-78312000D01*
X156016000Y-78312000D02*
X156736000Y-77592000D01*
X156736000Y-77592000D02*
X157466000Y-77592000D01*
X146203500Y-84667000D02*
X146203500Y-83645068D01*
X146203500Y-83645068D02*
X147616581Y-82231987D01*
X147616581Y-82231987D02*
X152944961Y-82231987D01*
X152944961Y-82231987D02*
X156016000Y-79160948D01*
D44*
X140686000Y-65072317D02*
X140687636Y-65070681D01*
X140686000Y-66059500D02*
X140686000Y-65072317D01*
D42*
X140687636Y-59620364D02*
X140716000Y-59592000D01*
X140687636Y-63870681D02*
X140687636Y-60542000D01*
D46*
X152799101Y-102048899D02*
X152816000Y-102032000D01*
X152799101Y-103162000D02*
X152799101Y-102048899D01*
D44*
X161116000Y-79492000D02*
X161766000Y-78842000D01*
X159666000Y-79492000D02*
X161116000Y-79492000D01*
X161766000Y-78842000D02*
X163891000Y-78842000D01*
X161166000Y-77592000D02*
X159666000Y-77592000D01*
X161766000Y-78192000D02*
X161166000Y-77592000D01*
X163891000Y-78192000D02*
X161766000Y-78192000D01*
D46*
X151216000Y-104292000D02*
X153056000Y-104292000D01*
X153056000Y-104292000D02*
X154136000Y-103212000D01*
X154136000Y-103212000D02*
X155316000Y-102032000D01*
D43*
X161700000Y-100900000D02*
X161650000Y-100950000D01*
X161700000Y-99100000D02*
X161700000Y-100900000D01*
D44*
X138266000Y-115722000D02*
X138636000Y-116092000D01*
X138266000Y-114942000D02*
X138266000Y-115722000D01*
X140816000Y-116092000D02*
X141316000Y-115592000D01*
X138636000Y-116092000D02*
X140816000Y-116092000D01*
X155316000Y-109192000D02*
X155316000Y-107752000D01*
X155316000Y-107752000D02*
X156200000Y-106868000D01*
X156200000Y-106868000D02*
X156200000Y-105424230D01*
X148600000Y-103650000D02*
X150350000Y-105400000D01*
X150350000Y-105400000D02*
X153100006Y-105400000D01*
X166516000Y-85392000D02*
X163592000Y-85392000D01*
X163592000Y-85392000D02*
X162550000Y-84350000D01*
X160140006Y-85605006D02*
X159535000Y-85000000D01*
X159119990Y-89930010D02*
X160140006Y-88909994D01*
X156669990Y-89930010D02*
X159119990Y-89930010D01*
X156100000Y-90500000D02*
X156669990Y-89930010D01*
X155046596Y-90092000D02*
X155454596Y-90500000D01*
X154128500Y-90092000D02*
X155046596Y-90092000D01*
X155454596Y-90500000D02*
X156100000Y-90500000D01*
X160140006Y-88909994D02*
X160140006Y-85605006D01*
X130050000Y-84640000D02*
X133140000Y-84640000D01*
X133140000Y-84640000D02*
X133750000Y-85250000D01*
X141761175Y-92592000D02*
X142778500Y-92592000D01*
X141239164Y-92069989D02*
X141761175Y-92592000D01*
X137391873Y-94000000D02*
X139321884Y-92069989D01*
X135506842Y-94000000D02*
X137391873Y-94000000D01*
X134500000Y-92993158D02*
X135506842Y-94000000D01*
X139321884Y-92069989D02*
X141239164Y-92069989D01*
X134500000Y-86000000D02*
X134500000Y-92993158D01*
X133750000Y-85250000D02*
X134500000Y-86000000D01*
X130070000Y-89700000D02*
X130050000Y-89720000D01*
X130050000Y-89720000D02*
X133720000Y-89720000D01*
X133720000Y-92970000D02*
X133720000Y-89720000D01*
X135250000Y-94500000D02*
X133720000Y-92970000D01*
X139046401Y-92953599D02*
X137500000Y-94500000D01*
X139048499Y-92953599D02*
X139046401Y-92953599D01*
X139500000Y-92502098D02*
X139048499Y-92953599D01*
X139500000Y-92500000D02*
X139500000Y-92502098D01*
X141061048Y-92500000D02*
X139500000Y-92500000D01*
X137500000Y-94500000D02*
X135250000Y-94500000D01*
X141653048Y-93092000D02*
X141061048Y-92500000D01*
X142778500Y-93092000D02*
X141653048Y-93092000D01*
X148400000Y-105100000D02*
X148600000Y-105300000D01*
X142400000Y-105100000D02*
X148400000Y-105100000D01*
X141400000Y-104100000D02*
X142400000Y-105100000D01*
X138100000Y-104100000D02*
X141400000Y-104100000D01*
X137266000Y-104934000D02*
X138100000Y-104100000D01*
X137266000Y-105842000D02*
X137266000Y-104934000D01*
X149252011Y-107752011D02*
X148600000Y-107100000D01*
X152815989Y-107752011D02*
X149252011Y-107752011D01*
X148600000Y-107100000D02*
X148600000Y-105300000D01*
X152816000Y-107752000D02*
X152815989Y-107752011D01*
D49*
X142786189Y-108336376D02*
X142949850Y-108386022D01*
X143100672Y-108466638D01*
X143232870Y-108575130D01*
X143341362Y-108707328D01*
X143421978Y-108858150D01*
X143471624Y-109021811D01*
X143489000Y-109198234D01*
X143489000Y-109885766D01*
X143471624Y-110062189D01*
X143421978Y-110225850D01*
X143341362Y-110376672D01*
X143232870Y-110508870D01*
X143100672Y-110617362D01*
X142949850Y-110697978D01*
X142786189Y-110747624D01*
X142609766Y-110765000D01*
X140179799Y-110765000D01*
X140166038Y-110765748D01*
X139950605Y-110789229D01*
X139923729Y-110795158D01*
X139718414Y-110864499D01*
X139693447Y-110876079D01*
X139507891Y-110988024D01*
X139486004Y-111004711D01*
X139328922Y-111154002D01*
X139319463Y-111164023D01*
X138755664Y-111830331D01*
X138748845Y-111839147D01*
X138647757Y-111982412D01*
X138636564Y-112001662D01*
X138631171Y-112013149D01*
X138617794Y-112029450D01*
X138587430Y-112086257D01*
X138570226Y-112142970D01*
X138562053Y-112160381D01*
X138554393Y-112181290D01*
X138508750Y-112350584D01*
X138504861Y-112372510D01*
X138489489Y-112547174D01*
X138489000Y-112558308D01*
X138489000Y-112932008D01*
X138476581Y-113010420D01*
X138445130Y-113072145D01*
X138396145Y-113121130D01*
X138334420Y-113152581D01*
X138266223Y-113163382D01*
X138199894Y-113152642D01*
X138140542Y-113121624D01*
X138094014Y-113073463D01*
X138065059Y-113013076D01*
X138055339Y-112936380D01*
X138131052Y-110740713D01*
X138158974Y-110546799D01*
X138225565Y-110369939D01*
X138332473Y-110205757D01*
X138709760Y-109744628D01*
X138852494Y-109604990D01*
X139016370Y-109503801D01*
X139198455Y-109441047D01*
X139396916Y-109419000D01*
X140367054Y-109419000D01*
X140379784Y-109418360D01*
X140579251Y-109398265D01*
X140604201Y-109393187D01*
X140795650Y-109333708D01*
X140819083Y-109323755D01*
X140994822Y-109227284D01*
X141015801Y-109212857D01*
X141168765Y-109083271D01*
X141186444Y-109064949D01*
X141310487Y-108907455D01*
X141317861Y-108897058D01*
X141425001Y-108728695D01*
X141537181Y-108586263D01*
X141670623Y-108473215D01*
X141823925Y-108389061D01*
X141990944Y-108337172D01*
X142171323Y-108319000D01*
X142609766Y-108319000D01*
X142786189Y-108336376D01*
G04 #@! TA.AperFunction,Conductor*
D50*
G36*
X142786189Y-108336376D02*
G01*
X142949850Y-108386022D01*
X143100672Y-108466638D01*
X143232870Y-108575130D01*
X143341362Y-108707328D01*
X143421978Y-108858150D01*
X143471624Y-109021811D01*
X143489000Y-109198234D01*
X143489000Y-109885766D01*
X143471624Y-110062189D01*
X143421978Y-110225850D01*
X143341362Y-110376672D01*
X143232870Y-110508870D01*
X143100672Y-110617362D01*
X142949850Y-110697978D01*
X142786189Y-110747624D01*
X142609766Y-110765000D01*
X140179799Y-110765000D01*
X140166038Y-110765748D01*
X139950605Y-110789229D01*
X139923729Y-110795158D01*
X139718414Y-110864499D01*
X139693447Y-110876079D01*
X139507891Y-110988024D01*
X139486004Y-111004711D01*
X139328922Y-111154002D01*
X139319463Y-111164023D01*
X138755664Y-111830331D01*
X138748845Y-111839147D01*
X138647757Y-111982412D01*
X138636564Y-112001662D01*
X138631171Y-112013149D01*
X138617794Y-112029450D01*
X138587430Y-112086257D01*
X138570226Y-112142970D01*
X138562053Y-112160381D01*
X138554393Y-112181290D01*
X138508750Y-112350584D01*
X138504861Y-112372510D01*
X138489489Y-112547174D01*
X138489000Y-112558308D01*
X138489000Y-112932008D01*
X138476581Y-113010420D01*
X138445130Y-113072145D01*
X138396145Y-113121130D01*
X138334420Y-113152581D01*
X138266223Y-113163382D01*
X138199894Y-113152642D01*
X138140542Y-113121624D01*
X138094014Y-113073463D01*
X138065059Y-113013076D01*
X138055339Y-112936380D01*
X138131052Y-110740713D01*
X138158974Y-110546799D01*
X138225565Y-110369939D01*
X138332473Y-110205757D01*
X138709760Y-109744628D01*
X138852494Y-109604990D01*
X139016370Y-109503801D01*
X139198455Y-109441047D01*
X139396916Y-109419000D01*
X140367054Y-109419000D01*
X140379784Y-109418360D01*
X140579251Y-109398265D01*
X140604201Y-109393187D01*
X140795650Y-109333708D01*
X140819083Y-109323755D01*
X140994822Y-109227284D01*
X141015801Y-109212857D01*
X141168765Y-109083271D01*
X141186444Y-109064949D01*
X141310487Y-108907455D01*
X141317861Y-108897058D01*
X141425001Y-108728695D01*
X141537181Y-108586263D01*
X141670623Y-108473215D01*
X141823925Y-108389061D01*
X141990944Y-108337172D01*
X142171323Y-108319000D01*
X142609766Y-108319000D01*
X142786189Y-108336376D01*
G37*
G04 #@! TD.AperFunction*
D49*
X140726703Y-111337910D02*
X140879348Y-111391322D01*
X141016279Y-111477362D01*
X141130638Y-111591721D01*
X141216678Y-111728652D01*
X141270090Y-111881297D01*
X141289000Y-112049128D01*
X141289000Y-113134872D01*
X141270090Y-113302703D01*
X141216678Y-113455348D01*
X141130638Y-113592279D01*
X141016279Y-113706638D01*
X140879348Y-113792678D01*
X140726703Y-113846090D01*
X140558872Y-113865000D01*
X140066111Y-113865000D01*
X139868467Y-113843137D01*
X139687043Y-113780888D01*
X139517610Y-113676805D01*
X139284593Y-113495570D01*
X139164577Y-113383311D01*
X139070312Y-113255860D01*
X139000660Y-113113447D01*
X138957930Y-112960791D01*
X138943000Y-112797133D01*
X138943000Y-112581562D01*
X138956598Y-112433528D01*
X138985249Y-112327260D01*
X139035301Y-112220643D01*
X139111520Y-112112623D01*
X139618659Y-111513278D01*
X139648522Y-111486378D01*
X139806475Y-111395155D01*
X139979953Y-111338772D01*
X140168021Y-111319000D01*
X140558872Y-111319000D01*
X140726703Y-111337910D01*
G04 #@! TA.AperFunction,Conductor*
D50*
G36*
X140726703Y-111337910D02*
G01*
X140879348Y-111391322D01*
X141016279Y-111477362D01*
X141130638Y-111591721D01*
X141216678Y-111728652D01*
X141270090Y-111881297D01*
X141289000Y-112049128D01*
X141289000Y-113134872D01*
X141270090Y-113302703D01*
X141216678Y-113455348D01*
X141130638Y-113592279D01*
X141016279Y-113706638D01*
X140879348Y-113792678D01*
X140726703Y-113846090D01*
X140558872Y-113865000D01*
X140066111Y-113865000D01*
X139868467Y-113843137D01*
X139687043Y-113780888D01*
X139517610Y-113676805D01*
X139284593Y-113495570D01*
X139164577Y-113383311D01*
X139070312Y-113255860D01*
X139000660Y-113113447D01*
X138957930Y-112960791D01*
X138943000Y-112797133D01*
X138943000Y-112581562D01*
X138956598Y-112433528D01*
X138985249Y-112327260D01*
X139035301Y-112220643D01*
X139111520Y-112112623D01*
X139618659Y-111513278D01*
X139648522Y-111486378D01*
X139806475Y-111395155D01*
X139979953Y-111338772D01*
X140168021Y-111319000D01*
X140558872Y-111319000D01*
X140726703Y-111337910D01*
G37*
G04 #@! TD.AperFunction*
D49*
X140686189Y-104836376D02*
X140849850Y-104886022D01*
X141000672Y-104966638D01*
X141132870Y-105075130D01*
X141241362Y-105207328D01*
X141321978Y-105358150D01*
X141371624Y-105521811D01*
X141389000Y-105698234D01*
X141389000Y-107694796D01*
X141372911Y-107864632D01*
X141326900Y-108022634D01*
X141249293Y-108174557D01*
X141105208Y-108400977D01*
X141064394Y-108452797D01*
X141045407Y-108479567D01*
X140956024Y-108620027D01*
X140894819Y-108697737D01*
X140761377Y-108810785D01*
X140608075Y-108894939D01*
X140441056Y-108946828D01*
X140260677Y-108965000D01*
X139422234Y-108965000D01*
X139245811Y-108947624D01*
X139082150Y-108897978D01*
X138931328Y-108817362D01*
X138799130Y-108708870D01*
X138690638Y-108576672D01*
X138610022Y-108425850D01*
X138560376Y-108262189D01*
X138543000Y-108085766D01*
X138543000Y-105698234D01*
X138560376Y-105521811D01*
X138610022Y-105358150D01*
X138690638Y-105207328D01*
X138799130Y-105075130D01*
X138931328Y-104966638D01*
X139082150Y-104886022D01*
X139245811Y-104836376D01*
X139422234Y-104819000D01*
X140509766Y-104819000D01*
X140686189Y-104836376D01*
G04 #@! TA.AperFunction,Conductor*
D50*
G36*
X140686189Y-104836376D02*
G01*
X140849850Y-104886022D01*
X141000672Y-104966638D01*
X141132870Y-105075130D01*
X141241362Y-105207328D01*
X141321978Y-105358150D01*
X141371624Y-105521811D01*
X141389000Y-105698234D01*
X141389000Y-107694796D01*
X141372911Y-107864632D01*
X141326900Y-108022634D01*
X141249293Y-108174557D01*
X141105208Y-108400977D01*
X141064394Y-108452797D01*
X141045407Y-108479567D01*
X140956024Y-108620027D01*
X140894819Y-108697737D01*
X140761377Y-108810785D01*
X140608075Y-108894939D01*
X140441056Y-108946828D01*
X140260677Y-108965000D01*
X139422234Y-108965000D01*
X139245811Y-108947624D01*
X139082150Y-108897978D01*
X138931328Y-108817362D01*
X138799130Y-108708870D01*
X138690638Y-108576672D01*
X138610022Y-108425850D01*
X138560376Y-108262189D01*
X138543000Y-108085766D01*
X138543000Y-105698234D01*
X138560376Y-105521811D01*
X138610022Y-105358150D01*
X138690638Y-105207328D01*
X138799130Y-105075130D01*
X138931328Y-104966638D01*
X139082150Y-104886022D01*
X139245811Y-104836376D01*
X139422234Y-104819000D01*
X140509766Y-104819000D01*
X140686189Y-104836376D01*
G37*
G04 #@! TD.AperFunction*
D49*
X148486189Y-108336376D02*
X148649850Y-108386022D01*
X148800672Y-108466638D01*
X148932870Y-108575130D01*
X149041362Y-108707328D01*
X149121978Y-108858150D01*
X149171624Y-109021811D01*
X149189000Y-109198234D01*
X149189000Y-111392000D01*
X149189612Y-111404448D01*
X149208827Y-111599538D01*
X149213683Y-111623956D01*
X149270588Y-111811549D01*
X149280116Y-111834550D01*
X149372526Y-112007437D01*
X149386358Y-112028138D01*
X149510721Y-112179675D01*
X149528325Y-112197279D01*
X149679862Y-112321642D01*
X149700563Y-112335474D01*
X149873450Y-112427884D01*
X149896451Y-112437412D01*
X150084044Y-112494317D01*
X150108462Y-112499173D01*
X150303552Y-112518388D01*
X150316000Y-112519000D01*
X151608871Y-112519000D01*
X151787830Y-112539164D01*
X151951042Y-112596274D01*
X152097454Y-112688271D01*
X152219729Y-112810546D01*
X152311726Y-112956958D01*
X152368836Y-113120170D01*
X152388197Y-113292000D01*
X152368836Y-113463830D01*
X152311726Y-113627042D01*
X152219729Y-113773454D01*
X152097454Y-113895729D01*
X151951042Y-113987726D01*
X151787830Y-114044836D01*
X151608871Y-114065000D01*
X150316000Y-114065000D01*
X150303552Y-114065612D01*
X150108462Y-114084827D01*
X150084044Y-114089683D01*
X149896451Y-114146588D01*
X149873450Y-114156116D01*
X149700563Y-114248526D01*
X149679862Y-114262358D01*
X149528325Y-114386721D01*
X149510721Y-114404325D01*
X149386358Y-114555862D01*
X149372526Y-114576563D01*
X149280116Y-114749450D01*
X149270588Y-114772451D01*
X149213683Y-114960044D01*
X149208827Y-114984462D01*
X149189612Y-115179552D01*
X149189000Y-115192000D01*
X149189000Y-115434872D01*
X149170090Y-115602703D01*
X149116678Y-115755348D01*
X149030638Y-115892279D01*
X148916279Y-116006638D01*
X148779348Y-116092678D01*
X148626703Y-116146090D01*
X148466000Y-116164197D01*
X148305297Y-116146090D01*
X148152652Y-116092678D01*
X148015721Y-116006638D01*
X147901362Y-115892279D01*
X147815322Y-115755348D01*
X147761910Y-115602703D01*
X147743000Y-115434872D01*
X147743000Y-111692000D01*
X147742201Y-111677780D01*
X147719636Y-111477511D01*
X147713308Y-111449786D01*
X147646745Y-111259560D01*
X147634406Y-111233937D01*
X147527182Y-111063291D01*
X147509451Y-111041056D01*
X147366944Y-110898549D01*
X147344709Y-110880818D01*
X147174063Y-110773594D01*
X147148440Y-110761255D01*
X146958214Y-110694692D01*
X146930489Y-110688364D01*
X146544170Y-110644836D01*
X146380958Y-110587726D01*
X146234546Y-110495729D01*
X146112271Y-110373454D01*
X146020274Y-110227042D01*
X145963164Y-110063830D01*
X145943000Y-109884871D01*
X145943000Y-109198234D01*
X145960376Y-109021811D01*
X146010022Y-108858150D01*
X146090638Y-108707328D01*
X146199130Y-108575130D01*
X146331328Y-108466638D01*
X146482150Y-108386022D01*
X146645811Y-108336376D01*
X146822234Y-108319000D01*
X148309766Y-108319000D01*
X148486189Y-108336376D01*
G04 #@! TA.AperFunction,Conductor*
D50*
G36*
X148486189Y-108336376D02*
G01*
X148649850Y-108386022D01*
X148800672Y-108466638D01*
X148932870Y-108575130D01*
X149041362Y-108707328D01*
X149121978Y-108858150D01*
X149171624Y-109021811D01*
X149189000Y-109198234D01*
X149189000Y-111392000D01*
X149189612Y-111404448D01*
X149208827Y-111599538D01*
X149213683Y-111623956D01*
X149270588Y-111811549D01*
X149280116Y-111834550D01*
X149372526Y-112007437D01*
X149386358Y-112028138D01*
X149510721Y-112179675D01*
X149528325Y-112197279D01*
X149679862Y-112321642D01*
X149700563Y-112335474D01*
X149873450Y-112427884D01*
X149896451Y-112437412D01*
X150084044Y-112494317D01*
X150108462Y-112499173D01*
X150303552Y-112518388D01*
X150316000Y-112519000D01*
X151608871Y-112519000D01*
X151787830Y-112539164D01*
X151951042Y-112596274D01*
X152097454Y-112688271D01*
X152219729Y-112810546D01*
X152311726Y-112956958D01*
X152368836Y-113120170D01*
X152388197Y-113292000D01*
X152368836Y-113463830D01*
X152311726Y-113627042D01*
X152219729Y-113773454D01*
X152097454Y-113895729D01*
X151951042Y-113987726D01*
X151787830Y-114044836D01*
X151608871Y-114065000D01*
X150316000Y-114065000D01*
X150303552Y-114065612D01*
X150108462Y-114084827D01*
X150084044Y-114089683D01*
X149896451Y-114146588D01*
X149873450Y-114156116D01*
X149700563Y-114248526D01*
X149679862Y-114262358D01*
X149528325Y-114386721D01*
X149510721Y-114404325D01*
X149386358Y-114555862D01*
X149372526Y-114576563D01*
X149280116Y-114749450D01*
X149270588Y-114772451D01*
X149213683Y-114960044D01*
X149208827Y-114984462D01*
X149189612Y-115179552D01*
X149189000Y-115192000D01*
X149189000Y-115434872D01*
X149170090Y-115602703D01*
X149116678Y-115755348D01*
X149030638Y-115892279D01*
X148916279Y-116006638D01*
X148779348Y-116092678D01*
X148626703Y-116146090D01*
X148466000Y-116164197D01*
X148305297Y-116146090D01*
X148152652Y-116092678D01*
X148015721Y-116006638D01*
X147901362Y-115892279D01*
X147815322Y-115755348D01*
X147761910Y-115602703D01*
X147743000Y-115434872D01*
X147743000Y-111692000D01*
X147742201Y-111677780D01*
X147719636Y-111477511D01*
X147713308Y-111449786D01*
X147646745Y-111259560D01*
X147634406Y-111233937D01*
X147527182Y-111063291D01*
X147509451Y-111041056D01*
X147366944Y-110898549D01*
X147344709Y-110880818D01*
X147174063Y-110773594D01*
X147148440Y-110761255D01*
X146958214Y-110694692D01*
X146930489Y-110688364D01*
X146544170Y-110644836D01*
X146380958Y-110587726D01*
X146234546Y-110495729D01*
X146112271Y-110373454D01*
X146020274Y-110227042D01*
X145963164Y-110063830D01*
X145943000Y-109884871D01*
X145943000Y-109198234D01*
X145960376Y-109021811D01*
X146010022Y-108858150D01*
X146090638Y-108707328D01*
X146199130Y-108575130D01*
X146331328Y-108466638D01*
X146482150Y-108386022D01*
X146645811Y-108336376D01*
X146822234Y-108319000D01*
X148309766Y-108319000D01*
X148486189Y-108336376D01*
G37*
G04 #@! TD.AperFunction*
D49*
X146881251Y-111834467D02*
X146936570Y-111871430D01*
X146973533Y-111926749D01*
X146989000Y-112004509D01*
X146989000Y-116179491D01*
X146973533Y-116257251D01*
X146936570Y-116312570D01*
X146881251Y-116349533D01*
X146803491Y-116365000D01*
X145228509Y-116365000D01*
X145150749Y-116349533D01*
X145095430Y-116312570D01*
X145058467Y-116257251D01*
X145043000Y-116179491D01*
X145043000Y-112004509D01*
X145058467Y-111926749D01*
X145095430Y-111871430D01*
X145150749Y-111834467D01*
X145228509Y-111819000D01*
X146803491Y-111819000D01*
X146881251Y-111834467D01*
G04 #@! TA.AperFunction,Conductor*
D50*
G36*
X146881251Y-111834467D02*
G01*
X146936570Y-111871430D01*
X146973533Y-111926749D01*
X146989000Y-112004509D01*
X146989000Y-116179491D01*
X146973533Y-116257251D01*
X146936570Y-116312570D01*
X146881251Y-116349533D01*
X146803491Y-116365000D01*
X145228509Y-116365000D01*
X145150749Y-116349533D01*
X145095430Y-116312570D01*
X145058467Y-116257251D01*
X145043000Y-116179491D01*
X145043000Y-112004509D01*
X145058467Y-111926749D01*
X145095430Y-111871430D01*
X145150749Y-111834467D01*
X145228509Y-111819000D01*
X146803491Y-111819000D01*
X146881251Y-111834467D01*
G37*
G04 #@! TD.AperFunction*
D49*
X143380097Y-110228233D02*
X143435962Y-110265075D01*
X143473345Y-110320585D01*
X143489000Y-110398794D01*
X143489000Y-111396955D01*
X143491479Y-111421926D01*
X143514674Y-111537593D01*
X143521938Y-111561406D01*
X143533929Y-111583671D01*
X143599926Y-111681452D01*
X143615809Y-111700623D01*
X143635458Y-111716546D01*
X143734053Y-111781321D01*
X143756101Y-111792885D01*
X143780368Y-111800000D01*
X143896314Y-111821754D01*
X143921314Y-111823922D01*
X144001240Y-111822927D01*
X144079762Y-111837659D01*
X144135791Y-111874470D01*
X144173291Y-111930029D01*
X144189000Y-112008366D01*
X144189000Y-113279491D01*
X144173533Y-113357251D01*
X144136570Y-113412570D01*
X144081251Y-113449533D01*
X144016000Y-113462512D01*
X143950749Y-113449533D01*
X143895430Y-113412570D01*
X143858467Y-113357251D01*
X143843000Y-113279491D01*
X143843000Y-112592000D01*
X143840560Y-112567224D01*
X143817724Y-112452419D01*
X143810497Y-112428594D01*
X143798761Y-112406637D01*
X143733729Y-112309310D01*
X143717934Y-112290065D01*
X143698690Y-112274271D01*
X143601363Y-112209239D01*
X143579406Y-112197503D01*
X143555581Y-112190276D01*
X143440776Y-112167440D01*
X143416000Y-112165000D01*
X143028509Y-112165000D01*
X142950749Y-112149533D01*
X142895430Y-112112570D01*
X142858467Y-112057251D01*
X142843000Y-111979491D01*
X142843000Y-110401543D01*
X142858282Y-110324227D01*
X142894826Y-110269103D01*
X142949595Y-110232026D01*
X143026754Y-110215998D01*
X143301740Y-110213336D01*
X143380097Y-110228233D01*
G04 #@! TA.AperFunction,Conductor*
D50*
G36*
X143380097Y-110228233D02*
G01*
X143435962Y-110265075D01*
X143473345Y-110320585D01*
X143489000Y-110398794D01*
X143489000Y-111396955D01*
X143491479Y-111421926D01*
X143514674Y-111537593D01*
X143521938Y-111561406D01*
X143533929Y-111583671D01*
X143599926Y-111681452D01*
X143615809Y-111700623D01*
X143635458Y-111716546D01*
X143734053Y-111781321D01*
X143756101Y-111792885D01*
X143780368Y-111800000D01*
X143896314Y-111821754D01*
X143921314Y-111823922D01*
X144001240Y-111822927D01*
X144079762Y-111837659D01*
X144135791Y-111874470D01*
X144173291Y-111930029D01*
X144189000Y-112008366D01*
X144189000Y-113279491D01*
X144173533Y-113357251D01*
X144136570Y-113412570D01*
X144081251Y-113449533D01*
X144016000Y-113462512D01*
X143950749Y-113449533D01*
X143895430Y-113412570D01*
X143858467Y-113357251D01*
X143843000Y-113279491D01*
X143843000Y-112592000D01*
X143840560Y-112567224D01*
X143817724Y-112452419D01*
X143810497Y-112428594D01*
X143798761Y-112406637D01*
X143733729Y-112309310D01*
X143717934Y-112290065D01*
X143698690Y-112274271D01*
X143601363Y-112209239D01*
X143579406Y-112197503D01*
X143555581Y-112190276D01*
X143440776Y-112167440D01*
X143416000Y-112165000D01*
X143028509Y-112165000D01*
X142950749Y-112149533D01*
X142895430Y-112112570D01*
X142858467Y-112057251D01*
X142843000Y-111979491D01*
X142843000Y-110401543D01*
X142858282Y-110324227D01*
X142894826Y-110269103D01*
X142949595Y-110232026D01*
X143026754Y-110215998D01*
X143301740Y-110213336D01*
X143380097Y-110228233D01*
G37*
G04 #@! TD.AperFunction*
D49*
X141823000Y-65493689D02*
X141815037Y-65503392D01*
X141780755Y-65567530D01*
X141759643Y-65637124D01*
X141752515Y-65709500D01*
X141752515Y-66053358D01*
X141751910Y-66059500D01*
X141752515Y-66065642D01*
X141752515Y-66409500D01*
X141759643Y-66481876D01*
X141780755Y-66551470D01*
X141815037Y-66615608D01*
X141823000Y-66625311D01*
X141823000Y-66682114D01*
X141127000Y-66663798D01*
X141127000Y-65661575D01*
X141199714Y-65540727D01*
X141219132Y-65517066D01*
X141247639Y-65463733D01*
X141265194Y-65405863D01*
X141271121Y-65345681D01*
X141271121Y-64795681D01*
X141265194Y-64735499D01*
X141247639Y-64677629D01*
X141219132Y-64624296D01*
X141180768Y-64577549D01*
X141134021Y-64539185D01*
X141127000Y-64535432D01*
X141127000Y-64405930D01*
X141134021Y-64402177D01*
X141180768Y-64363813D01*
X141219132Y-64317066D01*
X141247639Y-64263733D01*
X141265194Y-64205863D01*
X141271121Y-64145681D01*
X141271121Y-63595681D01*
X141269281Y-63577000D01*
X141823000Y-63577000D01*
X141823000Y-65493689D01*
G04 #@! TA.AperFunction,Conductor*
D50*
G36*
X141823000Y-65493689D02*
G01*
X141815037Y-65503392D01*
X141780755Y-65567530D01*
X141759643Y-65637124D01*
X141752515Y-65709500D01*
X141752515Y-66053358D01*
X141751910Y-66059500D01*
X141752515Y-66065642D01*
X141752515Y-66409500D01*
X141759643Y-66481876D01*
X141780755Y-66551470D01*
X141815037Y-66615608D01*
X141823000Y-66625311D01*
X141823000Y-66682114D01*
X141127000Y-66663798D01*
X141127000Y-65661575D01*
X141199714Y-65540727D01*
X141219132Y-65517066D01*
X141247639Y-65463733D01*
X141265194Y-65405863D01*
X141271121Y-65345681D01*
X141271121Y-64795681D01*
X141265194Y-64735499D01*
X141247639Y-64677629D01*
X141219132Y-64624296D01*
X141180768Y-64577549D01*
X141134021Y-64539185D01*
X141127000Y-64535432D01*
X141127000Y-64405930D01*
X141134021Y-64402177D01*
X141180768Y-64363813D01*
X141219132Y-64317066D01*
X141247639Y-64263733D01*
X141265194Y-64205863D01*
X141271121Y-64145681D01*
X141271121Y-63595681D01*
X141269281Y-63577000D01*
X141823000Y-63577000D01*
X141823000Y-65493689D01*
G37*
G04 #@! TD.AperFunction*
D49*
X140104151Y-63595681D02*
X140104151Y-64145681D01*
X140110078Y-64205863D01*
X140127633Y-64263733D01*
X140156140Y-64317066D01*
X140194504Y-64363813D01*
X140241251Y-64402177D01*
X140294584Y-64430684D01*
X140299805Y-64432268D01*
X140299946Y-64509051D01*
X140294584Y-64510678D01*
X140241251Y-64539185D01*
X140194504Y-64577549D01*
X140156140Y-64624296D01*
X140127633Y-64677629D01*
X140110078Y-64735499D01*
X140104151Y-64795681D01*
X140104151Y-65345681D01*
X140110078Y-65405863D01*
X140127633Y-65463733D01*
X140156140Y-65517066D01*
X140183096Y-65549913D01*
X140254000Y-65673672D01*
X140254000Y-65694418D01*
X140252515Y-65709500D01*
X140252515Y-66409500D01*
X140259643Y-66481876D01*
X140280755Y-66551470D01*
X140303780Y-66594547D01*
X140304016Y-66723000D01*
X139694485Y-66723000D01*
X139694485Y-66709500D01*
X139687357Y-66637124D01*
X139666245Y-66567530D01*
X139631963Y-66503392D01*
X139585826Y-66447174D01*
X139579375Y-66441880D01*
X139574109Y-63577000D01*
X140105991Y-63577000D01*
X140104151Y-63595681D01*
G04 #@! TA.AperFunction,Conductor*
D50*
G36*
X140104151Y-63595681D02*
G01*
X140104151Y-64145681D01*
X140110078Y-64205863D01*
X140127633Y-64263733D01*
X140156140Y-64317066D01*
X140194504Y-64363813D01*
X140241251Y-64402177D01*
X140294584Y-64430684D01*
X140299805Y-64432268D01*
X140299946Y-64509051D01*
X140294584Y-64510678D01*
X140241251Y-64539185D01*
X140194504Y-64577549D01*
X140156140Y-64624296D01*
X140127633Y-64677629D01*
X140110078Y-64735499D01*
X140104151Y-64795681D01*
X140104151Y-65345681D01*
X140110078Y-65405863D01*
X140127633Y-65463733D01*
X140156140Y-65517066D01*
X140183096Y-65549913D01*
X140254000Y-65673672D01*
X140254000Y-65694418D01*
X140252515Y-65709500D01*
X140252515Y-66409500D01*
X140259643Y-66481876D01*
X140280755Y-66551470D01*
X140303780Y-66594547D01*
X140304016Y-66723000D01*
X139694485Y-66723000D01*
X139694485Y-66709500D01*
X139687357Y-66637124D01*
X139666245Y-66567530D01*
X139631963Y-66503392D01*
X139585826Y-66447174D01*
X139579375Y-66441880D01*
X139574109Y-63577000D01*
X140105991Y-63577000D01*
X140104151Y-63595681D01*
G37*
G04 #@! TD.AperFunction*
X134800000Y-74950000D02*
X134800961Y-74959755D01*
X134803806Y-74969134D01*
X134808427Y-74977779D01*
X134814645Y-74985355D01*
X134822221Y-74991573D01*
X134830866Y-74996194D01*
X134840245Y-74999039D01*
X134850000Y-75000000D01*
X145600000Y-75000000D01*
X145609755Y-74999039D01*
X145619134Y-74996194D01*
X145627779Y-74991573D01*
X145635355Y-74985355D01*
X145641573Y-74977779D01*
X145646194Y-74969134D01*
X145649039Y-74959755D01*
X145650000Y-74950000D01*
X145650000Y-64100000D01*
X146650000Y-64100000D01*
X146650000Y-76000000D01*
X133800000Y-76000000D01*
X133800000Y-64100000D01*
X134800000Y-64100000D01*
X134800000Y-74950000D01*
G04 #@! TA.AperFunction,Conductor*
G36*
X134800000Y-74950000D02*
G01*
X134800961Y-74959755D01*
X134803806Y-74969134D01*
X134808427Y-74977779D01*
X134814645Y-74985355D01*
X134822221Y-74991573D01*
X134830866Y-74996194D01*
X134840245Y-74999039D01*
X134850000Y-75000000D01*
X145600000Y-75000000D01*
X145609755Y-74999039D01*
X145619134Y-74996194D01*
X145627779Y-74991573D01*
X145635355Y-74985355D01*
X145641573Y-74977779D01*
X145646194Y-74969134D01*
X145649039Y-74959755D01*
X145650000Y-74950000D01*
X145650000Y-64100000D01*
X146650000Y-64100000D01*
X146650000Y-76000000D01*
X133800000Y-76000000D01*
X133800000Y-64100000D01*
X134800000Y-64100000D01*
X134800000Y-74950000D01*
G37*
G04 #@! TD.AperFunction*
D49*
X137538136Y-105236175D02*
X137651951Y-105283319D01*
X137749686Y-105358314D01*
X137824681Y-105456049D01*
X137871825Y-105569864D01*
X137889000Y-105700321D01*
X137889000Y-109311894D01*
X137886796Y-109360494D01*
X137811884Y-110184522D01*
X137805561Y-110197012D01*
X137729217Y-110399776D01*
X137711582Y-110468394D01*
X137680702Y-110682843D01*
X137677558Y-110718180D01*
X137608004Y-112735242D01*
X137591847Y-112829895D01*
X137542502Y-112939237D01*
X137467187Y-113032602D01*
X137370764Y-113103967D01*
X137259465Y-113148717D01*
X137132378Y-113165000D01*
X136370861Y-113165000D01*
X136240869Y-113147950D01*
X136127397Y-113101138D01*
X136029837Y-113026647D01*
X135954789Y-112929517D01*
X135907328Y-112816315D01*
X135889531Y-112686415D01*
X135877008Y-110500991D01*
X135877000Y-110498281D01*
X135877000Y-109100000D01*
X135875913Y-109083423D01*
X135855468Y-108928132D01*
X135846888Y-108896109D01*
X135786948Y-108751400D01*
X135770371Y-108722687D01*
X135675020Y-108598423D01*
X135651577Y-108574980D01*
X135527313Y-108479629D01*
X135498600Y-108463052D01*
X135353891Y-108403112D01*
X135321868Y-108394532D01*
X135166577Y-108374087D01*
X135150000Y-108373000D01*
X134358321Y-108373000D01*
X134227864Y-108355825D01*
X134114049Y-108308681D01*
X134016314Y-108233686D01*
X133941319Y-108135951D01*
X133894175Y-108022136D01*
X133877000Y-107891679D01*
X133877000Y-107358321D01*
X133894175Y-107227864D01*
X133941319Y-107114049D01*
X134016314Y-107016314D01*
X134114049Y-106941319D01*
X134227864Y-106894175D01*
X134358321Y-106877000D01*
X135558345Y-106877000D01*
X135574419Y-106875979D01*
X135725079Y-106856756D01*
X135756197Y-106848683D01*
X135897203Y-106792245D01*
X135925298Y-106776618D01*
X136047614Y-106686582D01*
X136070883Y-106664401D01*
X136166673Y-106546536D01*
X136183628Y-106519222D01*
X136246753Y-106381080D01*
X136252505Y-106366035D01*
X136503623Y-105559148D01*
X136556659Y-105443085D01*
X136632008Y-105350371D01*
X136728228Y-105279544D01*
X136839140Y-105235151D01*
X136965727Y-105219000D01*
X137407679Y-105219000D01*
X137538136Y-105236175D01*
G04 #@! TA.AperFunction,Conductor*
D50*
G36*
X137538136Y-105236175D02*
G01*
X137651951Y-105283319D01*
X137749686Y-105358314D01*
X137824681Y-105456049D01*
X137871825Y-105569864D01*
X137889000Y-105700321D01*
X137889000Y-109311894D01*
X137886796Y-109360494D01*
X137811884Y-110184522D01*
X137805561Y-110197012D01*
X137729217Y-110399776D01*
X137711582Y-110468394D01*
X137680702Y-110682843D01*
X137677558Y-110718180D01*
X137608004Y-112735242D01*
X137591847Y-112829895D01*
X137542502Y-112939237D01*
X137467187Y-113032602D01*
X137370764Y-113103967D01*
X137259465Y-113148717D01*
X137132378Y-113165000D01*
X136370861Y-113165000D01*
X136240869Y-113147950D01*
X136127397Y-113101138D01*
X136029837Y-113026647D01*
X135954789Y-112929517D01*
X135907328Y-112816315D01*
X135889531Y-112686415D01*
X135877008Y-110500991D01*
X135877000Y-110498281D01*
X135877000Y-109100000D01*
X135875913Y-109083423D01*
X135855468Y-108928132D01*
X135846888Y-108896109D01*
X135786948Y-108751400D01*
X135770371Y-108722687D01*
X135675020Y-108598423D01*
X135651577Y-108574980D01*
X135527313Y-108479629D01*
X135498600Y-108463052D01*
X135353891Y-108403112D01*
X135321868Y-108394532D01*
X135166577Y-108374087D01*
X135150000Y-108373000D01*
X134358321Y-108373000D01*
X134227864Y-108355825D01*
X134114049Y-108308681D01*
X134016314Y-108233686D01*
X133941319Y-108135951D01*
X133894175Y-108022136D01*
X133877000Y-107891679D01*
X133877000Y-107358321D01*
X133894175Y-107227864D01*
X133941319Y-107114049D01*
X134016314Y-107016314D01*
X134114049Y-106941319D01*
X134227864Y-106894175D01*
X134358321Y-106877000D01*
X135558345Y-106877000D01*
X135574419Y-106875979D01*
X135725079Y-106856756D01*
X135756197Y-106848683D01*
X135897203Y-106792245D01*
X135925298Y-106776618D01*
X136047614Y-106686582D01*
X136070883Y-106664401D01*
X136166673Y-106546536D01*
X136183628Y-106519222D01*
X136246753Y-106381080D01*
X136252505Y-106366035D01*
X136503623Y-105559148D01*
X136556659Y-105443085D01*
X136632008Y-105350371D01*
X136728228Y-105279544D01*
X136839140Y-105235151D01*
X136965727Y-105219000D01*
X137407679Y-105219000D01*
X137538136Y-105236175D01*
G37*
G04 #@! TD.AperFunction*
D49*
X133272136Y-103394175D02*
X133385951Y-103441319D01*
X133483686Y-103516314D01*
X133558681Y-103614049D01*
X133605825Y-103727864D01*
X133623000Y-103858321D01*
X133623000Y-105058985D01*
X133601379Y-105205002D01*
X133538373Y-105338489D01*
X133245100Y-105778398D01*
X133235921Y-105794636D01*
X133160896Y-105953586D01*
X133150115Y-105989193D01*
X133124370Y-106163063D01*
X133123000Y-106181665D01*
X133123000Y-108641679D01*
X133105825Y-108772136D01*
X133058681Y-108885951D01*
X132983686Y-108983686D01*
X132885951Y-109058681D01*
X132772136Y-109105825D01*
X132641679Y-109123000D01*
X131608321Y-109123000D01*
X131477864Y-109105825D01*
X131364049Y-109058681D01*
X131266314Y-108983686D01*
X131191319Y-108885951D01*
X131144175Y-108772136D01*
X131127000Y-108641679D01*
X131127000Y-103858321D01*
X131144175Y-103727864D01*
X131191319Y-103614049D01*
X131266314Y-103516314D01*
X131364049Y-103441319D01*
X131477864Y-103394175D01*
X131608321Y-103377000D01*
X133141679Y-103377000D01*
X133272136Y-103394175D01*
G04 #@! TA.AperFunction,Conductor*
D50*
G36*
X133272136Y-103394175D02*
G01*
X133385951Y-103441319D01*
X133483686Y-103516314D01*
X133558681Y-103614049D01*
X133605825Y-103727864D01*
X133623000Y-103858321D01*
X133623000Y-105058985D01*
X133601379Y-105205002D01*
X133538373Y-105338489D01*
X133245100Y-105778398D01*
X133235921Y-105794636D01*
X133160896Y-105953586D01*
X133150115Y-105989193D01*
X133124370Y-106163063D01*
X133123000Y-106181665D01*
X133123000Y-108641679D01*
X133105825Y-108772136D01*
X133058681Y-108885951D01*
X132983686Y-108983686D01*
X132885951Y-109058681D01*
X132772136Y-109105825D01*
X132641679Y-109123000D01*
X131608321Y-109123000D01*
X131477864Y-109105825D01*
X131364049Y-109058681D01*
X131266314Y-108983686D01*
X131191319Y-108885951D01*
X131144175Y-108772136D01*
X131127000Y-108641679D01*
X131127000Y-103858321D01*
X131144175Y-103727864D01*
X131191319Y-103614049D01*
X131266314Y-103516314D01*
X131364049Y-103441319D01*
X131477864Y-103394175D01*
X131608321Y-103377000D01*
X133141679Y-103377000D01*
X133272136Y-103394175D01*
G37*
G04 #@! TD.AperFunction*
M02*
