M48
; DRILL file {KiCad (5.1.7)-1} date 03/01/21 18:39:33
; FORMAT={-:-/ absolute / inch / decimal}
; #@! TF.CreationDate,2021-03-01T18:39:33+01:00
; #@! TF.GenerationSoftware,Kicad,Pcbnew,(5.1.7)-1
; #@! TF.FileFunction,Plated,1,4,PTH
FMAT,2
INCH
T1C0.0079
T2C0.0138
T3C0.0157
T4C0.0181
T5C0.0394
T6C0.0472
%
G90
G05
T1
X5.5Y-2.5079
X5.5039Y-2.5709
X5.5748Y-2.5689
X5.5787Y-2.5079
X5.5054Y-2.6347
X5.5054Y-2.678
X5.5054Y-2.7213
X5.5487Y-2.6347
X5.5487Y-2.678
X5.5487Y-2.7213
X5.592Y-2.6347
X5.592Y-2.678
X5.592Y-2.7213
T2
X5.1772Y-3.5945
X5.2421Y-3.2854
X5.2441Y-3.1004
X5.2646Y-3.5323
X5.2657Y-3.3563
X5.2657Y-3.4094
X5.2778Y-3.1671
X5.2922Y-3.0528
X5.2972Y-3.1004
X5.3077Y-3.0175
X5.3313Y-2.7359
X5.3384Y-3.1002
X5.3543Y-2.6181
X5.3554Y-2.6566
X5.362Y-3.2146
X5.3661Y-2.3268
X5.3661Y-2.3858
X5.3661Y-2.4449
X5.374Y-2.5728
X5.374Y-3.7598
X5.3785Y-3.0175
X5.3917Y-3.2047
X5.3929Y-2.7807
X5.3937Y-3.3248
X5.4221Y-3.2163
X5.4272Y-4.0118
X5.4331Y-3.6319
X5.4337Y-2.6444
X5.4402Y-2.7117
X5.4512Y-3.2931
X5.4724Y-2.5984
X5.473Y-2.9248
X5.4761Y-3.2708
X5.4902Y-4.0197
X5.4921Y-3.9606
X5.502Y-3.1535
X5.502Y-3.2874
X5.5164Y-2.9209
X5.5197Y-3.3169
X5.5394Y-2.8732
X5.5439Y-3.601
X5.5808Y-3.8422
X5.5808Y-3.8816
X5.5808Y-3.9209
X5.5808Y-3.9603
X5.5808Y-3.9997
X5.5993Y-2.7869
X5.6063Y-2.9114
X5.6222Y-3.9997
X5.6325Y-2.5902
X5.6426Y-2.9044
X5.6478Y-2.7613
X5.6575Y-2.8661
X5.6579Y-3.2577
X5.6635Y-3.9997
X5.6748Y-3.2853
X5.6749Y-3.6083
X5.6814Y-2.6437
X5.6831Y-2.8327
X5.6831Y-3.5
X5.6837Y-2.6099
X5.6929Y-3.2323
X5.6988Y-4.1122
X5.7049Y-3.9997
X5.7107Y-2.5953
X5.7126Y-2.3268
X5.7126Y-2.3858
X5.7126Y-2.4449
X5.7239Y-3.2269
X5.7462Y-3.9997
X5.75Y-3.622
X5.7579Y-3.5807
X5.7579Y-3.1358
X5.7609Y-3.0919
X5.7742Y-3.2267
X5.7776Y-3.6356
X5.7829Y-3.3917
X5.7875Y-3.9997
X5.8093Y-2.8701
X5.821Y-3.6102
X5.8261Y-3.2794
X5.8268Y-3.4388
X5.8289Y-3.9997
X5.8294Y-3.399
X5.8628Y-3.2812
X5.8702Y-3.9997
X5.876Y-2.6476
X5.878Y-2.7559
X5.8976Y-3.2794
X5.9116Y-3.8816
X5.9116Y-3.9209
X5.9116Y-3.9603
X5.9116Y-3.9997
X5.9303Y-3.4078
X5.9376Y-3.2772
X5.9429Y-3.4587
X5.9504Y-3.4964
X5.9701Y-3.7139
X5.975Y-3.2784
X6.0118Y-3.5551
X6.0157Y-3.4801
X6.0203Y-3.606
X6.0203Y-3.6375
X6.0236Y-2.7657
X6.0241Y-3.0468
X6.0276Y-4.1496
X6.0492Y-3.7598
X6.051Y-3.3439
X6.0791Y-3.1421
X6.0807Y-3.2321
X6.0866Y-3.8333
X6.09Y-3.7624
X6.1069Y-3.2123
X6.1083Y-3.3012
X6.124Y-3.5315
X6.1296Y-3.2774
X6.1496Y-4.1506
X6.1763Y-3.5661
X6.185Y-3.3031
X6.185Y-3.7815
X6.191Y-3.593
X6.1927Y-2.811
X6.2087Y-3.3484
X6.2258Y-3.3209
X6.2309Y-3.7556
X6.2333Y-3.4715
X6.2395Y-3.7858
X6.2539Y-2.6496
X6.2559Y-3.3268
X6.2809Y-3.3465
X6.2809Y-3.4476
X6.313Y-2.6496
X6.3701Y-2.7736
X6.3976Y-3.4783
X6.3996Y-2.5886
X6.3996Y-3.3209
X6.412Y-3.5233
X6.4331Y-2.5866
X6.4843Y-2.7244
X6.4843Y-3.5768
X6.4843Y-3.498
X6.5315Y-2.7992
T3
X5.288Y-2.6422
X5.288Y-2.7517
X5.288Y-2.8619
X5.288Y-2.9705
X5.2882Y-2.5421
X5.2953Y-4.3602
X5.4061Y-2.8855
X5.4094Y-2.9721
X5.414Y-2.8422
X5.5021Y-3.6729
X5.5021Y-3.7359
X5.5124Y-4.3973
X5.5124Y-4.4328
X5.5124Y-4.4682
X5.5243Y-4.1532
X5.5243Y-4.1887
X5.5243Y-4.2241
X5.5243Y-4.2595
X5.5282Y-2.9721
X5.5354Y-2.8189
X5.5439Y-3.2202
X5.5439Y-4.417
X5.5439Y-4.4524
X5.5557Y-4.1729
X5.5557Y-4.2083
X5.5557Y-4.2438
X5.5583Y-3.7749
X5.5636Y-4.5509
X5.5748Y-3.3366
X5.5906Y-3.2192
X5.632Y-3.3461
X5.6476Y-3.0295
X5.6496Y-2.9721
X5.6566Y-3.1558
X5.6642Y-3.8848
X5.6857Y-3.7359
X5.7019Y-3.389
X5.7047Y-2.7126
X5.7309Y-4.4269
X5.7309Y-4.4623
X5.7309Y-4.4977
X5.7309Y-4.5331
X5.7309Y-4.5686
X5.7546Y-2.543
X5.7546Y-2.6417
X5.7546Y-2.752
X5.7546Y-2.8622
X5.7546Y-2.9721
X5.7683Y-4.4131
X5.7802Y-3.1887
X5.7998Y-4.228
X5.8333Y-3.9527
X5.8628Y-3.2083
X5.8731Y-3.4908
X5.9191Y-3.5866
X5.9258Y-4.2792
X5.9337Y-4.2144
X5.9346Y-3.7206
X5.935Y-3.2106
X5.9469Y-3.9705
X5.947Y-3.9013
X5.9528Y-3.0591
X5.9534Y-4.106
X5.9665Y-2.9567
X6.0006Y-3.102
X6.0079Y-3.4409
X6.0157Y-4.0615
X6.0203Y-3.6847
X6.0236Y-2.9035
X6.043Y-3.1763
X6.0494Y-3.9226
X6.0683Y-4.0635
X6.0836Y-3.9226
X6.0886Y-2.7106
X6.1109Y-4.1852
X6.1144Y-3.3767
X6.1148Y-4.2989
X6.1191Y-3.9226
X6.1496Y-2.6516
X6.1896Y-3.6611
X6.1935Y-3.7241
X6.2014Y-4.2831
X6.2087Y-4.1732
X6.2254Y-3.436
X6.2267Y-3.3894
X6.2447Y-4.232
X6.2605Y-4.0233
X6.2637Y-3.8841
X6.2663Y-3.919
X6.3176Y-3.0922
X6.3268Y-3.2894
X6.3583Y-2.8228
X6.3642Y-3.9744
X6.3865Y-3.0233
T4
X5.4014Y-2.5011
X5.6764Y-2.5011
T5
X5.9775Y-4.3603
X5.9775Y-4.4603
X5.9775Y-4.5603
X6.5557Y-3.9603
X6.5557Y-4.0603
X6.5557Y-4.1603
X6.5557Y-4.2603
X5.1201Y-3.3323
X5.1201Y-3.4323
X5.1201Y-3.5323
X5.1201Y-3.6323
X6.5557Y-3.4619
X6.5557Y-3.5619
X6.5557Y-3.6619
X6.5557Y-3.7619
X6.5557Y-3.8619
X6.2775Y-4.3603
X6.2775Y-4.4603
X6.2775Y-4.5603
X5.1201Y-2.9323
X5.1201Y-3.0323
X5.1201Y-3.1323
X5.1201Y-3.2323
X6.5557Y-3.3619
X6.1775Y-4.3603
X6.1775Y-4.4603
X6.1775Y-4.5603
X6.0775Y-4.3603
X6.0775Y-4.4603
X6.0775Y-4.5603
T6
X5.2165Y-3.9665
X5.2165Y-4.1043
T0
M30
