  0
SECTION
  2
HEADER
  9
$ACADVER
  1
AC1015
  9
$ACADMAINTVER
 70
     6
  9
$DWGCODEPAGE
  3
ANSI_1252
  9
$INSBASE
 10
0.0
 20
0.0
 30
0.0
  9
$EXTMIN
 10
0.0
 20
0.0
 30
0.0
  9
$EXTMAX
 10
1655.132568
 20
508.251923
 30
2.0
  9
$LIMMIN
 10
0.0
 20
0.0
  9
$LIMMAX
 10
420.0
 20
297.0
  9
$ORTHOMODE
 70
     0
  9
$REGENMODE
 70
     1
  9
$FILLMODE
 70
     1
  9
$QTEXTMODE
 70
     0
  9
$MIRRTEXT
 70
     1
  9
$LTSCALE
 40
1.0
  9
$ATTMODE
 70
     1
  9
$TEXTSIZE
 40
2.5
  9
$TRACEWID
 40
1.0
  9
$TEXTSTYLE
  7
Standard
  9
$CLAYER
  8
0
  9
$CELTYPE
  6
ByLayer
  9
$CECOLOR
 62
   256
  9
$CELTSCALE
 40
1.0
  9
$DISPSILH
 70
     0
  9
$DIMSCALE
 40
1.0
  9
$DIMASZ
 40
2.5
  9
$DIMEXO
 40
0.625
  9
$DIMDLI
 40
3.75
  9
$DIMRND
 40
0.0
  9
$DIMDLE
 40
0.0
  9
$DIMEXE
 40
1.25
  9
$DIMTP
 40
0.0
  9
$DIMTM
 40
0.0
  9
$DIMTXT
 40
2.5
  9
$DIMCEN
 40
2.5
  9
$DIMTSZ
 40
0.0
  9
$DIMTOL
 70
     0
  9
$DIMLIM
 70
     0
  9
$DIMTIH
 70
     0
  9
$DIMTOH
 70
     0
  9
$DIMSE1
 70
     0
  9
$DIMSE2
 70
     0
  9
$DIMTAD
 70
     1
  9
$DIMZIN
 70
     8
  9
$DIMBLK
  1

  9
$DIMASO
 70
     1
  9
$DIMSHO
 70
     1
  9
$DIMPOST
  1

  9
$DIMAPOST
  1

  9
$DIMALT
 70
     0
  9
$DIMALTD
 70
     3
  9
$DIMALTF
 40
0.03937
  9
$DIMLFAC
 40
1.0
  9
$DIMTOFL
 70
     1
  9
$DIMTVP
 40
0.0
  9
$DIMTIX
 70
     0
  9
$DIMSOXD
 70
     0
  9
$DIMSAH
 70
     0
  9
$DIMBLK1
  1

  9
$DIMBLK2
  1

  9
$DIMSTYLE
  2

  9
$DIMCLRD
 70
     0
  9
$DIMCLRE
 70
     0
  9
$DIMCLRT
 70
     0
  9
$DIMTFAC
 40
1.0
  9
$DIMGAP
 40
0.625
  9
$DIMJUST
 70
     0
  9
$DIMSD1
 70
     0
  9
$DIMSD2
 70
     0
  9
$DIMTOLJ
 70
     0
  9
$DIMTZIN
 70
     8
  9
$DIMALTZ
 70
     0
  9
$DIMALTTZ
 70
     0
  9
$DIMUPT
 70
     0
  9
$DIMDEC
 70
     2
  9
$DIMTDEC
 70
     2
  9
$DIMALTU
 70
     2
  9
$DIMALTTD
 70
     3
  9
$DIMTXSTY
  7
Standard
  9
$DIMAUNIT
 70
     0
  9
$DIMADEC
 70
     0
  9
$DIMALTRND
 40
0.0
  9
$DIMAZIN
 70
     0
  9
$DIMDSEP
 70
    44
  9
$DIMATFIT
 70
     0
  9
$DIMFRAC
 70
     0
  9
$DIMLDRBLK
  1

  9
$DIMLUNIT
 70
     2
  9
$DIMLWD
 70
    -2
  9
$DIMLWE
 70
    -2
  9
$DIMTMOVE
 70
     0
  9
$LUNITS
 70
     2
  9
$LUPREC
 70
     4
  9
$SKETCHINC
 40
1.0
  9
$FILLETRAD
 40
2.5
  9
$AUNITS
 70
     0
  9
$AUPREC
 70
     0
  9
$MENU
  1
.
  9
$ELEVATION
 40
0.0
  9
$PELEVATION
 40
0.0
  9
$THICKNESS
 40
0.0
  9
$LIMCHECK
 70
     0
  9
$CHAMFERA
 40
2.5
  9
$CHAMFERB
 40
2.5
  9
$CHAMFERC
 40
0.0
  9
$CHAMFERD
 40
0.0
  9
$SKPOLY
 70
     0
  9
$TDCREATE
 40
0.000000000
  9
$TDUCREATE
 40
0.000000000
  9
$TDUPDATE
 40
0.000000000
  9
$TDUUPDATE
 40
0.000000000
  9
$TDINDWG
 40
0.0000000000
  9
$TDUSRTIMER
 40
0.0000000000
  9
$USRTIMER
 70
     1
  9
$ANGBASE
 50
0.0
  9
$ANGDIR
 70
     0
  9
$PDMODE
 70
     0
  9
$PDSIZE
 40
0.0
  9
$PLINEWID
 40
0.0
  9
$SPLFRAME
 70
     0
  9
$SPLINETYPE
 70
     6
  9
$SPLINESEGS
 70
     8
  9
$HANDSEED
  5
292
  9
$SURFTAB1
 70
     6
  9
$SURFTAB2
 70
     6
  9
$SURFTYPE
 70
     6
  9
$SURFU
 70
     6
  9
$SURFV
 70
     6
  9
$UCSBASE
  2

  9
$UCSNAME
  2

  9
$UCSORG
 10
0.0
 20
0.0
 30
0.0
  9
$UCSXDIR
 10
1.0
 20
0.0
 30
0.0
  9
$UCSYDIR
 10
0.0
 20
1.0
 30
0.0
  9
$UCSORTHOREF
  2

  9
$UCSORTHOVIEW
 70
     1
  9
$UCSORGTOP
 10
0.0
 20
0.0
 30
0.0
  9
$UCSORGBOTTOM
 10
0.0
 20
0.0
 30
0.0
  9
$UCSORGLEFT
 10
0.0
 20
0.0
 30
0.0
  9
$UCSORGRIGHT
 10
0.0
 20
0.0
 30
0.0
  9
$UCSORGFRONT
 10
0.0
 20
0.0
 30
0.0
  9
$UCSORGBACK
 10
0.0
 20
0.0
 30
0.0
  9
$PUCSBASE
  2

  9
$PUCSNAME
  2

  9
$PUCSORG
 10
0.0
 20
0.0
 30
0.0
  9
$PUCSXDIR
 10
1.0
 20
0.0
 30
0.0
  9
$PUCSYDIR
 10
0.0
 20
1.0
 30
0.0
  9
$PUCSORTHOREF
  2

  9
$PUCSORTHOVIEW
 70
     0
  9
$PUCSORGTOP
 10
0.0
 20
0.0
 30
0.0
  9
$PUCSORGBOTTOM
 10
0.0
 20
0.0
 30
0.0
  9
$PUCSORGLEFT
 10
0.0
 20
0.0
 30
0.0
  9
$PUCSORGRIGHT
 10
0.0
 20
0.0
 30
0.0
  9
$PUCSORGFRONT
 10
0.0
 20
0.0
 30
0.0
  9
$PUCSORGBACK
 10
0.0
 20
0.0
 30
0.0
  9
$USERI1
 70
     0
  9
$USERI2
 70
     0
  9
$USERI3
 70
     0
  9
$USERI4
 70
     0
  9
$USERI5
 70
     0
  9
$USERR1
 40
0.0
  9
$USERR2
 40
0.0
  9
$USERR3
 40
0.0
  9
$USERR4
 40
0.0
  9
$USERR5
 40
0.0
  9
$WORLDVIEW
 70
     1
  9
$SHADEDGE
 70
     3
  9
$SHADEDIF
 70
    70
  9
$TILEMODE
 70
     1
  9
$MAXACTVP
 70
    48
  9
$PINSBASE
 10
0.0
 20
0.0
 30
0.0
  9
$PLIMCHECK
 70
     0
  9
$PEXTMIN
 10
0.0
 20
0.0
 30
0.0
  9
$PEXTMAX
 10
1655.132568
 20
508.251923
 30
2.0
  9
$PLIMMIN
 10
0.0
 20
0.0
  9
$PLIMMAX
 10
420.0
 20
297.0
  9
$UNITMODE
 70
     0
  9
$VISRETAIN
 70
     0
  9
$PLINEGEN
 70
     0
  9
$PSLTSCALE
 70
     1
  9
$TREEDEPTH
 70
  3020
  9
$CMLSTYLE
  2
Standard
  9
$CMLJUST
 70
     0
  9
$CMLSCALE
 40
20.0
  9
$PROXYGRAPHICS
 70
     1
  9
$MEASUREMENT
 70
     1
  9
$CELWEIGHT
370
    -1
  9
$ENDCAPS
280
     0
  9
$JOINSTYLE
280
     0
  9
$LWDISPLAY
290
     0
  9
$INSUNITS
 70
     0
  9
$HYPERLINKBASE
  1

  9
$STYLESHEET
  1

  9
$XEDIT
290
     1
  9
$CEPSNTYPE
380
     0
  9
$PSTYLEMODE
290
     0
  9
$FINGERPRINTGUID
  2

  9
$VERSIONGUID
  2

  9
$EXTNAMES
290
     0
  9
$PSVPSCALE
 40
0.0
  0
ENDSEC
  0
SECTION
  2
CLASSES
  0
CLASS
  1
LWPOLYLINE
  2
AcDbPolyline
  3
AutoCAD 2000
 90
        0
280
     0
281
     1
  0
CLASS
  1
IMAGE
  2
AcDbRasterImage
  3
ISM
 90
      127
280
     0
281
     1
  0
CLASS
  1
OLE2FRAME
  2
AcDbOle2Frame
  3
AutoCAD 2000
 90
        0
280
     0
281
     1
  0
CLASS
  1
HATCH
  2
AcDbHatch
  3
AutoCAD 2000
 90
        0
280
     0
281
     1
  0
CLASS
  1
DICTIONARYVAR
  2
AcDbDictionaryVar
  3
AutoCAD 2000
 90
        0
280
     0
281
     0
  0
CLASS
  1
RASTERVARIABLES
  2
AcDbRasterVariables
  3
ISM
 90
        0
280
     0
281
     0
  0
CLASS
  1
IMAGEDEF
  2
AcDbRasterImageDef
  3
ISM
 90
        0
280
     0
281
     0
  0
CLASS
  1
IMAGEDEF_REACTOR
  2
AcDbRasterImageDefReactor
  3
ISM
 90
        1
280
     0
281
     0
  0
CLASS
  1
IDBUFFER
  2
AcDbIdBuffer
  3
AutoCAD 2000
 90
        0
280
     0
281
     0
  0
CLASS
  1
SPATIAL_FILTER
  2
AcDbSpatialFilter
  3
AutoCAD 2000
 90
        0
280
     0
281
     0
  0
CLASS
  1
XRECORD
  2
AcDbXrecord
  3
AutoCAD 2000
 90
        0
280
     0
281
     0
  0
CLASS
  1
SORTENTSTABLE
  2
AcDbSortentsTable
  3
AutoCAD 2000
 90
        0
280
     0
281
     0
  0
CLASS
  1
LAYER_INDEX
  2
AcDbLayerIndex
  3
AutoCAD 2000
 90
        0
280
     0
281
     0
  0
CLASS
  1
SPATIAL_INDEX
  2
AcDbSpatialIndex
  3
AutoCAD 2000
 90
        0
280
     0
281
     0
  0
CLASS
  1
OBJECT_PTR
  2
CAseDLPNTableRecord
  3
"ASE-LPNTableRecord"
 90
        1
280
     0
281
     0
  0
CLASS
  1
LAYOUT
  2
AcDbLayout
  3
AutoCAD 2000
 90
        0
280
     0
281
     0
  0
CLASS
  1
PLOTSETTINGS
  2
AcDbPlotSettings
  3
AutoCAD 2000
 90
        0
280
     0
281
     0
  0
CLASS
  1
ACDBDICTIONARYWDFLT
  2
AcDbDictionaryWithDefault
  3
AutoCAD 2000
 90
        0
280
     0
281
     0
  0
CLASS
  1
ACDBPLACEHOLDER
  2
AcDbPlaceHolder
  3
AutoCAD 2000
 90
        0
280
     0
281
     0
  0
CLASS
  1
VBA_PROJECT
  2
AcDbVbaProject
  3
acadvba
 90
        0
280
     0
281
     0
  0
CLASS
  1
WIPEOUT
  2
AcDbWipeout
  3
WipeOut|AutoCAD Express Tool|expresstools@autodesk.com
 90
      127
280
     0
281
     1
  0
CLASS
  1
WIPEOUTVARIABLES
  2
AcDbWipeoutVariables
  3
WipeOut|AutoCAD Express Tool|expresstools@autodesk.com
 90
        0
280
     0
281
     0
  0
CLASS
  1
RTEXT
  2
RText
  3
RText|AutoCAD Express Tool|expresstools@autodesk.com
 90
        0
280
     0
281
     1
  0
CLASS
  1
ARCALIGNEDTEXT
  2
AcDbArcAlignedText
  3
ATEXT|AutoCAD Express Tool|expresstools@autodesk.com
 90
        0
280
     0
281
     1
  0
ENDSEC
  0
SECTION
  2
TABLES
  0
TABLE
  2
VPORT
  5
7
100
AcDbSymbolTable
 70
     1
  0
VPORT
  5
15
100
AcDbSymbolTableRecord
100
AcDbViewportTableRecord
  2
*ACTIVE
 70
     0
 10
0.0
 20
0.0
 11
1.0
 21
1.0
 12
6.591288
 22
4.579184
 13
0.0
 23
0.0
 14
1.0
 24
1.0
 15
0.0
 25
0.0
 16
0.0
 26
0.0
 36
1.0
 17
0.0
 27
0.0
 37
0.0
 40
9.158369
 41
0.688564
 42
50.0
 43
0.0
 44
0.0
 50
0.0
 51
0.0
 71
     0
 72
   100
 73
     1
 74
     1
 75
     0
 76
     0
 77
     0
 78
     0
281
     0
 65
     0
110
0.0
120
0.0
130
0.0
111
1.0
121
0.0
131
0.0
112
0.0
122
1.0
132
0.0
345
0
346
0
 79
     0
146
0.0
  0
ENDTAB
  0
TABLE
  2
LTYPE
  5
4
100
AcDbSymbolTable
 70
     3
  0
LTYPE
  5
11
100
AcDbSymbolTableRecord
100
AcDbLinetypeTableRecord
  2
ByBlock
 70
    64
  3

 72
    65
 73
     0
 40
0.0
  0
LTYPE
  5
12
100
AcDbSymbolTableRecord
100
AcDbLinetypeTableRecord
  2
ByLayer
 70
    64
  3

 72
    65
 73
     0
 40
0.0
  0
LTYPE
  5
13
100
AcDbSymbolTableRecord
100
AcDbLinetypeTableRecord
  2
Continuous
 70
    64
  3
Solid line
 72
    65
 73
     0
 40
0.0
  0
ENDTAB
  0
TABLE
  2
LAYER
  5
2
100
AcDbSymbolTable
 70
     1
  0
LAYER
  5
14
100
AcDbSymbolTableRecord
100
AcDbLayerTableRecord
  2
0
 70
     0
 62
     7
  6
Continuous
290
     1
370
    -3
390
1D
  0
ENDTAB
  0
TABLE
  2
STYLE
  5
3
100
AcDbSymbolTable
 70
     1
  0
STYLE
  5
17
100
AcDbSymbolTableRecord
100
AcDbTextStyleTableRecord
  2
Standard
 70
     0
 40
0.0
 41
1.0
 50
0.0
 71
     0
 42
0.0
  3
txt
  4

  0
ENDTAB
  0
TABLE
  2
VIEW
  5
5
100
AcDbSymbolTable
 70
     0
  0
ENDTAB
  0
TABLE
  2
UCS
  5
6
100
AcDbSymbolTable
 70
     0
  0
ENDTAB
  0
TABLE
  2
APPID
  5
8
100
AcDbSymbolTable
 70
     1
  0
APPID
  5
16
100
AcDbSymbolTableRecord
100
AcDbRegAppTableRecord
  2
ACAD
 70
     0
  0
ENDTAB
  0
TABLE
  2
DIMSTYLE
  5
9
100
AcDbSymbolTable
 70
     1
100
AcDbDimStyleTable
 71
     0
  0
DIMSTYLE
105
18
100
AcDbSymbolTableRecord
100
AcDbDimStyleTableRecord
  2
Standard
 70
     0
  3

  4

 40
1.0
 41
0.18
 42
0.0625
 43
0.38
 44
0.18
 45
0.0
 46
0.0
 47
0.0
 48
0.0
 71
     0
 72
     0
 73
     1
 74
     1
 75
     0
 76
     0
 77
     0
 78
     0
 79
     0
140
0.18
141
0.09
142
0.0
143
25.4
144
1.0
145
0.0
146
1.0
147
0.09
148
0.0
170
     0
171
     2
172
     0
173
     0
174
     0
175
     0
176
     0
177
     0
178
     0
179
     0
271
     4
272
     4
273
     2
274
     2
275
     0
276
     0
277
     2
278
    46
279
     0
280
     0
281
     0
282
     0
283
     1
284
     0
285
     0
286
     0
288
     0
289
     3
340
17
341
0
342
0
343
0
344
0
371
    -2
372
    -2
  0
ENDTAB
  0
TABLE
  2
BLOCK_RECORD
  5
1
100
AcDbSymbolTable
 70
     0
  0
BLOCK_RECORD
  5
A
100
AcDbSymbolTableRecord
100
AcDbBlockTableRecord
  2
*MODEL_SPACE
340
20
  0
BLOCK_RECORD
  5
B
100
AcDbSymbolTableRecord
100
AcDbBlockTableRecord
  2
*PAPER_SPACE
340
21
  0
ENDTAB
  0
ENDSEC
  0
SECTION
  2
BLOCKS
  0
BLOCK
  5
D
100
AcDbEntity
  8
0
390
0
100
AcDbBlockBegin
  2
*MODEL_SPACE
 70
     0
 10
0.0
 20
0.0
 30
0.0
  3
*MODEL_SPACE
  1

  0
ENDBLK
  5
E
100
AcDbEntity
  8
0
390
0
100
AcDbBlockEnd
  0
BLOCK
  5
F
100
AcDbEntity
 67
     1
  8
0
390
0
100
AcDbBlockBegin
  2
*PAPER_SPACE
 70
     0
 10
0.0
 20
0.0
 30
0.0
  3
*PAPER_SPACE
  1

  0
ENDBLK
  5
10
100
AcDbEntity
 67
     1
  8
0
390
0
100
AcDbBlockEnd
  0
ENDSEC
  0
SECTION
  2
ENTITIES
  0
VIEWPORT
  5
291
100
AcDbEntity
 67
     1
  8
0
370
     0
390
0
 62
     0
 48
0.0
100
AcDbViewport
 10
0.0
 20
0.0
 30
0.0
 40
1000.0
 41
1000.0
 68
     1
 69
     1
 12
0.0
 22
0.0
 13
0.0
 23
0.0
 14
1.0
 24
1.0
 15
1.0
 25
1.0
 16
0.0
 26
0.0
 36
1.0
 17
0.0
 27
0.0
 37
0.0
 42
50.0
 43
0.0
 44
0.0
 45
1000.0
 50
0.0
 51
0.0
 72
   100
 90
        0
340
0
  1

281
     0
 71
     0
 74
     1
110
0.0
120
0.0
130
0.0
111
1.0
121
0.0
131
0.0
112
0.0
122
1.0
132
0.0
345
0
346
0
 79
     0
146
0.0
  0
POLYLINE
  5
24
100
AcDbEntity
  8
0
370
    13
390
0
 62
     7
100
AcDb2dPolyline
 66
     1
 10
0.0
 20
0.0
 30
0.0
 70
     1
 71
    10
  0
VERTEX
  5
25
100
AcDbEntity
  8
0
370
     0
390
0
100
AcDbVertex
100
AcDb2dVertex
 10
1338.116699
 20
46.395294
 30
0.0
  0
VERTEX
  5
26
100
AcDbEntity
  8
0
370
     0
390
0
100
AcDbVertex
100
AcDb2dVertex
 10
1338.585693
 20
46.395294
 30
0.0
  0
VERTEX
  5
27
100
AcDbEntity
  8
0
370
     0
390
0
100
AcDbVertex
100
AcDb2dVertex
 10
1338.585693
 20
48.004086
 30
0.0
  0
VERTEX
  5
28
100
AcDbEntity
  8
0
370
     0
390
0
100
AcDbVertex
100
AcDb2dVertex
 10
1340.05835
 20
48.004086
 30
0.0
  0
VERTEX
  5
29
100
AcDbEntity
  8
0
370
     0
390
0
100
AcDbVertex
100
AcDb2dVertex
 10
1340.05835
 20
48.422672
 30
0.0
  0
VERTEX
  5
2A
100
AcDbEntity
  8
0
370
     0
390
0
100
AcDbVertex
100
AcDb2dVertex
 10
1338.585693
 20
48.422672
 30
0.0
  0
VERTEX
  5
2B
100
AcDbEntity
  8
0
370
     0
390
0
100
AcDbVertex
100
AcDb2dVertex
 10
1338.585693
 20
49.471664
 30
0.0
  0
VERTEX
  5
2C
100
AcDbEntity
  8
0
370
     0
390
0
100
AcDbVertex
100
AcDb2dVertex
 10
1340.39624
 20
49.471664
 30
0.0
  0
VERTEX
  5
2D
100
AcDbEntity
  8
0
370
     0
390
0
100
AcDbVertex
100
AcDb2dVertex
 10
1340.39624
 20
49.895294
 30
0.0
  0
VERTEX
  5
2E
100
AcDbEntity
  8
0
370
     0
390
0
100
AcDbVertex
100
AcDb2dVertex
 10
1338.116699
 20
49.895294
 30
0.0
  0
SEQEND
  5
2F
100
AcDbEntity
  8
0
370
     0
390
0
  0
POLYLINE
  5
30
100
AcDbEntity
  8
0
370
    13
390
0
 62
     7
100
AcDb2dPolyline
 66
     1
 10
0.0
 20
0.0
 30
0.0
 70
     1
 71
    22
  0
VERTEX
  5
31
100
AcDbEntity
  8
0
370
     0
390
0
100
AcDbVertex
100
AcDb2dVertex
 10
1341.309082
 20
46.395294
 30
0.0
  0
VERTEX
  5
32
100
AcDbEntity
  8
0
370
     0
390
0
100
AcDbVertex
100
AcDb2dVertex
 10
1341.75293
 20
46.395294
 30
0.0
  0
VERTEX
  5
33
100
AcDbEntity
  8
0
370
     0
390
0
100
AcDbVertex
100
AcDb2dVertex
 10
1341.75293
 20
47.943565
 30
0.0
  0
VERTEX
  5
34
100
AcDbEntity
  8
0
370
     0
390
0
100
AcDbVertex
100
AcDb2dVertex
 10
1341.798218
 20
48.316765
 30
0.0
  0
VERTEX
  5
35
100
AcDbEntity
  8
0
370
     0
390
0
100
AcDbVertex
100
AcDb2dVertex
 10
1341.934448
 20
48.584053
 30
0.0
  0
VERTEX
  5
36
100
AcDbEntity
  8
0
370
     0
390
0
100
AcDbVertex
100
AcDb2dVertex
 10
1342.156372
 20
48.745438
 30
0.0
  0
VERTEX
  5
37
100
AcDbEntity
  8
0
370
     0
390
0
100
AcDbVertex
100
AcDb2dVertex
 10
1342.453857
 20
48.800915
 30
0.0
  0
VERTEX
  5
38
100
AcDbEntity
  8
0
370
     0
390
0
100
AcDbVertex
100
AcDb2dVertex
 10
1342.675781
 20
48.76561
 30
0.0
  0
VERTEX
  5
39
100
AcDbEntity
  8
0
370
     0
390
0
100
AcDbVertex
100
AcDb2dVertex
 10
1342.842163
 20
48.664745
 30
0.0
  0
VERTEX
  5
3A
100
AcDbEntity
  8
0
370
     0
390
0
100
AcDbVertex
100
AcDb2dVertex
 10
1342.943115
 20
48.493279
 30
0.0
  0
VERTEX
  5
3B
100
AcDbEntity
  8
0
370
     0
390
0
100
AcDbVertex
100
AcDb2dVertex
 10
1342.978394
 20
48.261288
 30
0.0
  0
VERTEX
  5
3C
100
AcDbEntity
  8
0
370
     0
390
0
100
AcDbVertex
100
AcDb2dVertex
 10
1343.427246
 20
48.261288
 30
0.0
  0
VERTEX
  5
3D
100
AcDbEntity
  8
0
370
     0
390
0
100
AcDbVertex
100
AcDb2dVertex
 10
1343.366699
 20
48.669788
 30
0.0
  0
VERTEX
  5
3E
100
AcDbEntity
  8
0
370
     0
390
0
100
AcDbVertex
100
AcDb2dVertex
 10
1343.200317
 20
48.962296
 30
0.0
  0
VERTEX
  5
3F
100
AcDbEntity
  8
0
370
     0
390
0
100
AcDbVertex
100
AcDb2dVertex
 10
1342.922974
 20
49.138809
 30
0.0
  0
VERTEX
  5
40
100
AcDbEntity
  8
0
370
     0
390
0
100
AcDbVertex
100
AcDb2dVertex
 10
1342.544678
 20
49.199329
 30
0.0
  0
VERTEX
  5
41
100
AcDbEntity
  8
0
370
     0
390
0
100
AcDbVertex
100
AcDb2dVertex
 10
1342.287476
 20
49.158981
 30
0.0
  0
VERTEX
  5
42
100
AcDbEntity
  8
0
370
     0
390
0
100
AcDbVertex
100
AcDb2dVertex
 10
1342.065552
 20
49.058117
 30
0.0
  0
VERTEX
  5
43
100
AcDbEntity
  8
0
370
     0
390
0
100
AcDbVertex
100
AcDb2dVertex
 10
1341.868896
 20
48.88665
 30
0.0
  0
VERTEX
  5
44
100
AcDbEntity
  8
0
370
     0
390
0
100
AcDbVertex
100
AcDb2dVertex
 10
1341.712524
 20
48.654659
 30
0.0
  0
VERTEX
  5
45
100
AcDbEntity
  8
0
370
     0
390
0
100
AcDbVertex
100
AcDb2dVertex
 10
1341.712524
 20
49.103508
 30
0.0
  0
VERTEX
  5
46
100
AcDbEntity
  8
0
370
     0
390
0
100
AcDbVertex
100
AcDb2dVertex
 10
1341.309082
 20
49.103508
 30
0.0
  0
SEQEND
  5
47
100
AcDbEntity
  8
0
370
     0
390
0
  0
POLYLINE
  5
48
100
AcDbEntity
  8
0
370
    13
390
0
 62
     7
100
AcDb2dPolyline
 66
     1
 10
0.0
 20
0.0
 30
0.0
 70
     1
 71
    16
  0
VERTEX
  5
49
100
AcDbEntity
  8
0
370
     0
390
0
100
AcDbVertex
100
AcDb2dVertex
 10
1344.047607
 20
47.74688
 30
0.0
  0
VERTEX
  5
4A
100
AcDbEntity
  8
0
370
     0
390
0
100
AcDbVertex
100
AcDb2dVertex
 10
1344.128296
 20
47.131607
 30
0.0
  0
VERTEX
  5
4B
100
AcDbEntity
  8
0
370
     0
390
0
100
AcDbVertex
100
AcDb2dVertex
 10
1344.360229
 20
46.677715
 30
0.0
  0
VERTEX
  5
4C
100
AcDbEntity
  8
0
370
     0
390
0
100
AcDbVertex
100
AcDb2dVertex
 10
1344.728394
 20
46.395294
 30
0.0
  0
VERTEX
  5
4D
100
AcDbEntity
  8
0
370
     0
390
0
100
AcDbVertex
100
AcDb2dVertex
 10
1345.222656
 20
46.299473
 30
0.0
  0
VERTEX
  5
4E
100
AcDbEntity
  8
0
370
     0
390
0
100
AcDbVertex
100
AcDb2dVertex
 10
1345.711792
 20
46.395294
 30
0.0
  0
VERTEX
  5
4F
100
AcDbEntity
  8
0
370
     0
390
0
100
AcDbVertex
100
AcDb2dVertex
 10
1346.079956
 20
46.672672
 30
0.0
  0
VERTEX
  5
50
100
AcDbEntity
  8
0
370
     0
390
0
100
AcDbVertex
100
AcDb2dVertex
 10
1346.312012
 20
47.126564
 30
0.0
  0
VERTEX
  5
51
100
AcDbEntity
  8
0
370
     0
390
0
100
AcDbVertex
100
AcDb2dVertex
 10
1346.397705
 20
47.74688
 30
0.0
  0
VERTEX
  5
52
100
AcDbEntity
  8
0
370
     0
390
0
100
AcDbVertex
100
AcDb2dVertex
 10
1346.312012
 20
48.362152
 30
0.0
  0
VERTEX
  5
53
100
AcDbEntity
  8
0
370
     0
390
0
100
AcDbVertex
100
AcDb2dVertex
 10
1346.079956
 20
48.821087
 30
0.0
  0
VERTEX
  5
54
100
AcDbEntity
  8
0
370
     0
390
0
100
AcDbVertex
100
AcDb2dVertex
 10
1345.711792
 20
49.098465
 30
0.0
  0
VERTEX
  5
55
100
AcDbEntity
  8
0
370
     0
390
0
100
AcDbVertex
100
AcDb2dVertex
 10
1345.222656
 20
49.199329
 30
0.0
  0
VERTEX
  5
56
100
AcDbEntity
  8
0
370
     0
390
0
100
AcDbVertex
100
AcDb2dVertex
 10
1344.728394
 20
49.098465
 30
0.0
  0
VERTEX
  5
57
100
AcDbEntity
  8
0
370
     0
390
0
100
AcDbVertex
100
AcDb2dVertex
 10
1344.360229
 20
48.816044
 30
0.0
  0
VERTEX
  5
58
100
AcDbEntity
  8
0
370
     0
390
0
100
AcDbVertex
100
AcDb2dVertex
 10
1344.128296
 20
48.362152
 30
0.0
  0
SEQEND
  5
59
100
AcDbEntity
  8
0
370
     0
390
0
  0
POLYLINE
  5
5A
100
AcDbEntity
  8
0
370
    13
390
0
 62
     7
100
AcDb2dPolyline
 66
     1
 10
0.0
 20
0.0
 30
0.0
 70
     1
 71
    16
  0
VERTEX
  5
5B
100
AcDbEntity
  8
0
370
     0
390
0
100
AcDbVertex
100
AcDb2dVertex
 10
1344.501465
 20
47.751923
 30
0.0
  0
VERTEX
  5
5C
100
AcDbEntity
  8
0
370
     0
390
0
100
AcDbVertex
100
AcDb2dVertex
 10
1344.546875
 20
48.205814
 30
0.0
  0
VERTEX
  5
5D
100
AcDbEntity
  8
0
370
     0
390
0
100
AcDbVertex
100
AcDb2dVertex
 10
1344.687988
 20
48.533623
 30
0.0
  0
VERTEX
  5
5E
100
AcDbEntity
  8
0
370
     0
390
0
100
AcDbVertex
100
AcDb2dVertex
 10
1344.915039
 20
48.735352
 30
0.0
  0
VERTEX
  5
5F
100
AcDbEntity
  8
0
370
     0
390
0
100
AcDbVertex
100
AcDb2dVertex
 10
1345.222656
 20
48.805958
 30
0.0
  0
VERTEX
  5
60
100
AcDbEntity
  8
0
370
     0
390
0
100
AcDbVertex
100
AcDb2dVertex
 10
1345.525269
 20
48.735352
 30
0.0
  0
VERTEX
  5
61
100
AcDbEntity
  8
0
370
     0
390
0
100
AcDbVertex
100
AcDb2dVertex
 10
1345.752197
 20
48.538666
 30
0.0
  0
VERTEX
  5
62
100
AcDbEntity
  8
0
370
     0
390
0
100
AcDbVertex
100
AcDb2dVertex
 10
1345.893433
 20
48.205814
 30
0.0
  0
VERTEX
  5
63
100
AcDbEntity
  8
0
370
     0
390
0
100
AcDbVertex
100
AcDb2dVertex
 10
1345.943848
 20
47.751923
 30
0.0
  0
VERTEX
  5
64
100
AcDbEntity
  8
0
370
     0
390
0
100
AcDbVertex
100
AcDb2dVertex
 10
1345.893433
 20
47.292988
 30
0.0
  0
VERTEX
  5
65
100
AcDbEntity
  8
0
370
     0
390
0
100
AcDbVertex
100
AcDb2dVertex
 10
1345.752197
 20
46.960136
 30
0.0
  0
VERTEX
  5
66
100
AcDbEntity
  8
0
370
     0
390
0
100
AcDbVertex
100
AcDb2dVertex
 10
1345.525269
 20
46.758408
 30
0.0
  0
VERTEX
  5
67
100
AcDbEntity
  8
0
370
     0
390
0
100
AcDbVertex
100
AcDb2dVertex
 10
1345.222656
 20
46.692844
 30
0.0
  0
VERTEX
  5
68
100
AcDbEntity
  8
0
370
     0
390
0
100
AcDbVertex
100
AcDb2dVertex
 10
1344.915039
 20
46.758408
 30
0.0
  0
VERTEX
  5
69
100
AcDbEntity
  8
0
370
     0
390
0
100
AcDbVertex
100
AcDb2dVertex
 10
1344.687988
 20
46.960136
 30
0.0
  0
VERTEX
  5
6A
100
AcDbEntity
  8
0
370
     0
390
0
100
AcDbVertex
100
AcDb2dVertex
 10
1344.546875
 20
47.292988
 30
0.0
  0
SEQEND
  5
6B
100
AcDbEntity
  8
0
370
     0
390
0
  0
POLYLINE
  5
6C
100
AcDbEntity
  8
0
370
    13
390
0
 62
     7
100
AcDb2dPolyline
 66
     1
 10
0.0
 20
0.0
 30
0.0
 70
     1
 71
    24
  0
VERTEX
  5
6D
100
AcDbEntity
  8
0
370
     0
390
0
100
AcDbVertex
100
AcDb2dVertex
 10
1347.214722
 20
46.395294
 30
0.0
  0
VERTEX
  5
6E
100
AcDbEntity
  8
0
370
     0
390
0
100
AcDbVertex
100
AcDb2dVertex
 10
1347.658447
 20
46.395294
 30
0.0
  0
VERTEX
  5
6F
100
AcDbEntity
  8
0
370
     0
390
0
100
AcDbVertex
100
AcDb2dVertex
 10
1347.658447
 20
47.958694
 30
0.0
  0
VERTEX
  5
70
100
AcDbEntity
  8
0
370
     0
390
0
100
AcDbVertex
100
AcDb2dVertex
 10
1347.703857
 20
48.316765
 30
0.0
  0
VERTEX
  5
71
100
AcDbEntity
  8
0
370
     0
390
0
100
AcDbVertex
100
AcDb2dVertex
 10
1347.850098
 20
48.57901
 30
0.0
  0
VERTEX
  5
72
100
AcDbEntity
  8
0
370
     0
390
0
100
AcDbVertex
100
AcDb2dVertex
 10
1348.077148
 20
48.740395
 30
0.0
  0
VERTEX
  5
73
100
AcDbEntity
  8
0
370
     0
390
0
100
AcDbVertex
100
AcDb2dVertex
 10
1348.379639
 20
48.800915
 30
0.0
  0
VERTEX
  5
74
100
AcDbEntity
  8
0
370
     0
390
0
100
AcDbVertex
100
AcDb2dVertex
 10
1348.621704
 20
48.750481
 30
0.0
  0
VERTEX
  5
75
100
AcDbEntity
  8
0
370
     0
390
0
100
AcDbVertex
100
AcDb2dVertex
 10
1348.773071
 20
48.614315
 30
0.0
  0
VERTEX
  5
76
100
AcDbEntity
  8
0
370
     0
390
0
100
AcDbVertex
100
AcDb2dVertex
 10
1348.848755
 20
48.387367
 30
0.0
  0
VERTEX
  5
77
100
AcDbEntity
  8
0
370
     0
390
0
100
AcDbVertex
100
AcDb2dVertex
 10
1348.873901
 20
48.084774
 30
0.0
  0
VERTEX
  5
78
100
AcDbEntity
  8
0
370
     0
390
0
100
AcDbVertex
100
AcDb2dVertex
 10
1348.873901
 20
46.395294
 30
0.0
  0
VERTEX
  5
79
100
AcDbEntity
  8
0
370
     0
390
0
100
AcDbVertex
100
AcDb2dVertex
 10
1349.317749
 20
46.395294
 30
0.0
  0
VERTEX
  5
7A
100
AcDbEntity
  8
0
370
     0
390
0
100
AcDbVertex
100
AcDb2dVertex
 10
1349.317749
 20
48.175552
 30
0.0
  0
VERTEX
  5
7B
100
AcDbEntity
  8
0
370
     0
390
0
100
AcDbVertex
100
AcDb2dVertex
 10
1349.297607
 20
48.533623
 30
0.0
  0
VERTEX
  5
7C
100
AcDbEntity
  8
0
370
     0
390
0
100
AcDbVertex
100
AcDb2dVertex
 10
1349.206787
 20
48.831173
 30
0.0
  0
VERTEX
  5
7D
100
AcDbEntity
  8
0
370
     0
390
0
100
AcDbVertex
100
AcDb2dVertex
 10
1348.90918
 20
49.103508
 30
0.0
  0
VERTEX
  5
7E
100
AcDbEntity
  8
0
370
     0
390
0
100
AcDbVertex
100
AcDb2dVertex
 10
1348.44519
 20
49.199329
 30
0.0
  0
VERTEX
  5
7F
100
AcDbEntity
  8
0
370
     0
390
0
100
AcDbVertex
100
AcDb2dVertex
 10
1348.187988
 20
49.164024
 30
0.0
  0
VERTEX
  5
80
100
AcDbEntity
  8
0
370
     0
390
0
100
AcDbVertex
100
AcDb2dVertex
 10
1347.971191
 20
49.068207
 30
0.0
  0
VERTEX
  5
81
100
AcDbEntity
  8
0
370
     0
390
0
100
AcDbVertex
100
AcDb2dVertex
 10
1347.784546
 20
48.906822
 30
0.0
  0
VERTEX
  5
82
100
AcDbEntity
  8
0
370
     0
390
0
100
AcDbVertex
100
AcDb2dVertex
 10
1347.638306
 20
48.689964
 30
0.0
  0
VERTEX
  5
83
100
AcDbEntity
  8
0
370
     0
390
0
100
AcDbVertex
100
AcDb2dVertex
 10
1347.638306
 20
49.103508
 30
0.0
  0
VERTEX
  5
84
100
AcDbEntity
  8
0
370
     0
390
0
100
AcDbVertex
100
AcDb2dVertex
 10
1347.214722
 20
49.103508
 30
0.0
  0
SEQEND
  5
85
100
AcDbEntity
  8
0
370
     0
390
0
  0
POLYLINE
  5
86
100
AcDbEntity
  8
0
370
    13
390
0
 62
     7
100
AcDb2dPolyline
 66
     1
 10
0.0
 20
0.0
 30
0.0
 70
     1
 71
    22
  0
VERTEX
  5
87
100
AcDbEntity
  8
0
370
     0
390
0
100
AcDbVertex
100
AcDb2dVertex
 10
1350.845825
 20
48.634487
 30
0.0
  0
VERTEX
  5
88
100
AcDbEntity
  8
0
370
     0
390
0
100
AcDbVertex
100
AcDb2dVertex
 10
1350.845825
 20
47.277859
 30
0.0
  0
VERTEX
  5
89
100
AcDbEntity
  8
0
370
     0
390
0
100
AcDbVertex
100
AcDb2dVertex
 10
1350.876099
 20
46.8391
 30
0.0
  0
VERTEX
  5
8A
100
AcDbEntity
  8
0
370
     0
390
0
100
AcDbVertex
100
AcDb2dVertex
 10
1351.017334
 20
46.536503
 30
0.0
  0
VERTEX
  5
8B
100
AcDbEntity
  8
0
370
     0
390
0
100
AcDbVertex
100
AcDb2dVertex
 10
1351.299683
 20
46.359993
 30
0.0
  0
VERTEX
  5
8C
100
AcDbEntity
  8
0
370
     0
390
0
100
AcDbVertex
100
AcDb2dVertex
 10
1351.778809
 20
46.299473
 30
0.0
  0
VERTEX
  5
8D
100
AcDbEntity
  8
0
370
     0
390
0
100
AcDbVertex
100
AcDb2dVertex
 10
1352.303345
 20
46.324688
 30
0.0
  0
VERTEX
  5
8E
100
AcDbEntity
  8
0
370
     0
390
0
100
AcDbVertex
100
AcDb2dVertex
 10
1352.303345
 20
46.707973
 30
0.0
  0
VERTEX
  5
8F
100
AcDbEntity
  8
0
370
     0
390
0
100
AcDbVertex
100
AcDb2dVertex
 10
1351.920044
 20
46.677715
 30
0.0
  0
VERTEX
  5
90
100
AcDbEntity
  8
0
370
     0
390
0
100
AcDbVertex
100
AcDb2dVertex
 10
1351.572021
 20
46.71806
 30
0.0
  0
VERTEX
  5
91
100
AcDbEntity
  8
0
370
     0
390
0
100
AcDbVertex
100
AcDb2dVertex
 10
1351.385498
 20
46.844143
 30
0.0
  0
VERTEX
  5
92
100
AcDbEntity
  8
0
370
     0
390
0
100
AcDbVertex
100
AcDb2dVertex
 10
1351.30481
 20
47.055958
 30
0.0
  0
VERTEX
  5
93
100
AcDbEntity
  8
0
370
     0
390
0
100
AcDbVertex
100
AcDb2dVertex
 10
1351.289673
 20
47.353508
 30
0.0
  0
VERTEX
  5
94
100
AcDbEntity
  8
0
370
     0
390
0
100
AcDbVertex
100
AcDb2dVertex
 10
1351.289673
 20
48.634487
 30
0.0
  0
VERTEX
  5
95
100
AcDbEntity
  8
0
370
     0
390
0
100
AcDbVertex
100
AcDb2dVertex
 10
1352.303345
 20
48.634487
 30
0.0
  0
VERTEX
  5
96
100
AcDbEntity
  8
0
370
     0
390
0
100
AcDbVertex
100
AcDb2dVertex
 10
1352.303345
 20
49.01273
 30
0.0
  0
VERTEX
  5
97
100
AcDbEntity
  8
0
370
     0
390
0
100
AcDbVertex
100
AcDb2dVertex
 10
1351.289673
 20
49.01273
 30
0.0
  0
VERTEX
  5
98
100
AcDbEntity
  8
0
370
     0
390
0
100
AcDbVertex
100
AcDb2dVertex
 10
1351.289673
 20
49.804516
 30
0.0
  0
VERTEX
  5
99
100
AcDbEntity
  8
0
370
     0
390
0
100
AcDbVertex
100
AcDb2dVertex
 10
1350.845825
 20
49.804516
 30
0.0
  0
VERTEX
  5
9A
100
AcDbEntity
  8
0
370
     0
390
0
100
AcDbVertex
100
AcDb2dVertex
 10
1350.845825
 20
49.01273
 30
0.0
  0
VERTEX
  5
9B
100
AcDbEntity
  8
0
370
     0
390
0
100
AcDbVertex
100
AcDb2dVertex
 10
1350.079224
 20
49.01273
 30
0.0
  0
VERTEX
  5
9C
100
AcDbEntity
  8
0
370
     0
390
0
100
AcDbVertex
100
AcDb2dVertex
 10
1350.079224
 20
48.634487
 30
0.0
  0
SEQEND
  5
9D
100
AcDbEntity
  8
0
370
     0
390
0
  0
POLYLINE
  5
9E
100
AcDbEntity
  8
0
370
    13
390
0
 62
     7
100
AcDb2dPolyline
 66
     1
 10
0.0
 20
0.0
 30
0.0
 70
     1
 71
     7
  0
VERTEX
  5
9F
100
AcDbEntity
  8
0
370
     0
390
0
100
AcDbVertex
100
AcDb2dVertex
 10
1357.134766
 20
46.395294
 30
0.0
  0
VERTEX
  5
A0
100
AcDbEntity
  8
0
370
     0
390
0
100
AcDbVertex
100
AcDb2dVertex
 10
1357.60376
 20
46.395294
 30
0.0
  0
VERTEX
  5
A1
100
AcDbEntity
  8
0
370
     0
390
0
100
AcDbVertex
100
AcDb2dVertex
 10
1358.592285
 20
49.103508
 30
0.0
  0
VERTEX
  5
A2
100
AcDbEntity
  8
0
370
     0
390
0
100
AcDbVertex
100
AcDb2dVertex
 10
1358.133301
 20
49.103508
 30
0.0
  0
VERTEX
  5
A3
100
AcDbEntity
  8
0
370
     0
390
0
100
AcDbVertex
100
AcDb2dVertex
 10
1357.371704
 20
46.919788
 30
0.0
  0
VERTEX
  5
A4
100
AcDbEntity
  8
0
370
     0
390
0
100
AcDbVertex
100
AcDb2dVertex
 10
1356.595093
 20
49.103508
 30
0.0
  0
VERTEX
  5
A5
100
AcDbEntity
  8
0
370
     0
390
0
100
AcDbVertex
100
AcDb2dVertex
 10
1356.131104
 20
49.103508
 30
0.0
  0
SEQEND
  5
A6
100
AcDbEntity
  8
0
370
     0
390
0
  0
POLYLINE
  5
A7
100
AcDbEntity
  8
0
370
    13
390
0
 62
     7
100
AcDb2dPolyline
 66
     1
 10
0.0
 20
0.0
 30
0.0
 70
     1
 71
    10
  0
VERTEX
  5
A8
100
AcDbEntity
  8
0
370
     0
390
0
100
AcDbVertex
100
AcDb2dVertex
 10
1360.715454
 20
46.768494
 30
0.0
  0
VERTEX
  5
A9
100
AcDbEntity
  8
0
370
     0
390
0
100
AcDbVertex
100
AcDb2dVertex
 10
1360.715454
 20
49.01273
 30
0.0
  0
VERTEX
  5
AA
100
AcDbEntity
  8
0
370
     0
390
0
100
AcDbVertex
100
AcDb2dVertex
 10
1359.575684
 20
49.01273
 30
0.0
  0
VERTEX
  5
AB
100
AcDbEntity
  8
0
370
     0
390
0
100
AcDbVertex
100
AcDb2dVertex
 10
1359.575684
 20
48.634487
 30
0.0
  0
VERTEX
  5
AC
100
AcDbEntity
  8
0
370
     0
390
0
100
AcDbVertex
100
AcDb2dVertex
 10
1360.271606
 20
48.634487
 30
0.0
  0
VERTEX
  5
AD
100
AcDbEntity
  8
0
370
     0
390
0
100
AcDbVertex
100
AcDb2dVertex
 10
1360.271606
 20
46.768494
 30
0.0
  0
VERTEX
  5
AE
100
AcDbEntity
  8
0
370
     0
390
0
100
AcDbVertex
100
AcDb2dVertex
 10
1359.363892
 20
46.768494
 30
0.0
  0
VERTEX
  5
AF
100
AcDbEntity
  8
0
370
     0
390
0
100
AcDbVertex
100
AcDb2dVertex
 10
1359.363892
 20
46.395294
 30
0.0
  0
VERTEX
  5
B0
100
AcDbEntity
  8
0
370
     0
390
0
100
AcDbVertex
100
AcDb2dVertex
 10
1361.633301
 20
46.395294
 30
0.0
  0
VERTEX
  5
B1
100
AcDbEntity
  8
0
370
     0
390
0
100
AcDbVertex
100
AcDb2dVertex
 10
1361.633301
 20
46.768494
 30
0.0
  0
SEQEND
  5
B2
100
AcDbEntity
  8
0
370
     0
390
0
  0
POLYLINE
  5
B3
100
AcDbEntity
  8
0
370
    13
390
0
 62
     7
100
AcDb2dPolyline
 66
     1
 10
0.0
 20
0.0
 30
0.0
 70
     1
 71
     4
  0
VERTEX
  5
B4
100
AcDbEntity
  8
0
370
     0
390
0
100
AcDbVertex
100
AcDb2dVertex
 10
1360.730591
 20
50.016331
 30
0.0
  0
VERTEX
  5
B5
100
AcDbEntity
  8
0
370
     0
390
0
100
AcDbVertex
100
AcDb2dVertex
 10
1360.261475
 20
50.016331
 30
0.0
  0
VERTEX
  5
B6
100
AcDbEntity
  8
0
370
     0
390
0
100
AcDbVertex
100
AcDb2dVertex
 10
1360.261475
 20
49.512009
 30
0.0
  0
VERTEX
  5
B7
100
AcDbEntity
  8
0
370
     0
390
0
100
AcDbVertex
100
AcDb2dVertex
 10
1360.730591
 20
49.512009
 30
0.0
  0
SEQEND
  5
B8
100
AcDbEntity
  8
0
370
     0
390
0
  0
POLYLINE
  5
B9
100
AcDbEntity
  8
0
370
    13
390
0
 62
     7
100
AcDb2dPolyline
 66
     1
 10
0.0
 20
0.0
 30
0.0
 70
     1
 71
    27
  0
VERTEX
  5
BA
100
AcDbEntity
  8
0
370
     0
390
0
100
AcDbVertex
100
AcDb2dVertex
 10
1362.783203
 20
47.6208
 30
0.0
  0
VERTEX
  5
BB
100
AcDbEntity
  8
0
370
     0
390
0
100
AcDbVertex
100
AcDb2dVertex
 10
1364.55835
 20
47.6208
 30
0.0
  0
VERTEX
  5
BC
100
AcDbEntity
  8
0
370
     0
390
0
100
AcDbVertex
100
AcDb2dVertex
 10
1364.563354
 20
47.827572
 30
0.0
  0
VERTEX
  5
BD
100
AcDbEntity
  8
0
370
     0
390
0
100
AcDbVertex
100
AcDb2dVertex
 10
1364.482666
 20
48.407543
 30
0.0
  0
VERTEX
  5
BE
100
AcDbEntity
  8
0
370
     0
390
0
100
AcDbVertex
100
AcDb2dVertex
 10
1364.260864
 20
48.841259
 30
0.0
  0
VERTEX
  5
BF
100
AcDbEntity
  8
0
370
     0
390
0
100
AcDbVertex
100
AcDb2dVertex
 10
1363.907837
 20
49.103508
 30
0.0
  0
VERTEX
  5
C0
100
AcDbEntity
  8
0
370
     0
390
0
100
AcDbVertex
100
AcDb2dVertex
 10
1363.438721
 20
49.199329
 30
0.0
  0
VERTEX
  5
C1
100
AcDbEntity
  8
0
370
     0
390
0
100
AcDbVertex
100
AcDb2dVertex
 10
1362.979858
 20
49.098465
 30
0.0
  0
VERTEX
  5
C2
100
AcDbEntity
  8
0
370
     0
390
0
100
AcDbVertex
100
AcDb2dVertex
 10
1362.626831
 20
48.816044
 30
0.0
  0
VERTEX
  5
C3
100
AcDbEntity
  8
0
370
     0
390
0
100
AcDbVertex
100
AcDb2dVertex
 10
1362.399902
 20
48.357109
 30
0.0
  0
VERTEX
  5
C4
100
AcDbEntity
  8
0
370
     0
390
0
100
AcDbVertex
100
AcDb2dVertex
 10
1362.319214
 20
47.751923
 30
0.0
  0
VERTEX
  5
C5
100
AcDbEntity
  8
0
370
     0
390
0
100
AcDbVertex
100
AcDb2dVertex
 10
1362.394775
 20
47.131607
 30
0.0
  0
VERTEX
  5
C6
100
AcDbEntity
  8
0
370
     0
390
0
100
AcDbVertex
100
AcDb2dVertex
 10
1362.621704
 20
46.677715
 30
0.0
  0
VERTEX
  5
C7
100
AcDbEntity
  8
0
370
     0
390
0
100
AcDbVertex
100
AcDb2dVertex
 10
1362.969727
 20
46.395294
 30
0.0
  0
VERTEX
  5
C8
100
AcDbEntity
  8
0
370
     0
390
0
100
AcDbVertex
100
AcDb2dVertex
 10
1363.423584
 20
46.299473
 30
0.0
  0
VERTEX
  5
C9
100
AcDbEntity
  8
0
370
     0
390
0
100
AcDbVertex
100
AcDb2dVertex
 10
1363.817017
 20
46.365036
 30
0.0
  0
VERTEX
  5
CA
100
AcDbEntity
  8
0
370
     0
390
0
100
AcDbVertex
100
AcDb2dVertex
 10
1364.139771
 20
46.536503
 30
0.0
  0
VERTEX
  5
CB
100
AcDbEntity
  8
0
370
     0
390
0
100
AcDbVertex
100
AcDb2dVertex
 10
1364.376831
 20
46.808838
 30
0.0
  0
VERTEX
  5
CC
100
AcDbEntity
  8
0
370
     0
390
0
100
AcDbVertex
100
AcDb2dVertex
 10
1364.512939
 20
47.171951
 30
0.0
  0
VERTEX
  5
CD
100
AcDbEntity
  8
0
370
     0
390
0
100
AcDbVertex
100
AcDb2dVertex
 10
1364.074219
 20
47.171951
 30
0.0
  0
VERTEX
  5
CE
100
AcDbEntity
  8
0
370
     0
390
0
100
AcDbVertex
100
AcDb2dVertex
 10
1363.983398
 20
46.970222
 30
0.0
  0
VERTEX
  5
CF
100
AcDbEntity
  8
0
370
     0
390
0
100
AcDbVertex
100
AcDb2dVertex
 10
1363.852295
 20
46.818924
 30
0.0
  0
VERTEX
  5
D0
100
AcDbEntity
  8
0
370
     0
390
0
100
AcDbVertex
100
AcDb2dVertex
 10
1363.479126
 20
46.697887
 30
0.0
  0
VERTEX
  5
D1
100
AcDbEntity
  8
0
370
     0
390
0
100
AcDbVertex
100
AcDb2dVertex
 10
1363.19165
 20
46.753365
 30
0.0
  0
VERTEX
  5
D2
100
AcDbEntity
  8
0
370
     0
390
0
100
AcDbVertex
100
AcDb2dVertex
 10
1362.974731
 20
46.929878
 30
0.0
  0
VERTEX
  5
D3
100
AcDbEntity
  8
0
370
     0
390
0
100
AcDbVertex
100
AcDb2dVertex
 10
1362.833618
 20
47.217339
 30
0.0
  0
VERTEX
  5
D4
100
AcDbEntity
  8
0
370
     0
390
0
100
AcDbVertex
100
AcDb2dVertex
 10
1362.783203
 20
47.605667
 30
0.0
  0
SEQEND
  5
D5
100
AcDbEntity
  8
0
370
     0
390
0
  0
POLYLINE
  5
D6
100
AcDbEntity
  8
0
370
    13
390
0
 62
     7
100
AcDb2dPolyline
 66
     1
 10
0.0
 20
0.0
 30
0.0
 70
     1
 71
     9
  0
VERTEX
  5
D7
100
AcDbEntity
  8
0
370
     0
390
0
100
AcDbVertex
100
AcDb2dVertex
 10
1362.783203
 20
47.993996
 30
0.0
  0
VERTEX
  5
D8
100
AcDbEntity
  8
0
370
     0
390
0
100
AcDbVertex
100
AcDb2dVertex
 10
1362.838623
 20
48.34198
 30
0.0
  0
VERTEX
  5
D9
100
AcDbEntity
  8
0
370
     0
390
0
100
AcDbVertex
100
AcDb2dVertex
 10
1362.974731
 20
48.599186
 30
0.0
  0
VERTEX
  5
DA
100
AcDbEntity
  8
0
370
     0
390
0
100
AcDbVertex
100
AcDb2dVertex
 10
1363.181519
 20
48.755524
 30
0.0
  0
VERTEX
  5
DB
100
AcDbEntity
  8
0
370
     0
390
0
100
AcDbVertex
100
AcDb2dVertex
 10
1363.453857
 20
48.811001
 30
0.0
  0
VERTEX
  5
DC
100
AcDbEntity
  8
0
370
     0
390
0
100
AcDbVertex
100
AcDb2dVertex
 10
1363.721191
 20
48.755524
 30
0.0
  0
VERTEX
  5
DD
100
AcDbEntity
  8
0
370
     0
390
0
100
AcDbVertex
100
AcDb2dVertex
 10
1363.927979
 20
48.599186
 30
0.0
  0
VERTEX
  5
DE
100
AcDbEntity
  8
0
370
     0
390
0
100
AcDbVertex
100
AcDb2dVertex
 10
1364.054077
 20
48.34198
 30
0.0
  0
VERTEX
  5
DF
100
AcDbEntity
  8
0
370
     0
390
0
100
AcDbVertex
100
AcDb2dVertex
 10
1364.099487
 20
47.993996
 30
0.0
  0
SEQEND
  5
E0
100
AcDbEntity
  8
0
370
     0
390
0
  0
POLYLINE
  5
E1
100
AcDbEntity
  8
0
370
    13
390
0
 62
     7
100
AcDb2dPolyline
 66
     1
 10
0.0
 20
0.0
 30
0.0
 70
     1
 71
    13
  0
VERTEX
  5
E2
100
AcDbEntity
  8
0
370
     0
390
0
100
AcDbVertex
100
AcDb2dVertex
 10
1366.071289
 20
46.395294
 30
0.0
  0
VERTEX
  5
E3
100
AcDbEntity
  8
0
370
     0
390
0
100
AcDbVertex
100
AcDb2dVertex
 10
1366.474731
 20
48.695007
 30
0.0
  0
VERTEX
  5
E4
100
AcDbEntity
  8
0
370
     0
390
0
100
AcDbVertex
100
AcDb2dVertex
 10
1366.878296
 20
46.395294
 30
0.0
  0
VERTEX
  5
E5
100
AcDbEntity
  8
0
370
     0
390
0
100
AcDbVertex
100
AcDb2dVertex
 10
1367.30188
 20
46.395294
 30
0.0
  0
VERTEX
  5
E6
100
AcDbEntity
  8
0
370
     0
390
0
100
AcDbVertex
100
AcDb2dVertex
 10
1367.967529
 20
49.103508
 30
0.0
  0
VERTEX
  5
E7
100
AcDbEntity
  8
0
370
     0
390
0
100
AcDbVertex
100
AcDb2dVertex
 10
1367.53894
 20
49.103508
 30
0.0
  0
VERTEX
  5
E8
100
AcDbEntity
  8
0
370
     0
390
0
100
AcDbVertex
100
AcDb2dVertex
 10
1367.090088
 20
46.803795
 30
0.0
  0
VERTEX
  5
E9
100
AcDbEntity
  8
0
370
     0
390
0
100
AcDbVertex
100
AcDb2dVertex
 10
1366.69165
 20
49.103508
 30
0.0
  0
VERTEX
  5
EA
100
AcDbEntity
  8
0
370
     0
390
0
100
AcDbVertex
100
AcDb2dVertex
 10
1366.25293
 20
49.103508
 30
0.0
  0
VERTEX
  5
EB
100
AcDbEntity
  8
0
370
     0
390
0
100
AcDbVertex
100
AcDb2dVertex
 10
1365.854492
 20
46.803795
 30
0.0
  0
VERTEX
  5
EC
100
AcDbEntity
  8
0
370
     0
390
0
100
AcDbVertex
100
AcDb2dVertex
 10
1365.40564
 20
49.103508
 30
0.0
  0
VERTEX
  5
ED
100
AcDbEntity
  8
0
370
     0
390
0
100
AcDbVertex
100
AcDb2dVertex
 10
1364.981934
 20
49.103508
 30
0.0
  0
VERTEX
  5
EE
100
AcDbEntity
  8
0
370
     0
390
0
100
AcDbVertex
100
AcDb2dVertex
 10
1365.647705
 20
46.395294
 30
0.0
  0
SEQEND
  5
EF
100
AcDbEntity
  8
0
370
     0
390
0
  0
POLYLINE
  5
F0
100
AcDbEntity
  8
0
370
    13
390
0
 62
     7
100
AcDb2dPolyline
 66
     1
 10
0.0
 20
0.0
 30
0.0
 70
     1
 71
    51
  0
VERTEX
  5
F1
100
AcDbEntity
  8
0
370
     0
390
0
100
AcDbVertex
100
AcDb2dVertex
 10
1338.35376
 20
41.503365
 30
0.0
  0
VERTEX
  5
F2
100
AcDbEntity
  8
0
370
     0
390
0
100
AcDbVertex
100
AcDb2dVertex
 10
1337.894775
 20
41.503365
 30
0.0
  0
VERTEX
  5
F3
100
AcDbEntity
  8
0
370
     0
390
0
100
AcDbVertex
100
AcDb2dVertex
 10
1337.995728
 20
40.968781
 30
0.0
  0
VERTEX
  5
F4
100
AcDbEntity
  8
0
370
     0
390
0
100
AcDbVertex
100
AcDb2dVertex
 10
1338.247803
 20
40.575409
 30
0.0
  0
VERTEX
  5
F5
100
AcDbEntity
  8
0
370
     0
390
0
100
AcDbVertex
100
AcDb2dVertex
 10
1338.63623
 20
40.338379
 30
0.0
  0
VERTEX
  5
F6
100
AcDbEntity
  8
0
370
     0
390
0
100
AcDbVertex
100
AcDb2dVertex
 10
1339.160645
 20
40.252644
 30
0.0
  0
VERTEX
  5
F7
100
AcDbEntity
  8
0
370
     0
390
0
100
AcDbVertex
100
AcDb2dVertex
 10
1339.680176
 20
40.333336
 30
0.0
  0
VERTEX
  5
F8
100
AcDbEntity
  8
0
370
     0
390
0
100
AcDbVertex
100
AcDb2dVertex
 10
1340.068481
 20
40.555237
 30
0.0
  0
VERTEX
  5
F9
100
AcDbEntity
  8
0
370
     0
390
0
100
AcDbVertex
100
AcDb2dVertex
 10
1340.315552
 20
40.903221
 30
0.0
  0
VERTEX
  5
FA
100
AcDbEntity
  8
0
370
     0
390
0
100
AcDbVertex
100
AcDb2dVertex
 10
1340.406372
 20
41.362152
 30
0.0
  0
VERTEX
  5
FB
100
AcDbEntity
  8
0
370
     0
390
0
100
AcDbVertex
100
AcDb2dVertex
 10
1340.330688
 20
41.7757
 30
0.0
  0
VERTEX
  5
FC
100
AcDbEntity
  8
0
370
     0
390
0
100
AcDbVertex
100
AcDb2dVertex
 10
1340.118896
 20
42.042988
 30
0.0
  0
VERTEX
  5
FD
100
AcDbEntity
  8
0
370
     0
390
0
100
AcDbVertex
100
AcDb2dVertex
 10
1339.776001
 20
42.219501
 30
0.0
  0
VERTEX
  5
FE
100
AcDbEntity
  8
0
370
     0
390
0
100
AcDbVertex
100
AcDb2dVertex
 10
1339.317017
 20
42.350628
 30
0.0
  0
VERTEX
  5
FF
100
AcDbEntity
  8
0
370
     0
390
0
100
AcDbVertex
100
AcDb2dVertex
 10
1338.923584
 20
42.446449
 30
0.0
  0
VERTEX
  5
100
100
AcDbEntity
  8
0
370
     0
390
0
100
AcDbVertex
100
AcDb2dVertex
 10
1338.666382
 20
42.5574
 30
0.0
  0
VERTEX
  5
101
100
AcDbEntity
  8
0
370
     0
390
0
100
AcDbVertex
100
AcDb2dVertex
 10
1338.520142
 20
42.718781
 30
0.0
  0
VERTEX
  5
102
100
AcDbEntity
  8
0
370
     0
390
0
100
AcDbVertex
100
AcDb2dVertex
 10
1338.474731
 20
42.970943
 30
0.0
  0
VERTEX
  5
103
100
AcDbEntity
  8
0
370
     0
390
0
100
AcDbVertex
100
AcDb2dVertex
 10
1338.520142
 20
43.197887
 30
0.0
  0
VERTEX
  5
104
100
AcDbEntity
  8
0
370
     0
390
0
100
AcDbVertex
100
AcDb2dVertex
 10
1338.651245
 20
43.369358
 30
0.0
  0
VERTEX
  5
105
100
AcDbEntity
  8
0
370
     0
390
0
100
AcDbVertex
100
AcDb2dVertex
 10
1338.853027
 20
43.485352
 30
0.0
  0
VERTEX
  5
106
100
AcDbEntity
  8
0
370
     0
390
0
100
AcDbVertex
100
AcDb2dVertex
 10
1339.130371
 20
43.5257
 30
0.0
  0
VERTEX
  5
107
100
AcDbEntity
  8
0
370
     0
390
0
100
AcDbVertex
100
AcDb2dVertex
 10
1339.412842
 20
43.475266
 30
0.0
  0
VERTEX
  5
108
100
AcDbEntity
  8
0
370
     0
390
0
100
AcDbVertex
100
AcDb2dVertex
 10
1339.634766
 20
43.3391
 30
0.0
  0
VERTEX
  5
109
100
AcDbEntity
  8
0
370
     0
390
0
100
AcDbVertex
100
AcDb2dVertex
 10
1339.781006
 20
43.112152
 30
0.0
  0
VERTEX
  5
10A
100
AcDbEntity
  8
0
370
     0
390
0
100
AcDbVertex
100
AcDb2dVertex
 10
1339.851563
 20
42.804516
 30
0.0
  0
VERTEX
  5
10B
100
AcDbEntity
  8
0
370
     0
390
0
100
AcDbVertex
100
AcDb2dVertex
 10
1340.310547
 20
42.804516
 30
0.0
  0
VERTEX
  5
10C
100
AcDbEntity
  8
0
370
     0
390
0
100
AcDbVertex
100
AcDb2dVertex
 10
1340.310547
 20
42.814602
 30
0.0
  0
VERTEX
  5
10D
100
AcDbEntity
  8
0
370
     0
390
0
100
AcDbVertex
100
AcDb2dVertex
 10
1340.229858
 20
43.288666
 30
0.0
  0
VERTEX
  5
10E
100
AcDbEntity
  8
0
370
     0
390
0
100
AcDbVertex
100
AcDb2dVertex
 10
1339.992798
 20
43.641693
 30
0.0
  0
VERTEX
  5
10F
100
AcDbEntity
  8
0
370
     0
390
0
100
AcDbVertex
100
AcDb2dVertex
 10
1339.619629
 20
43.863594
 30
0.0
  0
VERTEX
  5
110
100
AcDbEntity
  8
0
370
     0
390
0
100
AcDbVertex
100
AcDb2dVertex
 10
1339.115234
 20
43.939243
 30
0.0
  0
VERTEX
  5
111
100
AcDbEntity
  8
0
370
     0
390
0
100
AcDbVertex
100
AcDb2dVertex
 10
1338.661377
 20
43.863594
 30
0.0
  0
VERTEX
  5
112
100
AcDbEntity
  8
0
370
     0
390
0
100
AcDbVertex
100
AcDb2dVertex
 10
1338.30835
 20
43.651779
 30
0.0
  0
VERTEX
  5
113
100
AcDbEntity
  8
0
370
     0
390
0
100
AcDbVertex
100
AcDb2dVertex
 10
1338.081421
 20
43.323971
 30
0.0
  0
VERTEX
  5
114
100
AcDbEntity
  8
0
370
     0
390
0
100
AcDbVertex
100
AcDb2dVertex
 10
1338.000732
 20
42.900337
 30
0.0
  0
VERTEX
  5
115
100
AcDbEntity
  8
0
370
     0
390
0
100
AcDbVertex
100
AcDb2dVertex
 10
1338.066284
 20
42.522095
 30
0.0
  0
VERTEX
  5
116
100
AcDbEntity
  8
0
370
     0
390
0
100
AcDbVertex
100
AcDb2dVertex
 10
1338.257935
 20
42.264893
 30
0.0
  0
VERTEX
  5
117
100
AcDbEntity
  8
0
370
     0
390
0
100
AcDbVertex
100
AcDb2dVertex
 10
1338.560547
 20
42.093422
 30
0.0
  0
VERTEX
  5
118
100
AcDbEntity
  8
0
370
     0
390
0
100
AcDbVertex
100
AcDb2dVertex
 10
1338.974121
 20
41.962299
 30
0.0
  0
VERTEX
  5
119
100
AcDbEntity
  8
0
370
     0
390
0
100
AcDbVertex
100
AcDb2dVertex
 10
1339.382568
 20
41.846302
 30
0.0
  0
VERTEX
  5
11A
100
AcDbEntity
  8
0
370
     0
390
0
100
AcDbVertex
100
AcDb2dVertex
 10
1339.690186
 20
41.735352
 30
0.0
  0
VERTEX
  5
11B
100
AcDbEntity
  8
0
370
     0
390
0
100
AcDbVertex
100
AcDb2dVertex
 10
1339.876831
 20
41.573971
 30
0.0
  0
VERTEX
  5
11C
100
AcDbEntity
  8
0
370
     0
390
0
100
AcDbVertex
100
AcDb2dVertex
 10
1339.942383
 20
41.311722
 30
0.0
  0
VERTEX
  5
11D
100
AcDbEntity
  8
0
370
     0
390
0
100
AcDbVertex
100
AcDb2dVertex
 10
1339.881836
 20
41.04443
 30
0.0
  0
VERTEX
  5
11E
100
AcDbEntity
  8
0
370
     0
390
0
100
AcDbVertex
100
AcDb2dVertex
 10
1339.725464
 20
40.842701
 30
0.0
  0
VERTEX
  5
11F
100
AcDbEntity
  8
0
370
     0
390
0
100
AcDbVertex
100
AcDb2dVertex
 10
1339.488525
 20
40.716621
 30
0.0
  0
VERTEX
  5
120
100
AcDbEntity
  8
0
370
     0
390
0
100
AcDbVertex
100
AcDb2dVertex
 10
1339.180786
 20
40.676273
 30
0.0
  0
VERTEX
  5
121
100
AcDbEntity
  8
0
370
     0
390
0
100
AcDbVertex
100
AcDb2dVertex
 10
1338.837891
 20
40.73175
 30
0.0
  0
VERTEX
  5
122
100
AcDbEntity
  8
0
370
     0
390
0
100
AcDbVertex
100
AcDb2dVertex
 10
1338.575684
 20
40.893135
 30
0.0
  0
VERTEX
  5
123
100
AcDbEntity
  8
0
370
     0
390
0
100
AcDbVertex
100
AcDb2dVertex
 10
1338.40918
 20
41.15538
 30
0.0
  0
SEQEND
  5
124
100
AcDbEntity
  8
0
370
     0
390
0
  0
POLYLINE
  5
125
100
AcDbEntity
  8
0
370
    13
390
0
 62
     7
100
AcDb2dPolyline
 66
     1
 10
0.0
 20
0.0
 30
0.0
 70
     1
 71
    34
  0
VERTEX
  5
126
100
AcDbEntity
  8
0
370
     0
390
0
100
AcDbVertex
100
AcDb2dVertex
 10
1342.867432
 20
42.158985
 30
0.0
  0
VERTEX
  5
127
100
AcDbEntity
  8
0
370
     0
390
0
100
AcDbVertex
100
AcDb2dVertex
 10
1343.306152
 20
42.158985
 30
0.0
  0
VERTEX
  5
128
100
AcDbEntity
  8
0
370
     0
390
0
100
AcDbVertex
100
AcDb2dVertex
 10
1343.215454
 20
42.562443
 30
0.0
  0
VERTEX
  5
129
100
AcDbEntity
  8
0
370
     0
390
0
100
AcDbVertex
100
AcDb2dVertex
 10
1342.998535
 20
42.880165
 30
0.0
  0
VERTEX
  5
12A
100
AcDbEntity
  8
0
370
     0
390
0
100
AcDbVertex
100
AcDb2dVertex
 10
1342.660645
 20
43.076851
 30
0.0
  0
VERTEX
  5
12B
100
AcDbEntity
  8
0
370
     0
390
0
100
AcDbVertex
100
AcDb2dVertex
 10
1342.221924
 20
43.1525
 30
0.0
  0
VERTEX
  5
12C
100
AcDbEntity
  8
0
370
     0
390
0
100
AcDbVertex
100
AcDb2dVertex
 10
1341.737793
 20
43.051636
 30
0.0
  0
VERTEX
  5
12D
100
AcDbEntity
  8
0
370
     0
390
0
100
AcDbVertex
100
AcDb2dVertex
 10
1341.369629
 20
42.769215
 30
0.0
  0
VERTEX
  5
12E
100
AcDbEntity
  8
0
370
     0
390
0
100
AcDbVertex
100
AcDb2dVertex
 10
1341.137573
 20
42.31028
 30
0.0
  0
VERTEX
  5
12F
100
AcDbEntity
  8
0
370
     0
390
0
100
AcDbVertex
100
AcDb2dVertex
 10
1341.056885
 20
41.695007
 30
0.0
  0
VERTEX
  5
130
100
AcDbEntity
  8
0
370
     0
390
0
100
AcDbVertex
100
AcDb2dVertex
 10
1341.132568
 20
41.084778
 30
0.0
  0
VERTEX
  5
131
100
AcDbEntity
  8
0
370
     0
390
0
100
AcDbVertex
100
AcDb2dVertex
 10
1341.359497
 20
40.630886
 30
0.0
  0
VERTEX
  5
132
100
AcDbEntity
  8
0
370
     0
390
0
100
AcDbVertex
100
AcDb2dVertex
 10
1341.717529
 20
40.348465
 30
0.0
  0
VERTEX
  5
133
100
AcDbEntity
  8
0
370
     0
390
0
100
AcDbVertex
100
AcDb2dVertex
 10
1342.206787
 20
40.252644
 30
0.0
  0
VERTEX
  5
134
100
AcDbEntity
  8
0
370
     0
390
0
100
AcDbVertex
100
AcDb2dVertex
 10
1342.640503
 20
40.328293
 30
0.0
  0
VERTEX
  5
135
100
AcDbEntity
  8
0
370
     0
390
0
100
AcDbVertex
100
AcDb2dVertex
 10
1342.978394
 20
40.540108
 30
0.0
  0
VERTEX
  5
136
100
AcDbEntity
  8
0
370
     0
390
0
100
AcDbVertex
100
AcDb2dVertex
 10
1343.210327
 20
40.872959
 30
0.0
  0
VERTEX
  5
137
100
AcDbEntity
  8
0
370
     0
390
0
100
AcDbVertex
100
AcDb2dVertex
 10
1343.311279
 20
41.316765
 30
0.0
  0
VERTEX
  5
138
100
AcDbEntity
  8
0
370
     0
390
0
100
AcDbVertex
100
AcDb2dVertex
 10
1342.887573
 20
41.316765
 30
0.0
  0
VERTEX
  5
139
100
AcDbEntity
  8
0
370
     0
390
0
100
AcDbVertex
100
AcDb2dVertex
 10
1342.812012
 20
41.034344
 30
0.0
  0
VERTEX
  5
13A
100
AcDbEntity
  8
0
370
     0
390
0
100
AcDbVertex
100
AcDb2dVertex
 10
1342.670776
 20
40.822529
 30
0.0
  0
VERTEX
  5
13B
100
AcDbEntity
  8
0
370
     0
390
0
100
AcDbVertex
100
AcDb2dVertex
 10
1342.468994
 20
40.691406
 30
0.0
  0
VERTEX
  5
13C
100
AcDbEntity
  8
0
370
     0
390
0
100
AcDbVertex
100
AcDb2dVertex
 10
1342.221924
 20
40.651058
 30
0.0
  0
VERTEX
  5
13D
100
AcDbEntity
  8
0
370
     0
390
0
100
AcDbVertex
100
AcDb2dVertex
 10
1341.914307
 20
40.716621
 30
0.0
  0
VERTEX
  5
13E
100
AcDbEntity
  8
0
370
     0
390
0
100
AcDbVertex
100
AcDb2dVertex
 10
1341.692383
 20
40.91835
 30
0.0
  0
VERTEX
  5
13F
100
AcDbEntity
  8
0
370
     0
390
0
100
AcDbVertex
100
AcDb2dVertex
 10
1341.556152
 20
41.246159
 30
0.0
  0
VERTEX
  5
140
100
AcDbEntity
  8
0
370
     0
390
0
100
AcDbVertex
100
AcDb2dVertex
 10
1341.510864
 20
41.710136
 30
0.0
  0
VERTEX
  5
141
100
AcDbEntity
  8
0
370
     0
390
0
100
AcDbVertex
100
AcDb2dVertex
 10
1341.556152
 20
42.164028
 30
0.0
  0
VERTEX
  5
142
100
AcDbEntity
  8
0
370
     0
390
0
100
AcDbVertex
100
AcDb2dVertex
 10
1341.697388
 20
42.491837
 30
0.0
  0
VERTEX
  5
143
100
AcDbEntity
  8
0
370
     0
390
0
100
AcDbVertex
100
AcDb2dVertex
 10
1341.924316
 20
42.693565
 30
0.0
  0
VERTEX
  5
144
100
AcDbEntity
  8
0
370
     0
390
0
100
AcDbVertex
100
AcDb2dVertex
 10
1342.221924
 20
42.764172
 30
0.0
  0
VERTEX
  5
145
100
AcDbEntity
  8
0
370
     0
390
0
100
AcDbVertex
100
AcDb2dVertex
 10
1342.484131
 20
42.718781
 30
0.0
  0
VERTEX
  5
146
100
AcDbEntity
  8
0
370
     0
390
0
100
AcDbVertex
100
AcDb2dVertex
 10
1342.680786
 20
42.602787
 30
0.0
  0
VERTEX
  5
147
100
AcDbEntity
  8
0
370
     0
390
0
100
AcDbVertex
100
AcDb2dVertex
 10
1342.812012
 20
42.411144
 30
0.0
  0
SEQEND
  5
148
100
AcDbEntity
  8
0
370
     0
390
0
  0
POLYLINE
  5
149
100
AcDbEntity
  8
0
370
    13
390
0
 62
     7
100
AcDb2dPolyline
 66
     1
 10
0.0
 20
0.0
 30
0.0
 70
     1
 71
    42
  0
VERTEX
  5
14A
100
AcDbEntity
  8
0
370
     0
390
0
100
AcDbVertex
100
AcDb2dVertex
 10
1345.787476
 20
40.701492
 30
0.0
  0
VERTEX
  5
14B
100
AcDbEntity
  8
0
370
     0
390
0
100
AcDbVertex
100
AcDb2dVertex
 10
1345.787476
 20
40.686359
 30
0.0
  0
VERTEX
  5
14C
100
AcDbEntity
  8
0
370
     0
390
0
100
AcDbVertex
100
AcDb2dVertex
 10
1345.812744
 20
40.514893
 30
0.0
  0
VERTEX
  5
14D
100
AcDbEntity
  8
0
370
     0
390
0
100
AcDbVertex
100
AcDb2dVertex
 10
1345.888306
 20
40.393852
 30
0.0
  0
VERTEX
  5
14E
100
AcDbEntity
  8
0
370
     0
390
0
100
AcDbVertex
100
AcDb2dVertex
 10
1346.206055
 20
40.298031
 30
0.0
  0
VERTEX
  5
14F
100
AcDbEntity
  8
0
370
     0
390
0
100
AcDbVertex
100
AcDb2dVertex
 10
1346.453125
 20
40.338379
 30
0.0
  0
VERTEX
  5
150
100
AcDbEntity
  8
0
370
     0
390
0
100
AcDbVertex
100
AcDb2dVertex
 10
1346.453125
 20
40.681316
 30
0.0
  0
VERTEX
  5
151
100
AcDbEntity
  8
0
370
     0
390
0
100
AcDbVertex
100
AcDb2dVertex
 10
1346.34729
 20
40.666187
 30
0.0
  0
VERTEX
  5
152
100
AcDbEntity
  8
0
370
     0
390
0
100
AcDbVertex
100
AcDb2dVertex
 10
1346.206055
 20
40.73175
 30
0.0
  0
VERTEX
  5
153
100
AcDbEntity
  8
0
370
     0
390
0
100
AcDbVertex
100
AcDb2dVertex
 10
1346.180786
 20
40.933479
 30
0.0
  0
VERTEX
  5
154
100
AcDbEntity
  8
0
370
     0
390
0
100
AcDbVertex
100
AcDb2dVertex
 10
1346.180786
 20
42.335495
 30
0.0
  0
VERTEX
  5
155
100
AcDbEntity
  8
0
370
     0
390
0
100
AcDbVertex
100
AcDb2dVertex
 10
1346.120361
 20
42.693565
 30
0.0
  0
VERTEX
  5
156
100
AcDbEntity
  8
0
370
     0
390
0
100
AcDbVertex
100
AcDb2dVertex
 10
1345.943848
 20
42.945728
 30
0.0
  0
VERTEX
  5
157
100
AcDbEntity
  8
0
370
     0
390
0
100
AcDbVertex
100
AcDb2dVertex
 10
1345.63623
 20
43.097023
 30
0.0
  0
VERTEX
  5
158
100
AcDbEntity
  8
0
370
     0
390
0
100
AcDbVertex
100
AcDb2dVertex
 10
1345.202393
 20
43.1525
 30
0.0
  0
VERTEX
  5
159
100
AcDbEntity
  8
0
370
     0
390
0
100
AcDbVertex
100
AcDb2dVertex
 10
1344.778809
 20
43.09198
 30
0.0
  0
VERTEX
  5
15A
100
AcDbEntity
  8
0
370
     0
390
0
100
AcDbVertex
100
AcDb2dVertex
 10
1344.466187
 20
42.920509
 30
0.0
  0
VERTEX
  5
15B
100
AcDbEntity
  8
0
370
     0
390
0
100
AcDbVertex
100
AcDb2dVertex
 10
1344.269409
 20
42.653221
 30
0.0
  0
VERTEX
  5
15C
100
AcDbEntity
  8
0
370
     0
390
0
100
AcDbVertex
100
AcDb2dVertex
 10
1344.203857
 20
42.300194
 30
0.0
  0
VERTEX
  5
15D
100
AcDbEntity
  8
0
370
     0
390
0
100
AcDbVertex
100
AcDb2dVertex
 10
1344.203857
 20
42.269936
 30
0.0
  0
VERTEX
  5
15E
100
AcDbEntity
  8
0
370
     0
390
0
100
AcDbVertex
100
AcDb2dVertex
 10
1344.602295
 20
42.269936
 30
0.0
  0
VERTEX
  5
15F
100
AcDbEntity
  8
0
370
     0
390
0
100
AcDbVertex
100
AcDb2dVertex
 10
1344.637573
 20
42.48175
 30
0.0
  0
VERTEX
  5
160
100
AcDbEntity
  8
0
370
     0
390
0
100
AcDbVertex
100
AcDb2dVertex
 10
1344.748535
 20
42.633049
 30
0.0
  0
VERTEX
  5
161
100
AcDbEntity
  8
0
370
     0
390
0
100
AcDbVertex
100
AcDb2dVertex
 10
1344.930176
 20
42.723824
 30
0.0
  0
VERTEX
  5
162
100
AcDbEntity
  8
0
370
     0
390
0
100
AcDbVertex
100
AcDb2dVertex
 10
1345.187378
 20
42.759129
 30
0.0
  0
VERTEX
  5
163
100
AcDbEntity
  8
0
370
     0
390
0
100
AcDbVertex
100
AcDb2dVertex
 10
1345.434448
 20
42.733913
 30
0.0
  0
VERTEX
  5
164
100
AcDbEntity
  8
0
370
     0
390
0
100
AcDbVertex
100
AcDb2dVertex
 10
1345.610962
 20
42.658264
 30
0.0
  0
VERTEX
  5
165
100
AcDbEntity
  8
0
370
     0
390
0
100
AcDbVertex
100
AcDb2dVertex
 10
1345.716919
 20
42.527138
 30
0.0
  0
VERTEX
  5
166
100
AcDbEntity
  8
0
370
     0
390
0
100
AcDbVertex
100
AcDb2dVertex
 10
1345.752197
 20
42.345585
 30
0.0
  0
VERTEX
  5
167
100
AcDbEntity
  8
0
370
     0
390
0
100
AcDbVertex
100
AcDb2dVertex
 10
1345.731934
 20
42.133766
 30
0.0
  0
VERTEX
  5
168
100
AcDbEntity
  8
0
370
     0
390
0
100
AcDbVertex
100
AcDb2dVertex
 10
1345.651245
 20
42.027859
 30
0.0
  0
VERTEX
  5
169
100
AcDbEntity
  8
0
370
     0
390
0
100
AcDbVertex
100
AcDb2dVertex
 10
1345.449585
 20
41.977428
 30
0.0
  0
VERTEX
  5
16A
100
AcDbEntity
  8
0
370
     0
390
0
100
AcDbVertex
100
AcDb2dVertex
 10
1345.071289
 20
41.93708
 30
0.0
  0
VERTEX
  5
16B
100
AcDbEntity
  8
0
370
     0
390
0
100
AcDbVertex
100
AcDb2dVertex
 10
1344.637573
 20
41.846302
 30
0.0
  0
VERTEX
  5
16C
100
AcDbEntity
  8
0
370
     0
390
0
100
AcDbVertex
100
AcDb2dVertex
 10
1344.329956
 20
41.684921
 30
0.0
  0
VERTEX
  5
16D
100
AcDbEntity
  8
0
370
     0
390
0
100
AcDbVertex
100
AcDb2dVertex
 10
1344.148438
 20
41.432758
 30
0.0
  0
VERTEX
  5
16E
100
AcDbEntity
  8
0
370
     0
390
0
100
AcDbVertex
100
AcDb2dVertex
 10
1344.092896
 20
41.059559
 30
0.0
  0
VERTEX
  5
16F
100
AcDbEntity
  8
0
370
     0
390
0
100
AcDbVertex
100
AcDb2dVertex
 10
1344.143433
 20
40.726707
 30
0.0
  0
VERTEX
  5
170
100
AcDbEntity
  8
0
370
     0
390
0
100
AcDbVertex
100
AcDb2dVertex
 10
1344.299683
 20
40.479588
 30
0.0
  0
VERTEX
  5
171
100
AcDbEntity
  8
0
370
     0
390
0
100
AcDbVertex
100
AcDb2dVertex
 10
1344.55188
 20
40.32325
 30
0.0
  0
VERTEX
  5
172
100
AcDbEntity
  8
0
370
     0
390
0
100
AcDbVertex
100
AcDb2dVertex
 10
1344.899902
 20
40.267773
 30
0.0
  0
VERTEX
  5
173
100
AcDbEntity
  8
0
370
     0
390
0
100
AcDbVertex
100
AcDb2dVertex
 10
1345.368896
 20
40.37368
 30
0.0
  0
SEQEND
  5
174
100
AcDbEntity
  8
0
370
     0
390
0
  0
POLYLINE
  5
175
100
AcDbEntity
  8
0
370
    13
390
0
 62
     7
100
AcDb2dPolyline
 66
     1
 10
0.0
 20
0.0
 30
0.0
 70
     1
 71
    14
  0
VERTEX
  5
176
100
AcDbEntity
  8
0
370
     0
390
0
100
AcDbVertex
100
AcDb2dVertex
 10
1345.737061
 20
41.296593
 30
0.0
  0
VERTEX
  5
177
100
AcDbEntity
  8
0
370
     0
390
0
100
AcDbVertex
100
AcDb2dVertex
 10
1345.676514
 20
41.034344
 30
0.0
  0
VERTEX
  5
178
100
AcDbEntity
  8
0
370
     0
390
0
100
AcDbVertex
100
AcDb2dVertex
 10
1345.515137
 20
40.832615
 30
0.0
  0
VERTEX
  5
179
100
AcDbEntity
  8
0
370
     0
390
0
100
AcDbVertex
100
AcDb2dVertex
 10
1345.273071
 20
40.701492
 30
0.0
  0
VERTEX
  5
17A
100
AcDbEntity
  8
0
370
     0
390
0
100
AcDbVertex
100
AcDb2dVertex
 10
1344.975464
 20
40.656101
 30
0.0
  0
VERTEX
  5
17B
100
AcDbEntity
  8
0
370
     0
390
0
100
AcDbVertex
100
AcDb2dVertex
 10
1344.783813
 20
40.681316
 30
0.0
  0
VERTEX
  5
17C
100
AcDbEntity
  8
0
370
     0
390
0
100
AcDbVertex
100
AcDb2dVertex
 10
1344.647705
 20
40.762009
 30
0.0
  0
VERTEX
  5
17D
100
AcDbEntity
  8
0
370
     0
390
0
100
AcDbVertex
100
AcDb2dVertex
 10
1344.562012
 20
40.903221
 30
0.0
  0
VERTEX
  5
17E
100
AcDbEntity
  8
0
370
     0
390
0
100
AcDbVertex
100
AcDb2dVertex
 10
1344.536743
 20
41.099907
 30
0.0
  0
VERTEX
  5
17F
100
AcDbEntity
  8
0
370
     0
390
0
100
AcDbVertex
100
AcDb2dVertex
 10
1344.556885
 20
41.276421
 30
0.0
  0
VERTEX
  5
180
100
AcDbEntity
  8
0
370
     0
390
0
100
AcDbVertex
100
AcDb2dVertex
 10
1344.637573
 20
41.4025
 30
0.0
  0
VERTEX
  5
181
100
AcDbEntity
  8
0
370
     0
390
0
100
AcDbVertex
100
AcDb2dVertex
 10
1344.960327
 20
41.543709
 30
0.0
  0
VERTEX
  5
182
100
AcDbEntity
  8
0
370
     0
390
0
100
AcDbVertex
100
AcDb2dVertex
 10
1345.368896
 20
41.604229
 30
0.0
  0
VERTEX
  5
183
100
AcDbEntity
  8
0
370
     0
390
0
100
AcDbVertex
100
AcDb2dVertex
 10
1345.737061
 20
41.725266
 30
0.0
  0
SEQEND
  5
184
100
AcDbEntity
  8
0
370
     0
390
0
  0
POLYLINE
  5
185
100
AcDbEntity
  8
0
370
    13
390
0
 62
     7
100
AcDb2dPolyline
 66
     1
 10
0.0
 20
0.0
 30
0.0
 70
     1
 71
    10
  0
VERTEX
  5
186
100
AcDbEntity
  8
0
370
     0
390
0
100
AcDbVertex
100
AcDb2dVertex
 10
1348.09729
 20
43.596302
 30
0.0
  0
VERTEX
  5
187
100
AcDbEntity
  8
0
370
     0
390
0
100
AcDbVertex
100
AcDb2dVertex
 10
1348.09729
 20
40.721664
 30
0.0
  0
VERTEX
  5
188
100
AcDbEntity
  8
0
370
     0
390
0
100
AcDbVertex
100
AcDb2dVertex
 10
1347.184448
 20
40.721664
 30
0.0
  0
VERTEX
  5
189
100
AcDbEntity
  8
0
370
     0
390
0
100
AcDbVertex
100
AcDb2dVertex
 10
1347.184448
 20
40.348465
 30
0.0
  0
VERTEX
  5
18A
100
AcDbEntity
  8
0
370
     0
390
0
100
AcDbVertex
100
AcDb2dVertex
 10
1349.448853
 20
40.348465
 30
0.0
  0
VERTEX
  5
18B
100
AcDbEntity
  8
0
370
     0
390
0
100
AcDbVertex
100
AcDb2dVertex
 10
1349.448853
 20
40.721664
 30
0.0
  0
VERTEX
  5
18C
100
AcDbEntity
  8
0
370
     0
390
0
100
AcDbVertex
100
AcDb2dVertex
 10
1348.541016
 20
40.721664
 30
0.0
  0
VERTEX
  5
18D
100
AcDbEntity
  8
0
370
     0
390
0
100
AcDbVertex
100
AcDb2dVertex
 10
1348.541016
 20
43.969501
 30
0.0
  0
VERTEX
  5
18E
100
AcDbEntity
  8
0
370
     0
390
0
100
AcDbVertex
100
AcDb2dVertex
 10
1347.401245
 20
43.969501
 30
0.0
  0
VERTEX
  5
18F
100
AcDbEntity
  8
0
370
     0
390
0
100
AcDbVertex
100
AcDb2dVertex
 10
1347.401245
 20
43.596302
 30
0.0
  0
SEQEND
  5
190
100
AcDbEntity
  8
0
370
     0
390
0
  0
POLYLINE
  5
191
100
AcDbEntity
  8
0
370
    13
390
0
 62
     7
100
AcDb2dPolyline
 66
     1
 10
0.0
 20
0.0
 30
0.0
 70
     1
 71
    27
  0
VERTEX
  5
192
100
AcDbEntity
  8
0
370
     0
390
0
100
AcDbVertex
100
AcDb2dVertex
 10
1350.639038
 20
41.573971
 30
0.0
  0
VERTEX
  5
193
100
AcDbEntity
  8
0
370
     0
390
0
100
AcDbVertex
100
AcDb2dVertex
 10
1352.414307
 20
41.573971
 30
0.0
  0
VERTEX
  5
194
100
AcDbEntity
  8
0
370
     0
390
0
100
AcDbVertex
100
AcDb2dVertex
 10
1352.419312
 20
41.780743
 30
0.0
  0
VERTEX
  5
195
100
AcDbEntity
  8
0
370
     0
390
0
100
AcDbVertex
100
AcDb2dVertex
 10
1352.338623
 20
42.360714
 30
0.0
  0
VERTEX
  5
196
100
AcDbEntity
  8
0
370
     0
390
0
100
AcDbVertex
100
AcDb2dVertex
 10
1352.116699
 20
42.79443
 30
0.0
  0
VERTEX
  5
197
100
AcDbEntity
  8
0
370
     0
390
0
100
AcDbVertex
100
AcDb2dVertex
 10
1351.763672
 20
43.056679
 30
0.0
  0
VERTEX
  5
198
100
AcDbEntity
  8
0
370
     0
390
0
100
AcDbVertex
100
AcDb2dVertex
 10
1351.294678
 20
43.1525
 30
0.0
  0
VERTEX
  5
199
100
AcDbEntity
  8
0
370
     0
390
0
100
AcDbVertex
100
AcDb2dVertex
 10
1350.835693
 20
43.051636
 30
0.0
  0
VERTEX
  5
19A
100
AcDbEntity
  8
0
370
     0
390
0
100
AcDbVertex
100
AcDb2dVertex
 10
1350.482666
 20
42.769215
 30
0.0
  0
VERTEX
  5
19B
100
AcDbEntity
  8
0
370
     0
390
0
100
AcDbVertex
100
AcDb2dVertex
 10
1350.255737
 20
42.31028
 30
0.0
  0
VERTEX
  5
19C
100
AcDbEntity
  8
0
370
     0
390
0
100
AcDbVertex
100
AcDb2dVertex
 10
1350.175049
 20
41.705093
 30
0.0
  0
VERTEX
  5
19D
100
AcDbEntity
  8
0
370
     0
390
0
100
AcDbVertex
100
AcDb2dVertex
 10
1350.250732
 20
41.084778
 30
0.0
  0
VERTEX
  5
19E
100
AcDbEntity
  8
0
370
     0
390
0
100
AcDbVertex
100
AcDb2dVertex
 10
1350.477661
 20
40.630886
 30
0.0
  0
VERTEX
  5
19F
100
AcDbEntity
  8
0
370
     0
390
0
100
AcDbVertex
100
AcDb2dVertex
 10
1350.825684
 20
40.348465
 30
0.0
  0
VERTEX
  5
1A0
100
AcDbEntity
  8
0
370
     0
390
0
100
AcDbVertex
100
AcDb2dVertex
 10
1351.279541
 20
40.252644
 30
0.0
  0
VERTEX
  5
1A1
100
AcDbEntity
  8
0
370
     0
390
0
100
AcDbVertex
100
AcDb2dVertex
 10
1351.672974
 20
40.318207
 30
0.0
  0
VERTEX
  5
1A2
100
AcDbEntity
  8
0
370
     0
390
0
100
AcDbVertex
100
AcDb2dVertex
 10
1351.995728
 20
40.489674
 30
0.0
  0
VERTEX
  5
1A3
100
AcDbEntity
  8
0
370
     0
390
0
100
AcDbVertex
100
AcDb2dVertex
 10
1352.232666
 20
40.762009
 30
0.0
  0
VERTEX
  5
1A4
100
AcDbEntity
  8
0
370
     0
390
0
100
AcDbVertex
100
AcDb2dVertex
 10
1352.368896
 20
41.125122
 30
0.0
  0
VERTEX
  5
1A5
100
AcDbEntity
  8
0
370
     0
390
0
100
AcDbVertex
100
AcDb2dVertex
 10
1351.930176
 20
41.125122
 30
0.0
  0
VERTEX
  5
1A6
100
AcDbEntity
  8
0
370
     0
390
0
100
AcDbVertex
100
AcDb2dVertex
 10
1351.839355
 20
40.923393
 30
0.0
  0
VERTEX
  5
1A7
100
AcDbEntity
  8
0
370
     0
390
0
100
AcDbVertex
100
AcDb2dVertex
 10
1351.708252
 20
40.772095
 30
0.0
  0
VERTEX
  5
1A8
100
AcDbEntity
  8
0
370
     0
390
0
100
AcDbVertex
100
AcDb2dVertex
 10
1351.334961
 20
40.651058
 30
0.0
  0
VERTEX
  5
1A9
100
AcDbEntity
  8
0
370
     0
390
0
100
AcDbVertex
100
AcDb2dVertex
 10
1351.047607
 20
40.706535
 30
0.0
  0
VERTEX
  5
1AA
100
AcDbEntity
  8
0
370
     0
390
0
100
AcDbVertex
100
AcDb2dVertex
 10
1350.830688
 20
40.883049
 30
0.0
  0
VERTEX
  5
1AB
100
AcDbEntity
  8
0
370
     0
390
0
100
AcDbVertex
100
AcDb2dVertex
 10
1350.689453
 20
41.170509
 30
0.0
  0
VERTEX
  5
1AC
100
AcDbEntity
  8
0
370
     0
390
0
100
AcDbVertex
100
AcDb2dVertex
 10
1350.639038
 20
41.558838
 30
0.0
  0
SEQEND
  5
1AD
100
AcDbEntity
  8
0
370
     0
390
0
  0
POLYLINE
  5
1AE
100
AcDbEntity
  8
0
370
    13
390
0
 62
     7
100
AcDb2dPolyline
 66
     1
 10
0.0
 20
0.0
 30
0.0
 70
     1
 71
     9
  0
VERTEX
  5
1AF
100
AcDbEntity
  8
0
370
     0
390
0
100
AcDbVertex
100
AcDb2dVertex
 10
1350.639038
 20
41.947166
 30
0.0
  0
VERTEX
  5
1B0
100
AcDbEntity
  8
0
370
     0
390
0
100
AcDbVertex
100
AcDb2dVertex
 10
1350.69458
 20
42.295151
 30
0.0
  0
VERTEX
  5
1B1
100
AcDbEntity
  8
0
370
     0
390
0
100
AcDbVertex
100
AcDb2dVertex
 10
1350.830688
 20
42.552357
 30
0.0
  0
VERTEX
  5
1B2
100
AcDbEntity
  8
0
370
     0
390
0
100
AcDbVertex
100
AcDb2dVertex
 10
1351.037476
 20
42.708694
 30
0.0
  0
VERTEX
  5
1B3
100
AcDbEntity
  8
0
370
     0
390
0
100
AcDbVertex
100
AcDb2dVertex
 10
1351.309814
 20
42.764172
 30
0.0
  0
VERTEX
  5
1B4
100
AcDbEntity
  8
0
370
     0
390
0
100
AcDbVertex
100
AcDb2dVertex
 10
1351.577148
 20
42.708694
 30
0.0
  0
VERTEX
  5
1B5
100
AcDbEntity
  8
0
370
     0
390
0
100
AcDbVertex
100
AcDb2dVertex
 10
1351.783813
 20
42.552357
 30
0.0
  0
VERTEX
  5
1B6
100
AcDbEntity
  8
0
370
     0
390
0
100
AcDbVertex
100
AcDb2dVertex
 10
1351.909912
 20
42.295151
 30
0.0
  0
VERTEX
  5
1B7
100
AcDbEntity
  8
0
370
     0
390
0
100
AcDbVertex
100
AcDb2dVertex
 10
1351.955322
 20
41.947166
 30
0.0
  0
SEQEND
  5
1B8
100
AcDbEntity
  8
0
370
     0
390
0
  0
POLYLINE
  5
1B9
100
AcDbEntity
  8
0
370
    13
390
0
 62
     7
100
AcDb2dPolyline
 66
     1
 10
0.0
 20
0.0
 30
0.0
 70
     1
 71
     4
  0
VERTEX
  5
1BA
100
AcDbEntity
  8
0
370
     0
390
0
100
AcDbVertex
100
AcDb2dVertex
 10
1353.982666
 20
40.348465
 30
0.0
  0
VERTEX
  5
1BB
100
AcDbEntity
  8
0
370
     0
390
0
100
AcDbVertex
100
AcDb2dVertex
 10
1354.678711
 20
40.348465
 30
0.0
  0
VERTEX
  5
1BC
100
AcDbEntity
  8
0
370
     0
390
0
100
AcDbVertex
100
AcDb2dVertex
 10
1354.678711
 20
41.099907
 30
0.0
  0
VERTEX
  5
1BD
100
AcDbEntity
  8
0
370
     0
390
0
100
AcDbVertex
100
AcDb2dVertex
 10
1353.982666
 20
41.099907
 30
0.0
  0
SEQEND
  5
1BE
100
AcDbEntity
  8
0
370
     0
390
0
  0
POLYLINE
  5
1BF
100
AcDbEntity
  8
0
370
    13
390
0
 62
     7
100
AcDb2dPolyline
 66
     1
 10
0.0
 20
0.0
 30
0.0
 70
     1
 71
     4
  0
VERTEX
  5
1C0
100
AcDbEntity
  8
0
370
     0
390
0
100
AcDbVertex
100
AcDb2dVertex
 10
1353.982666
 20
42.305237
 30
0.0
  0
VERTEX
  5
1C1
100
AcDbEntity
  8
0
370
     0
390
0
100
AcDbVertex
100
AcDb2dVertex
 10
1354.678711
 20
42.305237
 30
0.0
  0
VERTEX
  5
1C2
100
AcDbEntity
  8
0
370
     0
390
0
100
AcDbVertex
100
AcDb2dVertex
 10
1354.678711
 20
43.056679
 30
0.0
  0
VERTEX
  5
1C3
100
AcDbEntity
  8
0
370
     0
390
0
100
AcDbVertex
100
AcDb2dVertex
 10
1353.982666
 20
43.056679
 30
0.0
  0
SEQEND
  5
1C4
100
AcDbEntity
  8
0
370
     0
390
0
  0
POLYLINE
  5
1C5
100
AcDbEntity
  8
0
370
    13
390
0
 62
     7
100
AcDb2dPolyline
 66
     1
 10
0.0
 20
0.0
 30
0.0
 70
     1
 71
    10
  0
VERTEX
  5
1C6
100
AcDbEntity
  8
0
370
     0
390
0
100
AcDbVertex
100
AcDb2dVertex
 10
1363.348022
 20
40.348465
 30
0.0
  0
VERTEX
  5
1C7
100
AcDbEntity
  8
0
370
     0
390
0
100
AcDbVertex
100
AcDb2dVertex
 10
1363.806885
 20
40.348465
 30
0.0
  0
VERTEX
  5
1C8
100
AcDbEntity
  8
0
370
     0
390
0
100
AcDbVertex
100
AcDb2dVertex
 10
1363.806885
 20
43.87368
 30
0.0
  0
VERTEX
  5
1C9
100
AcDbEntity
  8
0
370
     0
390
0
100
AcDbVertex
100
AcDb2dVertex
 10
1363.463989
 20
43.87368
 30
0.0
  0
VERTEX
  5
1CA
100
AcDbEntity
  8
0
370
     0
390
0
100
AcDbVertex
100
AcDb2dVertex
 10
1363.373169
 20
43.566044
 30
0.0
  0
VERTEX
  5
1CB
100
AcDbEntity
  8
0
370
     0
390
0
100
AcDbVertex
100
AcDb2dVertex
 10
1363.19165
 20
43.359272
 30
0.0
  0
VERTEX
  5
1CC
100
AcDbEntity
  8
0
370
     0
390
0
100
AcDbVertex
100
AcDb2dVertex
 10
1362.914307
 20
43.238235
 30
0.0
  0
VERTEX
  5
1CD
100
AcDbEntity
  8
0
370
     0
390
0
100
AcDbVertex
100
AcDb2dVertex
 10
1362.531006
 20
43.197887
 30
0.0
  0
VERTEX
  5
1CE
100
AcDbEntity
  8
0
370
     0
390
0
100
AcDbVertex
100
AcDb2dVertex
 10
1362.531006
 20
42.839821
 30
0.0
  0
VERTEX
  5
1CF
100
AcDbEntity
  8
0
370
     0
390
0
100
AcDbVertex
100
AcDb2dVertex
 10
1363.348022
 20
42.839821
 30
0.0
  0
SEQEND
  5
1D0
100
AcDbEntity
  8
0
370
     0
390
0
  0
POLYLINE
  5
1D1
100
AcDbEntity
  8
0
370
    13
390
0
 62
     7
100
AcDb2dPolyline
 66
     1
 10
0.0
 20
0.0
 30
0.0
 70
     1
 71
     4
  0
VERTEX
  5
1D2
100
AcDbEntity
  8
0
370
     0
390
0
100
AcDbVertex
100
AcDb2dVertex
 10
1366.126831
 20
40.348465
 30
0.0
  0
VERTEX
  5
1D3
100
AcDbEntity
  8
0
370
     0
390
0
100
AcDbVertex
100
AcDb2dVertex
 10
1366.822754
 20
40.348465
 30
0.0
  0
VERTEX
  5
1D4
100
AcDbEntity
  8
0
370
     0
390
0
100
AcDbVertex
100
AcDb2dVertex
 10
1366.822754
 20
41.099907
 30
0.0
  0
VERTEX
  5
1D5
100
AcDbEntity
  8
0
370
     0
390
0
100
AcDbVertex
100
AcDb2dVertex
 10
1366.126831
 20
41.099907
 30
0.0
  0
SEQEND
  5
1D6
100
AcDbEntity
  8
0
370
     0
390
0
  0
POLYLINE
  5
1D7
100
AcDbEntity
  8
0
370
    13
390
0
 62
     7
100
AcDb2dPolyline
 66
     1
 10
0.0
 20
0.0
 30
0.0
 70
     1
 71
     4
  0
VERTEX
  5
1D8
100
AcDbEntity
  8
0
370
     0
390
0
100
AcDbVertex
100
AcDb2dVertex
 10
1366.126831
 20
42.305237
 30
0.0
  0
VERTEX
  5
1D9
100
AcDbEntity
  8
0
370
     0
390
0
100
AcDbVertex
100
AcDb2dVertex
 10
1366.822754
 20
42.305237
 30
0.0
  0
VERTEX
  5
1DA
100
AcDbEntity
  8
0
370
     0
390
0
100
AcDbVertex
100
AcDb2dVertex
 10
1366.822754
 20
43.056679
 30
0.0
  0
VERTEX
  5
1DB
100
AcDbEntity
  8
0
370
     0
390
0
100
AcDbVertex
100
AcDb2dVertex
 10
1366.126831
 20
43.056679
 30
0.0
  0
SEQEND
  5
1DC
100
AcDbEntity
  8
0
370
     0
390
0
  0
POLYLINE
  5
1DD
100
AcDbEntity
  8
0
370
    13
390
0
 62
     7
100
AcDb2dPolyline
 66
     1
 10
0.0
 20
0.0
 30
0.0
 70
     1
 71
    10
  0
VERTEX
  5
1DE
100
AcDbEntity
  8
0
370
     0
390
0
100
AcDbVertex
100
AcDb2dVertex
 10
1369.420044
 20
40.348465
 30
0.0
  0
VERTEX
  5
1DF
100
AcDbEntity
  8
0
370
     0
390
0
100
AcDbVertex
100
AcDb2dVertex
 10
1369.878906
 20
40.348465
 30
0.0
  0
VERTEX
  5
1E0
100
AcDbEntity
  8
0
370
     0
390
0
100
AcDbVertex
100
AcDb2dVertex
 10
1369.878906
 20
43.87368
 30
0.0
  0
VERTEX
  5
1E1
100
AcDbEntity
  8
0
370
     0
390
0
100
AcDbVertex
100
AcDb2dVertex
 10
1369.536011
 20
43.87368
 30
0.0
  0
VERTEX
  5
1E2
100
AcDbEntity
  8
0
370
     0
390
0
100
AcDbVertex
100
AcDb2dVertex
 10
1369.44519
 20
43.566044
 30
0.0
  0
VERTEX
  5
1E3
100
AcDbEntity
  8
0
370
     0
390
0
100
AcDbVertex
100
AcDb2dVertex
 10
1369.263672
 20
43.359272
 30
0.0
  0
VERTEX
  5
1E4
100
AcDbEntity
  8
0
370
     0
390
0
100
AcDbVertex
100
AcDb2dVertex
 10
1368.986328
 20
43.238235
 30
0.0
  0
VERTEX
  5
1E5
100
AcDbEntity
  8
0
370
     0
390
0
100
AcDbVertex
100
AcDb2dVertex
 10
1368.603027
 20
43.197887
 30
0.0
  0
VERTEX
  5
1E6
100
AcDbEntity
  8
0
370
     0
390
0
100
AcDbVertex
100
AcDb2dVertex
 10
1368.603027
 20
42.839821
 30
0.0
  0
VERTEX
  5
1E7
100
AcDbEntity
  8
0
370
     0
390
0
100
AcDbVertex
100
AcDb2dVertex
 10
1369.420044
 20
42.839821
 30
0.0
  0
SEQEND
  5
1E8
100
AcDbEntity
  8
0
370
     0
390
0
  0
LINE
  5
1E9
100
AcDbEntity
  8
0
370
    35
390
0
 62
     7
100
AcDbLine
 10
1020.132568
 20
508.251923
 30
0.0
 11
1655.132568
 21
508.251923
 31
0.0
210
0.0
220
0.0
230
1.0
  0
LINE
  5
1EA
100
AcDbEntity
  8
0
370
    35
390
0
 62
     7
100
AcDbLine
 10
1020.132568
 20
58.251923
 30
0.0
 11
1020.132568
 21
508.251923
 31
0.0
210
0.0
220
0.0
230
1.0
  0
LINE
  5
1EB
100
AcDbEntity
  8
0
370
    35
390
0
 62
     7
100
AcDbLine
 10
1655.132568
 20
58.251923
 30
0.0
 11
1020.132568
 21
58.251923
 31
0.0
210
0.0
220
0.0
230
1.0
  0
LINE
  5
1EC
100
AcDbEntity
  8
0
370
    35
390
0
 62
     7
100
AcDbLine
 10
1655.132568
 20
508.251923
 30
0.0
 11
1655.132568
 21
58.251923
 31
0.0
210
0.0
220
0.0
230
1.0
  0
LINE
  5
1ED
100
AcDbEntity
  8
0
370
    35
390
0
 62
     7
100
AcDbLine
 10
1108.115723
 20
467.595032
 30
0.0
 11
1028.115967
 21
502.546051
 31
0.0
210
0.0
220
0.0
230
1.0
  0
LINE
  5
1EE
100
AcDbEntity
  8
0
370
    35
390
0
 62
     7
 48
0.253375
100
AcDbLine
 10
1118.250732
 20
467.595032
 30
0.0
 11
1108.115723
 21
467.595032
 31
0.0
210
0.0
220
0.0
230
1.0
  0
LINE
  5
1EF
100
AcDbEntity
  8
0
370
    35
390
0
 62
     7
100
AcDbLine
 10
1118.250732
 20
387.595032
 30
0.0
 11
1118.250732
 21
467.595032
 31
0.0
210
0.0
220
0.0
230
1.0
  0
LINE
  5
1F0
100
AcDbEntity
  8
0
370
    35
390
0
 62
     7
 48
0.253375
100
AcDbLine
 10
1108.115723
 20
387.595032
 30
0.0
 11
1118.250732
 21
387.595032
 31
0.0
210
0.0
220
0.0
230
1.0
  0
LINE
  5
1F1
100
AcDbEntity
  8
0
370
    35
390
0
 62
     7
100
AcDbLine
 10
1028.115967
 20
452.546051
 30
0.0
 11
1108.115723
 21
387.595032
 31
0.0
210
0.0
220
0.0
230
1.0
  0
LINE
  5
1F2
100
AcDbEntity
  8
0
370
    35
390
0
 62
     7
100
AcDbLine
 10
1028.115967
 20
502.546051
 30
0.0
 11
1028.115967
 21
452.546051
 31
0.0
210
0.0
220
0.0
230
1.0
  0
LINE
  5
1F3
100
AcDbEntity
  8
0
370
    35
390
0
 62
     7
100
AcDbLine
 10
1108.841919
 20
376.314178
 30
0.0
 11
1028.842285
 21
411.265167
 31
0.0
210
0.0
220
0.0
230
1.0
  0
LINE
  5
1F4
100
AcDbEntity
  8
0
370
    35
390
0
 62
     7
 48
0.253375
100
AcDbLine
 10
1118.976929
 20
376.314178
 30
0.0
 11
1108.841919
 21
376.314178
 31
0.0
210
0.0
220
0.0
230
1.0
  0
LINE
  5
1F5
100
AcDbEntity
  8
0
370
    35
390
0
 62
     7
100
AcDbLine
 10
1118.976929
 20
296.314178
 30
0.0
 11
1118.976929
 21
376.314148
 31
0.0
210
0.0
220
0.0
230
1.0
  0
LINE
  5
1F6
100
AcDbEntity
  8
0
370
    35
390
0
 62
     7
 48
0.253375
100
AcDbLine
 10
1108.841919
 20
296.314178
 30
0.0
 11
1118.976929
 21
296.314178
 31
0.0
210
0.0
220
0.0
230
1.0
  0
LINE
  5
1F7
100
AcDbEntity
  8
0
370
    35
390
0
 62
     7
100
AcDbLine
 10
1028.842285
 20
361.265167
 30
0.0
 11
1108.841919
 21
296.314178
 31
0.0
210
0.0
220
0.0
230
1.0
  0
LINE
  5
1F8
100
AcDbEntity
  8
0
370
    35
390
0
 62
     7
100
AcDbLine
 10
1028.842285
 20
411.265167
 30
0.0
 11
1028.842285
 21
361.265167
 31
0.0
210
0.0
220
0.0
230
1.0
  0
LINE
  5
1F9
100
AcDbEntity
  8
0
370
    35
390
0
 62
     7
100
AcDbLine
 10
1201.63501
 20
466.516907
 30
0.0
 11
1121.635254
 21
501.467926
 31
0.0
210
0.0
220
0.0
230
1.0
  0
LINE
  5
1FA
100
AcDbEntity
  8
0
370
    35
390
0
 62
     7
 48
0.253375
100
AcDbLine
 10
1211.77002
 20
466.516907
 30
0.0
 11
1201.63501
 21
466.516907
 31
0.0
210
0.0
220
0.0
230
1.0
  0
LINE
  5
1FB
100
AcDbEntity
  8
0
370
    35
390
0
 62
     7
100
AcDbLine
 10
1211.77002
 20
386.516907
 30
0.0
 11
1211.77002
 21
466.516907
 31
0.0
210
0.0
220
0.0
230
1.0
  0
LINE
  5
1FC
100
AcDbEntity
  8
0
370
    35
390
0
 62
     7
 48
0.253375
100
AcDbLine
 10
1201.63501
 20
386.516907
 30
0.0
 11
1211.77002
 21
386.516907
 31
0.0
210
0.0
220
0.0
230
1.0
  0
LINE
  5
1FD
100
AcDbEntity
  8
0
370
    35
390
0
 62
     7
100
AcDbLine
 10
1121.635254
 20
451.467926
 30
0.0
 11
1201.63501
 21
386.516907
 31
0.0
210
0.0
220
0.0
230
1.0
  0
LINE
  5
1FE
100
AcDbEntity
  8
0
370
    35
390
0
 62
     7
100
AcDbLine
 10
1121.635254
 20
501.467926
 30
0.0
 11
1121.635254
 21
451.467926
 31
0.0
210
0.0
220
0.0
230
1.0
  0
LINE
  5
1FF
100
AcDbEntity
  8
0
370
    35
390
0
 62
     7
100
AcDbLine
 10
1492.932617
 20
410.960327
 30
0.0
 11
1412.932983
 21
445.911316
 31
0.0
210
0.0
220
0.0
230
1.0
  0
LINE
  5
200
100
AcDbEntity
  8
0
370
    35
390
0
 62
     7
 48
0.253375
100
AcDbLine
 10
1503.067627
 20
410.960327
 30
0.0
 11
1492.932617
 21
410.960327
 31
0.0
210
0.0
220
0.0
230
1.0
  0
LINE
  5
201
100
AcDbEntity
  8
0
370
    35
390
0
 62
     7
100
AcDbLine
 10
1503.067627
 20
330.960327
 30
0.0
 11
1503.067627
 21
410.960327
 31
0.0
210
0.0
220
0.0
230
1.0
  0
LINE
  5
202
100
AcDbEntity
  8
0
370
    35
390
0
 62
     7
 48
0.253375
100
AcDbLine
 10
1492.932617
 20
330.960327
 30
0.0
 11
1503.067627
 21
330.960327
 31
0.0
210
0.0
220
0.0
230
1.0
  0
LINE
  5
203
100
AcDbEntity
  8
0
370
    35
390
0
 62
     7
100
AcDbLine
 10
1412.932983
 20
395.911316
 30
0.0
 11
1492.932617
 21
330.960327
 31
0.0
210
0.0
220
0.0
230
1.0
  0
LINE
  5
204
100
AcDbEntity
  8
0
370
    35
390
0
 62
     7
100
AcDbLine
 10
1412.932983
 20
445.911316
 30
0.0
 11
1412.932983
 21
395.911316
 31
0.0
210
0.0
220
0.0
230
1.0
  0
LINE
  5
205
100
AcDbEntity
  8
0
370
    35
390
0
 62
     7
100
AcDbLine
 10
1295.67688
 20
468.540833
 30
0.0
 11
1215.677124
 21
503.491821
 31
0.0
210
0.0
220
0.0
230
1.0
  0
LINE
  5
206
100
AcDbEntity
  8
0
370
    35
390
0
 62
     7
 48
0.253375
100
AcDbLine
 10
1305.81189
 20
468.540833
 30
0.0
 11
1295.67688
 21
468.540833
 31
0.0
210
0.0
220
0.0
230
1.0
  0
LINE
  5
207
100
AcDbEntity
  8
0
370
    35
390
0
 62
     7
100
AcDbLine
 10
1305.81189
 20
388.540833
 30
0.0
 11
1305.81189
 21
468.540833
 31
0.0
210
0.0
220
0.0
230
1.0
  0
LINE
  5
208
100
AcDbEntity
  8
0
370
    35
390
0
 62
     7
 48
0.253375
100
AcDbLine
 10
1295.67688
 20
388.540833
 30
0.0
 11
1305.81189
 21
388.540833
 31
0.0
210
0.0
220
0.0
230
1.0
  0
LINE
  5
209
100
AcDbEntity
  8
0
370
    35
390
0
 62
     7
100
AcDbLine
 10
1215.677124
 20
453.491821
 30
0.0
 11
1295.67688
 21
388.540833
 31
0.0
210
0.0
220
0.0
230
1.0
  0
LINE
  5
20A
100
AcDbEntity
  8
0
370
    35
390
0
 62
     7
100
AcDbLine
 10
1215.677124
 20
503.491821
 30
0.0
 11
1215.677124
 21
453.491821
 31
0.0
210
0.0
220
0.0
230
1.0
  0
LINE
  5
20B
100
AcDbEntity
  8
0
370
    35
390
0
 62
     7
100
AcDbLine
 10
1544.990723
 20
463.99408
 30
0.0
 11
1464.991089
 21
498.945068
 31
0.0
210
0.0
220
0.0
230
1.0
  0
LINE
  5
20C
100
AcDbEntity
  8
0
370
    35
390
0
 62
     7
 48
0.253375
100
AcDbLine
 10
1555.125732
 20
463.99408
 30
0.0
 11
1544.990723
 21
463.99408
 31
0.0
210
0.0
220
0.0
230
1.0
  0
LINE
  5
20D
100
AcDbEntity
  8
0
370
    35
390
0
 62
     7
100
AcDbLine
 10
1555.125732
 20
383.994049
 30
0.0
 11
1555.125732
 21
463.99408
 31
0.0
210
0.0
220
0.0
230
1.0
  0
LINE
  5
20E
100
AcDbEntity
  8
0
370
    35
390
0
 62
     7
 48
0.253375
100
AcDbLine
 10
1544.990723
 20
383.99408
 30
0.0
 11
1555.125732
 21
383.99408
 31
0.0
210
0.0
220
0.0
230
1.0
  0
LINE
  5
20F
100
AcDbEntity
  8
0
370
    35
390
0
 62
     7
100
AcDbLine
 10
1464.991089
 20
448.945068
 30
0.0
 11
1544.990723
 21
383.99408
 31
0.0
210
0.0
220
0.0
230
1.0
  0
LINE
  5
210
100
AcDbEntity
  8
0
370
    35
390
0
 62
     7
100
AcDbLine
 10
1464.991089
 20
498.945068
 30
0.0
 11
1464.991089
 21
448.945068
 31
0.0
210
0.0
220
0.0
230
1.0
  0
LINE
  5
211
100
AcDbEntity
  8
0
370
    35
390
0
 62
     7
100
AcDbLine
 10
1394.47522
 20
467.233887
 30
0.0
 11
1314.475586
 21
502.184875
 31
0.0
210
0.0
220
0.0
230
1.0
  0
LINE
  5
212
100
AcDbEntity
  8
0
370
    35
390
0
 62
     7
 48
0.253375
100
AcDbLine
 10
1404.610229
 20
467.233887
 30
0.0
 11
1394.47522
 21
467.233887
 31
0.0
210
0.0
220
0.0
230
1.0
  0
LINE
  5
213
100
AcDbEntity
  8
0
370
    35
390
0
 62
     7
100
AcDbLine
 10
1404.610229
 20
388.05545
 30
0.0
 11
1404.610229
 21
467.233887
 31
0.0
210
0.0
220
0.0
230
1.0
  0
LINE
  5
214
100
AcDbEntity
  8
0
370
    35
390
0
 62
     7
 48
0.253375
100
AcDbLine
 10
1394.47522
 20
388.05545
 30
0.0
 11
1404.610229
 21
388.05545
 31
0.0
210
0.0
220
0.0
230
1.0
  0
LINE
  5
215
100
AcDbEntity
  8
0
370
    35
390
0
 62
     7
100
AcDbLine
 10
1314.475586
 20
452.184875
 30
0.0
 11
1394.47522
 21
388.05545
 31
0.0
210
0.0
220
0.0
230
1.0
  0
LINE
  5
216
100
AcDbEntity
  8
0
370
    35
390
0
 62
     7
100
AcDbLine
 10
1314.475586
 20
502.184875
 30
0.0
 11
1314.475586
 21
452.184875
 31
0.0
210
0.0
220
0.0
230
1.0
  0
LINE
  5
217
100
AcDbEntity
  8
0
370
    35
390
0
 62
     7
100
AcDbLine
 10
1639.40625
 20
471.248779
 30
0.0
 11
1559.406616
 21
506.199768
 31
0.0
210
0.0
220
0.0
230
1.0
  0
LINE
  5
218
100
AcDbEntity
  8
0
370
    35
390
0
 62
     7
 48
0.253375
100
AcDbLine
 10
1649.54126
 20
471.248779
 30
0.0
 11
1639.40625
 21
471.248779
 31
0.0
210
0.0
220
0.0
230
1.0
  0
LINE
  5
219
100
AcDbEntity
  8
0
370
    35
390
0
 62
     7
100
AcDbLine
 10
1649.54126
 20
385.159119
 30
0.0
 11
1649.54126
 21
471.248779
 31
0.0
210
0.0
220
0.0
230
1.0
  0
LINE
  5
21A
100
AcDbEntity
  8
0
370
    35
390
0
 62
     7
 48
0.253375
100
AcDbLine
 10
1639.40625
 20
385.159119
 30
0.0
 11
1649.54126
 21
385.159119
 31
0.0
210
0.0
220
0.0
230
1.0
  0
LINE
  5
21B
100
AcDbEntity
  8
0
370
    35
390
0
 62
     7
100
AcDbLine
 10
1559.406616
 20
456.199768
 30
0.0
 11
1639.40625
 21
385.159119
 31
0.0
210
0.0
220
0.0
230
1.0
  0
LINE
  5
21C
100
AcDbEntity
  8
0
370
    35
390
0
 62
     7
100
AcDbLine
 10
1559.406616
 20
506.199768
 30
0.0
 11
1559.406616
 21
456.199768
 31
0.0
210
0.0
220
0.0
230
1.0
  0
LINE
  5
21D
100
AcDbEntity
  8
0
370
    35
390
0
 62
     7
100
AcDbLine
 10
1105.178833
 20
185.488464
 30
0.0
 11
1105.178833
 21
105.488449
 31
0.0
210
0.0
220
0.0
230
1.0
  0
LINE
  5
21E
100
AcDbEntity
  8
0
370
    35
390
0
 62
     7
100
AcDbLine
 10
1025.179077
 20
170.439453
 30
0.0
 11
1105.178833
 21
105.488449
 31
0.0
210
0.0
220
0.0
230
1.0
  0
LINE
  5
21F
100
AcDbEntity
  8
0
370
    35
390
0
 62
     7
100
AcDbLine
 10
1025.179077
 20
220.439453
 30
0.0
 11
1025.179077
 21
170.439453
 31
0.0
210
0.0
220
0.0
230
1.0
  0
LINE
  5
220
100
AcDbEntity
  8
0
370
    35
390
0
 62
     7
100
AcDbLine
 10
1105.178833
 20
185.488464
 30
0.0
 11
1025.179077
 21
220.439453
 31
0.0
210
0.0
220
0.0
230
1.0
  0
LINE
  5
221
100
AcDbEntity
  8
0
370
    35
390
0
 62
     7
100
AcDbLine
 10
1024.026367
 20
313.788239
 30
0.0
 11
1024.026367
 21
263.788239
 31
0.0
210
0.0
220
0.0
230
1.0
  0
LINE
  5
222
100
AcDbEntity
  8
0
370
    35
390
0
 62
     7
100
AcDbLine
 10
1104.026001
 20
278.837219
 30
0.0
 11
1024.026367
 21
313.788239
 31
0.0
210
0.0
220
0.0
230
1.0
  0
LINE
  5
223
100
AcDbEntity
  8
0
370
    35
390
0
 62
     7
100
AcDbLine
 10
1104.026001
 20
278.837219
 30
0.0
 11
1104.026001
 21
198.837219
 31
0.0
210
0.0
220
0.0
230
1.0
  0
LINE
  5
224
100
AcDbEntity
  8
0
370
    35
390
0
 62
     7
100
AcDbLine
 10
1024.026367
 20
263.788239
 30
0.0
 11
1104.026001
 21
198.837219
 31
0.0
210
0.0
220
0.0
230
1.0
  0
LINE
  5
225
100
AcDbEntity
  8
0
370
    35
390
0
 62
     7
100
AcDbLine
 10
1112.187012
 20
284.219574
 30
0.0
 11
1112.187012
 21
234.219559
 31
0.0
210
0.0
220
0.0
230
1.0
  0
LINE
  5
226
100
AcDbEntity
  8
0
370
    35
390
0
 62
     7
100
AcDbLine
 10
1192.186768
 20
249.268555
 30
0.0
 11
1112.187012
 21
284.219574
 31
0.0
210
0.0
220
0.0
230
1.0
  0
LINE
  5
227
100
AcDbEntity
  8
0
370
    35
390
0
 62
     7
100
AcDbLine
 10
1192.186768
 20
249.268555
 30
0.0
 11
1192.186768
 21
169.268555
 31
0.0
210
0.0
220
0.0
230
1.0
  0
LINE
  5
228
100
AcDbEntity
  8
0
370
    35
390
0
 62
     7
100
AcDbLine
 10
1112.187012
 20
234.219559
 30
0.0
 11
1192.186768
 21
169.268555
 31
0.0
210
0.0
220
0.0
230
1.0
  0
LINE
  5
229
100
AcDbEntity
  8
0
370
    35
390
0
 62
     7
100
AcDbLine
 10
1114.622803
 20
184.176331
 30
0.0
 11
1114.622803
 21
134.176331
 31
0.0
210
0.0
220
0.0
230
1.0
  0
LINE
  5
22A
100
AcDbEntity
  8
0
370
    35
390
0
 62
     7
100
AcDbLine
 10
1194.622437
 20
149.225342
 30
0.0
 11
1114.622803
 21
184.176331
 31
0.0
210
0.0
220
0.0
230
1.0
  0
LINE
  5
22B
100
AcDbEntity
  8
0
370
    35
390
0
 62
     7
100
AcDbLine
 10
1194.622437
 20
149.225342
 30
0.0
 11
1194.622437
 21
69.225342
 31
0.0
210
0.0
220
0.0
230
1.0
  0
LINE
  5
22C
100
AcDbEntity
  8
0
370
    35
390
0
 62
     7
100
AcDbLine
 10
1114.622803
 20
134.176331
 30
0.0
 11
1194.622437
 21
69.225342
 31
0.0
210
0.0
220
0.0
230
1.0
  0
LINE
  5
22D
100
AcDbEntity
  8
0
370
    35
390
0
 62
     7
100
AcDbLine
 10
1200.37854
 20
319.073486
 30
0.0
 11
1650.37854
 21
319.073486
 31
0.0
210
0.0
220
0.0
230
1.0
  0
LINE
  5
22E
100
AcDbEntity
  8
0
370
    35
390
0
 62
     7
100
AcDbLine
 10
1650.37854
 20
60.605209
 30
0.0
 11
1650.37854
 21
319.073486
 31
0.0
210
0.0
220
0.0
230
1.0
  0
LINE
  5
22F
100
AcDbEntity
  8
0
370
    35
390
0
 62
     7
100
AcDbLine
 10
1650.37854
 20
60.605209
 30
0.0
 11
1200.37854
 21
60.605209
 31
0.0
210
0.0
220
0.0
230
1.0
  0
LINE
  5
230
100
AcDbEntity
  8
0
370
    35
390
0
 62
     7
100
AcDbLine
 10
1200.37854
 20
319.073486
 30
0.0
 11
1200.37854
 21
60.605209
 31
0.0
210
0.0
220
0.0
230
1.0
  0
CIRCLE
  5
231
100
AcDbEntity
  8
0
370
    35
390
0
 62
     7
100
AcDbCircle
 10
1101.115723
 20
399.718719
 30
0.0
 40
1.5
210
0.0
220
0.0
230
1.0
  0
CIRCLE
  5
232
100
AcDbEntity
  8
0
370
    35
390
0
 62
     7
100
AcDbCircle
 10
1033.115967
 20
454.927032
 30
0.0
 40
1.5
210
0.0
220
0.0
230
1.0
  0
CIRCLE
  5
233
100
AcDbEntity
  8
0
370
    35
390
0
 62
     7
100
AcDbCircle
 10
1113.250732
 20
397.595032
 30
0.0
 40
1.75
210
0.0
220
0.0
230
1.0
  0
CIRCLE
  5
234
100
AcDbEntity
  8
0
370
    35
390
0
 62
     7
100
AcDbCircle
 10
1113.250732
 20
457.595032
 30
0.0
 40
1.75
210
0.0
220
0.0
230
1.0
  0
CIRCLE
  5
235
100
AcDbEntity
  8
0
370
    35
390
0
 62
     7
100
AcDbCircle
 10
1033.115967
 20
494.905243
 30
0.0
 40
1.5
210
0.0
220
0.0
230
1.0
  0
CIRCLE
  5
236
100
AcDbEntity
  8
0
370
    35
390
0
 62
     7
100
AcDbCircle
 10
1101.115723
 20
465.196899
 30
0.0
 40
1.5
210
0.0
220
0.0
230
1.0
  0
CIRCLE
  5
237
100
AcDbEntity
  8
0
370
    35
390
0
 62
     7
100
AcDbCircle
 10
1101.841919
 20
308.437836
 30
0.0
 40
1.5
210
0.0
220
0.0
230
1.0
  0
CIRCLE
  5
238
100
AcDbEntity
  8
0
370
    35
390
0
 62
     7
100
AcDbCircle
 10
1033.842285
 20
363.646149
 30
0.0
 40
1.5
210
0.0
220
0.0
230
1.0
  0
CIRCLE
  5
239
100
AcDbEntity
  8
0
370
    35
390
0
 62
     7
100
AcDbCircle
 10
1113.976929
 20
306.314178
 30
0.0
 40
1.75
210
0.0
220
0.0
230
1.0
  0
CIRCLE
  5
23A
100
AcDbEntity
  8
0
370
    35
390
0
 62
     7
100
AcDbCircle
 10
1113.976929
 20
366.314178
 30
0.0
 40
1.75
210
0.0
220
0.0
230
1.0
  0
CIRCLE
  5
23B
100
AcDbEntity
  8
0
370
    35
390
0
 62
     7
100
AcDbCircle
 10
1033.842285
 20
403.624359
 30
0.0
 40
1.5
210
0.0
220
0.0
230
1.0
  0
CIRCLE
  5
23C
100
AcDbEntity
  8
0
370
    35
390
0
 62
     7
100
AcDbCircle
 10
1101.841919
 20
373.916046
 30
0.0
 40
1.5
210
0.0
220
0.0
230
1.0
  0
CIRCLE
  5
23D
100
AcDbEntity
  8
0
370
    35
390
0
 62
     7
100
AcDbCircle
 10
1194.63501
 20
398.640594
 30
0.0
 40
1.5
210
0.0
220
0.0
230
1.0
  0
CIRCLE
  5
23E
100
AcDbEntity
  8
0
370
    35
390
0
 62
     7
100
AcDbCircle
 10
1126.635254
 20
453.848907
 30
0.0
 40
1.5
210
0.0
220
0.0
230
1.0
  0
CIRCLE
  5
23F
100
AcDbEntity
  8
0
370
    35
390
0
 62
     7
100
AcDbCircle
 10
1206.77002
 20
396.516907
 30
0.0
 40
1.75
210
0.0
220
0.0
230
1.0
  0
CIRCLE
  5
240
100
AcDbEntity
  8
0
370
    35
390
0
 62
     7
100
AcDbCircle
 10
1206.77002
 20
456.516907
 30
0.0
 40
1.75
210
0.0
220
0.0
230
1.0
  0
CIRCLE
  5
241
100
AcDbEntity
  8
0
370
    35
390
0
 62
     7
100
AcDbCircle
 10
1126.635254
 20
493.827118
 30
0.0
 40
1.5
210
0.0
220
0.0
230
1.0
  0
CIRCLE
  5
242
100
AcDbEntity
  8
0
370
    35
390
0
 62
     7
100
AcDbCircle
 10
1194.63501
 20
464.118774
 30
0.0
 40
1.5
210
0.0
220
0.0
230
1.0
  0
CIRCLE
  5
243
100
AcDbEntity
  8
0
370
    35
390
0
 62
     7
100
AcDbCircle
 10
1485.932617
 20
343.083984
 30
0.0
 40
1.5
210
0.0
220
0.0
230
1.0
  0
CIRCLE
  5
244
100
AcDbEntity
  8
0
370
    35
390
0
 62
     7
100
AcDbCircle
 10
1417.932983
 20
398.292297
 30
0.0
 40
1.5
210
0.0
220
0.0
230
1.0
  0
CIRCLE
  5
245
100
AcDbEntity
  8
0
370
    35
390
0
 62
     7
100
AcDbCircle
 10
1498.067627
 20
340.960327
 30
0.0
 40
1.75
210
0.0
220
0.0
230
1.0
  0
CIRCLE
  5
246
100
AcDbEntity
  8
0
370
    35
390
0
 62
     7
100
AcDbCircle
 10
1498.067627
 20
400.960327
 30
0.0
 40
1.75
210
0.0
220
0.0
230
1.0
  0
CIRCLE
  5
247
100
AcDbEntity
  8
0
370
    35
390
0
 62
     7
100
AcDbCircle
 10
1417.932983
 20
438.270508
 30
0.0
 40
1.5
210
0.0
220
0.0
230
1.0
  0
CIRCLE
  5
248
100
AcDbEntity
  8
0
370
    35
390
0
 62
     7
100
AcDbCircle
 10
1485.932617
 20
408.562195
 30
0.0
 40
1.5
210
0.0
220
0.0
230
1.0
  0
CIRCLE
  5
249
100
AcDbEntity
  8
0
370
    35
390
0
 62
     7
100
AcDbCircle
 10
1288.67688
 20
400.66449
 30
0.0
 40
1.5
210
0.0
220
0.0
230
1.0
  0
CIRCLE
  5
24A
100
AcDbEntity
  8
0
370
    35
390
0
 62
     7
100
AcDbCircle
 10
1220.677124
 20
455.872803
 30
0.0
 40
1.5
210
0.0
220
0.0
230
1.0
  0
CIRCLE
  5
24B
100
AcDbEntity
  8
0
370
    35
390
0
 62
     7
100
AcDbCircle
 10
1300.81189
 20
398.540833
 30
0.0
 40
1.75
210
0.0
220
0.0
230
1.0
  0
CIRCLE
  5
24C
100
AcDbEntity
  8
0
370
    35
390
0
 62
     7
100
AcDbCircle
 10
1300.81189
 20
458.540833
 30
0.0
 40
1.75
210
0.0
220
0.0
230
1.0
  0
CIRCLE
  5
24D
100
AcDbEntity
  8
0
370
    35
390
0
 62
     7
100
AcDbCircle
 10
1537.990723
 20
396.117737
 30
0.0
 40
1.5
210
0.0
220
0.0
230
1.0
  0
CIRCLE
  5
24E
100
AcDbEntity
  8
0
370
    35
390
0
 62
     7
100
AcDbCircle
 10
1469.991089
 20
451.32605
 30
0.0
 40
1.5
210
0.0
220
0.0
230
1.0
  0
CIRCLE
  5
24F
100
AcDbEntity
  8
0
370
    35
390
0
 62
     7
100
AcDbCircle
 10
1550.125732
 20
393.99408
 30
0.0
 40
1.75
210
0.0
220
0.0
230
1.0
  0
CIRCLE
  5
250
100
AcDbEntity
  8
0
370
    35
390
0
 62
     7
100
AcDbCircle
 10
1550.125732
 20
453.99408
 30
0.0
 40
1.75
210
0.0
220
0.0
230
1.0
  0
CIRCLE
  5
251
100
AcDbEntity
  8
0
370
    35
390
0
 62
     7
100
AcDbCircle
 10
1469.991089
 20
491.30426
 30
0.0
 40
1.5
210
0.0
220
0.0
230
1.0
  0
CIRCLE
  5
252
100
AcDbEntity
  8
0
370
    35
390
0
 62
     7
100
AcDbCircle
 10
1387.47522
 20
400.074982
 30
0.0
 40
1.5
210
0.0
220
0.0
230
1.0
  0
CIRCLE
  5
253
100
AcDbEntity
  8
0
370
    35
390
0
 62
     7
100
AcDbCircle
 10
1319.475586
 20
454.584961
 30
0.0
 40
1.5
210
0.0
220
0.0
230
1.0
  0
CIRCLE
  5
254
100
AcDbEntity
  8
0
370
    35
390
0
 62
     7
100
AcDbCircle
 10
1399.610229
 20
398.05545
 30
0.0
 40
1.75
210
0.0
220
0.0
230
1.0
  0
CIRCLE
  5
255
100
AcDbEntity
  8
0
370
    35
390
0
 62
     7
100
AcDbCircle
 10
1399.610229
 20
458.05542
 30
0.0
 40
1.75
210
0.0
220
0.0
230
1.0
  0
CIRCLE
  5
256
100
AcDbEntity
  8
0
370
    35
390
0
 62
     7
100
AcDbCircle
 10
1632.40625
 20
398.062073
 30
0.0
 40
1.5
210
0.0
220
0.0
230
1.0
  0
CIRCLE
  5
257
100
AcDbEntity
  8
0
370
    35
390
0
 62
     7
100
AcDbCircle
 10
1564.406616
 20
458.446564
 30
0.0
 40
1.5
210
0.0
220
0.0
230
1.0
  0
CIRCLE
  5
258
100
AcDbEntity
  8
0
370
    35
390
0
 62
     7
100
AcDbCircle
 10
1644.54126
 20
395.159119
 30
0.0
 40
1.75
210
0.0
220
0.0
230
1.0
  0
CIRCLE
  5
259
100
AcDbEntity
  8
0
370
    35
390
0
 62
     7
100
AcDbCircle
 10
1644.54126
 20
455.159119
 30
0.0
 40
1.75
210
0.0
220
0.0
230
1.0
  0
CIRCLE
  5
25A
100
AcDbEntity
  8
0
370
    35
390
0
 62
     7
100
AcDbCircle
 10
1564.406616
 20
498.55896
 30
0.0
 40
1.5
210
0.0
220
0.0
230
1.0
  0
CIRCLE
  5
25B
100
AcDbEntity
  8
0
370
    35
390
0
 62
     7
100
AcDbCircle
 10
1220.677124
 20
495.851013
 30
0.0
 40
1.5
210
0.0
220
0.0
230
1.0
  0
CIRCLE
  5
25C
100
AcDbEntity
  8
0
370
    35
390
0
 62
     7
100
AcDbCircle
 10
1288.67688
 20
466.1427
 30
0.0
 40
1.5
210
0.0
220
0.0
230
1.0
  0
CIRCLE
  5
25D
100
AcDbEntity
  8
0
370
    35
390
0
 62
     7
100
AcDbCircle
 10
1537.990723
 20
461.595947
 30
0.0
 40
1.5
210
0.0
220
0.0
230
1.0
  0
CIRCLE
  5
25E
100
AcDbEntity
  8
0
370
    35
390
0
 62
     7
100
AcDbCircle
 10
1319.475586
 20
494.544098
 30
0.0
 40
1.5
210
0.0
220
0.0
230
1.0
  0
CIRCLE
  5
25F
100
AcDbEntity
  8
0
370
    35
390
0
 62
     7
100
AcDbCircle
 10
1387.47522
 20
464.835754
 30
0.0
 40
1.5
210
0.0
220
0.0
230
1.0
  0
CIRCLE
  5
260
100
AcDbEntity
  8
0
370
    35
390
0
 62
     7
100
AcDbCircle
 10
1632.40625
 20
468.850647
 30
0.0
 40
2.103242
210
0.0
220
0.0
230
1.0
  0
CIRCLE
  5
261
100
AcDbEntity
  8
0
370
    35
390
0
 62
     7
100
AcDbCircle
 10
1030.179077
 20
212.798645
 30
0.0
 40
1.5
210
0.0
220
0.0
230
1.0
  0
CIRCLE
  5
262
100
AcDbEntity
  8
0
370
    35
390
0
 62
     7
100
AcDbCircle
 10
1030.179077
 20
172.820435
 30
0.0
 40
1.5
210
0.0
220
0.0
230
1.0
  0
CIRCLE
  5
263
100
AcDbEntity
  8
0
370
    35
390
0
 62
     7
100
AcDbCircle
 10
1098.178833
 20
117.612122
 30
0.0
 40
1.5
210
0.0
220
0.0
230
1.0
  0
CIRCLE
  5
264
100
AcDbEntity
  8
0
370
    35
390
0
 62
     7
100
AcDbCircle
 10
1098.178833
 20
183.090332
 30
0.0
 40
1.5
210
0.0
220
0.0
230
1.0
  0
CIRCLE
  5
265
100
AcDbEntity
  8
0
370
    35
390
0
 62
     7
100
AcDbCircle
 10
1029.026367
 20
266.169189
 30
0.0
 40
1.5
210
0.0
220
0.0
230
1.0
  0
CIRCLE
  5
266
100
AcDbEntity
  8
0
370
    35
390
0
 62
     7
100
AcDbCircle
 10
1097.026001
 20
210.960892
 30
0.0
 40
1.5
210
0.0
220
0.0
230
1.0
  0
CIRCLE
  5
267
100
AcDbEntity
  8
0
370
    35
390
0
 62
     7
100
AcDbCircle
 10
1029.026367
 20
306.14743
 30
0.0
 40
1.5
210
0.0
220
0.0
230
1.0
  0
CIRCLE
  5
268
100
AcDbEntity
  8
0
370
    35
390
0
 62
     7
100
AcDbCircle
 10
1097.026001
 20
276.439087
 30
0.0
 40
1.5
210
0.0
220
0.0
230
1.0
  0
CIRCLE
  5
269
100
AcDbEntity
  8
0
370
    35
390
0
 62
     7
100
AcDbCircle
 10
1117.187012
 20
236.60054
 30
0.0
 40
1.5
210
0.0
220
0.0
230
1.0
  0
CIRCLE
  5
26A
100
AcDbEntity
  8
0
370
    35
390
0
 62
     7
100
AcDbCircle
 10
1185.186768
 20
181.392227
 30
0.0
 40
1.5
210
0.0
220
0.0
230
1.0
  0
CIRCLE
  5
26B
100
AcDbEntity
  8
0
370
    35
390
0
 62
     7
100
AcDbCircle
 10
1117.187012
 20
276.578766
 30
0.0
 40
1.5
210
0.0
220
0.0
230
1.0
  0
CIRCLE
  5
26C
100
AcDbEntity
  8
0
370
    35
390
0
 62
     7
100
AcDbCircle
 10
1185.186768
 20
246.870438
 30
0.0
 40
1.5
210
0.0
220
0.0
230
1.0
  0
CIRCLE
  5
26D
100
AcDbEntity
  8
0
370
    35
390
0
 62
     7
100
AcDbCircle
 10
1119.622803
 20
136.557312
 30
0.0
 40
1.5
210
0.0
220
0.0
230
1.0
  0
CIRCLE
  5
26E
100
AcDbEntity
  8
0
370
    35
390
0
 62
     7
100
AcDbCircle
 10
1187.622437
 20
81.348999
 30
0.0
 40
1.5
210
0.0
220
0.0
230
1.0
  0
CIRCLE
  5
26F
100
AcDbEntity
  8
0
370
    35
390
0
 62
     7
100
AcDbCircle
 10
1119.622803
 20
176.535538
 30
0.0
 40
1.5
210
0.0
220
0.0
230
1.0
  0
CIRCLE
  5
270
100
AcDbEntity
  8
0
370
    35
390
0
 62
     7
100
AcDbCircle
 10
1187.622437
 20
146.827209
 30
0.0
 40
1.5
210
0.0
220
0.0
230
1.0
  0
CIRCLE
  5
271
100
AcDbEntity
  8
0
370
    35
390
0
 62
     7
100
AcDbCircle
 10
1640.37854
 20
65.605209
 30
0.0
 40
1.75
210
0.0
220
0.0
230
1.0
  0
CIRCLE
  5
272
100
AcDbEntity
  8
0
370
    35
390
0
 62
     7
100
AcDbCircle
 10
1580.37854
 20
66.204803
 30
0.0
 40
1.75
210
0.0
220
0.0
230
1.0
  0
CIRCLE
  5
273
100
AcDbEntity
  8
0
370
    35
390
0
 62
     7
100
AcDbCircle
 10
1205.37854
 20
65.605209
 30
0.0
 40
1.75
210
0.0
220
0.0
230
1.0
  0
CIRCLE
  5
274
100
AcDbEntity
  8
0
370
    35
390
0
 62
     7
100
AcDbCircle
 10
1330.37854
 20
65.605209
 30
0.0
 40
1.75
210
0.0
220
0.0
230
1.0
  0
CIRCLE
  5
275
100
AcDbEntity
  8
0
370
    35
390
0
 62
     7
100
AcDbCircle
 10
1640.37854
 20
120.222504
 30
0.0
 40
1.75
210
0.0
220
0.0
230
1.0
  0
CIRCLE
  5
276
100
AcDbEntity
  8
0
370
    35
390
0
 62
     7
100
AcDbCircle
 10
1580.37854
 20
120.222504
 30
0.0
 40
1.75
210
0.0
220
0.0
230
1.0
  0
CIRCLE
  5
277
100
AcDbEntity
  8
0
370
    35
390
0
 62
     7
100
AcDbCircle
 10
1205.37854
 20
120.222504
 30
0.0
 40
1.75
210
0.0
220
0.0
230
1.0
  0
CIRCLE
  5
278
100
AcDbEntity
  8
0
370
    35
390
0
 62
     7
100
AcDbCircle
 10
1330.37854
 20
120.222504
 30
0.0
 40
1.75
210
0.0
220
0.0
230
1.0
  0
CIRCLE
  5
279
100
AcDbEntity
  8
0
370
    35
390
0
 62
     7
100
AcDbCircle
 10
1205.37854
 20
130.222504
 30
0.0
 40
1.75
210
0.0
220
0.0
230
1.0
  0
CIRCLE
  5
27A
100
AcDbEntity
  8
0
370
    35
390
0
 62
     7
100
AcDbCircle
 10
1330.37854
 20
130.222504
 30
0.0
 40
1.75
210
0.0
220
0.0
230
1.0
  0
CIRCLE
  5
27B
100
AcDbEntity
  8
0
370
    35
390
0
 62
     7
100
AcDbCircle
 10
1580.37854
 20
130.222504
 30
0.0
 40
1.75
210
0.0
220
0.0
230
1.0
  0
CIRCLE
  5
27C
100
AcDbEntity
  8
0
370
    35
390
0
 62
     7
100
AcDbCircle
 10
1640.37854
 20
130.222504
 30
0.0
 40
1.75
210
0.0
220
0.0
230
1.0
  0
CIRCLE
  5
27D
100
AcDbEntity
  8
0
370
    35
390
0
 62
     7
100
AcDbCircle
 10
1205.37854
 20
184.839508
 30
0.0
 40
1.75
210
0.0
220
0.0
230
1.0
  0
CIRCLE
  5
27E
100
AcDbEntity
  8
0
370
    35
390
0
 62
     7
100
AcDbCircle
 10
1205.37854
 20
194.839508
 30
0.0
 40
1.75
210
0.0
220
0.0
230
1.0
  0
CIRCLE
  5
27F
100
AcDbEntity
  8
0
370
    35
390
0
 62
     7
100
AcDbCircle
 10
1330.37854
 20
184.839508
 30
0.0
 40
1.75
210
0.0
220
0.0
230
1.0
  0
CIRCLE
  5
280
100
AcDbEntity
  8
0
370
    35
390
0
 62
     7
100
AcDbCircle
 10
1330.37854
 20
194.839508
 30
0.0
 40
1.75
210
0.0
220
0.0
230
1.0
  0
CIRCLE
  5
281
100
AcDbEntity
  8
0
370
    35
390
0
 62
     7
100
AcDbCircle
 10
1640.37854
 20
184.839508
 30
0.0
 40
1.75
210
0.0
220
0.0
230
1.0
  0
CIRCLE
  5
282
100
AcDbEntity
  8
0
370
    35
390
0
 62
     7
100
AcDbCircle
 10
1580.37854
 20
184.839508
 30
0.0
 40
1.75
210
0.0
220
0.0
230
1.0
  0
CIRCLE
  5
283
100
AcDbEntity
  8
0
370
    35
390
0
 62
     7
100
AcDbCircle
 10
1580.37854
 20
194.839508
 30
0.0
 40
1.75
210
0.0
220
0.0
230
1.0
  0
CIRCLE
  5
284
100
AcDbEntity
  8
0
370
    35
390
0
 62
     7
100
AcDbCircle
 10
1640.37854
 20
194.839508
 30
0.0
 40
1.75
210
0.0
220
0.0
230
1.0
  0
CIRCLE
  5
285
100
AcDbEntity
  8
0
370
    35
390
0
 62
     7
100
AcDbCircle
 10
1205.37854
 20
249.456512
 30
0.0
 40
1.75
210
0.0
220
0.0
230
1.0
  0
CIRCLE
  5
286
100
AcDbEntity
  8
0
370
    35
390
0
 62
     7
100
AcDbCircle
 10
1205.37854
 20
259.456512
 30
0.0
 40
1.75
210
0.0
220
0.0
230
1.0
  0
CIRCLE
  5
287
100
AcDbEntity
  8
0
370
    35
390
0
 62
     7
100
AcDbCircle
 10
1330.37854
 20
249.456512
 30
0.0
 40
1.75
210
0.0
220
0.0
230
1.0
  0
CIRCLE
  5
288
100
AcDbEntity
  8
0
370
    35
390
0
 62
     7
100
AcDbCircle
 10
1330.37854
 20
259.456512
 30
0.0
 40
1.75
210
0.0
220
0.0
230
1.0
  0
CIRCLE
  5
289
100
AcDbEntity
  8
0
370
    35
390
0
 62
     7
100
AcDbCircle
 10
1580.37854
 20
249.456512
 30
0.0
 40
1.75
210
0.0
220
0.0
230
1.0
  0
CIRCLE
  5
28A
100
AcDbEntity
  8
0
370
    35
390
0
 62
     7
100
AcDbCircle
 10
1640.37854
 20
249.456512
 30
0.0
 40
1.75
210
0.0
220
0.0
230
1.0
  0
CIRCLE
  5
28B
100
AcDbEntity
  8
0
370
    35
390
0
 62
     7
100
AcDbCircle
 10
1580.37854
 20
259.456512
 30
0.0
 40
1.75
210
0.0
220
0.0
230
1.0
  0
CIRCLE
  5
28C
100
AcDbEntity
  8
0
370
    35
390
0
 62
     7
100
AcDbCircle
 10
1640.37854
 20
259.456512
 30
0.0
 40
1.75
210
0.0
220
0.0
230
1.0
  0
CIRCLE
  5
28D
100
AcDbEntity
  8
0
370
    35
390
0
 62
     7
100
AcDbCircle
 10
1640.37854
 20
314.073517
 30
0.0
 40
1.75
210
0.0
220
0.0
230
1.0
  0
CIRCLE
  5
28E
100
AcDbEntity
  8
0
370
    35
390
0
 62
     7
100
AcDbCircle
 10
1580.37854
 20
314.073517
 30
0.0
 40
1.75
210
0.0
220
0.0
230
1.0
  0
CIRCLE
  5
28F
100
AcDbEntity
  8
0
370
    35
390
0
 62
     7
100
AcDbCircle
 10
1205.37854
 20
314.073517
 30
0.0
 40
1.75
210
0.0
220
0.0
230
1.0
  0
CIRCLE
  5
290
100
AcDbEntity
  8
0
370
    35
390
0
 62
     7
100
AcDbCircle
 10
1330.37854
 20
314.073517
 30
0.0
 40
1.75
210
0.0
220
0.0
230
1.0
  0
ENDSEC
  0
SECTION
  2
OBJECTS
  0
DICTIONARY
  5
19
100
AcDbDictionary
280
     0
281
     1
  3
ACAD_GROUP
350
1A
  3
ACAD_MLINESTYLE
350
1B
  3
ACAD_LAYOUT
350
1E
  3
ACAD_PLOTSETTINGS
350
22
  3
ACAD_PLOTSTYLENAME
350
1F
  3
ACAD_WIPEOUT_VARS
350
23
  0
DICTIONARY
  5
1A
102
{ACAD_REACTORS
330
19
102
}
100
AcDbDictionary
280
     0
281
     1
  0
DICTIONARY
  5
1B
102
{ACAD_REACTORS
330
19
102
}
100
AcDbDictionary
280
     0
281
     1
  3
Standard
350
1C
  0
MLINESTYLE
  5
1C
102
{ACAD_REACTORS
330
1B
102
}
100
AcDbMlineStyle
  2
Standard
 70
     0
  3

 62
     0
 51
90.0
 52
90.0
 71
     2
 49
0.5
 62
   256
  6
ByLayer
 49
-0.5
 62
   256
  6
ByLayer
  0
ACDBDICTIONARYWDFLT
  5
1F
102
{ACAD_REACTORS
330
19
102
}
100
AcDbDictionary
281
     1
  3
Normal
350
1D
100
AcDbDictionaryWithDefault
340
1D
  0
ACDBPLACEHOLDER
  5
1D
102
{ACAD_REACTORS
330
1F
102
}
  0
LAYOUT
  5
20
102
{ACAD_REACTORS
330
1E
102
}
100
AcDbPlotSettings
  1

  2

  4

  6

 40
0.0
 41
0.0
 42
0.0
 43
0.0
 44
0.0
 45
0.0
 46
0.0
 47
0.0
 48
0.0
 49
0.0
140
0.0
141
0.0
142
1.0
143
1.0
 70
  1024
 72
     0
 73
     0
 74
     0
  7

 75
     0
147
1.0
148
0.0
149
0.0
100
AcDbLayout
  1
Model
 70
     0
 71
     0
 10
0.0
 20
0.0
 11
0.0
 21
0.0
 12
0.0
 22
0.0
 32
0.0
 14
0.0
 24
0.0
 34
0.0
 15
0.0
 25
0.0
 35
0.0
146
0.0
 13
0.0
 23
0.0
 33
0.0
 16
0.0
 26
0.0
 36
0.0
 17
0.0
 27
0.0
 37
0.0
 76
     0
330
A
331
0
345
0
346
0
  0
LAYOUT
  5
21
102
{ACAD_REACTORS
330
1E
102
}
100
AcDbPlotSettings
  1

  2

  4

  6

 40
0.0
 41
0.0
 42
0.0
 43
0.0
 44
0.0
 45
0.0
 46
0.0
 47
0.0
 48
0.0
 49
0.0
140
0.0
141
0.0
142
1.0
143
1.0
 70
     0
 72
     0
 73
     0
 74
     0
  7

 75
     0
147
1.0
148
0.0
149
0.0
100
AcDbLayout
  1
Layout1
 70
     0
 71
     0
 10
0.0
 20
0.0
 11
0.0
 21
0.0
 12
0.0
 22
0.0
 32
0.0
 14
0.0
 24
0.0
 34
0.0
 15
0.0
 25
0.0
 35
0.0
146
0.0
 13
0.0
 23
0.0
 33
0.0
 16
0.0
 26
0.0
 36
0.0
 17
0.0
 27
0.0
 37
0.0
 76
     0
330
B
331
0
345
0
346
0
  0
DICTIONARY
  5
1E
102
{ACAD_REACTORS
330
19
102
}
100
AcDbDictionary
280
     0
281
     1
  3
Layout1
350
21
  3
Model
350
20
  0
DICTIONARY
  5
22
102
{ACAD_REACTORS
330
19
102
}
100
AcDbDictionary
280
     0
281
     1
  0
WIPEOUTVARIABLES
  5
23
100
AcDbWipeoutVariables
 70
     1
  0
ENDSEC
  0
EOF
